<?xml version="1.0" encoding="utf-8" standalone="no"?>
<!DOCTYPE svg PUBLIC "-//W3C//DTD SVG 1.1//EN"
  "http://www.w3.org/Graphics/SVG/1.1/DTD/svg11.dtd">
<svg xmlns:xlink="http://www.w3.org/1999/xlink" width="1071.620937pt" height="711.264062pt" viewBox="0 0 1071.620937 711.264062" xmlns="http://www.w3.org/2000/svg" version="1.1">
 <metadata>
  <rdf:RDF xmlns:dc="http://purl.org/dc/elements/1.1/" xmlns:cc="http://creativecommons.org/ns#" xmlns:rdf="http://www.w3.org/1999/02/22-rdf-syntax-ns#">
   <cc:Work>
    <dc:type rdf:resource="http://purl.org/dc/dcmitype/StillImage"/>
    <dc:date>2025-08-09T18:15:11.655018</dc:date>
    <dc:format>image/svg+xml</dc:format>
    <dc:creator>
     <cc:Agent>
      <dc:title>Matplotlib v3.10.5, https://matplotlib.org/</dc:title>
     </cc:Agent>
    </dc:creator>
   </cc:Work>
  </rdf:RDF>
 </metadata>
 <defs>
  <style type="text/css">*{stroke-linejoin: round; stroke-linecap: butt}</style>
 </defs>
 <g id="figure_1">
  <g id="patch_1">
   <path d="M 0 711.264062 
L 1071.620937 711.264062 
L 1071.620937 0 
L 0 0 
z
" style="fill: #ffffff"/>
  </g>
  <g id="axes_1">
   <g id="patch_2">
    <path d="M 46.754688 321.019375 
L 1025.295937 321.019375 
L 1025.295937 22.85625 
L 46.754688 22.85625 
z
" style="fill: #ffffff"/>
   </g>
   <g id="matplotlib.axis_1">
    <g id="xtick_1">
     <g id="line2d_1">
      <path d="M 91.233835 321.019375 
L 91.233835 22.85625 
" clip-path="url(#p596904a2c7)" style="fill: none; stroke: #b0b0b0; stroke-opacity: 0.3; stroke-width: 0.8; stroke-linecap: square"/>
     </g>
     <g id="line2d_2">
      <defs>
       <path id="m3f52104f50" d="M 0 0 
L 0 3.5 
" style="stroke: #000000; stroke-width: 0.8"/>
      </defs>
      <g>
       <use xlink:href="#m3f52104f50" x="91.233835" y="321.019375" style="stroke: #000000; stroke-width: 0.8"/>
      </g>
     </g>
     <g id="text_1">
      <!-- 0 -->
      <g transform="translate(88.733835 334.894375) scale(0.1 -0.1)">
       <defs>
        <path id="SimHei-30" d="M 225 2537 
Q 250 3200 412 3587 
Q 575 3975 875 4225 
Q 1175 4475 1612 4475 
Q 2050 4475 2375 4112 
Q 2700 3750 2800 3200 
Q 2900 2650 2862 1937 
Q 2825 1225 2612 775 
Q 2400 325 1975 150 
Q 1550 -25 1125 187 
Q 700 400 525 750 
Q 350 1100 275 1487 
Q 200 1875 225 2537 
z
M 750 2687 
Q 675 2000 800 1462 
Q 925 925 1212 700 
Q 1500 475 1800 612 
Q 2100 750 2237 1162 
Q 2375 1575 2375 2062 
Q 2375 2550 2337 2950 
Q 2300 3350 2112 3675 
Q 1925 4000 1612 4012 
Q 1300 4025 1062 3700 
Q 825 3375 750 2687 
z
" transform="scale(0.015625)"/>
       </defs>
       <use xlink:href="#SimHei-30"/>
      </g>
     </g>
    </g>
    <g id="xtick_2">
     <g id="line2d_3">
      <path d="M 218.317114 321.019375 
L 218.317114 22.85625 
" clip-path="url(#p596904a2c7)" style="fill: none; stroke: #b0b0b0; stroke-opacity: 0.3; stroke-width: 0.8; stroke-linecap: square"/>
     </g>
     <g id="line2d_4">
      <g>
       <use xlink:href="#m3f52104f50" x="218.317114" y="321.019375" style="stroke: #000000; stroke-width: 0.8"/>
      </g>
     </g>
     <g id="text_2">
      <!-- 2 -->
      <g transform="translate(215.817114 334.894375) scale(0.1 -0.1)">
       <defs>
        <path id="SimHei-32" d="M 300 250 
Q 325 625 650 925 
Q 975 1225 1475 1862 
Q 1975 2500 2125 2850 
Q 2275 3200 2237 3450 
Q 2200 3700 2000 3862 
Q 1800 4025 1537 4000 
Q 1275 3975 1037 3800 
Q 800 3625 675 3275 
L 200 3350 
Q 400 3925 712 4187 
Q 1025 4450 1450 4475 
Q 1700 4500 1900 4462 
Q 2100 4425 2312 4287 
Q 2525 4150 2662 3875 
Q 2800 3600 2762 3212 
Q 2725 2825 2375 2287 
Q 2025 1750 1025 600 
L 2825 600 
L 2825 150 
L 300 150 
L 300 250 
z
" transform="scale(0.015625)"/>
       </defs>
       <use xlink:href="#SimHei-32"/>
      </g>
     </g>
    </g>
    <g id="xtick_3">
     <g id="line2d_5">
      <path d="M 345.400394 321.019375 
L 345.400394 22.85625 
" clip-path="url(#p596904a2c7)" style="fill: none; stroke: #b0b0b0; stroke-opacity: 0.3; stroke-width: 0.8; stroke-linecap: square"/>
     </g>
     <g id="line2d_6">
      <g>
       <use xlink:href="#m3f52104f50" x="345.400394" y="321.019375" style="stroke: #000000; stroke-width: 0.8"/>
      </g>
     </g>
     <g id="text_3">
      <!-- 4 -->
      <g transform="translate(342.900394 334.894375) scale(0.1 -0.1)">
       <defs>
        <path id="SimHei-34" d="M 2000 1100 
L 75 1100 
L 75 1525 
L 2100 4450 
L 2475 4450 
L 2475 1525 
L 3075 1525 
L 3075 1100 
L 2475 1100 
L 2475 150 
L 2000 150 
L 2000 1100 
z
M 2000 1525 
L 2000 3500 
L 600 1525 
L 2000 1525 
z
" transform="scale(0.015625)"/>
       </defs>
       <use xlink:href="#SimHei-34"/>
      </g>
     </g>
    </g>
    <g id="xtick_4">
     <g id="line2d_7">
      <path d="M 472.483673 321.019375 
L 472.483673 22.85625 
" clip-path="url(#p596904a2c7)" style="fill: none; stroke: #b0b0b0; stroke-opacity: 0.3; stroke-width: 0.8; stroke-linecap: square"/>
     </g>
     <g id="line2d_8">
      <g>
       <use xlink:href="#m3f52104f50" x="472.483673" y="321.019375" style="stroke: #000000; stroke-width: 0.8"/>
      </g>
     </g>
     <g id="text_4">
      <!-- 6 -->
      <g transform="translate(469.983673 334.894375) scale(0.1 -0.1)">
       <defs>
        <path id="SimHei-36" d="M 250 1612 
Q 275 1975 387 2225 
Q 500 2475 725 2850 
L 1750 4450 
L 2325 4450 
L 1275 2800 
Q 1950 2975 2350 2750 
Q 2750 2525 2887 2237 
Q 3025 1950 3037 1612 
Q 3050 1275 2937 950 
Q 2825 625 2537 362 
Q 2250 100 1737 75 
Q 1225 50 862 262 
Q 500 475 362 862 
Q 225 1250 250 1612 
z
M 1025 787 
Q 1250 550 1625 525 
Q 2000 500 2250 775 
Q 2500 1050 2500 1575 
Q 2500 2100 2187 2300 
Q 1875 2500 1487 2450 
Q 1100 2400 925 2075 
Q 750 1750 775 1387 
Q 800 1025 1025 787 
z
" transform="scale(0.015625)"/>
       </defs>
       <use xlink:href="#SimHei-36"/>
      </g>
     </g>
    </g>
    <g id="xtick_5">
     <g id="line2d_9">
      <path d="M 599.566952 321.019375 
L 599.566952 22.85625 
" clip-path="url(#p596904a2c7)" style="fill: none; stroke: #b0b0b0; stroke-opacity: 0.3; stroke-width: 0.8; stroke-linecap: square"/>
     </g>
     <g id="line2d_10">
      <g>
       <use xlink:href="#m3f52104f50" x="599.566952" y="321.019375" style="stroke: #000000; stroke-width: 0.8"/>
      </g>
     </g>
     <g id="text_5">
      <!-- 8 -->
      <g transform="translate(597.066952 334.894375) scale(0.1 -0.1)">
       <defs>
        <path id="SimHei-38" d="M 175 1375 
Q 175 1675 325 1962 
Q 475 2250 825 2425 
Q 525 2600 425 2812 
Q 325 3025 312 3300 
Q 300 3575 387 3775 
Q 475 3975 650 4150 
Q 825 4325 1037 4387 
Q 1250 4450 1500 4450 
Q 1750 4450 1950 4400 
Q 2150 4350 2375 4187 
Q 2600 4025 2700 3725 
Q 2800 3425 2687 3025 
Q 2575 2625 2100 2400 
Q 2525 2275 2700 2012 
Q 2875 1750 2875 1375 
Q 2875 1000 2762 775 
Q 2650 550 2512 400 
Q 2375 250 2137 162 
Q 1900 75 1537 75 
Q 1175 75 912 162 
Q 650 250 475 425 
Q 300 600 237 837 
Q 175 1075 175 1375 
z
M 687 1400 
Q 675 1100 787 875 
Q 900 650 1200 587 
Q 1500 525 1825 600 
Q 2150 675 2275 950 
Q 2400 1225 2362 1500 
Q 2325 1775 2050 1962 
Q 1775 2150 1450 2125 
Q 1125 2100 912 1900 
Q 700 1700 687 1400 
z
M 775 3350 
Q 775 3100 950 2875 
Q 1125 2650 1500 2650 
Q 1875 2650 2062 2875 
Q 2250 3100 2237 3412 
Q 2225 3725 2012 3875 
Q 1800 4025 1437 4000 
Q 1075 3975 925 3787 
Q 775 3600 775 3350 
z
" transform="scale(0.015625)"/>
       </defs>
       <use xlink:href="#SimHei-38"/>
      </g>
     </g>
    </g>
    <g id="xtick_6">
     <g id="line2d_11">
      <path d="M 726.650231 321.019375 
L 726.650231 22.85625 
" clip-path="url(#p596904a2c7)" style="fill: none; stroke: #b0b0b0; stroke-opacity: 0.3; stroke-width: 0.8; stroke-linecap: square"/>
     </g>
     <g id="line2d_12">
      <g>
       <use xlink:href="#m3f52104f50" x="726.650231" y="321.019375" style="stroke: #000000; stroke-width: 0.8"/>
      </g>
     </g>
     <g id="text_6">
      <!-- 10 -->
      <g transform="translate(721.650231 334.894375) scale(0.1 -0.1)">
       <defs>
        <path id="SimHei-31" d="M 1400 3600 
Q 1075 3275 575 2975 
L 575 3450 
Q 1200 3875 1600 4450 
L 1900 4450 
L 1900 150 
L 1400 150 
L 1400 3600 
z
" transform="scale(0.015625)"/>
       </defs>
       <use xlink:href="#SimHei-31"/>
       <use xlink:href="#SimHei-30" transform="translate(50 0)"/>
      </g>
     </g>
    </g>
    <g id="xtick_7">
     <g id="line2d_13">
      <path d="M 853.733511 321.019375 
L 853.733511 22.85625 
" clip-path="url(#p596904a2c7)" style="fill: none; stroke: #b0b0b0; stroke-opacity: 0.3; stroke-width: 0.8; stroke-linecap: square"/>
     </g>
     <g id="line2d_14">
      <g>
       <use xlink:href="#m3f52104f50" x="853.733511" y="321.019375" style="stroke: #000000; stroke-width: 0.8"/>
      </g>
     </g>
     <g id="text_7">
      <!-- 12 -->
      <g transform="translate(848.733511 334.894375) scale(0.1 -0.1)">
       <use xlink:href="#SimHei-31"/>
       <use xlink:href="#SimHei-32" transform="translate(50 0)"/>
      </g>
     </g>
    </g>
    <g id="xtick_8">
     <g id="line2d_15">
      <path d="M 980.81679 321.019375 
L 980.81679 22.85625 
" clip-path="url(#p596904a2c7)" style="fill: none; stroke: #b0b0b0; stroke-opacity: 0.3; stroke-width: 0.8; stroke-linecap: square"/>
     </g>
     <g id="line2d_16">
      <g>
       <use xlink:href="#m3f52104f50" x="980.81679" y="321.019375" style="stroke: #000000; stroke-width: 0.8"/>
      </g>
     </g>
     <g id="text_8">
      <!-- 14 -->
      <g transform="translate(975.81679 334.894375) scale(0.1 -0.1)">
       <use xlink:href="#SimHei-31"/>
       <use xlink:href="#SimHei-34" transform="translate(50 0)"/>
      </g>
     </g>
    </g>
    <g id="text_9">
     <!-- 时间点索引 -->
     <g transform="translate(511.025312 348.152187) scale(0.1 -0.1)">
      <defs>
       <path id="SimHei-65f6" d="M 2525 4575 
Q 2500 3675 2500 2400 
Q 2500 1125 2525 400 
L 2000 400 
L 2000 875 
L 1000 875 
L 1000 50 
L 475 50 
Q 500 1200 500 2350 
Q 500 3525 475 4575 
L 2525 4575 
z
M 4875 3825 
Q 4875 4575 4850 5225 
L 5400 5225 
Q 5375 4575 5375 3825 
Q 5750 3825 6175 3850 
L 6175 3375 
Q 5750 3400 5375 3400 
L 5375 50 
Q 5375 -325 5075 -425 
Q 4775 -525 4300 -575 
Q 4300 -275 4025 0 
Q 4500 -50 4687 -25 
Q 4875 0 4875 300 
L 4875 3400 
Q 3625 3400 2775 3375 
L 2775 3850 
Q 3575 3825 4875 3825 
z
M 2000 1300 
L 2000 2550 
L 1000 2550 
L 1000 1300 
L 2000 1300 
z
M 2000 2975 
L 2000 4150 
L 1000 4150 
L 1000 2975 
L 2000 2975 
z
M 3550 2725 
Q 3875 2200 4175 1600 
Q 3925 1525 3650 1375 
Q 3450 1975 3075 2500 
Q 3300 2600 3550 2725 
z
" transform="scale(0.015625)"/>
       <path id="SimHei-95f4" d="M 4450 3550 
Q 4425 3075 4425 2725 
L 4425 1400 
Q 4425 1075 4450 625 
L 1925 625 
Q 1950 1075 1950 1425 
L 1950 2725 
Q 1950 3075 1925 3550 
L 4450 3550 
z
M 5800 4875 
Q 5775 4400 5775 3925 
L 5775 250 
Q 5800 -325 5462 -450 
Q 5125 -575 4725 -625 
Q 4700 -325 4525 -25 
Q 5000 -50 5137 25 
Q 5275 100 5275 350 
L 5275 4450 
L 3775 4450 
Q 3175 4450 2650 4425 
L 2650 4900 
Q 3175 4875 3775 4875 
L 5800 4875 
z
M 550 -525 
Q 600 -25 600 525 
L 600 3150 
Q 600 3675 550 4025 
L 1125 4025 
Q 1100 3650 1100 3300 
L 1100 500 
Q 1100 0 1125 -525 
L 550 -525 
z
M 3950 1025 
L 3950 1950 
L 2425 1950 
L 2425 1025 
L 3950 1025 
z
M 3950 2350 
L 3950 3150 
L 2425 3150 
L 2425 2350 
L 3950 2350 
z
M 1525 5300 
Q 1750 5000 2225 4350 
Q 1950 4225 1700 4075 
Q 1450 4575 1075 5025 
Q 1350 5225 1525 5300 
z
" transform="scale(0.015625)"/>
       <path id="SimHei-70b9" d="M 3325 5200 
Q 3300 4925 3300 4375 
L 4900 4375 
Q 5275 4375 5725 4400 
L 5725 3925 
Q 5300 3950 4900 3950 
L 3300 3950 
L 3300 3225 
L 5225 3225 
Q 5200 2700 5200 2150 
Q 5200 1625 5225 1175 
L 1175 1175 
Q 1200 1625 1200 2175 
Q 1200 2725 1175 3225 
L 2775 3225 
L 2775 4500 
Q 2775 4900 2750 5200 
L 3325 5200 
z
M 4700 1600 
L 4700 2800 
L 1725 2800 
L 1725 1600 
L 4700 1600 
z
M 1500 750 
Q 1025 -250 825 -625 
Q 625 -475 325 -375 
Q 650 50 950 925 
Q 1200 800 1500 750 
z
M 5325 850 
Q 5775 150 6075 -350 
Q 5925 -425 5575 -625 
Q 5375 -150 4900 575 
Q 5150 700 5325 850 
z
M 3975 -575 
Q 3775 -100 3400 575 
Q 3575 675 3825 825 
Q 4350 -75 4450 -325 
Q 4200 -450 3975 -575 
z
M 2375 -575 
Q 2350 -300 1975 550 
Q 2200 625 2425 775 
Q 2800 -75 2900 -350 
Q 2625 -450 2375 -575 
z
" transform="scale(0.015625)"/>
       <path id="SimHei-7d22" d="M 3275 3000 
Q 3100 2925 2850 2775 
Q 2600 2625 2200 2375 
L 3425 2375 
Q 3825 2575 4175 2900 
Q 4475 2700 4775 2525 
Q 4325 2400 3937 2187 
Q 3550 1975 2300 1375 
Q 3375 1425 4600 1475 
Q 4400 1650 4200 1800 
Q 4475 1925 4575 2075 
Q 5025 1825 5675 1125 
Q 5425 975 5275 800 
Q 5050 1000 4900 1150 
Q 4400 1150 3450 1075 
L 3450 -25 
Q 3450 -400 3212 -475 
Q 2975 -550 2450 -625 
Q 2425 -350 2250 -100 
Q 2600 -100 2775 -75 
Q 2950 -50 2950 125 
L 2950 1025 
Q 2175 1025 1700 962 
Q 1225 900 975 850 
Q 900 1100 825 1300 
Q 1425 1400 1837 1550 
Q 2250 1700 2875 2050 
Q 2300 2050 2012 2025 
Q 1725 2000 1325 1900 
Q 1250 2175 1175 2350 
Q 1525 2375 1925 2612 
Q 2325 2850 2675 3275 
Q 2975 3125 3275 3000 
z
M 2900 4625 
Q 2900 4925 2875 5150 
L 3425 5150 
Q 3400 4850 3400 4625 
L 4775 4625 
Q 5050 4625 5575 4650 
L 5575 4250 
Q 5100 4275 4750 4275 
L 3400 4275 
L 3400 3750 
L 5900 3750 
Q 5875 3550 5875 3250 
Q 5875 2950 5900 2700 
L 5375 2700 
L 5375 3375 
L 975 3375 
L 975 2525 
L 475 2525 
L 475 3750 
L 2900 3750 
L 2900 4275 
L 1750 4275 
Q 1050 4275 825 4250 
L 825 4650 
Q 1150 4625 1725 4625 
L 2900 4625 
z
M 4525 800 
Q 5175 375 5875 -75 
Q 5650 -250 5475 -450 
Q 4800 100 4125 500 
Q 4350 675 4525 800 
z
M 2125 450 
Q 1900 325 1575 75 
Q 1250 -175 775 -475 
Q 650 -275 375 -125 
Q 1100 225 1700 775 
Q 1900 600 2125 450 
z
" transform="scale(0.015625)"/>
       <path id="SimHei-5f15" d="M 3475 4825 
Q 3450 4350 3450 3925 
Q 3450 3500 3475 3050 
L 1400 3050 
L 1350 2075 
L 3525 2075 
Q 3300 150 3225 -100 
Q 3150 -350 2837 -462 
Q 2525 -575 1600 -625 
Q 1575 -350 1400 -25 
Q 2275 -50 2487 0 
Q 2700 50 2775 300 
L 2950 1675 
L 825 1675 
Q 850 2075 875 2487 
Q 900 2900 900 3450 
L 2950 3450 
L 2950 4400 
L 1925 4400 
Q 1350 4400 800 4375 
L 800 4850 
Q 1350 4825 1750 4825 
L 3475 4825 
z
M 5450 5075 
Q 5425 4625 5425 4175 
L 5425 600 
Q 5425 50 5450 -550 
L 4900 -550 
Q 4925 100 4925 600 
L 4925 4200 
Q 4925 4625 4900 5075 
L 5450 5075 
z
" transform="scale(0.015625)"/>
      </defs>
      <use xlink:href="#SimHei-65f6"/>
      <use xlink:href="#SimHei-95f4" transform="translate(100 0)"/>
      <use xlink:href="#SimHei-70b9" transform="translate(200 0)"/>
      <use xlink:href="#SimHei-7d22" transform="translate(300 0)"/>
      <use xlink:href="#SimHei-5f15" transform="translate(400 0)"/>
     </g>
    </g>
   </g>
   <g id="matplotlib.axis_2">
    <g id="ytick_1">
     <g id="line2d_17">
      <path d="M 46.754688 307.466506 
L 1025.295937 307.466506 
" clip-path="url(#p596904a2c7)" style="fill: none; stroke: #b0b0b0; stroke-opacity: 0.3; stroke-width: 0.8; stroke-linecap: square"/>
     </g>
     <g id="line2d_18">
      <defs>
       <path id="m20325a3311" d="M 0 0 
L -3.5 0 
" style="stroke: #000000; stroke-width: 0.8"/>
      </defs>
      <g>
       <use xlink:href="#m20325a3311" x="46.754688" y="307.466506" style="stroke: #000000; stroke-width: 0.8"/>
      </g>
     </g>
     <g id="text_10">
      <!-- 0.0 -->
      <g transform="translate(24.754688 310.904006) scale(0.1 -0.1)">
       <defs>
        <path id="SimHei-2e" d="M 1075 125 
L 500 125 
L 500 675 
L 1075 675 
L 1075 125 
z
" transform="scale(0.015625)"/>
       </defs>
       <use xlink:href="#SimHei-30"/>
       <use xlink:href="#SimHei-2e" transform="translate(50 0)"/>
       <use xlink:href="#SimHei-30" transform="translate(100 0)"/>
      </g>
     </g>
    </g>
    <g id="ytick_2">
     <g id="line2d_19">
      <path d="M 46.754688 249.076644 
L 1025.295937 249.076644 
" clip-path="url(#p596904a2c7)" style="fill: none; stroke: #b0b0b0; stroke-opacity: 0.3; stroke-width: 0.8; stroke-linecap: square"/>
     </g>
     <g id="line2d_20">
      <g>
       <use xlink:href="#m20325a3311" x="46.754688" y="249.076644" style="stroke: #000000; stroke-width: 0.8"/>
      </g>
     </g>
     <g id="text_11">
      <!-- 0.1 -->
      <g transform="translate(24.754688 252.514144) scale(0.1 -0.1)">
       <use xlink:href="#SimHei-30"/>
       <use xlink:href="#SimHei-2e" transform="translate(50 0)"/>
       <use xlink:href="#SimHei-31" transform="translate(100 0)"/>
      </g>
     </g>
    </g>
    <g id="ytick_3">
     <g id="line2d_21">
      <path d="M 46.754688 190.686783 
L 1025.295937 190.686783 
" clip-path="url(#p596904a2c7)" style="fill: none; stroke: #b0b0b0; stroke-opacity: 0.3; stroke-width: 0.8; stroke-linecap: square"/>
     </g>
     <g id="line2d_22">
      <g>
       <use xlink:href="#m20325a3311" x="46.754688" y="190.686783" style="stroke: #000000; stroke-width: 0.8"/>
      </g>
     </g>
     <g id="text_12">
      <!-- 0.2 -->
      <g transform="translate(24.754688 194.124283) scale(0.1 -0.1)">
       <use xlink:href="#SimHei-30"/>
       <use xlink:href="#SimHei-2e" transform="translate(50 0)"/>
       <use xlink:href="#SimHei-32" transform="translate(100 0)"/>
      </g>
     </g>
    </g>
    <g id="ytick_4">
     <g id="line2d_23">
      <path d="M 46.754688 132.296922 
L 1025.295937 132.296922 
" clip-path="url(#p596904a2c7)" style="fill: none; stroke: #b0b0b0; stroke-opacity: 0.3; stroke-width: 0.8; stroke-linecap: square"/>
     </g>
     <g id="line2d_24">
      <g>
       <use xlink:href="#m20325a3311" x="46.754688" y="132.296922" style="stroke: #000000; stroke-width: 0.8"/>
      </g>
     </g>
     <g id="text_13">
      <!-- 0.3 -->
      <g transform="translate(24.754688 135.734422) scale(0.1 -0.1)">
       <defs>
        <path id="SimHei-33" d="M 250 1225 
L 700 1300 
Q 800 975 1025 762 
Q 1250 550 1587 562 
Q 1925 575 2125 837 
Q 2325 1100 2300 1437 
Q 2275 1775 2037 1962 
Q 1800 2150 1275 2225 
L 1275 2550 
Q 1800 2600 2037 2825 
Q 2275 3050 2250 3412 
Q 2225 3775 1925 3937 
Q 1625 4100 1287 3975 
Q 950 3850 750 3275 
L 300 3350 
Q 450 3800 712 4100 
Q 975 4400 1425 4450 
Q 1875 4500 2212 4337 
Q 2550 4175 2687 3837 
Q 2825 3500 2725 3100 
Q 2625 2700 2150 2400 
Q 2500 2250 2687 1950 
Q 2875 1650 2812 1162 
Q 2750 675 2375 375 
Q 2000 75 1525 87 
Q 1050 100 700 387 
Q 350 675 250 1225 
z
" transform="scale(0.015625)"/>
       </defs>
       <use xlink:href="#SimHei-30"/>
       <use xlink:href="#SimHei-2e" transform="translate(50 0)"/>
       <use xlink:href="#SimHei-33" transform="translate(100 0)"/>
      </g>
     </g>
    </g>
    <g id="ytick_5">
     <g id="line2d_25">
      <path d="M 46.754688 73.907061 
L 1025.295937 73.907061 
" clip-path="url(#p596904a2c7)" style="fill: none; stroke: #b0b0b0; stroke-opacity: 0.3; stroke-width: 0.8; stroke-linecap: square"/>
     </g>
     <g id="line2d_26">
      <g>
       <use xlink:href="#m20325a3311" x="46.754688" y="73.907061" style="stroke: #000000; stroke-width: 0.8"/>
      </g>
     </g>
     <g id="text_14">
      <!-- 0.4 -->
      <g transform="translate(24.754688 77.344561) scale(0.1 -0.1)">
       <use xlink:href="#SimHei-30"/>
       <use xlink:href="#SimHei-2e" transform="translate(50 0)"/>
       <use xlink:href="#SimHei-34" transform="translate(100 0)"/>
      </g>
     </g>
    </g>
    <g id="text_15">
     <!-- 权重 -->
     <g transform="translate(19.504688 181.937812) rotate(-90) scale(0.1 -0.1)">
      <defs>
       <path id="SimHei-6743" d="M 2700 4575 
Q 3250 4550 3725 4550 
L 5675 4550 
Q 5575 3500 5337 2737 
Q 5100 1975 4475 1075 
Q 4775 675 5200 425 
Q 5625 175 6175 0 
Q 5825 -275 5750 -500 
Q 5175 -225 4775 100 
Q 4375 425 4150 725 
Q 3825 350 3475 62 
Q 3125 -225 2500 -600 
Q 2400 -350 2100 -125 
Q 2475 0 2950 275 
Q 3425 550 3850 1075 
Q 3625 1375 3400 2037 
Q 3175 2700 3050 4125 
L 2700 4125 
L 2700 4575 
z
M 200 1350 
Q 575 1750 825 2275 
Q 1075 2800 1250 3450 
Q 825 3450 425 3425 
L 425 3875 
Q 875 3850 1325 3850 
Q 1325 4900 1300 5250 
L 1850 5250 
Q 1800 4950 1800 3850 
Q 2175 3850 2600 3875 
L 2600 3425 
Q 2175 3450 1800 3450 
L 1800 2525 
Q 1975 2625 2175 2775 
Q 2625 2175 2750 1875 
Q 2475 1725 2325 1575 
Q 2200 1925 1800 2375 
L 1800 525 
Q 1800 0 1825 -600 
L 1275 -600 
Q 1325 0 1325 525 
L 1325 2375 
Q 1125 1675 575 900 
Q 425 1225 200 1350 
z
M 3525 4150 
Q 3675 2850 3787 2412 
Q 3900 1975 4175 1475 
Q 4475 1925 4750 2587 
Q 5025 3250 5100 4150 
L 3525 4150 
z
" transform="scale(0.015625)"/>
       <path id="SimHei-91cd" d="M 5300 4575 
Q 3900 4450 3425 4400 
L 3425 3875 
L 5150 3875 
Q 5500 3875 6000 3900 
L 6000 3450 
Q 5500 3475 5150 3475 
L 3425 3475 
L 3425 3050 
L 5150 3050 
Q 5125 2675 5125 2125 
Q 5125 1575 5150 1175 
L 3425 1175 
L 3425 750 
L 4550 750 
Q 5000 750 5500 775 
L 5500 375 
Q 5025 400 4575 400 
L 3425 400 
L 3425 -50 
L 5050 -50 
Q 5475 -50 5975 -25 
L 5975 -450 
Q 5475 -425 5075 -425 
L 1475 -425 
Q 975 -425 450 -450 
L 450 -25 
Q 975 -50 1450 -50 
L 2925 -50 
L 2925 400 
L 2050 400 
Q 1450 400 950 375 
L 950 775 
Q 1600 750 2075 750 
L 2925 750 
L 2925 1175 
L 1250 1175 
Q 1275 1800 1275 2125 
Q 1275 2450 1250 3050 
L 2925 3050 
L 2925 3475 
L 1225 3475 
Q 875 3475 400 3450 
L 400 3900 
Q 875 3875 1225 3875 
L 2925 3875 
L 2925 4375 
Q 2425 4350 1075 4250 
Q 1000 4475 875 4675 
Q 2275 4700 3362 4812 
Q 4450 4925 4925 5075 
Q 5025 4825 5300 4575 
z
M 4650 2300 
L 4650 2650 
L 3425 2650 
L 3425 2300 
L 4650 2300 
z
M 2925 2300 
L 2925 2650 
L 1750 2650 
L 1750 2300 
L 2925 2300 
z
M 4625 1575 
L 4625 1900 
L 3425 1900 
L 3425 1575 
L 4625 1575 
z
M 2925 1575 
L 2925 1900 
L 1750 1900 
L 1750 1575 
L 2925 1575 
z
" transform="scale(0.015625)"/>
      </defs>
      <use xlink:href="#SimHei-6743"/>
      <use xlink:href="#SimHei-91cd" transform="translate(100 0)"/>
     </g>
    </g>
   </g>
   <g id="line2d_27">
    <path d="M 91.233835 75.636016 
L 154.775475 77.02033 
L 218.317114 78.402842 
L 281.858754 79.904909 
L 345.400394 73.664907 
L 408.942033 72.343094 
L 472.483673 71.647843 
L 536.025312 70.849536 
L 599.566952 71.469823 
L 663.108592 71.993847 
L 726.650231 72.383633 
L 790.191871 78.180159 
L 853.733511 85.230943 
L 917.27515 94.637228 
L 980.81679 118.62193 
" clip-path="url(#p596904a2c7)" style="fill: none; stroke: #0000ff; stroke-width: 2; stroke-linecap: square"/>
    <defs>
     <path id="m92e973c2ba" d="M 0 3 
C 0.795609 3 1.55874 2.683901 2.12132 2.12132 
C 2.683901 1.55874 3 0.795609 3 0 
C 3 -0.795609 2.683901 -1.55874 2.12132 -2.12132 
C 1.55874 -2.683901 0.795609 -3 0 -3 
C -0.795609 -3 -1.55874 -2.683901 -2.12132 -2.12132 
C -2.683901 -1.55874 -3 -0.795609 -3 0 
C -3 0.795609 -2.683901 1.55874 -2.12132 2.12132 
C -1.55874 2.683901 -0.795609 3 0 3 
z
" style="stroke: #0000ff"/>
    </defs>
    <g clip-path="url(#p596904a2c7)">
     <use xlink:href="#m92e973c2ba" x="91.233835" y="75.636016" style="fill: #0000ff; stroke: #0000ff"/>
     <use xlink:href="#m92e973c2ba" x="154.775475" y="77.02033" style="fill: #0000ff; stroke: #0000ff"/>
     <use xlink:href="#m92e973c2ba" x="218.317114" y="78.402842" style="fill: #0000ff; stroke: #0000ff"/>
     <use xlink:href="#m92e973c2ba" x="281.858754" y="79.904909" style="fill: #0000ff; stroke: #0000ff"/>
     <use xlink:href="#m92e973c2ba" x="345.400394" y="73.664907" style="fill: #0000ff; stroke: #0000ff"/>
     <use xlink:href="#m92e973c2ba" x="408.942033" y="72.343094" style="fill: #0000ff; stroke: #0000ff"/>
     <use xlink:href="#m92e973c2ba" x="472.483673" y="71.647843" style="fill: #0000ff; stroke: #0000ff"/>
     <use xlink:href="#m92e973c2ba" x="536.025312" y="70.849536" style="fill: #0000ff; stroke: #0000ff"/>
     <use xlink:href="#m92e973c2ba" x="599.566952" y="71.469823" style="fill: #0000ff; stroke: #0000ff"/>
     <use xlink:href="#m92e973c2ba" x="663.108592" y="71.993847" style="fill: #0000ff; stroke: #0000ff"/>
     <use xlink:href="#m92e973c2ba" x="726.650231" y="72.383633" style="fill: #0000ff; stroke: #0000ff"/>
     <use xlink:href="#m92e973c2ba" x="790.191871" y="78.180159" style="fill: #0000ff; stroke: #0000ff"/>
     <use xlink:href="#m92e973c2ba" x="853.733511" y="85.230943" style="fill: #0000ff; stroke: #0000ff"/>
     <use xlink:href="#m92e973c2ba" x="917.27515" y="94.637228" style="fill: #0000ff; stroke: #0000ff"/>
     <use xlink:href="#m92e973c2ba" x="980.81679" y="118.62193" style="fill: #0000ff; stroke: #0000ff"/>
    </g>
   </g>
   <g id="line2d_28">
    <path d="M 91.233835 259.34416 
L 154.775475 258.348721 
L 218.317114 257.306665 
L 281.858754 256.27891 
L 345.400394 260.768041 
L 408.942033 258.976657 
L 472.483673 256.805606 
L 536.025312 254.930447 
L 599.566952 256.782685 
L 663.108592 258.942064 
L 726.650231 261.43276 
L 790.191871 258.447944 
L 853.733511 254.447703 
L 917.27515 241.952716 
L 980.81679 193.049684 
" clip-path="url(#p596904a2c7)" style="fill: none; stroke: #008000; stroke-width: 2; stroke-linecap: square"/>
    <defs>
     <path id="m669540765e" d="M 0 3 
C 0.795609 3 1.55874 2.683901 2.12132 2.12132 
C 2.683901 1.55874 3 0.795609 3 0 
C 3 -0.795609 2.683901 -1.55874 2.12132 -2.12132 
C 1.55874 -2.683901 0.795609 -3 0 -3 
C -0.795609 -3 -1.55874 -2.683901 -2.12132 -2.12132 
C -2.683901 -1.55874 -3 -0.795609 -3 0 
C -3 0.795609 -2.683901 1.55874 -2.12132 2.12132 
C -1.55874 2.683901 -0.795609 3 0 3 
z
" style="stroke: #008000"/>
    </defs>
    <g clip-path="url(#p596904a2c7)">
     <use xlink:href="#m669540765e" x="91.233835" y="259.34416" style="fill: #008000; stroke: #008000"/>
     <use xlink:href="#m669540765e" x="154.775475" y="258.348721" style="fill: #008000; stroke: #008000"/>
     <use xlink:href="#m669540765e" x="218.317114" y="257.306665" style="fill: #008000; stroke: #008000"/>
     <use xlink:href="#m669540765e" x="281.858754" y="256.27891" style="fill: #008000; stroke: #008000"/>
     <use xlink:href="#m669540765e" x="345.400394" y="260.768041" style="fill: #008000; stroke: #008000"/>
     <use xlink:href="#m669540765e" x="408.942033" y="258.976657" style="fill: #008000; stroke: #008000"/>
     <use xlink:href="#m669540765e" x="472.483673" y="256.805606" style="fill: #008000; stroke: #008000"/>
     <use xlink:href="#m669540765e" x="536.025312" y="254.930447" style="fill: #008000; stroke: #008000"/>
     <use xlink:href="#m669540765e" x="599.566952" y="256.782685" style="fill: #008000; stroke: #008000"/>
     <use xlink:href="#m669540765e" x="663.108592" y="258.942064" style="fill: #008000; stroke: #008000"/>
     <use xlink:href="#m669540765e" x="726.650231" y="261.43276" style="fill: #008000; stroke: #008000"/>
     <use xlink:href="#m669540765e" x="790.191871" y="258.447944" style="fill: #008000; stroke: #008000"/>
     <use xlink:href="#m669540765e" x="853.733511" y="254.447703" style="fill: #008000; stroke: #008000"/>
     <use xlink:href="#m669540765e" x="917.27515" y="241.952716" style="fill: #008000; stroke: #008000"/>
     <use xlink:href="#m669540765e" x="980.81679" y="193.049684" style="fill: #008000; stroke: #008000"/>
    </g>
   </g>
   <g id="line2d_29">
    <path d="M 91.233835 114.970582 
L 154.775475 114.214028 
L 218.317114 113.401884 
L 281.858754 112.599937 
L 345.400394 116.112094 
L 408.942033 117.960171 
L 472.483673 119.656362 
L 536.025312 121.25132 
L 599.566952 119.762334 
L 663.108592 118.19002 
L 726.650231 116.525912 
L 790.191871 113.832497 
L 853.733511 109.369298 
L 917.27515 94.682792 
L 980.81679 36.409119 
" clip-path="url(#p596904a2c7)" style="fill: none; stroke: #ff0000; stroke-width: 2; stroke-linecap: square"/>
    <defs>
     <path id="mb6c02f7c3e" d="M 0 3 
C 0.795609 3 1.55874 2.683901 2.12132 2.12132 
C 2.683901 1.55874 3 0.795609 3 0 
C 3 -0.795609 2.683901 -1.55874 2.12132 -2.12132 
C 1.55874 -2.683901 0.795609 -3 0 -3 
C -0.795609 -3 -1.55874 -2.683901 -2.12132 -2.12132 
C -2.683901 -1.55874 -3 -0.795609 -3 0 
C -3 0.795609 -2.683901 1.55874 -2.12132 2.12132 
C -1.55874 2.683901 -0.795609 3 0 3 
z
" style="stroke: #ff0000"/>
    </defs>
    <g clip-path="url(#p596904a2c7)">
     <use xlink:href="#mb6c02f7c3e" x="91.233835" y="114.970582" style="fill: #ff0000; stroke: #ff0000"/>
     <use xlink:href="#mb6c02f7c3e" x="154.775475" y="114.214028" style="fill: #ff0000; stroke: #ff0000"/>
     <use xlink:href="#mb6c02f7c3e" x="218.317114" y="113.401884" style="fill: #ff0000; stroke: #ff0000"/>
     <use xlink:href="#mb6c02f7c3e" x="281.858754" y="112.599937" style="fill: #ff0000; stroke: #ff0000"/>
     <use xlink:href="#mb6c02f7c3e" x="345.400394" y="116.112094" style="fill: #ff0000; stroke: #ff0000"/>
     <use xlink:href="#mb6c02f7c3e" x="408.942033" y="117.960171" style="fill: #ff0000; stroke: #ff0000"/>
     <use xlink:href="#mb6c02f7c3e" x="472.483673" y="119.656362" style="fill: #ff0000; stroke: #ff0000"/>
     <use xlink:href="#mb6c02f7c3e" x="536.025312" y="121.25132" style="fill: #ff0000; stroke: #ff0000"/>
     <use xlink:href="#mb6c02f7c3e" x="599.566952" y="119.762334" style="fill: #ff0000; stroke: #ff0000"/>
     <use xlink:href="#mb6c02f7c3e" x="663.108592" y="118.19002" style="fill: #ff0000; stroke: #ff0000"/>
     <use xlink:href="#mb6c02f7c3e" x="726.650231" y="116.525912" style="fill: #ff0000; stroke: #ff0000"/>
     <use xlink:href="#mb6c02f7c3e" x="790.191871" y="113.832497" style="fill: #ff0000; stroke: #ff0000"/>
     <use xlink:href="#mb6c02f7c3e" x="853.733511" y="109.369298" style="fill: #ff0000; stroke: #ff0000"/>
     <use xlink:href="#mb6c02f7c3e" x="917.27515" y="94.682792" style="fill: #ff0000; stroke: #ff0000"/>
     <use xlink:href="#mb6c02f7c3e" x="980.81679" y="36.409119" style="fill: #ff0000; stroke: #ff0000"/>
    </g>
   </g>
   <g id="line2d_30">
    <path d="M 91.233835 307.466506 
L 154.775475 307.466506 
L 218.317114 307.466506 
L 281.858754 307.466506 
L 345.400394 307.466506 
L 408.942033 307.466506 
L 472.483673 307.466506 
L 536.025312 307.466506 
L 599.566952 307.466506 
L 663.108592 307.466506 
L 726.650231 307.466506 
L 790.191871 307.466506 
L 853.733511 307.466504 
L 917.27515 307.466505 
L 980.81679 297.886677 
" clip-path="url(#p596904a2c7)" style="fill: none; stroke: #ffa500; stroke-width: 2; stroke-linecap: square"/>
    <defs>
     <path id="macef9e729d" d="M 0 3 
C 0.795609 3 1.55874 2.683901 2.12132 2.12132 
C 2.683901 1.55874 3 0.795609 3 0 
C 3 -0.795609 2.683901 -1.55874 2.12132 -2.12132 
C 1.55874 -2.683901 0.795609 -3 0 -3 
C -0.795609 -3 -1.55874 -2.683901 -2.12132 -2.12132 
C -2.683901 -1.55874 -3 -0.795609 -3 0 
C -3 0.795609 -2.683901 1.55874 -2.12132 2.12132 
C -1.55874 2.683901 -0.795609 3 0 3 
z
" style="stroke: #ffa500"/>
    </defs>
    <g clip-path="url(#p596904a2c7)">
     <use xlink:href="#macef9e729d" x="91.233835" y="307.466506" style="fill: #ffa500; stroke: #ffa500"/>
     <use xlink:href="#macef9e729d" x="154.775475" y="307.466506" style="fill: #ffa500; stroke: #ffa500"/>
     <use xlink:href="#macef9e729d" x="218.317114" y="307.466506" style="fill: #ffa500; stroke: #ffa500"/>
     <use xlink:href="#macef9e729d" x="281.858754" y="307.466506" style="fill: #ffa500; stroke: #ffa500"/>
     <use xlink:href="#macef9e729d" x="345.400394" y="307.466506" style="fill: #ffa500; stroke: #ffa500"/>
     <use xlink:href="#macef9e729d" x="408.942033" y="307.466506" style="fill: #ffa500; stroke: #ffa500"/>
     <use xlink:href="#macef9e729d" x="472.483673" y="307.466506" style="fill: #ffa500; stroke: #ffa500"/>
     <use xlink:href="#macef9e729d" x="536.025312" y="307.466506" style="fill: #ffa500; stroke: #ffa500"/>
     <use xlink:href="#macef9e729d" x="599.566952" y="307.466506" style="fill: #ffa500; stroke: #ffa500"/>
     <use xlink:href="#macef9e729d" x="663.108592" y="307.466506" style="fill: #ffa500; stroke: #ffa500"/>
     <use xlink:href="#macef9e729d" x="726.650231" y="307.466506" style="fill: #ffa500; stroke: #ffa500"/>
     <use xlink:href="#macef9e729d" x="790.191871" y="307.466506" style="fill: #ffa500; stroke: #ffa500"/>
     <use xlink:href="#macef9e729d" x="853.733511" y="307.466504" style="fill: #ffa500; stroke: #ffa500"/>
     <use xlink:href="#macef9e729d" x="917.27515" y="307.466505" style="fill: #ffa500; stroke: #ffa500"/>
     <use xlink:href="#macef9e729d" x="980.81679" y="297.886677" style="fill: #ffa500; stroke: #ffa500"/>
    </g>
   </g>
   <g id="line2d_31">
    <path d="M 91.233835 196.016652 
L 154.775475 196.384332 
L 218.317114 196.85602 
L 281.858754 197.183654 
L 345.400394 195.422369 
L 408.942033 196.687488 
L 472.483673 197.857599 
L 536.025312 198.936107 
L 599.566952 197.952569 
L 663.108592 196.841479 
L 726.650231 195.625106 
L 790.191871 195.506812 
L 853.733511 196.91947 
L 917.27515 214.694675 
L 980.81679 307.466506 
" clip-path="url(#p596904a2c7)" style="fill: none; stroke: #add8e6; stroke-width: 2; stroke-linecap: square"/>
    <defs>
     <path id="mb6f2c71a71" d="M 0 3 
C 0.795609 3 1.55874 2.683901 2.12132 2.12132 
C 2.683901 1.55874 3 0.795609 3 0 
C 3 -0.795609 2.683901 -1.55874 2.12132 -2.12132 
C 1.55874 -2.683901 0.795609 -3 0 -3 
C -0.795609 -3 -1.55874 -2.683901 -2.12132 -2.12132 
C -2.683901 -1.55874 -3 -0.795609 -3 0 
C -3 0.795609 -2.683901 1.55874 -2.12132 2.12132 
C -1.55874 2.683901 -0.795609 3 0 3 
z
" style="stroke: #add8e6"/>
    </defs>
    <g clip-path="url(#p596904a2c7)">
     <use xlink:href="#mb6f2c71a71" x="91.233835" y="196.016652" style="fill: #add8e6; stroke: #add8e6"/>
     <use xlink:href="#mb6f2c71a71" x="154.775475" y="196.384332" style="fill: #add8e6; stroke: #add8e6"/>
     <use xlink:href="#mb6f2c71a71" x="218.317114" y="196.85602" style="fill: #add8e6; stroke: #add8e6"/>
     <use xlink:href="#mb6f2c71a71" x="281.858754" y="197.183654" style="fill: #add8e6; stroke: #add8e6"/>
     <use xlink:href="#mb6f2c71a71" x="345.400394" y="195.422369" style="fill: #add8e6; stroke: #add8e6"/>
     <use xlink:href="#mb6f2c71a71" x="408.942033" y="196.687488" style="fill: #add8e6; stroke: #add8e6"/>
     <use xlink:href="#mb6f2c71a71" x="472.483673" y="197.857599" style="fill: #add8e6; stroke: #add8e6"/>
     <use xlink:href="#mb6f2c71a71" x="536.025312" y="198.936107" style="fill: #add8e6; stroke: #add8e6"/>
     <use xlink:href="#mb6f2c71a71" x="599.566952" y="197.952569" style="fill: #add8e6; stroke: #add8e6"/>
     <use xlink:href="#mb6f2c71a71" x="663.108592" y="196.841479" style="fill: #add8e6; stroke: #add8e6"/>
     <use xlink:href="#mb6f2c71a71" x="726.650231" y="195.625106" style="fill: #add8e6; stroke: #add8e6"/>
     <use xlink:href="#mb6f2c71a71" x="790.191871" y="195.506812" style="fill: #add8e6; stroke: #add8e6"/>
     <use xlink:href="#mb6f2c71a71" x="853.733511" y="196.91947" style="fill: #add8e6; stroke: #add8e6"/>
     <use xlink:href="#mb6f2c71a71" x="917.27515" y="214.694675" style="fill: #add8e6; stroke: #add8e6"/>
     <use xlink:href="#mb6f2c71a71" x="980.81679" y="307.466506" style="fill: #add8e6; stroke: #add8e6"/>
    </g>
   </g>
   <g id="patch_3">
    <path d="M 46.754688 321.019375 
L 46.754688 22.85625 
" style="fill: none; stroke: #000000; stroke-width: 0.8; stroke-linejoin: miter; stroke-linecap: square"/>
   </g>
   <g id="patch_4">
    <path d="M 1025.295937 321.019375 
L 1025.295937 22.85625 
" style="fill: none; stroke: #000000; stroke-width: 0.8; stroke-linejoin: miter; stroke-linecap: square"/>
   </g>
   <g id="patch_5">
    <path d="M 46.754687 321.019375 
L 1025.295937 321.019375 
" style="fill: none; stroke: #000000; stroke-width: 0.8; stroke-linejoin: miter; stroke-linecap: square"/>
   </g>
   <g id="patch_6">
    <path d="M 46.754687 22.85625 
L 1025.295937 22.85625 
" style="fill: none; stroke: #000000; stroke-width: 0.8; stroke-linejoin: miter; stroke-linecap: square"/>
   </g>
   <g id="text_16">
    <!-- 全天LED通道权重变化 -->
    <g transform="translate(479.025312 16.85625) scale(0.12 -0.12)">
     <defs>
      <path id="SimHei-5168" d="M 3475 4825 
Q 4350 3425 6125 3025 
Q 5900 2750 5825 2450 
Q 5325 2650 4975 2875 
L 4975 2475 
Q 4700 2500 4100 2500 
L 3500 2500 
L 3500 1500 
L 4450 1500 
Q 4975 1500 5300 1525 
L 5300 1075 
Q 4975 1100 4450 1100 
L 3500 1100 
L 3500 -25 
L 4475 -25 
Q 5225 -25 5700 25 
L 5700 -500 
Q 5250 -425 4525 -425 
L 1775 -425 
Q 1025 -425 650 -450 
L 650 0 
Q 1025 -25 1775 -25 
L 3000 -25 
L 3000 1100 
L 2300 1100 
Q 1450 1100 1175 1075 
L 1175 1525 
Q 1450 1500 2275 1500 
L 3000 1500 
L 3000 2500 
L 2500 2500 
Q 1725 2500 1500 2475 
L 1500 2875 
Q 1275 2700 650 2350 
Q 500 2650 300 2875 
Q 900 3025 1700 3625 
Q 2500 4225 2975 5200 
Q 3275 5075 3600 4950 
L 3475 4825 
z
M 1650 2950 
Q 1950 2925 2525 2925 
L 4025 2925 
Q 4525 2925 4800 2950 
Q 3725 3500 3200 4550 
Q 2525 3525 1650 2950 
z
" transform="scale(0.015625)"/>
      <path id="SimHei-5929" d="M 4475 4900 
Q 4925 4900 5375 4925 
L 5375 4400 
Q 4925 4425 4475 4425 
L 3450 4425 
L 3450 3075 
L 5050 3075 
Q 5525 3075 5900 3100 
L 5900 2575 
Q 5550 2600 5075 2600 
L 3525 2600 
Q 3875 1650 4525 975 
Q 5175 300 6200 50 
Q 5850 -225 5775 -450 
Q 5000 -175 4350 412 
Q 3700 1000 3225 2100 
Q 2925 1075 2275 462 
Q 1625 -150 650 -575 
Q 550 -325 225 -100 
Q 950 100 1750 737 
Q 2550 1375 2875 2600 
L 1500 2600 
Q 950 2600 575 2575 
L 575 3100 
Q 975 3075 1500 3075 
L 2950 3075 
L 2950 4425 
L 1900 4425 
Q 1375 4425 1000 4400 
L 1000 4925 
Q 1400 4900 1900 4900 
L 4475 4900 
z
" transform="scale(0.015625)"/>
      <path id="SimHei-4c" d="M 2900 125 
L 300 125 
L 300 4400 
L 875 4400 
L 875 600 
L 2900 600 
L 2900 125 
z
" transform="scale(0.015625)"/>
      <path id="SimHei-45" d="M 2900 125 
L 350 125 
L 350 4400 
L 2775 4400 
L 2775 3925 
L 925 3925 
L 925 2600 
L 2625 2600 
L 2625 2125 
L 925 2125 
L 925 600 
L 2900 600 
L 2900 125 
z
" transform="scale(0.015625)"/>
      <path id="SimHei-44" d="M 2925 2250 
Q 2925 1100 2437 612 
Q 1950 125 1125 125 
L 275 125 
L 275 4400 
L 1125 4400 
Q 2050 4400 2487 3900 
Q 2925 3400 2925 2250 
z
M 2325 2250 
Q 2325 3175 2025 3550 
Q 1725 3925 1125 3925 
L 850 3925 
L 850 600 
L 1125 600 
Q 1725 600 2025 962 
Q 2325 1325 2325 2250 
z
" transform="scale(0.015625)"/>
      <path id="SimHei-901a" d="M 5675 5050 
Q 5325 4650 4937 4300 
Q 4550 3950 4250 3650 
L 5700 3650 
Q 5675 3100 5675 2575 
L 5675 850 
Q 5700 525 5500 425 
Q 5300 325 4900 250 
Q 4850 475 4650 775 
Q 5025 800 5150 850 
Q 5275 900 5250 1325 
L 4125 1325 
L 4125 300 
L 3675 300 
L 3675 1325 
L 2575 1325 
L 2575 300 
L 2125 300 
Q 2150 1125 2150 1950 
Q 2150 2775 2125 3650 
L 3600 3650 
Q 3475 3850 3050 4200 
Q 3225 4350 3375 4525 
Q 3825 4175 4000 4000 
Q 4400 4425 4625 4650 
L 3025 4650 
Q 2525 4650 2150 4625 
L 2150 5075 
Q 2525 5050 2975 5050 
L 5675 5050 
z
M 1425 3000 
Q 1400 2500 1400 2100 
L 1400 600 
Q 2025 -25 3700 -25 
Q 5375 -25 6150 125 
Q 6000 -175 5975 -500 
Q 3975 -525 3137 -450 
Q 2300 -375 1775 -112 
Q 1250 150 1075 -37 
Q 900 -225 650 -650 
Q 425 -400 200 -225 
Q 600 125 975 425 
L 975 2575 
Q 775 2575 350 2550 
L 350 3025 
Q 750 3000 1425 3000 
z
M 5250 1725 
L 5250 2325 
L 4125 2325 
L 4125 1725 
L 5250 1725 
z
M 3675 1725 
L 3675 2325 
L 2575 2325 
L 2575 1725 
L 3675 1725 
z
M 5250 2725 
L 5250 3275 
L 4125 3275 
L 4125 2725 
L 5250 2725 
z
M 3675 2725 
L 3675 3275 
L 2575 3275 
L 2575 2725 
L 3675 2725 
z
M 1025 5025 
Q 1450 4425 1700 4075 
Q 1425 3925 1250 3725 
Q 1075 4100 600 4725 
Q 800 4875 1025 5025 
z
" transform="scale(0.015625)"/>
      <path id="SimHei-9053" d="M 1975 4325 
Q 2350 4300 4250 4300 
Q 4450 4775 4625 5275 
Q 4950 5150 5175 5075 
Q 5000 4900 4725 4300 
Q 5700 4300 6125 4325 
L 6125 3875 
Q 5700 3900 4225 3900 
L 4100 3400 
L 5550 3400 
Q 5525 2800 5525 1825 
Q 5525 875 5550 400 
L 2425 400 
Q 2475 950 2475 1825 
Q 2475 2700 2450 3400 
L 3575 3400 
L 3700 3900 
Q 2350 3900 1975 3875 
L 1975 4325 
z
M 300 2825 
Q 700 2800 1000 2800 
L 1525 2800 
Q 1500 2400 1500 1950 
L 1500 550 
Q 2150 -50 3700 -50 
Q 5275 -50 6100 75 
Q 5975 -225 5900 -525 
Q 4925 -550 4212 -537 
Q 3500 -525 3025 -475 
Q 2550 -425 2250 -312 
Q 1950 -200 1637 12 
Q 1325 225 1125 25 
Q 925 -175 650 -550 
Q 425 -325 200 -175 
Q 575 75 1025 525 
L 1025 2400 
Q 650 2400 300 2375 
L 300 2825 
z
M 5050 800 
L 5050 1300 
L 2975 1300 
L 2975 800 
L 5050 800 
z
M 5050 1675 
L 5050 2150 
L 2975 2150 
L 2975 1675 
L 5050 1675 
z
M 5050 2525 
L 5050 3000 
L 2975 3000 
L 2975 2525 
L 5050 2525 
z
M 1025 3675 
Q 925 4125 700 4800 
Q 1000 4850 1225 4950 
Q 1400 4450 1550 3850 
Q 1300 3800 1025 3675 
z
M 3025 5275 
Q 3350 4875 3550 4600 
Q 3350 4475 3150 4325 
Q 2975 4625 2650 5000 
Q 2825 5125 3025 5275 
z
" transform="scale(0.015625)"/>
      <path id="SimHei-53d8" d="M 5200 1975 
Q 4950 1600 4537 1137 
Q 4125 675 3675 375 
Q 3925 225 4600 87 
Q 5275 -50 6000 -75 
Q 5700 -400 5650 -625 
Q 4850 -525 4212 -312 
Q 3575 -100 3225 125 
Q 2800 -125 2150 -325 
Q 1500 -525 700 -675 
Q 600 -425 400 -175 
Q 950 -150 1687 12 
Q 2425 175 2825 375 
Q 2275 775 1675 1575 
Q 1350 1575 1000 1550 
L 1000 2000 
Q 1450 1975 2075 1975 
L 5200 1975 
z
M 3225 5275 
Q 3400 4900 3550 4475 
L 4675 4475 
Q 5400 4475 5975 4500 
L 5975 4025 
Q 5375 4050 4725 4050 
L 4125 4050 
L 4125 2950 
Q 4125 2550 4150 2150 
L 3600 2150 
Q 3625 2550 3625 2950 
L 3625 4050 
L 2750 4050 
L 2750 2950 
Q 2750 2675 2775 2150 
L 2225 2150 
Q 2250 2675 2250 2950 
L 2250 4050 
L 1700 4050 
Q 975 4050 425 4025 
L 425 4500 
Q 950 4475 1700 4475 
L 2975 4475 
Q 2925 4675 2700 5125 
Q 2950 5150 3225 5275 
z
M 2200 1575 
Q 2650 975 3250 600 
Q 3850 1000 4275 1575 
L 2200 1575 
z
M 4850 3750 
Q 5375 3275 5950 2675 
Q 5750 2525 5500 2300 
Q 5075 2800 4450 3400 
Q 4675 3575 4850 3750 
z
M 1825 3500 
Q 1700 3375 1425 3025 
Q 1150 2675 825 2300 
Q 575 2475 375 2600 
Q 975 3150 1300 3825 
Q 1525 3650 1825 3500 
z
" transform="scale(0.015625)"/>
      <path id="SimHei-5316" d="M 3925 5025 
Q 3900 4900 3900 4400 
L 3900 2625 
Q 4375 3025 4775 3450 
Q 5175 3875 5400 4300 
Q 5600 4100 5900 3925 
Q 5700 3700 5225 3212 
Q 4750 2725 4487 2512 
Q 4225 2300 3900 2025 
L 3900 450 
Q 3900 50 4225 50 
L 5200 50 
Q 5400 75 5462 262 
Q 5525 450 5575 850 
Q 5800 650 6150 600 
Q 6000 -100 5825 -250 
Q 5650 -400 5350 -400 
L 3950 -400 
Q 3425 -400 3400 200 
L 3400 1675 
Q 3225 1525 2962 1350 
Q 2700 1175 2375 975 
Q 2225 1225 2025 1400 
Q 2350 1550 2737 1787 
Q 3125 2025 3400 2250 
L 3400 4500 
Q 3400 4800 3375 5025 
L 3925 5025 
z
M 2400 4850 
Q 2175 4550 2075 4337 
Q 1975 4125 1825 3775 
L 1825 675 
Q 1825 -75 1850 -550 
L 1325 -550 
Q 1350 -125 1350 650 
L 1350 3050 
Q 1125 2725 962 2525 
Q 800 2325 675 2175 
Q 500 2375 275 2525 
Q 625 2850 875 3212 
Q 1125 3575 1312 3912 
Q 1500 4250 1625 4575 
Q 1750 4900 1825 5100 
Q 1975 4975 2400 4850 
z
" transform="scale(0.015625)"/>
     </defs>
     <use xlink:href="#SimHei-5168"/>
     <use xlink:href="#SimHei-5929" transform="translate(100 0)"/>
     <use xlink:href="#SimHei-4c" transform="translate(200 0)"/>
     <use xlink:href="#SimHei-45" transform="translate(250 0)"/>
     <use xlink:href="#SimHei-44" transform="translate(300 0)"/>
     <use xlink:href="#SimHei-901a" transform="translate(350 0)"/>
     <use xlink:href="#SimHei-9053" transform="translate(450 0)"/>
     <use xlink:href="#SimHei-6743" transform="translate(550 0)"/>
     <use xlink:href="#SimHei-91cd" transform="translate(650 0)"/>
     <use xlink:href="#SimHei-53d8" transform="translate(750 0)"/>
     <use xlink:href="#SimHei-5316" transform="translate(850 0)"/>
    </g>
   </g>
   <g id="legend_1">
    <g id="patch_7">
     <path d="M 53.754688 101.6375 
L 135.754687 101.6375 
Q 137.754687 101.6375 137.754687 99.6375 
L 137.754687 29.85625 
Q 137.754687 27.85625 135.754687 27.85625 
L 53.754688 27.85625 
Q 51.754688 27.85625 51.754688 29.85625 
L 51.754688 99.6375 
Q 51.754688 101.6375 53.754688 101.6375 
z
" style="fill: #ffffff; opacity: 0.8; stroke: #cccccc; stroke-linejoin: miter"/>
    </g>
    <g id="line2d_32">
     <path d="M 55.754688 36.246875 
L 65.754688 36.246875 
L 75.754688 36.246875 
" style="fill: none; stroke: #0000ff; stroke-width: 2; stroke-linecap: square"/>
     <g>
      <use xlink:href="#m92e973c2ba" x="65.754688" y="36.246875" style="fill: #0000ff; stroke: #0000ff"/>
     </g>
    </g>
    <g id="text_17">
     <!-- 蓝光 -->
     <g transform="translate(83.754688 39.746875) scale(0.1 -0.1)">
      <defs>
       <path id="SimHei-84dd" d="M 5425 1350 
Q 5400 925 5400 525 
L 5400 -100 
Q 5775 -100 6175 -75 
L 6175 -525 
Q 5700 -500 5075 -500 
L 1275 -500 
Q 750 -500 250 -525 
L 250 -75 
Q 650 -100 1025 -100 
L 1025 575 
Q 1025 925 1000 1350 
L 5425 1350 
z
M 2575 5250 
Q 2525 5075 2525 4875 
L 2525 4675 
L 3775 4675 
L 3775 4825 
Q 3775 5050 3750 5275 
L 4300 5275 
Q 4225 5075 4225 4825 
L 4225 4675 
L 5350 4675 
Q 5725 4675 6125 4700 
L 6125 4225 
Q 5725 4275 5350 4275 
L 4225 4275 
L 4225 4125 
Q 4225 3975 4275 3800 
L 3750 3800 
Q 3775 3975 3775 4125 
L 3775 4275 
L 2525 4275 
L 2525 4175 
Q 2525 4025 2575 3825 
L 2050 3825 
Q 2075 4000 2075 4175 
L 2075 4275 
L 1100 4275 
Q 725 4275 325 4250 
L 325 4700 
Q 725 4675 1100 4675 
L 2075 4675 
L 2075 4775 
Q 2075 5025 2050 5250 
L 2575 5250 
z
M 4350 3450 
Q 4175 3275 4075 3050 
L 4950 3050 
Q 5450 3050 5925 3075 
L 5925 2625 
Q 5450 2650 4950 2650 
L 3875 2650 
Q 3725 2425 3612 2212 
Q 3500 2000 3275 1700 
Q 3100 1875 2850 2000 
Q 3200 2400 3437 2862 
Q 3675 3325 3750 3700 
Q 3975 3575 4350 3450 
z
M 2625 2150 
Q 2625 1900 2650 1600 
L 2125 1600 
Q 2150 1825 2150 2150 
L 2150 3000 
Q 2150 3300 2125 3575 
L 2650 3575 
Q 2625 3250 2625 3000 
L 2625 2150 
z
M 4925 -100 
L 4925 950 
L 4050 950 
L 4050 -100 
L 4925 -100 
z
M 2350 -100 
L 2350 950 
L 1500 950 
L 1500 -100 
L 2350 -100 
z
M 3600 -100 
L 3600 950 
L 2800 950 
L 2800 -100 
L 3600 -100 
z
M 1425 2225 
Q 1425 1925 1450 1650 
L 950 1650 
Q 975 1925 975 2200 
L 975 2975 
Q 975 3225 950 3425 
L 1450 3425 
Q 1425 3175 1425 2925 
L 1425 2225 
z
M 4575 2575 
Q 4825 2275 4925 2137 
Q 5025 2000 5200 1800 
Q 4975 1675 4775 1525 
Q 4600 1750 4500 1912 
Q 4400 2075 4150 2300 
Q 4425 2425 4575 2575 
z
" transform="scale(0.015625)"/>
       <path id="SimHei-5149" d="M 6050 2300 
Q 5775 2325 5150 2325 
L 4050 2325 
L 4050 400 
Q 4050 50 4425 50 
L 4975 50 
Q 5300 50 5375 212 
Q 5450 375 5500 850 
Q 5750 625 6100 525 
Q 6000 175 5837 -100 
Q 5675 -375 5325 -375 
L 4100 -375 
Q 3550 -375 3550 175 
L 3550 2325 
L 2775 2325 
Q 2825 125 575 -575 
Q 400 -275 225 -50 
Q 1225 150 1737 687 
Q 2250 1225 2275 2325 
L 1450 2325 
Q 625 2325 375 2300 
L 375 2775 
Q 625 2750 1425 2750 
L 2950 2750 
L 2950 4300 
Q 2950 4750 2925 5150 
L 3525 5150 
Q 3475 4900 3475 4300 
L 3475 2750 
L 5150 2750 
Q 5725 2750 6050 2775 
L 6050 2300 
z
M 4100 3325 
Q 4700 4050 4875 4575 
Q 5200 4375 5475 4275 
Q 5300 4100 5075 3762 
Q 4850 3425 4575 3050 
Q 4300 3200 4100 3325 
z
M 1775 3000 
Q 1600 3375 1025 4150 
Q 1275 4300 1550 4450 
Q 1800 4100 1962 3850 
Q 2125 3600 2300 3300 
Q 2025 3175 1775 3000 
z
" transform="scale(0.015625)"/>
      </defs>
      <use xlink:href="#SimHei-84dd"/>
      <use xlink:href="#SimHei-5149" transform="translate(100 0)"/>
     </g>
    </g>
    <g id="line2d_33">
     <path d="M 55.754688 50.3875 
L 65.754688 50.3875 
L 75.754688 50.3875 
" style="fill: none; stroke: #008000; stroke-width: 2; stroke-linecap: square"/>
     <g>
      <use xlink:href="#m669540765e" x="65.754688" y="50.3875" style="fill: #008000; stroke: #008000"/>
     </g>
    </g>
    <g id="text_18">
     <!-- 绿光 -->
     <g transform="translate(83.754688 53.8875) scale(0.1 -0.1)">
      <defs>
       <path id="SimHei-7eff" d="M 3750 3525 
Q 3300 3525 2900 3500 
L 2900 3950 
Q 3275 3900 3725 3900 
L 5050 3900 
L 5100 4500 
L 3525 4500 
Q 3075 4500 2700 4475 
L 2700 4900 
Q 3075 4875 3525 4875 
L 5600 4875 
Q 5500 4050 5425 2925 
Q 5700 2925 6075 2950 
L 6075 2500 
Q 5675 2525 5275 2525 
L 4425 2525 
L 4425 2075 
Q 4600 1700 4775 1500 
Q 4925 1600 5112 1775 
Q 5300 1950 5550 2175 
Q 5700 1975 5900 1725 
Q 5775 1700 5525 1562 
Q 5275 1425 4975 1200 
Q 5175 925 5437 675 
Q 5700 425 6150 300 
Q 5900 -25 5825 -275 
Q 5225 125 4975 462 
Q 4725 800 4425 1325 
L 4425 -75 
Q 4425 -475 4162 -562 
Q 3900 -650 3625 -700 
Q 3550 -400 3425 -150 
Q 3850 -150 3912 -62 
Q 3975 25 3975 225 
L 3975 1050 
Q 3675 750 3350 462 
Q 3025 175 2625 -100 
Q 2450 225 2300 400 
Q 2750 575 3137 875 
Q 3525 1175 3975 1575 
L 3975 2525 
L 3250 2525 
Q 2850 2525 2375 2500 
L 2375 2950 
Q 2875 2925 3250 2925 
L 4975 2925 
L 5025 3525 
L 3750 3525 
z
M 1800 4825 
Q 1625 4600 1400 4137 
Q 1175 3675 850 3150 
L 1675 3150 
Q 1950 3700 2050 4075 
Q 2275 3825 2550 3675 
Q 2375 3550 2137 3137 
Q 1900 2725 1175 1600 
Q 1650 1650 2350 1775 
Q 2325 1500 2300 1325 
Q 1875 1275 1475 1225 
Q 1075 1175 600 1075 
Q 550 1300 450 1525 
Q 700 1625 950 1975 
Q 1200 2325 1475 2775 
Q 1125 2750 900 2725 
Q 675 2700 450 2625 
Q 375 2875 275 3100 
Q 550 3300 825 3912 
Q 1100 4525 1250 5150 
Q 1525 4950 1800 4825 
z
M 2250 725 
Q 2250 475 2275 325 
Q 1975 250 1487 112 
Q 1000 -25 575 -200 
Q 500 50 375 300 
Q 925 375 1325 475 
Q 1725 575 2250 725 
z
M 3050 2175 
Q 3150 2025 3525 1450 
Q 3300 1325 3125 1175 
Q 2950 1525 2650 1900 
Q 2850 2050 3050 2175 
z
" transform="scale(0.015625)"/>
      </defs>
      <use xlink:href="#SimHei-7eff"/>
      <use xlink:href="#SimHei-5149" transform="translate(100 0)"/>
     </g>
    </g>
    <g id="line2d_34">
     <path d="M 55.754688 64.332812 
L 65.754688 64.332812 
L 75.754688 64.332812 
" style="fill: none; stroke: #ff0000; stroke-width: 2; stroke-linecap: square"/>
     <g>
      <use xlink:href="#mb6c02f7c3e" x="65.754688" y="64.332812" style="fill: #ff0000; stroke: #ff0000"/>
     </g>
    </g>
    <g id="text_19">
     <!-- 红光 -->
     <g transform="translate(83.754688 67.832812) scale(0.1 -0.1)">
      <defs>
       <path id="SimHei-7ea2" d="M 4975 4375 
Q 5400 4375 5850 4400 
L 5850 3950 
Q 5400 3975 4975 3975 
L 4600 3975 
L 4600 175 
L 5125 175 
Q 5550 175 6025 200 
L 6025 -275 
Q 5550 -250 5125 -250 
L 3600 -250 
Q 3225 -250 2750 -275 
L 2750 200 
Q 3225 175 3625 175 
L 4125 175 
L 4125 3975 
L 3850 3975 
Q 3375 3975 2950 3950 
L 2950 4400 
Q 3400 4375 3800 4375 
L 4975 4375 
z
M 2775 1775 
Q 2725 1525 2725 1350 
Q 1475 1175 1200 1112 
Q 925 1050 675 975 
Q 575 1250 475 1425 
Q 775 1550 1062 1887 
Q 1350 2225 1700 2750 
Q 1450 2725 1125 2700 
Q 800 2675 475 2575 
Q 375 2825 275 3050 
Q 500 3075 900 3737 
Q 1300 4400 1525 5100 
Q 1825 4925 2050 4850 
Q 1850 4600 1625 4187 
Q 1400 3775 925 3075 
Q 1525 3100 1950 3125 
Q 2275 3700 2375 3975 
Q 2550 3825 2850 3650 
Q 2700 3475 2412 3037 
Q 2125 2600 1300 1550 
Q 2025 1650 2775 1775 
z
M 2825 750 
Q 2825 550 2850 300 
Q 1500 -50 1187 -162 
Q 875 -275 625 -375 
Q 525 -50 400 175 
Q 825 250 1337 362 
Q 1850 475 2825 750 
z
" transform="scale(0.015625)"/>
      </defs>
      <use xlink:href="#SimHei-7ea2"/>
      <use xlink:href="#SimHei-5149" transform="translate(100 0)"/>
     </g>
    </g>
    <g id="line2d_35">
     <path d="M 55.754688 78.629687 
L 65.754688 78.629687 
L 75.754688 78.629687 
" style="fill: none; stroke: #ffa500; stroke-width: 2; stroke-linecap: square"/>
     <g>
      <use xlink:href="#macef9e729d" x="65.754688" y="78.629687" style="fill: #ffa500; stroke: #ffa500"/>
     </g>
    </g>
    <g id="text_20">
     <!-- 暖白光(WW) -->
     <g transform="translate(83.754688 82.129687) scale(0.1 -0.1)">
      <defs>
       <path id="SimHei-6696" d="M 2750 -350 
Q 3575 -175 4150 300 
Q 3800 675 3575 1025 
Q 3250 500 2450 -225 
Q 2325 -50 2000 50 
Q 3075 750 3575 2100 
Q 2825 2100 2500 2075 
L 2500 2475 
Q 2800 2450 3650 2450 
Q 3725 2650 3750 3000 
Q 3075 3000 2725 2975 
L 2725 3375 
Q 3175 3350 3600 3350 
L 4775 3350 
Q 5225 4300 5275 4575 
Q 5525 4450 5800 4325 
Q 5600 4075 5250 3375 
Q 5575 3375 5900 3400 
L 5900 3000 
L 4225 3000 
Q 4175 2650 4125 2450 
L 5350 2450 
Q 5725 2450 6050 2475 
L 6050 2075 
Q 5750 2100 5375 2100 
L 4050 2100 
L 3900 1700 
L 5700 1700 
Q 5575 1350 5375 1025 
Q 5175 700 4850 325 
Q 5350 -50 6150 -275 
Q 5950 -400 5800 -675 
Q 5150 -450 4500 50 
Q 4025 -375 3150 -700 
Q 3025 -500 2750 -350 
z
M 2275 4700 
Q 2250 4125 2250 3575 
L 2250 1700 
Q 2250 1075 2275 450 
L 1800 450 
L 1800 825 
L 950 825 
L 950 250 
L 475 250 
Q 475 850 500 1475 
L 500 3575 
Q 500 4125 475 4700 
L 2275 4700 
z
M 2575 4875 
Q 3425 4900 4287 5012 
Q 5150 5125 5500 5250 
Q 5625 4975 5825 4775 
Q 5125 4725 4350 4637 
Q 3575 4550 2775 4425 
Q 2700 4725 2575 4875 
z
M 1800 1200 
L 1800 2600 
L 950 2600 
L 950 1200 
L 1800 1200 
z
M 1800 2975 
L 1800 4300 
L 950 4300 
L 950 2975 
L 1800 2975 
z
M 4500 575 
Q 4850 950 5025 1325 
L 3900 1325 
Q 4150 875 4500 575 
z
M 4125 3525 
Q 3950 3975 3725 4300 
Q 3925 4375 4100 4500 
Q 4375 4050 4525 3700 
Q 4325 3600 4125 3525 
z
M 2975 4375 
Q 3250 4050 3525 3650 
Q 3325 3550 3150 3425 
Q 2900 3850 2650 4100 
Q 2850 4275 2975 4375 
z
" transform="scale(0.015625)"/>
       <path id="SimHei-767d" d="M 3175 4975 
Q 3050 4850 2925 4637 
Q 2800 4425 2675 4175 
L 5550 4175 
Q 5525 3675 5525 2950 
L 5525 725 
Q 5525 175 5550 -500 
L 5025 -500 
L 5025 125 
L 1475 125 
L 1475 -550 
L 950 -550 
Q 975 200 975 700 
L 975 2950 
Q 975 3625 950 4175 
L 2200 4175 
Q 2450 4725 2575 5250 
Q 2850 5100 3175 4975 
z
M 5025 575 
L 5025 1975 
L 1475 1975 
L 1475 575 
L 5025 575 
z
M 5025 2425 
L 5025 3750 
L 1475 3750 
L 1475 2425 
L 5025 2425 
z
" transform="scale(0.015625)"/>
       <path id="SimHei-28" d="M 2975 -200 
L 2700 -475 
Q 2075 125 1762 775 
Q 1450 1425 1450 2250 
Q 1450 3075 1762 3725 
Q 2075 4375 2700 5000 
L 2975 4725 
Q 2400 4175 2112 3587 
Q 1825 3000 1825 2250 
Q 1825 1500 2112 912 
Q 2400 325 2975 -200 
z
" transform="scale(0.015625)"/>
       <path id="SimHei-57" d="M 3075 4400 
L 2525 75 
L 2025 75 
L 1575 3275 
L 1525 3275 
L 1075 75 
L 575 75 
L 25 4400 
L 575 4400 
L 850 1675 
L 900 1675 
L 1275 4400 
L 1825 4400 
L 2200 1675 
L 2250 1675 
L 2525 4400 
L 3075 4400 
z
" transform="scale(0.015625)"/>
       <path id="SimHei-29" d="M 1675 2250 
Q 1675 1425 1362 775 
Q 1050 125 425 -475 
L 150 -200 
Q 725 325 1012 912 
Q 1300 1500 1300 2250 
Q 1300 3000 1012 3587 
Q 725 4175 150 4725 
L 425 5000 
Q 1050 4375 1362 3725 
Q 1675 3075 1675 2250 
z
" transform="scale(0.015625)"/>
      </defs>
      <use xlink:href="#SimHei-6696"/>
      <use xlink:href="#SimHei-767d" transform="translate(100 0)"/>
      <use xlink:href="#SimHei-5149" transform="translate(200 0)"/>
      <use xlink:href="#SimHei-28" transform="translate(300 0)"/>
      <use xlink:href="#SimHei-57" transform="translate(350 0)"/>
      <use xlink:href="#SimHei-57" transform="translate(400 0)"/>
      <use xlink:href="#SimHei-29" transform="translate(450 0)"/>
     </g>
    </g>
    <g id="line2d_36">
     <path d="M 55.754688 92.8875 
L 65.754688 92.8875 
L 75.754688 92.8875 
" style="fill: none; stroke: #add8e6; stroke-width: 2; stroke-linecap: square"/>
     <g>
      <use xlink:href="#mb6f2c71a71" x="65.754688" y="92.8875" style="fill: #add8e6; stroke: #add8e6"/>
     </g>
    </g>
    <g id="text_21">
     <!-- 冷白光(CW) -->
     <g transform="translate(83.754688 96.3875) scale(0.1 -0.1)">
      <defs>
       <path id="SimHei-51b7" d="M 4425 -675 
Q 3950 -150 2800 725 
Q 2950 925 3075 1125 
Q 3600 725 3875 500 
Q 4200 925 4725 1675 
L 3050 1675 
Q 2625 1675 2200 1650 
L 2200 2125 
Q 2625 2100 3050 2100 
L 5650 2100 
Q 5425 1775 4225 200 
Q 4425 50 4800 -275 
Q 4600 -500 4425 -675 
z
M 4050 4775 
Q 4900 3400 6175 2850 
Q 6000 2675 5800 2375 
Q 4675 3025 3825 4350 
Q 3250 3225 2150 2300 
Q 1925 2550 1750 2675 
Q 2450 3075 2962 3800 
Q 3475 4525 3650 5250 
Q 3975 5100 4200 5025 
Q 4125 4925 4050 4775 
z
M 1825 2350 
Q 1525 1750 1225 1125 
Q 925 500 700 100 
Q 500 275 225 425 
Q 575 900 875 1475 
Q 1175 2050 1400 2650 
Q 1600 2450 1825 2350 
z
M 825 4700 
Q 1425 4075 1850 3575 
Q 1650 3425 1450 3200 
Q 1175 3625 450 4350 
Q 625 4500 825 4700 
z
M 3775 3475 
Q 4075 3125 4525 2550 
Q 4350 2425 4125 2225 
Q 3725 2850 3425 3150 
Q 3600 3300 3775 3475 
z
" transform="scale(0.015625)"/>
       <path id="SimHei-43" d="M 2975 1825 
Q 2950 875 2575 475 
Q 2200 75 1675 75 
Q 1075 75 650 562 
Q 225 1050 225 2125 
Q 225 3300 637 3875 
Q 1050 4450 1700 4450 
Q 2250 4450 2612 4037 
Q 2975 3625 2950 2875 
L 2400 2875 
Q 2400 3425 2225 3700 
Q 2050 3975 1700 3975 
Q 1300 3975 1062 3562 
Q 825 3150 825 2175 
Q 825 1275 1062 912 
Q 1300 550 1675 550 
Q 1950 550 2175 812 
Q 2400 1075 2400 1825 
L 2975 1825 
z
" transform="scale(0.015625)"/>
      </defs>
      <use xlink:href="#SimHei-51b7"/>
      <use xlink:href="#SimHei-767d" transform="translate(100 0)"/>
      <use xlink:href="#SimHei-5149" transform="translate(200 0)"/>
      <use xlink:href="#SimHei-28" transform="translate(300 0)"/>
      <use xlink:href="#SimHei-43" transform="translate(350 0)"/>
      <use xlink:href="#SimHei-57" transform="translate(400 0)"/>
      <use xlink:href="#SimHei-29" transform="translate(450 0)"/>
     </g>
    </g>
   </g>
  </g>
  <g id="axes_2">
   <g id="patch_8">
    <path d="M 46.754688 675.68125 
L 1025.295937 675.68125 
L 1025.295937 377.518125 
L 46.754688 377.518125 
z
" style="fill: #ffffff"/>
   </g>
   <g id="matplotlib.axis_3">
    <g id="xtick_9">
     <g id="line2d_37">
      <path d="M 91.233835 675.68125 
L 91.233835 377.518125 
" clip-path="url(#p17dd1edcfb)" style="fill: none; stroke: #b0b0b0; stroke-opacity: 0.3; stroke-width: 0.8; stroke-linecap: square"/>
     </g>
     <g id="line2d_38">
      <g>
       <use xlink:href="#m3f52104f50" x="91.233835" y="675.68125" style="stroke: #000000; stroke-width: 0.8"/>
      </g>
     </g>
     <g id="text_22">
      <!-- 0 -->
      <g transform="translate(88.733835 689.55625) scale(0.1 -0.1)">
       <use xlink:href="#SimHei-30"/>
      </g>
     </g>
    </g>
    <g id="xtick_10">
     <g id="line2d_39">
      <path d="M 218.317114 675.68125 
L 218.317114 377.518125 
" clip-path="url(#p17dd1edcfb)" style="fill: none; stroke: #b0b0b0; stroke-opacity: 0.3; stroke-width: 0.8; stroke-linecap: square"/>
     </g>
     <g id="line2d_40">
      <g>
       <use xlink:href="#m3f52104f50" x="218.317114" y="675.68125" style="stroke: #000000; stroke-width: 0.8"/>
      </g>
     </g>
     <g id="text_23">
      <!-- 2 -->
      <g transform="translate(215.817114 689.55625) scale(0.1 -0.1)">
       <use xlink:href="#SimHei-32"/>
      </g>
     </g>
    </g>
    <g id="xtick_11">
     <g id="line2d_41">
      <path d="M 345.400394 675.68125 
L 345.400394 377.518125 
" clip-path="url(#p17dd1edcfb)" style="fill: none; stroke: #b0b0b0; stroke-opacity: 0.3; stroke-width: 0.8; stroke-linecap: square"/>
     </g>
     <g id="line2d_42">
      <g>
       <use xlink:href="#m3f52104f50" x="345.400394" y="675.68125" style="stroke: #000000; stroke-width: 0.8"/>
      </g>
     </g>
     <g id="text_24">
      <!-- 4 -->
      <g transform="translate(342.900394 689.55625) scale(0.1 -0.1)">
       <use xlink:href="#SimHei-34"/>
      </g>
     </g>
    </g>
    <g id="xtick_12">
     <g id="line2d_43">
      <path d="M 472.483673 675.68125 
L 472.483673 377.518125 
" clip-path="url(#p17dd1edcfb)" style="fill: none; stroke: #b0b0b0; stroke-opacity: 0.3; stroke-width: 0.8; stroke-linecap: square"/>
     </g>
     <g id="line2d_44">
      <g>
       <use xlink:href="#m3f52104f50" x="472.483673" y="675.68125" style="stroke: #000000; stroke-width: 0.8"/>
      </g>
     </g>
     <g id="text_25">
      <!-- 6 -->
      <g transform="translate(469.983673 689.55625) scale(0.1 -0.1)">
       <use xlink:href="#SimHei-36"/>
      </g>
     </g>
    </g>
    <g id="xtick_13">
     <g id="line2d_45">
      <path d="M 599.566952 675.68125 
L 599.566952 377.518125 
" clip-path="url(#p17dd1edcfb)" style="fill: none; stroke: #b0b0b0; stroke-opacity: 0.3; stroke-width: 0.8; stroke-linecap: square"/>
     </g>
     <g id="line2d_46">
      <g>
       <use xlink:href="#m3f52104f50" x="599.566952" y="675.68125" style="stroke: #000000; stroke-width: 0.8"/>
      </g>
     </g>
     <g id="text_26">
      <!-- 8 -->
      <g transform="translate(597.066952 689.55625) scale(0.1 -0.1)">
       <use xlink:href="#SimHei-38"/>
      </g>
     </g>
    </g>
    <g id="xtick_14">
     <g id="line2d_47">
      <path d="M 726.650231 675.68125 
L 726.650231 377.518125 
" clip-path="url(#p17dd1edcfb)" style="fill: none; stroke: #b0b0b0; stroke-opacity: 0.3; stroke-width: 0.8; stroke-linecap: square"/>
     </g>
     <g id="line2d_48">
      <g>
       <use xlink:href="#m3f52104f50" x="726.650231" y="675.68125" style="stroke: #000000; stroke-width: 0.8"/>
      </g>
     </g>
     <g id="text_27">
      <!-- 10 -->
      <g transform="translate(721.650231 689.55625) scale(0.1 -0.1)">
       <use xlink:href="#SimHei-31"/>
       <use xlink:href="#SimHei-30" transform="translate(50 0)"/>
      </g>
     </g>
    </g>
    <g id="xtick_15">
     <g id="line2d_49">
      <path d="M 853.733511 675.68125 
L 853.733511 377.518125 
" clip-path="url(#p17dd1edcfb)" style="fill: none; stroke: #b0b0b0; stroke-opacity: 0.3; stroke-width: 0.8; stroke-linecap: square"/>
     </g>
     <g id="line2d_50">
      <g>
       <use xlink:href="#m3f52104f50" x="853.733511" y="675.68125" style="stroke: #000000; stroke-width: 0.8"/>
      </g>
     </g>
     <g id="text_28">
      <!-- 12 -->
      <g transform="translate(848.733511 689.55625) scale(0.1 -0.1)">
       <use xlink:href="#SimHei-31"/>
       <use xlink:href="#SimHei-32" transform="translate(50 0)"/>
      </g>
     </g>
    </g>
    <g id="xtick_16">
     <g id="line2d_51">
      <path d="M 980.81679 675.68125 
L 980.81679 377.518125 
" clip-path="url(#p17dd1edcfb)" style="fill: none; stroke: #b0b0b0; stroke-opacity: 0.3; stroke-width: 0.8; stroke-linecap: square"/>
     </g>
     <g id="line2d_52">
      <g>
       <use xlink:href="#m3f52104f50" x="980.81679" y="675.68125" style="stroke: #000000; stroke-width: 0.8"/>
      </g>
     </g>
     <g id="text_29">
      <!-- 14 -->
      <g transform="translate(975.81679 689.55625) scale(0.1 -0.1)">
       <use xlink:href="#SimHei-31"/>
       <use xlink:href="#SimHei-34" transform="translate(50 0)"/>
      </g>
     </g>
    </g>
    <g id="text_30">
     <!-- 时间点索引 -->
     <g transform="translate(511.025312 702.814062) scale(0.1 -0.1)">
      <use xlink:href="#SimHei-65f6"/>
      <use xlink:href="#SimHei-95f4" transform="translate(100 0)"/>
      <use xlink:href="#SimHei-70b9" transform="translate(200 0)"/>
      <use xlink:href="#SimHei-7d22" transform="translate(300 0)"/>
      <use xlink:href="#SimHei-5f15" transform="translate(400 0)"/>
     </g>
    </g>
   </g>
   <g id="matplotlib.axis_4">
    <g id="ytick_6">
     <g id="line2d_53">
      <path d="M 46.754688 657.690864 
L 1025.295937 657.690864 
" clip-path="url(#p17dd1edcfb)" style="fill: none; stroke: #b0b0b0; stroke-opacity: 0.3; stroke-width: 0.8; stroke-linecap: square"/>
     </g>
     <g id="line2d_54">
      <g>
       <use xlink:href="#m20325a3311" x="46.754688" y="657.690864" style="stroke: #000000; stroke-width: 0.8"/>
      </g>
     </g>
     <g id="text_31">
      <!-- 3500 -->
      <g transform="translate(19.754688 661.128364) scale(0.1 -0.1)">
       <defs>
        <path id="SimHei-35" d="M 550 1325 
Q 725 650 1150 575 
Q 1575 500 1837 662 
Q 2100 825 2212 1087 
Q 2325 1350 2312 1675 
Q 2300 2000 2137 2225 
Q 1975 2450 1725 2525 
Q 1475 2600 1162 2525 
Q 850 2450 650 2175 
L 225 2225 
Q 275 2375 700 4375 
L 2675 4375 
L 2675 3925 
L 1075 3925 
Q 950 3250 825 2850 
Q 1200 3025 1525 3012 
Q 1850 3000 2150 2862 
Q 2450 2725 2587 2487 
Q 2725 2250 2787 2012 
Q 2850 1775 2837 1500 
Q 2825 1225 2725 937 
Q 2625 650 2425 462 
Q 2225 275 1937 162 
Q 1650 50 1275 75 
Q 900 100 562 350 
Q 225 600 100 1200 
L 550 1325 
z
" transform="scale(0.015625)"/>
       </defs>
       <use xlink:href="#SimHei-33"/>
       <use xlink:href="#SimHei-35" transform="translate(50 0)"/>
       <use xlink:href="#SimHei-30" transform="translate(100 0)"/>
       <use xlink:href="#SimHei-30" transform="translate(150 0)"/>
      </g>
     </g>
    </g>
    <g id="ytick_7">
     <g id="line2d_55">
      <path d="M 46.754688 596.185707 
L 1025.295937 596.185707 
" clip-path="url(#p17dd1edcfb)" style="fill: none; stroke: #b0b0b0; stroke-opacity: 0.3; stroke-width: 0.8; stroke-linecap: square"/>
     </g>
     <g id="line2d_56">
      <g>
       <use xlink:href="#m20325a3311" x="46.754688" y="596.185707" style="stroke: #000000; stroke-width: 0.8"/>
      </g>
     </g>
     <g id="text_32">
      <!-- 4000 -->
      <g transform="translate(19.754688 599.623207) scale(0.1 -0.1)">
       <use xlink:href="#SimHei-34"/>
       <use xlink:href="#SimHei-30" transform="translate(50 0)"/>
       <use xlink:href="#SimHei-30" transform="translate(100 0)"/>
       <use xlink:href="#SimHei-30" transform="translate(150 0)"/>
      </g>
     </g>
    </g>
    <g id="ytick_8">
     <g id="line2d_57">
      <path d="M 46.754688 534.68055 
L 1025.295937 534.68055 
" clip-path="url(#p17dd1edcfb)" style="fill: none; stroke: #b0b0b0; stroke-opacity: 0.3; stroke-width: 0.8; stroke-linecap: square"/>
     </g>
     <g id="line2d_58">
      <g>
       <use xlink:href="#m20325a3311" x="46.754688" y="534.68055" style="stroke: #000000; stroke-width: 0.8"/>
      </g>
     </g>
     <g id="text_33">
      <!-- 4500 -->
      <g transform="translate(19.754688 538.11805) scale(0.1 -0.1)">
       <use xlink:href="#SimHei-34"/>
       <use xlink:href="#SimHei-35" transform="translate(50 0)"/>
       <use xlink:href="#SimHei-30" transform="translate(100 0)"/>
       <use xlink:href="#SimHei-30" transform="translate(150 0)"/>
      </g>
     </g>
    </g>
    <g id="ytick_9">
     <g id="line2d_59">
      <path d="M 46.754688 473.175394 
L 1025.295937 473.175394 
" clip-path="url(#p17dd1edcfb)" style="fill: none; stroke: #b0b0b0; stroke-opacity: 0.3; stroke-width: 0.8; stroke-linecap: square"/>
     </g>
     <g id="line2d_60">
      <g>
       <use xlink:href="#m20325a3311" x="46.754688" y="473.175394" style="stroke: #000000; stroke-width: 0.8"/>
      </g>
     </g>
     <g id="text_34">
      <!-- 5000 -->
      <g transform="translate(19.754688 476.612894) scale(0.1 -0.1)">
       <use xlink:href="#SimHei-35"/>
       <use xlink:href="#SimHei-30" transform="translate(50 0)"/>
       <use xlink:href="#SimHei-30" transform="translate(100 0)"/>
       <use xlink:href="#SimHei-30" transform="translate(150 0)"/>
      </g>
     </g>
    </g>
    <g id="ytick_10">
     <g id="line2d_61">
      <path d="M 46.754688 411.670237 
L 1025.295937 411.670237 
" clip-path="url(#p17dd1edcfb)" style="fill: none; stroke: #b0b0b0; stroke-opacity: 0.3; stroke-width: 0.8; stroke-linecap: square"/>
     </g>
     <g id="line2d_62">
      <g>
       <use xlink:href="#m20325a3311" x="46.754688" y="411.670237" style="stroke: #000000; stroke-width: 0.8"/>
      </g>
     </g>
     <g id="text_35">
      <!-- 5500 -->
      <g transform="translate(19.754688 415.107737) scale(0.1 -0.1)">
       <use xlink:href="#SimHei-35"/>
       <use xlink:href="#SimHei-35" transform="translate(50 0)"/>
       <use xlink:href="#SimHei-30" transform="translate(100 0)"/>
       <use xlink:href="#SimHei-30" transform="translate(150 0)"/>
      </g>
     </g>
    </g>
    <g id="text_36">
     <!-- CCT (K) -->
     <g style="fill: #ff0000" transform="translate(14.504688 544.099687) rotate(-90) scale(0.1 -0.1)">
      <defs>
       <path id="SimHei-54" d="M 2850 3925 
L 1850 3925 
L 1850 125 
L 1275 125 
L 1275 3925 
L 275 3925 
L 275 4400 
L 2850 4400 
L 2850 3925 
z
" transform="scale(0.015625)"/>
       <path id="SimHei-20" transform="scale(0.015625)"/>
       <path id="SimHei-4b" d="M 3050 125 
L 2400 125 
L 1250 2250 
L 850 1725 
L 850 125 
L 275 125 
L 275 4400 
L 850 4400 
L 850 2550 
L 2275 4400 
L 2950 4400 
L 1625 2725 
L 3050 125 
z
" transform="scale(0.015625)"/>
      </defs>
      <use xlink:href="#SimHei-43"/>
      <use xlink:href="#SimHei-43" transform="translate(50 0)"/>
      <use xlink:href="#SimHei-54" transform="translate(100 0)"/>
      <use xlink:href="#SimHei-20" transform="translate(150 0)"/>
      <use xlink:href="#SimHei-28" transform="translate(200 0)"/>
      <use xlink:href="#SimHei-4b" transform="translate(250 0)"/>
      <use xlink:href="#SimHei-29" transform="translate(300 0)"/>
     </g>
    </g>
   </g>
   <g id="line2d_63">
    <path d="M 91.233835 430.766827 
L 154.775475 433.694117 
L 218.317114 436.669655 
L 281.858754 439.693608 
L 345.400394 426.213938 
L 408.942033 413.682889 
L 472.483673 401.984501 
L 536.025312 391.070994 
L 599.566952 401.231863 
L 663.108592 412.170123 
L 726.650231 423.978833 
L 790.191871 436.782033 
L 853.733511 454.199083 
L 917.27515 493.576762 
L 980.81679 662.128381 
" clip-path="url(#p17dd1edcfb)" style="fill: none; stroke: #ff0000; stroke-width: 2; stroke-linecap: square"/>
    <g clip-path="url(#p17dd1edcfb)">
     <use xlink:href="#mb6c02f7c3e" x="91.233835" y="430.766827" style="fill: #ff0000; stroke: #ff0000"/>
     <use xlink:href="#mb6c02f7c3e" x="154.775475" y="433.694117" style="fill: #ff0000; stroke: #ff0000"/>
     <use xlink:href="#mb6c02f7c3e" x="218.317114" y="436.669655" style="fill: #ff0000; stroke: #ff0000"/>
     <use xlink:href="#mb6c02f7c3e" x="281.858754" y="439.693608" style="fill: #ff0000; stroke: #ff0000"/>
     <use xlink:href="#mb6c02f7c3e" x="345.400394" y="426.213938" style="fill: #ff0000; stroke: #ff0000"/>
     <use xlink:href="#mb6c02f7c3e" x="408.942033" y="413.682889" style="fill: #ff0000; stroke: #ff0000"/>
     <use xlink:href="#mb6c02f7c3e" x="472.483673" y="401.984501" style="fill: #ff0000; stroke: #ff0000"/>
     <use xlink:href="#mb6c02f7c3e" x="536.025312" y="391.070994" style="fill: #ff0000; stroke: #ff0000"/>
     <use xlink:href="#mb6c02f7c3e" x="599.566952" y="401.231863" style="fill: #ff0000; stroke: #ff0000"/>
     <use xlink:href="#mb6c02f7c3e" x="663.108592" y="412.170123" style="fill: #ff0000; stroke: #ff0000"/>
     <use xlink:href="#mb6c02f7c3e" x="726.650231" y="423.978833" style="fill: #ff0000; stroke: #ff0000"/>
     <use xlink:href="#mb6c02f7c3e" x="790.191871" y="436.782033" style="fill: #ff0000; stroke: #ff0000"/>
     <use xlink:href="#mb6c02f7c3e" x="853.733511" y="454.199083" style="fill: #ff0000; stroke: #ff0000"/>
     <use xlink:href="#mb6c02f7c3e" x="917.27515" y="493.576762" style="fill: #ff0000; stroke: #ff0000"/>
     <use xlink:href="#mb6c02f7c3e" x="980.81679" y="662.128381" style="fill: #ff0000; stroke: #ff0000"/>
    </g>
   </g>
   <g id="patch_9">
    <path d="M 46.754688 675.68125 
L 46.754688 377.518125 
" style="fill: none; stroke: #000000; stroke-width: 0.8; stroke-linejoin: miter; stroke-linecap: square"/>
   </g>
   <g id="patch_10">
    <path d="M 1025.295937 675.68125 
L 1025.295937 377.518125 
" style="fill: none; stroke: #000000; stroke-width: 0.8; stroke-linejoin: miter; stroke-linecap: square"/>
   </g>
   <g id="patch_11">
    <path d="M 46.754687 675.68125 
L 1025.295937 675.68125 
" style="fill: none; stroke: #000000; stroke-width: 0.8; stroke-linejoin: miter; stroke-linecap: square"/>
   </g>
   <g id="patch_12">
    <path d="M 46.754687 377.518125 
L 1025.295937 377.518125 
" style="fill: none; stroke: #000000; stroke-width: 0.8; stroke-linejoin: miter; stroke-linecap: square"/>
   </g>
   <g id="text_37">
    <!-- 全天关键参数变化 -->
    <g transform="translate(488.025312 371.518125) scale(0.12 -0.12)">
     <defs>
      <path id="SimHei-5173" d="M 4675 4850 
Q 4525 4675 4362 4375 
Q 4200 4075 4075 3825 
L 4625 3825 
Q 5150 3825 5550 3850 
L 5550 3375 
Q 5225 3400 4700 3400 
L 3400 3400 
L 3400 2150 
L 4975 2150 
Q 5475 2150 5875 2175 
L 5875 1700 
Q 5475 1725 5025 1725 
L 3500 1725 
Q 4250 450 6000 75 
Q 5775 -175 5600 -525 
Q 4025 0 3225 1300 
Q 2800 200 875 -600 
Q 775 -350 500 -150 
Q 2425 375 2875 1725 
L 1550 1725 
Q 975 1725 600 1700 
L 600 2150 
Q 875 2125 1450 2125 
L 2925 2125 
L 2925 3400 
L 1750 3400 
Q 1275 3400 900 3375 
L 900 3850 
Q 1275 3825 1775 3825 
L 3575 3825 
Q 3925 4625 4075 5150 
Q 4325 5000 4675 4850 
z
M 2125 5125 
Q 2450 4725 2800 4175 
Q 2500 4025 2325 3875 
Q 2025 4450 1725 4825 
Q 1950 4975 2125 5125 
z
" transform="scale(0.015625)"/>
      <path id="SimHei-952e" d="M 5675 3750 
Q 5825 3750 6075 3775 
L 6075 3325 
Q 5825 3350 5675 3350 
Q 5675 2650 5700 2450 
L 4700 2450 
L 4700 1975 
L 5200 1975 
Q 5400 1975 5650 2000 
L 5650 1575 
Q 5550 1600 5225 1600 
L 4700 1600 
L 4700 1075 
L 5375 1075 
Q 5575 1100 5825 1100 
L 5825 675 
Q 5550 700 5350 700 
L 4700 700 
L 4700 -50 
Q 5425 -100 6150 0 
Q 6025 -225 6000 -500 
Q 5125 -525 4562 -462 
Q 4000 -400 3637 -300 
Q 3275 -200 2875 175 
Q 2650 -250 2225 -625 
Q 2025 -425 1850 -275 
Q 2275 -25 2575 450 
Q 2250 950 2125 1700 
Q 2350 1750 2550 1800 
Q 2600 1325 2750 925 
Q 2900 1650 2925 2400 
Q 2500 2400 2250 2275 
Q 2150 2500 2075 2675 
Q 2300 2775 2462 3212 
Q 2625 3650 2750 4200 
Q 2475 4200 2125 4175 
L 2125 4625 
Q 2450 4600 2675 4600 
L 3300 4600 
Q 3225 4300 3075 3837 
Q 2925 3375 2750 2775 
L 3375 2775 
Q 3325 2275 3275 1725 
Q 3225 1175 3025 525 
Q 3375 225 3650 137 
Q 3925 50 4275 -25 
L 4275 700 
Q 3875 700 3425 675 
L 3425 1100 
Q 3925 1075 4275 1075 
L 4275 1600 
Q 3950 1600 3550 1575 
L 3550 2000 
Q 3950 1975 4275 1975 
L 4275 2450 
Q 3900 2450 3650 2400 
L 3650 2850 
Q 3950 2825 4275 2825 
L 4275 3375 
L 3725 3375 
Q 3525 3375 3350 3350 
L 3350 3775 
Q 3550 3750 3725 3750 
L 4275 3750 
L 4275 4250 
Q 4000 4250 3625 4225 
L 3625 4650 
Q 3950 4625 4300 4625 
Q 4300 5025 4275 5200 
L 4725 5200 
Q 4700 5000 4700 4625 
L 5725 4625 
Q 5675 4375 5675 3750 
z
M 2200 600 
Q 1925 400 1662 162 
Q 1400 -75 1125 -375 
Q 975 -200 775 0 
Q 975 200 1000 400 
L 1000 1625 
Q 825 1625 450 1600 
L 450 2025 
Q 800 2000 1000 2000 
L 1000 2800 
Q 875 2800 700 2775 
L 700 3200 
Q 1025 3175 1325 3175 
Q 1650 3175 2050 3225 
L 2050 2800 
Q 1625 2825 1400 2825 
L 1400 2025 
Q 1700 2025 1975 2050 
L 1975 1625 
Q 1650 1650 1400 1650 
L 1400 525 
Q 1750 800 1900 1000 
Q 1975 850 2200 600 
z
M 1025 3875 
Q 825 3575 500 3175 
Q 350 3350 175 3525 
Q 400 3700 675 4162 
Q 950 4625 1150 5200 
Q 1300 5125 1650 4975 
Q 1450 4650 1250 4275 
Q 1675 4275 2000 4300 
L 2000 3850 
Q 1625 3875 1025 3875 
z
M 5250 2825 
L 5250 3375 
L 4700 3375 
L 4700 2825 
L 5250 2825 
z
M 5250 3750 
L 5250 4250 
L 4700 4250 
L 4700 3750 
L 5250 3750 
z
" transform="scale(0.015625)"/>
      <path id="SimHei-53c2" d="M 3325 4850 
Q 3100 4725 2850 4500 
Q 2600 4275 2175 3925 
Q 2850 3950 3275 3950 
Q 3700 3950 4200 3975 
Q 3950 4200 3600 4450 
Q 3800 4625 3925 4775 
Q 4900 4100 5325 3675 
Q 5100 3475 4925 3300 
Q 4750 3475 4550 3625 
Q 3625 3600 3200 3575 
Q 3025 3250 2925 3125 
L 5075 3125 
Q 5575 3125 5950 3150 
L 5950 2700 
Q 5600 2725 5075 2725 
L 4325 2725 
Q 4675 2350 5187 2075 
Q 5700 1800 6150 1700 
Q 5850 1550 5675 1225 
Q 5100 1525 4612 1900 
Q 4125 2275 3800 2725 
L 2725 2725 
Q 2325 2300 1812 1962 
Q 1300 1625 650 1325 
Q 525 1525 250 1700 
Q 725 1825 1237 2100 
Q 1750 2375 2100 2725 
L 1475 2725 
Q 950 2725 375 2700 
L 375 3150 
Q 875 3125 1475 3125 
L 2400 3125 
L 2550 3350 
L 2650 3550 
Q 1925 3500 1775 3475 
Q 1625 3450 1500 3425 
Q 1375 3725 1300 3875 
Q 1600 3950 2050 4337 
Q 2500 4725 2825 5225 
Q 3025 5050 3325 4850 
z
M 5350 800 
Q 5025 650 4612 437 
Q 4200 225 3850 75 
Q 3500 -75 3062 -212 
Q 2625 -350 2150 -450 
Q 1675 -550 1225 -600 
Q 1150 -350 900 -150 
Q 1675 -125 2362 25 
Q 3050 175 3512 387 
Q 3975 600 4312 800 
Q 4650 1000 4900 1250 
Q 5100 1025 5350 800 
z
M 4550 1450 
Q 4350 1375 4037 1200 
Q 3725 1025 3350 862 
Q 2975 700 2512 550 
Q 2050 400 1575 325 
Q 1450 575 1250 775 
Q 1775 800 2175 900 
Q 2575 1000 3075 1212 
Q 3575 1425 4125 1850 
Q 4300 1675 4550 1450 
z
M 3900 2075 
Q 3575 1950 3350 1825 
Q 3125 1700 2687 1525 
Q 2250 1350 1750 1200 
Q 1625 1425 1450 1600 
Q 2025 1700 2587 1937 
Q 3150 2175 3500 2500 
Q 3700 2275 3900 2075 
z
" transform="scale(0.015625)"/>
      <path id="SimHei-6570" d="M 4525 4925 
Q 4475 4800 4400 4587 
Q 4325 4375 4175 3825 
L 5325 3825 
Q 5575 3825 5925 3850 
L 5925 3400 
Q 5650 3425 5500 3425 
Q 5500 3025 5362 2162 
Q 5225 1300 4875 675 
Q 5125 375 5437 137 
Q 5750 -100 6025 -200 
Q 5725 -425 5625 -625 
Q 5325 -450 5075 -225 
Q 4825 0 4575 325 
Q 4300 25 3987 -187 
Q 3675 -400 3200 -650 
Q 3075 -425 2850 -300 
Q 3225 -150 3650 125 
Q 4075 400 4300 675 
Q 4125 1025 3962 1425 
Q 3800 1825 3675 2475 
Q 3600 2275 3425 1950 
Q 3250 2050 3000 2150 
Q 3400 2850 3650 3675 
Q 3900 4500 3975 5100 
Q 4275 4975 4525 4925 
z
M 2100 2250 
Q 2000 2150 1875 1925 
L 3250 1925 
Q 3100 1300 2725 675 
Q 3125 525 3350 400 
Q 3225 225 3125 25 
Q 2900 175 2450 325 
Q 1950 -225 725 -650 
Q 600 -375 400 -275 
Q 1575 0 2000 475 
Q 1300 650 850 775 
Q 1000 1000 1250 1525 
Q 1000 1525 425 1500 
L 425 1950 
Q 900 1925 1400 1925 
Q 1500 2150 1550 2425 
Q 1825 2325 2100 2250 
z
M 1775 3950 
Q 1775 4550 1750 5100 
L 2250 5100 
Q 2225 4575 2225 3950 
Q 3075 3950 3425 3975 
L 3425 3525 
Q 3075 3550 2225 3550 
Q 2225 2825 2250 2425 
L 1750 2425 
Q 1775 2775 1775 3300 
Q 1650 3100 1300 2787 
Q 950 2475 650 2300 
Q 525 2525 275 2625 
Q 500 2700 875 2975 
Q 1250 3250 1450 3550 
Q 950 3550 500 3525 
L 500 3975 
Q 925 3950 1775 3950 
z
M 3975 3175 
Q 4200 1700 4600 1125 
Q 4850 1700 4937 2287 
Q 5025 2875 5050 3425 
L 4075 3425 
L 3975 3175 
z
M 1450 1000 
Q 1750 925 2275 800 
Q 2475 1050 2650 1525 
L 1725 1525 
Q 1600 1275 1450 1000 
z
M 3325 4825 
Q 3200 4625 3125 4450 
Q 3050 4275 2925 4025 
Q 2725 4125 2525 4175 
Q 2725 4500 2900 5000 
Q 3150 4875 3325 4825 
z
M 2575 3375 
Q 2900 3050 3200 2725 
Q 3050 2600 2875 2425 
Q 2525 2850 2300 3100 
Q 2450 3225 2575 3375 
z
M 925 5000 
Q 1275 4650 1500 4300 
L 1125 4075 
Q 950 4425 600 4725 
Q 825 4875 925 5000 
z
" transform="scale(0.015625)"/>
     </defs>
     <use xlink:href="#SimHei-5168"/>
     <use xlink:href="#SimHei-5929" transform="translate(100 0)"/>
     <use xlink:href="#SimHei-5173" transform="translate(200 0)"/>
     <use xlink:href="#SimHei-952e" transform="translate(300 0)"/>
     <use xlink:href="#SimHei-53c2" transform="translate(400 0)"/>
     <use xlink:href="#SimHei-6570" transform="translate(500 0)"/>
     <use xlink:href="#SimHei-53d8" transform="translate(600 0)"/>
     <use xlink:href="#SimHei-5316" transform="translate(700 0)"/>
    </g>
   </g>
   <g id="legend_2">
    <g id="patch_13">
     <path d="M 53.754688 412.018125 
L 120.754688 412.018125 
Q 122.754688 412.018125 122.754688 410.018125 
L 122.754688 384.518125 
Q 122.754688 382.518125 120.754688 382.518125 
L 53.754688 382.518125 
Q 51.754688 382.518125 51.754688 384.518125 
L 51.754688 410.018125 
Q 51.754688 412.018125 53.754688 412.018125 
z
" style="fill: #ffffff; opacity: 0.8; stroke: #cccccc; stroke-linejoin: miter"/>
    </g>
    <g id="line2d_64">
     <path d="M 55.754688 390.018125 
L 65.754688 390.018125 
L 75.754688 390.018125 
" style="fill: none; stroke: #ff0000; stroke-width: 2; stroke-linecap: square"/>
     <g>
      <use xlink:href="#mb6c02f7c3e" x="65.754688" y="390.018125" style="fill: #ff0000; stroke: #ff0000"/>
     </g>
    </g>
    <g id="text_38">
     <!-- CCT -->
     <g transform="translate(83.754688 393.518125) scale(0.1 -0.1)">
      <use xlink:href="#SimHei-43"/>
      <use xlink:href="#SimHei-43" transform="translate(50 0)"/>
      <use xlink:href="#SimHei-54" transform="translate(100 0)"/>
     </g>
    </g>
    <g id="line2d_65">
     <path d="M 55.754688 403.268125 
L 65.754688 403.268125 
L 75.754688 403.268125 
" style="fill: none; stroke: #0000ff; stroke-width: 2; stroke-linecap: square"/>
     <defs>
      <path id="m7029b2f6cd" d="M -3 3 
L 3 3 
L 3 -3 
L -3 -3 
z
" style="stroke: #0000ff; stroke-linejoin: miter"/>
     </defs>
     <g>
      <use xlink:href="#m7029b2f6cd" x="65.754688" y="403.268125" style="fill: #0000ff; stroke: #0000ff; stroke-linejoin: miter"/>
     </g>
    </g>
    <g id="text_39">
     <!-- mel-DER -->
     <g transform="translate(83.754688 406.768125) scale(0.1 -0.1)">
      <defs>
       <path id="SimHei-6d" d="M 3050 125 
L 2550 125 
L 2550 2150 
Q 2550 2300 2500 2400 
Q 2450 2500 2300 2500 
Q 2125 2500 1975 2312 
Q 1825 2125 1825 1825 
L 1825 125 
L 1325 125 
L 1325 2150 
Q 1325 2300 1275 2400 
Q 1225 2500 1075 2500 
Q 900 2500 750 2312 
Q 600 2125 600 1825 
L 600 125 
L 100 125 
L 100 2925 
L 600 2925 
L 600 2550 
Q 725 2750 900 2862 
Q 1075 2975 1275 2975 
Q 1475 2975 1612 2862 
Q 1750 2750 1800 2550 
Q 1925 2750 2087 2862 
Q 2250 2975 2450 2975 
Q 2750 2975 2900 2812 
Q 3050 2650 3050 2350 
L 3050 125 
z
" transform="scale(0.015625)"/>
       <path id="SimHei-65" d="M 2850 1075 
Q 2800 625 2450 350 
Q 2100 75 1625 75 
Q 1025 75 637 462 
Q 250 850 250 1525 
Q 250 2200 637 2587 
Q 1025 2975 1625 2975 
Q 2150 2975 2487 2637 
Q 2825 2300 2825 1525 
L 800 1525 
Q 800 975 1037 750 
Q 1275 525 1625 525 
Q 1900 525 2075 662 
Q 2250 800 2300 1075 
L 2850 1075 
z
M 2250 1925 
Q 2200 2275 2025 2412 
Q 1850 2550 1575 2550 
Q 1325 2550 1125 2412 
Q 925 2275 825 1925 
L 2250 1925 
z
" transform="scale(0.015625)"/>
       <path id="SimHei-6c" d="M 1825 125 
L 1325 125 
L 1325 4400 
L 1825 4400 
L 1825 125 
z
" transform="scale(0.015625)"/>
       <path id="SimHei-2d" d="M 2975 2125 
L 125 2125 
L 125 2525 
L 2975 2525 
L 2975 2125 
z
" transform="scale(0.015625)"/>
       <path id="SimHei-52" d="M 3000 125 
L 2400 125 
L 1500 1975 
L 850 1975 
L 850 125 
L 275 125 
L 275 4400 
L 1525 4400 
Q 2125 4400 2500 4112 
Q 2875 3825 2875 3175 
Q 2875 2675 2625 2400 
Q 2375 2125 2050 2050 
L 3000 125 
z
M 2300 3175 
Q 2300 3525 2087 3725 
Q 1875 3925 1400 3925 
L 850 3925 
L 850 2450 
L 1550 2450 
Q 1850 2450 2075 2612 
Q 2300 2775 2300 3175 
z
" transform="scale(0.015625)"/>
      </defs>
      <use xlink:href="#SimHei-6d"/>
      <use xlink:href="#SimHei-65" transform="translate(50 0)"/>
      <use xlink:href="#SimHei-6c" transform="translate(100 0)"/>
      <use xlink:href="#SimHei-2d" transform="translate(150 0)"/>
      <use xlink:href="#SimHei-44" transform="translate(200 0)"/>
      <use xlink:href="#SimHei-45" transform="translate(250 0)"/>
      <use xlink:href="#SimHei-52" transform="translate(300 0)"/>
     </g>
    </g>
   </g>
  </g>
  <g id="axes_3">
   <g id="matplotlib.axis_5">
    <g id="ytick_11">
     <g id="line2d_66">
      <defs>
       <path id="m1fef451727" d="M 0 0 
L 3.5 0 
" style="stroke: #000000; stroke-width: 0.8"/>
      </defs>
      <g>
       <use xlink:href="#m1fef451727" x="1025.295937" y="671.232228" style="stroke: #000000; stroke-width: 0.8"/>
      </g>
     </g>
     <g id="text_40">
      <!-- 0.55 -->
      <g transform="translate(1032.295937 674.669728) scale(0.1 -0.1)">
       <use xlink:href="#SimHei-30"/>
       <use xlink:href="#SimHei-2e" transform="translate(50 0)"/>
       <use xlink:href="#SimHei-35" transform="translate(100 0)"/>
       <use xlink:href="#SimHei-35" transform="translate(150 0)"/>
      </g>
     </g>
    </g>
    <g id="ytick_12">
     <g id="line2d_67">
      <g>
       <use xlink:href="#m1fef451727" x="1025.295937" y="628.223076" style="stroke: #000000; stroke-width: 0.8"/>
      </g>
     </g>
     <g id="text_41">
      <!-- 0.60 -->
      <g transform="translate(1032.295937 631.660576) scale(0.1 -0.1)">
       <use xlink:href="#SimHei-30"/>
       <use xlink:href="#SimHei-2e" transform="translate(50 0)"/>
       <use xlink:href="#SimHei-36" transform="translate(100 0)"/>
       <use xlink:href="#SimHei-30" transform="translate(150 0)"/>
      </g>
     </g>
    </g>
    <g id="ytick_13">
     <g id="line2d_68">
      <g>
       <use xlink:href="#m1fef451727" x="1025.295937" y="585.213924" style="stroke: #000000; stroke-width: 0.8"/>
      </g>
     </g>
     <g id="text_42">
      <!-- 0.65 -->
      <g transform="translate(1032.295937 588.651424) scale(0.1 -0.1)">
       <use xlink:href="#SimHei-30"/>
       <use xlink:href="#SimHei-2e" transform="translate(50 0)"/>
       <use xlink:href="#SimHei-36" transform="translate(100 0)"/>
       <use xlink:href="#SimHei-35" transform="translate(150 0)"/>
      </g>
     </g>
    </g>
    <g id="ytick_14">
     <g id="line2d_69">
      <g>
       <use xlink:href="#m1fef451727" x="1025.295937" y="542.204772" style="stroke: #000000; stroke-width: 0.8"/>
      </g>
     </g>
     <g id="text_43">
      <!-- 0.70 -->
      <g transform="translate(1032.295937 545.642272) scale(0.1 -0.1)">
       <defs>
        <path id="SimHei-37" d="M 850 150 
Q 1300 2050 2425 3925 
L 275 3925 
L 275 4375 
L 2950 4375 
L 2950 3950 
Q 1775 2050 1400 150 
L 850 150 
z
" transform="scale(0.015625)"/>
       </defs>
       <use xlink:href="#SimHei-30"/>
       <use xlink:href="#SimHei-2e" transform="translate(50 0)"/>
       <use xlink:href="#SimHei-37" transform="translate(100 0)"/>
       <use xlink:href="#SimHei-30" transform="translate(150 0)"/>
      </g>
     </g>
    </g>
    <g id="ytick_15">
     <g id="line2d_70">
      <g>
       <use xlink:href="#m1fef451727" x="1025.295937" y="499.19562" style="stroke: #000000; stroke-width: 0.8"/>
      </g>
     </g>
     <g id="text_44">
      <!-- 0.75 -->
      <g transform="translate(1032.295937 502.63312) scale(0.1 -0.1)">
       <use xlink:href="#SimHei-30"/>
       <use xlink:href="#SimHei-2e" transform="translate(50 0)"/>
       <use xlink:href="#SimHei-37" transform="translate(100 0)"/>
       <use xlink:href="#SimHei-35" transform="translate(150 0)"/>
      </g>
     </g>
    </g>
    <g id="ytick_16">
     <g id="line2d_71">
      <g>
       <use xlink:href="#m1fef451727" x="1025.295937" y="456.186468" style="stroke: #000000; stroke-width: 0.8"/>
      </g>
     </g>
     <g id="text_45">
      <!-- 0.80 -->
      <g transform="translate(1032.295937 459.623968) scale(0.1 -0.1)">
       <use xlink:href="#SimHei-30"/>
       <use xlink:href="#SimHei-2e" transform="translate(50 0)"/>
       <use xlink:href="#SimHei-38" transform="translate(100 0)"/>
       <use xlink:href="#SimHei-30" transform="translate(150 0)"/>
      </g>
     </g>
    </g>
    <g id="ytick_17">
     <g id="line2d_72">
      <g>
       <use xlink:href="#m1fef451727" x="1025.295937" y="413.177315" style="stroke: #000000; stroke-width: 0.8"/>
      </g>
     </g>
     <g id="text_46">
      <!-- 0.85 -->
      <g transform="translate(1032.295937 416.614815) scale(0.1 -0.1)">
       <use xlink:href="#SimHei-30"/>
       <use xlink:href="#SimHei-2e" transform="translate(50 0)"/>
       <use xlink:href="#SimHei-38" transform="translate(100 0)"/>
       <use xlink:href="#SimHei-35" transform="translate(150 0)"/>
      </g>
     </g>
    </g>
    <g id="text_47">
     <!-- mel-DER -->
     <g style="fill: #0000ff" transform="translate(1063.170937 544.099687) rotate(-90) scale(0.1 -0.1)">
      <use xlink:href="#SimHei-6d"/>
      <use xlink:href="#SimHei-65" transform="translate(50 0)"/>
      <use xlink:href="#SimHei-6c" transform="translate(100 0)"/>
      <use xlink:href="#SimHei-2d" transform="translate(150 0)"/>
      <use xlink:href="#SimHei-44" transform="translate(200 0)"/>
      <use xlink:href="#SimHei-45" transform="translate(250 0)"/>
      <use xlink:href="#SimHei-52" transform="translate(300 0)"/>
     </g>
    </g>
   </g>
   <g id="line2d_73">
    <path d="M 91.233835 398.125939 
L 154.775475 401.290106 
L 218.317114 404.532147 
L 281.858754 407.855194 
L 345.400394 393.536662 
L 408.942033 392.740404 
L 472.483673 393.171532 
L 536.025312 393.23071 
L 599.566952 392.923632 
L 663.108592 392.22532 
L 726.650231 391.070994 
L 790.191871 402.677067 
L 853.733511 417.736219 
L 917.27515 453.978822 
L 980.81679 662.128381 
" clip-path="url(#p17dd1edcfb)" style="fill: none; stroke: #0000ff; stroke-width: 2; stroke-linecap: square"/>
    <g clip-path="url(#p17dd1edcfb)">
     <use xlink:href="#m7029b2f6cd" x="91.233835" y="398.125939" style="fill: #0000ff; stroke: #0000ff; stroke-linejoin: miter"/>
     <use xlink:href="#m7029b2f6cd" x="154.775475" y="401.290106" style="fill: #0000ff; stroke: #0000ff; stroke-linejoin: miter"/>
     <use xlink:href="#m7029b2f6cd" x="218.317114" y="404.532147" style="fill: #0000ff; stroke: #0000ff; stroke-linejoin: miter"/>
     <use xlink:href="#m7029b2f6cd" x="281.858754" y="407.855194" style="fill: #0000ff; stroke: #0000ff; stroke-linejoin: miter"/>
     <use xlink:href="#m7029b2f6cd" x="345.400394" y="393.536662" style="fill: #0000ff; stroke: #0000ff; stroke-linejoin: miter"/>
     <use xlink:href="#m7029b2f6cd" x="408.942033" y="392.740404" style="fill: #0000ff; stroke: #0000ff; stroke-linejoin: miter"/>
     <use xlink:href="#m7029b2f6cd" x="472.483673" y="393.171532" style="fill: #0000ff; stroke: #0000ff; stroke-linejoin: miter"/>
     <use xlink:href="#m7029b2f6cd" x="536.025312" y="393.23071" style="fill: #0000ff; stroke: #0000ff; stroke-linejoin: miter"/>
     <use xlink:href="#m7029b2f6cd" x="599.566952" y="392.923632" style="fill: #0000ff; stroke: #0000ff; stroke-linejoin: miter"/>
     <use xlink:href="#m7029b2f6cd" x="663.108592" y="392.22532" style="fill: #0000ff; stroke: #0000ff; stroke-linejoin: miter"/>
     <use xlink:href="#m7029b2f6cd" x="726.650231" y="391.070994" style="fill: #0000ff; stroke: #0000ff; stroke-linejoin: miter"/>
     <use xlink:href="#m7029b2f6cd" x="790.191871" y="402.677067" style="fill: #0000ff; stroke: #0000ff; stroke-linejoin: miter"/>
     <use xlink:href="#m7029b2f6cd" x="853.733511" y="417.736219" style="fill: #0000ff; stroke: #0000ff; stroke-linejoin: miter"/>
     <use xlink:href="#m7029b2f6cd" x="917.27515" y="453.978822" style="fill: #0000ff; stroke: #0000ff; stroke-linejoin: miter"/>
     <use xlink:href="#m7029b2f6cd" x="980.81679" y="662.128381" style="fill: #0000ff; stroke: #0000ff; stroke-linejoin: miter"/>
    </g>
   </g>
   <g id="patch_14">
    <path d="M 46.754688 675.68125 
L 46.754688 377.518125 
" style="fill: none; stroke: #000000; stroke-width: 0.8; stroke-linejoin: miter; stroke-linecap: square"/>
   </g>
   <g id="patch_15">
    <path d="M 1025.295937 675.68125 
L 1025.295937 377.518125 
" style="fill: none; stroke: #000000; stroke-width: 0.8; stroke-linejoin: miter; stroke-linecap: square"/>
   </g>
   <g id="patch_16">
    <path d="M 46.754687 675.68125 
L 1025.295937 675.68125 
" style="fill: none; stroke: #000000; stroke-width: 0.8; stroke-linejoin: miter; stroke-linecap: square"/>
   </g>
   <g id="patch_17">
    <path d="M 46.754687 377.518125 
L 1025.295937 377.518125 
" style="fill: none; stroke: #000000; stroke-width: 0.8; stroke-linejoin: miter; stroke-linecap: square"/>
   </g>
  </g>
 </g>
 <defs>
  <clipPath id="p596904a2c7">
   <rect x="46.754688" y="22.85625" width="978.54125" height="298.163125"/>
  </clipPath>
  <clipPath id="p17dd1edcfb">
   <rect x="46.754688" y="377.518125" width="978.54125" height="298.163125"/>
  </clipPath>
 </defs>
</svg>
