<?xml version="1.0" encoding="utf-8" standalone="no"?>
<!DOCTYPE svg PUBLIC "-//W3C//DTD SVG 1.1//EN"
  "http://www.w3.org/Graphics/SVG/1.1/DTD/svg11.dtd">
<svg xmlns:xlink="http://www.w3.org/1999/xlink" width="856.318125pt" height="351.55pt" viewBox="0 0 856.318125 351.55" xmlns="http://www.w3.org/2000/svg" version="1.1">
 <metadata>
  <rdf:RDF xmlns:dc="http://purl.org/dc/elements/1.1/" xmlns:cc="http://creativecommons.org/ns#" xmlns:rdf="http://www.w3.org/1999/02/22-rdf-syntax-ns#">
   <cc:Work>
    <dc:type rdf:resource="http://purl.org/dc/dcmitype/StillImage"/>
    <dc:date>2025-08-09T21:27:46.867948</dc:date>
    <dc:format>image/svg+xml</dc:format>
    <dc:creator>
     <cc:Agent>
      <dc:title>Matplotlib v3.10.5, https://matplotlib.org/</dc:title>
     </cc:Agent>
    </dc:creator>
   </cc:Work>
  </rdf:RDF>
 </metadata>
 <defs>
  <style type="text/css">*{stroke-linejoin: round; stroke-linecap: butt}</style>
 </defs>
 <g id="figure_1">
  <g id="patch_1">
   <path d="M 0 351.55 
L 856.318125 351.55 
L 856.318125 0 
L 0 0 
z
" style="fill: #ffffff"/>
  </g>
  <g id="axes_1">
   <g id="patch_2">
    <path d="M 47.496875 316.084375 
L 422.518125 316.084375 
L 422.518125 23.090625 
L 47.496875 23.090625 
z
" style="fill: #ffffff"/>
   </g>
   <g id="matplotlib.axis_1">
    <g id="xtick_1">
     <g id="line2d_1">
      <path d="M 64.543295 316.084375 
L 64.543295 23.090625 
" clip-path="url(#pc47d65cc8f)" style="fill: none; stroke: #b0b0b0; stroke-width: 0.8; stroke-linecap: square"/>
     </g>
     <g id="line2d_2">
      <defs>
       <path id="m0d1fc4b2ac" d="M 0 0 
L 0 3.5 
" style="stroke: #000000; stroke-width: 0.8"/>
      </defs>
      <g>
       <use xlink:href="#m0d1fc4b2ac" x="64.543295" y="316.084375" style="stroke: #000000; stroke-width: 0.8"/>
      </g>
     </g>
     <g id="text_1">
      <!-- 0 -->
      <g transform="translate(62.043295 329.959375) scale(0.1 -0.1)">
       <defs>
        <path id="SimHei-30" d="M 225 2537 
Q 250 3200 412 3587 
Q 575 3975 875 4225 
Q 1175 4475 1612 4475 
Q 2050 4475 2375 4112 
Q 2700 3750 2800 3200 
Q 2900 2650 2862 1937 
Q 2825 1225 2612 775 
Q 2400 325 1975 150 
Q 1550 -25 1125 187 
Q 700 400 525 750 
Q 350 1100 275 1487 
Q 200 1875 225 2537 
z
M 750 2687 
Q 675 2000 800 1462 
Q 925 925 1212 700 
Q 1500 475 1800 612 
Q 2100 750 2237 1162 
Q 2375 1575 2375 2062 
Q 2375 2550 2337 2950 
Q 2300 3350 2112 3675 
Q 1925 4000 1612 4012 
Q 1300 4025 1062 3700 
Q 825 3375 750 2687 
z
" transform="scale(0.015625)"/>
       </defs>
       <use xlink:href="#SimHei-30"/>
      </g>
     </g>
    </g>
    <g id="xtick_2">
     <g id="line2d_3">
      <path d="M 132.865622 316.084375 
L 132.865622 23.090625 
" clip-path="url(#pc47d65cc8f)" style="fill: none; stroke: #b0b0b0; stroke-width: 0.8; stroke-linecap: square"/>
     </g>
     <g id="line2d_4">
      <g>
       <use xlink:href="#m0d1fc4b2ac" x="132.865622" y="316.084375" style="stroke: #000000; stroke-width: 0.8"/>
      </g>
     </g>
     <g id="text_2">
      <!-- 100 -->
      <g transform="translate(125.365622 329.959375) scale(0.1 -0.1)">
       <defs>
        <path id="SimHei-31" d="M 1400 3600 
Q 1075 3275 575 2975 
L 575 3450 
Q 1200 3875 1600 4450 
L 1900 4450 
L 1900 150 
L 1400 150 
L 1400 3600 
z
" transform="scale(0.015625)"/>
       </defs>
       <use xlink:href="#SimHei-31"/>
       <use xlink:href="#SimHei-30" transform="translate(50 0)"/>
       <use xlink:href="#SimHei-30" transform="translate(100 0)"/>
      </g>
     </g>
    </g>
    <g id="xtick_3">
     <g id="line2d_5">
      <path d="M 201.187948 316.084375 
L 201.187948 23.090625 
" clip-path="url(#pc47d65cc8f)" style="fill: none; stroke: #b0b0b0; stroke-width: 0.8; stroke-linecap: square"/>
     </g>
     <g id="line2d_6">
      <g>
       <use xlink:href="#m0d1fc4b2ac" x="201.187948" y="316.084375" style="stroke: #000000; stroke-width: 0.8"/>
      </g>
     </g>
     <g id="text_3">
      <!-- 200 -->
      <g transform="translate(193.687948 329.959375) scale(0.1 -0.1)">
       <defs>
        <path id="SimHei-32" d="M 300 250 
Q 325 625 650 925 
Q 975 1225 1475 1862 
Q 1975 2500 2125 2850 
Q 2275 3200 2237 3450 
Q 2200 3700 2000 3862 
Q 1800 4025 1537 4000 
Q 1275 3975 1037 3800 
Q 800 3625 675 3275 
L 200 3350 
Q 400 3925 712 4187 
Q 1025 4450 1450 4475 
Q 1700 4500 1900 4462 
Q 2100 4425 2312 4287 
Q 2525 4150 2662 3875 
Q 2800 3600 2762 3212 
Q 2725 2825 2375 2287 
Q 2025 1750 1025 600 
L 2825 600 
L 2825 150 
L 300 150 
L 300 250 
z
" transform="scale(0.015625)"/>
       </defs>
       <use xlink:href="#SimHei-32"/>
       <use xlink:href="#SimHei-30" transform="translate(50 0)"/>
       <use xlink:href="#SimHei-30" transform="translate(100 0)"/>
      </g>
     </g>
    </g>
    <g id="xtick_4">
     <g id="line2d_7">
      <path d="M 269.510275 316.084375 
L 269.510275 23.090625 
" clip-path="url(#pc47d65cc8f)" style="fill: none; stroke: #b0b0b0; stroke-width: 0.8; stroke-linecap: square"/>
     </g>
     <g id="line2d_8">
      <g>
       <use xlink:href="#m0d1fc4b2ac" x="269.510275" y="316.084375" style="stroke: #000000; stroke-width: 0.8"/>
      </g>
     </g>
     <g id="text_4">
      <!-- 300 -->
      <g transform="translate(262.010275 329.959375) scale(0.1 -0.1)">
       <defs>
        <path id="SimHei-33" d="M 250 1225 
L 700 1300 
Q 800 975 1025 762 
Q 1250 550 1587 562 
Q 1925 575 2125 837 
Q 2325 1100 2300 1437 
Q 2275 1775 2037 1962 
Q 1800 2150 1275 2225 
L 1275 2550 
Q 1800 2600 2037 2825 
Q 2275 3050 2250 3412 
Q 2225 3775 1925 3937 
Q 1625 4100 1287 3975 
Q 950 3850 750 3275 
L 300 3350 
Q 450 3800 712 4100 
Q 975 4400 1425 4450 
Q 1875 4500 2212 4337 
Q 2550 4175 2687 3837 
Q 2825 3500 2725 3100 
Q 2625 2700 2150 2400 
Q 2500 2250 2687 1950 
Q 2875 1650 2812 1162 
Q 2750 675 2375 375 
Q 2000 75 1525 87 
Q 1050 100 700 387 
Q 350 675 250 1225 
z
" transform="scale(0.015625)"/>
       </defs>
       <use xlink:href="#SimHei-33"/>
       <use xlink:href="#SimHei-30" transform="translate(50 0)"/>
       <use xlink:href="#SimHei-30" transform="translate(100 0)"/>
      </g>
     </g>
    </g>
    <g id="xtick_5">
     <g id="line2d_9">
      <path d="M 337.832601 316.084375 
L 337.832601 23.090625 
" clip-path="url(#pc47d65cc8f)" style="fill: none; stroke: #b0b0b0; stroke-width: 0.8; stroke-linecap: square"/>
     </g>
     <g id="line2d_10">
      <g>
       <use xlink:href="#m0d1fc4b2ac" x="337.832601" y="316.084375" style="stroke: #000000; stroke-width: 0.8"/>
      </g>
     </g>
     <g id="text_5">
      <!-- 400 -->
      <g transform="translate(330.332601 329.959375) scale(0.1 -0.1)">
       <defs>
        <path id="SimHei-34" d="M 2000 1100 
L 75 1100 
L 75 1525 
L 2100 4450 
L 2475 4450 
L 2475 1525 
L 3075 1525 
L 3075 1100 
L 2475 1100 
L 2475 150 
L 2000 150 
L 2000 1100 
z
M 2000 1525 
L 2000 3500 
L 600 1525 
L 2000 1525 
z
" transform="scale(0.015625)"/>
       </defs>
       <use xlink:href="#SimHei-34"/>
       <use xlink:href="#SimHei-30" transform="translate(50 0)"/>
       <use xlink:href="#SimHei-30" transform="translate(100 0)"/>
      </g>
     </g>
    </g>
    <g id="xtick_6">
     <g id="line2d_11">
      <path d="M 406.154928 316.084375 
L 406.154928 23.090625 
" clip-path="url(#pc47d65cc8f)" style="fill: none; stroke: #b0b0b0; stroke-width: 0.8; stroke-linecap: square"/>
     </g>
     <g id="line2d_12">
      <g>
       <use xlink:href="#m0d1fc4b2ac" x="406.154928" y="316.084375" style="stroke: #000000; stroke-width: 0.8"/>
      </g>
     </g>
     <g id="text_6">
      <!-- 500 -->
      <g transform="translate(398.654928 329.959375) scale(0.1 -0.1)">
       <defs>
        <path id="SimHei-35" d="M 550 1325 
Q 725 650 1150 575 
Q 1575 500 1837 662 
Q 2100 825 2212 1087 
Q 2325 1350 2312 1675 
Q 2300 2000 2137 2225 
Q 1975 2450 1725 2525 
Q 1475 2600 1162 2525 
Q 850 2450 650 2175 
L 225 2225 
Q 275 2375 700 4375 
L 2675 4375 
L 2675 3925 
L 1075 3925 
Q 950 3250 825 2850 
Q 1200 3025 1525 3012 
Q 1850 3000 2150 2862 
Q 2450 2725 2587 2487 
Q 2725 2250 2787 2012 
Q 2850 1775 2837 1500 
Q 2825 1225 2725 937 
Q 2625 650 2425 462 
Q 2225 275 1937 162 
Q 1650 50 1275 75 
Q 900 100 562 350 
Q 225 600 100 1200 
L 550 1325 
z
" transform="scale(0.015625)"/>
       </defs>
       <use xlink:href="#SimHei-35"/>
       <use xlink:href="#SimHei-30" transform="translate(50 0)"/>
       <use xlink:href="#SimHei-30" transform="translate(100 0)"/>
      </g>
     </g>
    </g>
    <g id="text_7">
     <!-- 进化代数 -->
     <g transform="translate(215.0075 343.1) scale(0.1 -0.1)">
      <defs>
       <path id="SimHei-8fdb" d="M 4400 4100 
Q 4400 4600 4375 5200 
L 4900 5200 
Q 4875 4900 4875 4100 
Q 5400 4100 5900 4125 
L 5900 3650 
Q 5400 3675 4875 3675 
L 4875 2575 
Q 5475 2575 6025 2600 
L 6025 2125 
Q 5475 2150 4875 2150 
L 4875 1125 
Q 4875 700 4900 250 
L 4375 250 
Q 4375 700 4400 1125 
L 4400 2150 
L 3450 2150 
Q 3350 1475 3162 1050 
Q 2975 625 2600 200 
Q 2350 400 2125 525 
Q 2600 950 2750 1312 
Q 2900 1675 2975 2150 
Q 2400 2150 1975 2125 
L 1975 2600 
Q 2425 2575 3025 2575 
Q 3075 3150 3075 3675 
Q 2575 3675 2100 3625 
L 2100 4125 
Q 2575 4100 3100 4100 
Q 3100 4675 3075 5200 
Q 3325 5175 3600 5150 
Q 3575 4825 3550 4100 
L 4400 4100 
z
M 1600 3125 
Q 1550 2575 1550 2200 
L 1550 625 
Q 2275 125 3100 37 
Q 3925 -50 4712 -25 
Q 5500 0 6125 100 
Q 6000 -200 5975 -525 
Q 4775 -525 4012 -500 
Q 3250 -475 2612 -312 
Q 1975 -150 1650 37 
Q 1325 225 1087 37 
Q 850 -150 575 -450 
Q 425 -225 200 -50 
Q 800 400 1075 575 
L 1075 2700 
Q 800 2700 375 2650 
L 375 3150 
Q 875 3125 1125 3125 
L 1600 3125 
z
M 4400 2575 
L 4400 3675 
L 3550 3675 
Q 3525 3150 3475 2575 
L 4400 2575 
z
M 1200 5050 
Q 1600 4250 1700 3925 
Q 1425 3875 1200 3725 
Q 1125 4175 700 4850 
L 1200 5050 
z
" transform="scale(0.015625)"/>
       <path id="SimHei-5316" d="M 3925 5025 
Q 3900 4900 3900 4400 
L 3900 2625 
Q 4375 3025 4775 3450 
Q 5175 3875 5400 4300 
Q 5600 4100 5900 3925 
Q 5700 3700 5225 3212 
Q 4750 2725 4487 2512 
Q 4225 2300 3900 2025 
L 3900 450 
Q 3900 50 4225 50 
L 5200 50 
Q 5400 75 5462 262 
Q 5525 450 5575 850 
Q 5800 650 6150 600 
Q 6000 -100 5825 -250 
Q 5650 -400 5350 -400 
L 3950 -400 
Q 3425 -400 3400 200 
L 3400 1675 
Q 3225 1525 2962 1350 
Q 2700 1175 2375 975 
Q 2225 1225 2025 1400 
Q 2350 1550 2737 1787 
Q 3125 2025 3400 2250 
L 3400 4500 
Q 3400 4800 3375 5025 
L 3925 5025 
z
M 2400 4850 
Q 2175 4550 2075 4337 
Q 1975 4125 1825 3775 
L 1825 675 
Q 1825 -75 1850 -550 
L 1325 -550 
Q 1350 -125 1350 650 
L 1350 3050 
Q 1125 2725 962 2525 
Q 800 2325 675 2175 
Q 500 2375 275 2525 
Q 625 2850 875 3212 
Q 1125 3575 1312 3912 
Q 1500 4250 1625 4575 
Q 1750 4900 1825 5100 
Q 1975 4975 2400 4850 
z
" transform="scale(0.015625)"/>
       <path id="SimHei-4ee3" d="M 3300 2950 
Q 3175 4575 3150 5100 
Q 3300 5075 3725 5025 
Q 3675 4725 3800 3050 
Q 5000 3275 5650 3475 
L 5775 3000 
Q 5500 2975 3850 2625 
Q 4150 1050 4737 450 
Q 5325 -150 5412 125 
Q 5500 400 5525 725 
Q 5800 550 6075 500 
Q 5900 -200 5737 -425 
Q 5575 -650 5137 -500 
Q 4700 -350 4187 300 
Q 3675 950 3350 2525 
Q 2400 2325 2175 2250 
L 2025 2725 
Q 2425 2775 3300 2950 
z
M 2250 4975 
Q 2100 4725 1700 3650 
L 1700 475 
Q 1700 -50 1725 -600 
L 1200 -600 
Q 1225 -50 1225 475 
L 1225 2750 
Q 850 2150 600 1850 
Q 450 2050 225 2225 
Q 625 2600 1050 3425 
Q 1475 4250 1675 5200 
Q 2050 5025 2250 4975 
z
M 4700 4875 
Q 5150 4325 5325 4050 
Q 5100 3900 4875 3725 
Q 4650 4150 4300 4575 
Q 4500 4700 4700 4875 
z
" transform="scale(0.015625)"/>
       <path id="SimHei-6570" d="M 4525 4925 
Q 4475 4800 4400 4587 
Q 4325 4375 4175 3825 
L 5325 3825 
Q 5575 3825 5925 3850 
L 5925 3400 
Q 5650 3425 5500 3425 
Q 5500 3025 5362 2162 
Q 5225 1300 4875 675 
Q 5125 375 5437 137 
Q 5750 -100 6025 -200 
Q 5725 -425 5625 -625 
Q 5325 -450 5075 -225 
Q 4825 0 4575 325 
Q 4300 25 3987 -187 
Q 3675 -400 3200 -650 
Q 3075 -425 2850 -300 
Q 3225 -150 3650 125 
Q 4075 400 4300 675 
Q 4125 1025 3962 1425 
Q 3800 1825 3675 2475 
Q 3600 2275 3425 1950 
Q 3250 2050 3000 2150 
Q 3400 2850 3650 3675 
Q 3900 4500 3975 5100 
Q 4275 4975 4525 4925 
z
M 2100 2250 
Q 2000 2150 1875 1925 
L 3250 1925 
Q 3100 1300 2725 675 
Q 3125 525 3350 400 
Q 3225 225 3125 25 
Q 2900 175 2450 325 
Q 1950 -225 725 -650 
Q 600 -375 400 -275 
Q 1575 0 2000 475 
Q 1300 650 850 775 
Q 1000 1000 1250 1525 
Q 1000 1525 425 1500 
L 425 1950 
Q 900 1925 1400 1925 
Q 1500 2150 1550 2425 
Q 1825 2325 2100 2250 
z
M 1775 3950 
Q 1775 4550 1750 5100 
L 2250 5100 
Q 2225 4575 2225 3950 
Q 3075 3950 3425 3975 
L 3425 3525 
Q 3075 3550 2225 3550 
Q 2225 2825 2250 2425 
L 1750 2425 
Q 1775 2775 1775 3300 
Q 1650 3100 1300 2787 
Q 950 2475 650 2300 
Q 525 2525 275 2625 
Q 500 2700 875 2975 
Q 1250 3250 1450 3550 
Q 950 3550 500 3525 
L 500 3975 
Q 925 3950 1775 3950 
z
M 3975 3175 
Q 4200 1700 4600 1125 
Q 4850 1700 4937 2287 
Q 5025 2875 5050 3425 
L 4075 3425 
L 3975 3175 
z
M 1450 1000 
Q 1750 925 2275 800 
Q 2475 1050 2650 1525 
L 1725 1525 
Q 1600 1275 1450 1000 
z
M 3325 4825 
Q 3200 4625 3125 4450 
Q 3050 4275 2925 4025 
Q 2725 4125 2525 4175 
Q 2725 4500 2900 5000 
Q 3150 4875 3325 4825 
z
M 2575 3375 
Q 2900 3050 3200 2725 
Q 3050 2600 2875 2425 
Q 2525 2850 2300 3100 
Q 2450 3225 2575 3375 
z
M 925 5000 
Q 1275 4650 1500 4300 
L 1125 4075 
Q 950 4425 600 4725 
Q 825 4875 925 5000 
z
" transform="scale(0.015625)"/>
      </defs>
      <use xlink:href="#SimHei-8fdb"/>
      <use xlink:href="#SimHei-5316" transform="translate(100 0)"/>
      <use xlink:href="#SimHei-4ee3" transform="translate(200 0)"/>
      <use xlink:href="#SimHei-6570" transform="translate(300 0)"/>
     </g>
    </g>
   </g>
   <g id="matplotlib.axis_2">
    <g id="ytick_1">
     <g id="line2d_13">
      <path d="M 47.496875 289.417761 
L 422.518125 289.417761 
" clip-path="url(#pc47d65cc8f)" style="fill: none; stroke: #b0b0b0; stroke-width: 0.8; stroke-linecap: square"/>
     </g>
     <g id="line2d_14">
      <defs>
       <path id="me3ce16c741" d="M 0 0 
L -3.5 0 
" style="stroke: #000000; stroke-width: 0.8"/>
      </defs>
      <g>
       <use xlink:href="#me3ce16c741" x="47.496875" y="289.417761" style="stroke: #000000; stroke-width: 0.8"/>
      </g>
     </g>
     <g id="text_8">
      <!-- 0.45 -->
      <g transform="translate(20.496875 292.855261) scale(0.1 -0.1)">
       <defs>
        <path id="SimHei-2e" d="M 1075 125 
L 500 125 
L 500 675 
L 1075 675 
L 1075 125 
z
" transform="scale(0.015625)"/>
       </defs>
       <use xlink:href="#SimHei-30"/>
       <use xlink:href="#SimHei-2e" transform="translate(50 0)"/>
       <use xlink:href="#SimHei-34" transform="translate(100 0)"/>
       <use xlink:href="#SimHei-35" transform="translate(150 0)"/>
      </g>
     </g>
    </g>
    <g id="ytick_2">
     <g id="line2d_15">
      <path d="M 47.496875 254.980344 
L 422.518125 254.980344 
" clip-path="url(#pc47d65cc8f)" style="fill: none; stroke: #b0b0b0; stroke-width: 0.8; stroke-linecap: square"/>
     </g>
     <g id="line2d_16">
      <g>
       <use xlink:href="#me3ce16c741" x="47.496875" y="254.980344" style="stroke: #000000; stroke-width: 0.8"/>
      </g>
     </g>
     <g id="text_9">
      <!-- 0.50 -->
      <g transform="translate(20.496875 258.417844) scale(0.1 -0.1)">
       <use xlink:href="#SimHei-30"/>
       <use xlink:href="#SimHei-2e" transform="translate(50 0)"/>
       <use xlink:href="#SimHei-35" transform="translate(100 0)"/>
       <use xlink:href="#SimHei-30" transform="translate(150 0)"/>
      </g>
     </g>
    </g>
    <g id="ytick_3">
     <g id="line2d_17">
      <path d="M 47.496875 220.542927 
L 422.518125 220.542927 
" clip-path="url(#pc47d65cc8f)" style="fill: none; stroke: #b0b0b0; stroke-width: 0.8; stroke-linecap: square"/>
     </g>
     <g id="line2d_18">
      <g>
       <use xlink:href="#me3ce16c741" x="47.496875" y="220.542927" style="stroke: #000000; stroke-width: 0.8"/>
      </g>
     </g>
     <g id="text_10">
      <!-- 0.55 -->
      <g transform="translate(20.496875 223.980427) scale(0.1 -0.1)">
       <use xlink:href="#SimHei-30"/>
       <use xlink:href="#SimHei-2e" transform="translate(50 0)"/>
       <use xlink:href="#SimHei-35" transform="translate(100 0)"/>
       <use xlink:href="#SimHei-35" transform="translate(150 0)"/>
      </g>
     </g>
    </g>
    <g id="ytick_4">
     <g id="line2d_19">
      <path d="M 47.496875 186.10551 
L 422.518125 186.10551 
" clip-path="url(#pc47d65cc8f)" style="fill: none; stroke: #b0b0b0; stroke-width: 0.8; stroke-linecap: square"/>
     </g>
     <g id="line2d_20">
      <g>
       <use xlink:href="#me3ce16c741" x="47.496875" y="186.10551" style="stroke: #000000; stroke-width: 0.8"/>
      </g>
     </g>
     <g id="text_11">
      <!-- 0.60 -->
      <g transform="translate(20.496875 189.54301) scale(0.1 -0.1)">
       <defs>
        <path id="SimHei-36" d="M 250 1612 
Q 275 1975 387 2225 
Q 500 2475 725 2850 
L 1750 4450 
L 2325 4450 
L 1275 2800 
Q 1950 2975 2350 2750 
Q 2750 2525 2887 2237 
Q 3025 1950 3037 1612 
Q 3050 1275 2937 950 
Q 2825 625 2537 362 
Q 2250 100 1737 75 
Q 1225 50 862 262 
Q 500 475 362 862 
Q 225 1250 250 1612 
z
M 1025 787 
Q 1250 550 1625 525 
Q 2000 500 2250 775 
Q 2500 1050 2500 1575 
Q 2500 2100 2187 2300 
Q 1875 2500 1487 2450 
Q 1100 2400 925 2075 
Q 750 1750 775 1387 
Q 800 1025 1025 787 
z
" transform="scale(0.015625)"/>
       </defs>
       <use xlink:href="#SimHei-30"/>
       <use xlink:href="#SimHei-2e" transform="translate(50 0)"/>
       <use xlink:href="#SimHei-36" transform="translate(100 0)"/>
       <use xlink:href="#SimHei-30" transform="translate(150 0)"/>
      </g>
     </g>
    </g>
    <g id="ytick_5">
     <g id="line2d_21">
      <path d="M 47.496875 151.668093 
L 422.518125 151.668093 
" clip-path="url(#pc47d65cc8f)" style="fill: none; stroke: #b0b0b0; stroke-width: 0.8; stroke-linecap: square"/>
     </g>
     <g id="line2d_22">
      <g>
       <use xlink:href="#me3ce16c741" x="47.496875" y="151.668093" style="stroke: #000000; stroke-width: 0.8"/>
      </g>
     </g>
     <g id="text_12">
      <!-- 0.65 -->
      <g transform="translate(20.496875 155.105593) scale(0.1 -0.1)">
       <use xlink:href="#SimHei-30"/>
       <use xlink:href="#SimHei-2e" transform="translate(50 0)"/>
       <use xlink:href="#SimHei-36" transform="translate(100 0)"/>
       <use xlink:href="#SimHei-35" transform="translate(150 0)"/>
      </g>
     </g>
    </g>
    <g id="ytick_6">
     <g id="line2d_23">
      <path d="M 47.496875 117.230675 
L 422.518125 117.230675 
" clip-path="url(#pc47d65cc8f)" style="fill: none; stroke: #b0b0b0; stroke-width: 0.8; stroke-linecap: square"/>
     </g>
     <g id="line2d_24">
      <g>
       <use xlink:href="#me3ce16c741" x="47.496875" y="117.230675" style="stroke: #000000; stroke-width: 0.8"/>
      </g>
     </g>
     <g id="text_13">
      <!-- 0.70 -->
      <g transform="translate(20.496875 120.668175) scale(0.1 -0.1)">
       <defs>
        <path id="SimHei-37" d="M 850 150 
Q 1300 2050 2425 3925 
L 275 3925 
L 275 4375 
L 2950 4375 
L 2950 3950 
Q 1775 2050 1400 150 
L 850 150 
z
" transform="scale(0.015625)"/>
       </defs>
       <use xlink:href="#SimHei-30"/>
       <use xlink:href="#SimHei-2e" transform="translate(50 0)"/>
       <use xlink:href="#SimHei-37" transform="translate(100 0)"/>
       <use xlink:href="#SimHei-30" transform="translate(150 0)"/>
      </g>
     </g>
    </g>
    <g id="ytick_7">
     <g id="line2d_25">
      <path d="M 47.496875 82.793258 
L 422.518125 82.793258 
" clip-path="url(#pc47d65cc8f)" style="fill: none; stroke: #b0b0b0; stroke-width: 0.8; stroke-linecap: square"/>
     </g>
     <g id="line2d_26">
      <g>
       <use xlink:href="#me3ce16c741" x="47.496875" y="82.793258" style="stroke: #000000; stroke-width: 0.8"/>
      </g>
     </g>
     <g id="text_14">
      <!-- 0.75 -->
      <g transform="translate(20.496875 86.230758) scale(0.1 -0.1)">
       <use xlink:href="#SimHei-30"/>
       <use xlink:href="#SimHei-2e" transform="translate(50 0)"/>
       <use xlink:href="#SimHei-37" transform="translate(100 0)"/>
       <use xlink:href="#SimHei-35" transform="translate(150 0)"/>
      </g>
     </g>
    </g>
    <g id="ytick_8">
     <g id="line2d_27">
      <path d="M 47.496875 48.355841 
L 422.518125 48.355841 
" clip-path="url(#pc47d65cc8f)" style="fill: none; stroke: #b0b0b0; stroke-width: 0.8; stroke-linecap: square"/>
     </g>
     <g id="line2d_28">
      <g>
       <use xlink:href="#me3ce16c741" x="47.496875" y="48.355841" style="stroke: #000000; stroke-width: 0.8"/>
      </g>
     </g>
     <g id="text_15">
      <!-- 0.80 -->
      <g transform="translate(20.496875 51.793341) scale(0.1 -0.1)">
       <defs>
        <path id="SimHei-38" d="M 175 1375 
Q 175 1675 325 1962 
Q 475 2250 825 2425 
Q 525 2600 425 2812 
Q 325 3025 312 3300 
Q 300 3575 387 3775 
Q 475 3975 650 4150 
Q 825 4325 1037 4387 
Q 1250 4450 1500 4450 
Q 1750 4450 1950 4400 
Q 2150 4350 2375 4187 
Q 2600 4025 2700 3725 
Q 2800 3425 2687 3025 
Q 2575 2625 2100 2400 
Q 2525 2275 2700 2012 
Q 2875 1750 2875 1375 
Q 2875 1000 2762 775 
Q 2650 550 2512 400 
Q 2375 250 2137 162 
Q 1900 75 1537 75 
Q 1175 75 912 162 
Q 650 250 475 425 
Q 300 600 237 837 
Q 175 1075 175 1375 
z
M 687 1400 
Q 675 1100 787 875 
Q 900 650 1200 587 
Q 1500 525 1825 600 
Q 2150 675 2275 950 
Q 2400 1225 2362 1500 
Q 2325 1775 2050 1962 
Q 1775 2150 1450 2125 
Q 1125 2100 912 1900 
Q 700 1700 687 1400 
z
M 775 3350 
Q 775 3100 950 2875 
Q 1125 2650 1500 2650 
Q 1875 2650 2062 2875 
Q 2250 3100 2237 3412 
Q 2225 3725 2012 3875 
Q 1800 4025 1437 4000 
Q 1075 3975 925 3787 
Q 775 3600 775 3350 
z
" transform="scale(0.015625)"/>
       </defs>
       <use xlink:href="#SimHei-30"/>
       <use xlink:href="#SimHei-2e" transform="translate(50 0)"/>
       <use xlink:href="#SimHei-38" transform="translate(100 0)"/>
       <use xlink:href="#SimHei-30" transform="translate(150 0)"/>
      </g>
     </g>
    </g>
    <g id="text_16">
     <!-- 适应度 -->
     <g transform="translate(15.246875 184.5875) rotate(-90) scale(0.1 -0.1)">
      <defs>
       <path id="SimHei-9002" d="M 5500 4625 
Q 5175 4625 4125 4525 
L 4125 3600 
Q 5450 3600 5850 3625 
L 5850 3175 
Q 5450 3200 4125 3200 
L 4125 2475 
L 5425 2475 
Q 5400 1850 5400 1475 
Q 5400 1100 5425 450 
L 4950 450 
L 4950 750 
L 2900 750 
L 2900 425 
L 2425 425 
Q 2450 1050 2450 1450 
Q 2450 1850 2425 2475 
L 3675 2475 
L 3675 3200 
Q 2375 3200 1975 3175 
L 1975 3625 
Q 2300 3600 3675 3600 
L 3675 4475 
Q 3375 4450 2475 4350 
Q 2425 4575 2250 4775 
Q 3075 4775 3875 4875 
Q 4675 4975 5250 5125 
Q 5300 4950 5500 4625 
z
M 1625 2850 
Q 1600 2400 1600 1925 
L 1600 625 
Q 2250 75 3625 12 
Q 5000 -50 6025 150 
Q 5875 -125 5775 -450 
L 4100 -450 
Q 3475 -450 2937 -375 
Q 2400 -300 1912 -37 
Q 1425 225 1212 -12 
Q 1000 -250 775 -550 
Q 525 -350 325 -250 
Q 875 275 1150 475 
L 1150 2450 
Q 750 2450 400 2425 
L 400 2875 
Q 775 2850 1100 2850 
L 1625 2850 
z
M 4950 1150 
L 4950 2075 
L 2900 2075 
L 2900 1150 
L 4950 1150 
z
M 1025 4850 
Q 1450 4400 1775 3925 
Q 1475 3750 1375 3625 
Q 1100 4075 650 4550 
Q 875 4675 1025 4850 
z
" transform="scale(0.015625)"/>
       <path id="SimHei-5e94" d="M 3525 5275 
Q 3700 4825 3850 4400 
L 4750 4400 
Q 5275 4400 5850 4425 
L 5850 3975 
Q 5275 4000 4750 4000 
L 1475 4000 
Q 1475 2525 1425 1900 
Q 1375 1275 1237 625 
Q 1100 -25 750 -625 
Q 575 -400 300 -250 
Q 625 175 800 937 
Q 975 1700 1000 2575 
Q 1025 3450 1000 4400 
L 3250 4400 
Q 3175 4750 3000 5100 
Q 3250 5150 3525 5275 
z
M 5625 3125 
Q 5375 2575 5187 2050 
Q 5000 1525 4450 225 
L 5150 225 
Q 5500 225 5925 250 
L 5925 -275 
Q 5500 -250 5150 -250 
L 2475 -250 
Q 2050 -250 1450 -275 
L 1450 250 
Q 2025 225 2475 225 
L 3950 225 
Q 4325 1000 4612 1850 
Q 4900 2700 5025 3350 
Q 5350 3175 5625 3125 
z
M 2100 2850 
Q 2750 1825 3075 1050 
Q 2900 950 2650 800 
Q 2150 1925 1700 2575 
Q 1925 2750 2100 2850 
z
M 3300 3425 
Q 3800 2550 4175 1700 
Q 3950 1575 3700 1450 
Q 3400 2300 2900 3200 
Q 3100 3275 3300 3425 
z
" transform="scale(0.015625)"/>
       <path id="SimHei-5ea6" d="M 1750 1675 
Q 2450 1650 2875 1650 
L 5200 1650 
Q 4975 1250 4650 850 
Q 4325 450 4025 200 
Q 4350 50 4950 -50 
Q 5550 -150 6100 -150 
Q 5950 -300 5825 -650 
Q 5100 -550 4550 -412 
Q 4000 -275 3625 -100 
Q 3100 -325 2587 -462 
Q 2075 -600 1525 -675 
Q 1450 -475 1225 -250 
Q 1675 -250 2250 -125 
Q 2825 0 3250 200 
Q 2825 550 2400 1275 
L 1750 1250 
L 1750 1675 
z
M 2975 5075 
Q 3250 5150 3475 5250 
Q 3625 4975 3775 4525 
L 4700 4525 
Q 4975 4525 5700 4550 
L 5700 4100 
Q 5000 4125 4650 4125 
L 1375 4125 
Q 1375 3000 1350 2312 
Q 1325 1625 1212 950 
Q 1100 275 725 -525 
Q 500 -375 250 -300 
Q 650 400 762 1075 
Q 875 1750 887 2800 
Q 900 3850 875 4525 
L 3200 4525 
Q 3100 4850 2975 5075 
z
M 2475 3300 
Q 2475 3700 2450 3925 
L 2975 3925 
Q 2950 3725 2950 3300 
L 4300 3300 
Q 4300 3700 4275 3950 
L 4800 3950 
Q 4775 3650 4775 3300 
Q 5325 3300 5725 3325 
L 5725 2900 
Q 5350 2925 4775 2925 
Q 4775 2250 4800 1950 
L 2450 1950 
Q 2475 2350 2475 2925 
Q 2175 2925 1600 2900 
L 1600 3325 
Q 2175 3300 2475 3300 
z
M 4300 2350 
L 4300 2925 
L 2950 2925 
L 2950 2350 
L 4300 2350 
z
M 2875 1275 
Q 3200 775 3650 425 
Q 4025 700 4425 1275 
L 2900 1275 
L 2875 1275 
z
" transform="scale(0.015625)"/>
      </defs>
      <use xlink:href="#SimHei-9002"/>
      <use xlink:href="#SimHei-5e94" transform="translate(100 0)"/>
      <use xlink:href="#SimHei-5ea6" transform="translate(200 0)"/>
     </g>
    </g>
   </g>
   <g id="line2d_29">
    <path d="M 64.543295 302.766477 
L 65.226519 105.633041 
L 65.909742 102.674921 
L 66.592965 78.603901 
L 67.276189 92.719519 
L 67.959412 88.399348 
L 68.642635 82.13371 
L 69.325858 65.401664 
L 70.009082 65.377505 
L 70.692305 49.606146 
L 71.375528 47.98092 
L 72.058751 61.145804 
L 72.741975 47.98092 
L 73.425198 52.528135 
L 74.108421 55.950255 
L 74.791644 46.46888 
L 75.474868 45.134303 
L 76.158091 48.820225 
L 76.841314 45.775686 
L 77.524537 45.018158 
L 78.207761 47.552324 
L 78.890984 47.552324 
L 79.574207 45.975826 
L 80.257431 45.975826 
L 80.940654 50.214453 
L 81.623877 50.214453 
L 82.3071 51.967623 
L 82.990324 43.650827 
L 83.673547 41.163773 
L 84.35677 43.133299 
L 85.039993 50.100271 
L 86.40644 50.100271 
L 87.089663 43.308985 
L 87.772886 43.308985 
L 88.45611 47.266086 
L 89.139333 49.059385 
L 89.822556 47.033699 
L 90.50578 49.059385 
L 91.872226 41.03224 
L 92.555449 44.643241 
L 93.238673 42.977229 
L 93.921896 51.670197 
L 94.605119 49.571699 
L 95.288342 42.56234 
L 95.971566 44.669686 
L 96.654789 42.103573 
L 97.338012 42.103573 
L 98.021235 43.508829 
L 98.704459 46.003696 
L 99.387682 49.292073 
L 100.070905 49.709485 
L 100.754128 45.780898 
L 101.437352 45.716692 
L 102.120575 40.479133 
L 102.803798 42.040551 
L 103.487022 40.92907 
L 104.170245 51.40367 
L 104.853468 43.268604 
L 105.536691 47.391584 
L 106.219915 46.914163 
L 106.903138 43.366114 
L 107.586361 43.600345 
L 108.269584 40.543621 
L 108.952808 40.426331 
L 109.636031 40.426331 
L 110.319254 40.31148 
L 111.002477 39.509409 
L 111.685701 41.119414 
L 112.368924 40.939525 
L 113.735371 40.939525 
L 114.418594 43.563661 
L 115.101817 41.919098 
L 115.78504 38.600498 
L 116.468264 39.264376 
L 117.151487 39.264376 
L 117.83471 46.414691 
L 118.517933 47.638576 
L 119.201157 42.823111 
L 119.88438 42.823111 
L 120.567603 44.826393 
L 121.250826 45.062915 
L 121.93405 44.044809 
L 122.617273 49.184233 
L 123.300496 43.919054 
L 123.983719 43.815488 
L 124.666943 43.48221 
L 125.350166 41.166686 
L 126.033389 47.460123 
L 126.716613 46.598669 
L 127.399836 43.221364 
L 128.083059 48.961316 
L 128.766282 40.611353 
L 129.449506 40.582357 
L 130.132729 43.039222 
L 130.815952 44.377088 
L 131.499175 44.599253 
L 132.182399 47.736574 
L 132.865622 43.323055 
L 133.548845 41.265767 
L 134.232068 42.613599 
L 134.915292 36.866387 
L 135.598515 36.798509 
L 136.281738 47.394465 
L 136.964962 40.228663 
L 137.648185 44.734136 
L 138.331408 42.010366 
L 139.014631 46.772077 
L 139.697855 46.188511 
L 140.381078 47.020341 
L 141.064301 45.890621 
L 141.747524 43.395881 
L 142.430748 43.395881 
L 143.113971 48.574006 
L 143.797194 47.262515 
L 144.480417 41.485961 
L 145.163641 46.429421 
L 145.846864 43.52011 
L 146.530087 46.482269 
L 147.21331 47.526925 
L 147.896534 43.125412 
L 148.579757 46.848658 
L 149.26298 38.805741 
L 149.946204 44.674181 
L 150.629427 45.99993 
L 151.31265 40.3819 
L 151.995873 40.3819 
L 152.679097 41.326844 
L 153.36232 41.071505 
L 154.045543 42.702237 
L 154.728766 42.74857 
L 156.095213 40.71994 
L 156.778436 40.345591 
L 158.144883 40.345591 
L 158.828106 37.408929 
L 159.511329 41.789503 
L 160.194553 42.76172 
L 160.877776 42.76172 
L 161.560999 43.027398 
L 162.244222 40.762852 
L 163.610669 40.762852 
L 164.293892 44.930905 
L 164.977115 41.915129 
L 165.660339 40.573109 
L 166.343562 41.373623 
L 167.026785 38.73611 
L 167.710008 37.351738 
L 168.393232 40.437102 
L 169.076455 40.318736 
L 169.759678 41.373623 
L 171.126125 41.373623 
L 171.809348 41.701394 
L 172.492571 40.447593 
L 173.175795 40.511567 
L 173.859018 45.726676 
L 174.542241 43.640614 
L 175.225464 51.630813 
L 175.908688 43.066916 
L 176.591911 42.984961 
L 177.275134 47.442577 
L 177.958357 43.359537 
L 178.641581 43.359537 
L 179.324804 42.615524 
L 180.008027 42.992208 
L 180.69125 43.143217 
L 181.374474 40.064919 
L 182.057697 38.538532 
L 182.74092 41.136558 
L 183.424144 42.599706 
L 184.107367 37.726879 
L 184.79059 38.196087 
L 186.84026 38.196087 
L 187.523483 42.70102 
L 188.206706 46.050474 
L 188.88993 41.472349 
L 189.573153 40.456735 
L 190.256376 40.456735 
L 190.939599 41.183499 
L 191.622823 41.183499 
L 192.306046 40.650086 
L 192.989269 40.796769 
L 193.672492 39.795207 
L 194.355716 39.795207 
L 195.038939 40.377656 
L 196.405386 43.112665 
L 197.088609 51.80426 
L 198.455055 40.513037 
L 199.138279 47.798398 
L 199.821502 41.884645 
L 200.504725 41.884645 
L 201.187948 43.192724 
L 201.871172 49.87467 
L 202.554395 45.124301 
L 203.237618 53.351126 
L 203.920841 47.237556 
L 204.604065 42.32544 
L 205.970511 48.736553 
L 206.653735 44.600768 
L 207.336958 38.575438 
L 208.020181 42.497865 
L 208.703404 40.481076 
L 210.069851 40.481076 
L 210.753074 46.870842 
L 211.436297 44.287711 
L 212.119521 47.589228 
L 212.802744 40.139948 
L 213.485967 40.139948 
L 214.16919 42.057451 
L 214.852414 44.487767 
L 216.21886 39.493674 
L 217.585307 43.153044 
L 218.26853 43.181953 
L 218.951753 38.415708 
L 219.634977 40.80849 
L 220.3182 38.30638 
L 221.001423 41.753334 
L 222.36787 40.568098 
L 223.051093 40.722617 
L 224.417539 40.745613 
L 225.100763 40.409988 
L 225.783986 40.883623 
L 226.467209 41.518964 
L 227.150432 41.677863 
L 227.833656 41.073226 
L 229.883326 41.073226 
L 230.566549 41.621442 
L 231.249772 38.742974 
L 231.932995 42.235382 
L 232.616219 43.35654 
L 233.299442 42.579445 
L 233.982665 45.99526 
L 234.665888 39.113771 
L 235.349112 42.569583 
L 236.032335 38.982465 
L 236.715558 44.336887 
L 237.398781 43.282234 
L 238.082005 38.473296 
L 238.765228 38.148781 
L 239.448451 40.761842 
L 240.131674 41.534804 
L 240.814898 41.360037 
L 241.498121 39.314559 
L 242.181344 44.565366 
L 242.864568 41.396069 
L 243.547791 43.638454 
L 244.231014 43.141607 
L 244.914237 41.227992 
L 245.597461 43.403068 
L 246.280684 39.775174 
L 246.963907 38.953223 
L 247.64713 41.044896 
L 248.330354 42.306668 
L 249.013577 43.078055 
L 249.6968 43.644124 
L 251.063247 41.063831 
L 251.74647 41.547187 
L 252.429693 42.170239 
L 253.112917 42.059809 
L 253.79614 40.154499 
L 254.479363 44.669773 
L 255.162586 42.801884 
L 255.84581 40.394835 
L 256.529033 44.066237 
L 257.212256 39.696471 
L 257.895479 40.513309 
L 259.261926 43.122841 
L 259.945149 40.67424 
L 260.628372 44.555125 
L 261.311596 44.850121 
L 261.994819 43.727945 
L 262.678042 43.228655 
L 263.361265 44.813047 
L 264.044489 38.380539 
L 265.410935 43.873842 
L 266.094159 39.135162 
L 266.777382 43.57654 
L 267.460605 41.818919 
L 268.143828 41.652865 
L 268.827052 41.652865 
L 269.510275 41.277323 
L 270.193498 44.284643 
L 270.876721 44.584357 
L 272.243168 44.692818 
L 272.926391 44.192589 
L 273.609614 44.847737 
L 274.292838 42.845284 
L 274.976061 43.655291 
L 275.659284 38.083453 
L 277.025731 46.34077 
L 277.708954 44.167858 
L 278.392177 43.952411 
L 279.075401 40.440658 
L 279.758624 40.142233 
L 280.441847 41.249333 
L 281.12507 40.448195 
L 281.808294 40.448195 
L 282.491517 41.766315 
L 283.17474 41.766315 
L 283.857963 40.359947 
L 284.541187 41.762357 
L 285.22441 36.723169 
L 285.907633 42.541122 
L 286.590856 43.143612 
L 287.27408 41.64741 
L 287.957303 43.143612 
L 288.640526 41.704341 
L 289.32375 40.827902 
L 290.006973 43.401141 
L 290.690196 41.439559 
L 293.423089 41.449345 
L 294.106312 40.564086 
L 294.789536 38.947819 
L 295.472759 43.555015 
L 296.155982 43.404117 
L 296.839205 42.703085 
L 297.522429 42.418214 
L 298.205652 46.804935 
L 298.888875 45.728631 
L 299.572099 50.080466 
L 300.255322 46.489506 
L 300.938545 47.377673 
L 301.621768 48.855944 
L 302.304992 45.475029 
L 302.988215 44.397571 
L 303.671438 45.155075 
L 304.354661 43.412156 
L 305.037885 42.311477 
L 305.721108 42.567052 
L 306.404331 43.012339 
L 307.087554 41.004799 
L 308.454001 38.55603 
L 309.137224 37.645515 
L 309.820447 41.085795 
L 310.503671 41.057838 
L 311.186894 42.416091 
L 311.870117 41.164283 
L 312.553341 42.129156 
L 313.236564 38.851277 
L 313.919787 42.669965 
L 314.60301 40.968127 
L 315.286234 36.408523 
L 315.969457 41.02192 
L 316.65268 40.803967 
L 317.335903 40.803967 
L 318.019127 41.466823 
L 318.70235 41.727056 
L 319.385573 41.724504 
L 320.068796 40.239356 
L 320.75202 40.239356 
L 321.435243 41.442449 
L 322.118466 41.359367 
L 322.80169 42.717423 
L 323.484913 42.724998 
L 324.168136 42.947848 
L 324.851359 42.468223 
L 325.534583 41.301302 
L 326.901029 40.321106 
L 327.584252 40.409461 
L 328.267476 40.210988 
L 328.950699 40.210988 
L 329.633922 40.397519 
L 330.317145 39.851371 
L 331.000369 44.218847 
L 331.683592 44.813992 
L 332.366815 43.861408 
L 333.733262 43.39819 
L 334.416485 43.645561 
L 335.099708 45.149686 
L 335.782932 47.875362 
L 336.466155 43.733583 
L 337.149378 43.677502 
L 337.832601 48.203832 
L 339.199048 43.816526 
L 339.882271 41.511882 
L 340.565494 46.407286 
L 341.248718 37.714147 
L 341.931941 40.308094 
L 342.615164 43.88322 
L 343.298387 44.728541 
L 343.981611 46.636679 
L 344.664834 43.081041 
L 345.348057 41.848869 
L 346.031281 45.870557 
L 346.714504 45.388329 
L 347.397727 45.388329 
L 348.08095 42.627702 
L 348.764174 41.787968 
L 349.447397 41.248099 
L 350.13062 42.812678 
L 350.813843 49.206372 
L 352.18029 43.087291 
L 352.863513 42.754982 
L 353.546736 44.71374 
L 354.22996 44.71374 
L 354.913183 48.736261 
L 355.596406 42.778803 
L 357.646076 42.778803 
L 358.329299 47.429399 
L 359.012523 46.139632 
L 359.695746 42.593595 
L 360.378969 46.786449 
L 361.062192 42.290746 
L 361.745416 44.696935 
L 362.428639 45.719791 
L 363.111862 44.521534 
L 363.795085 49.71807 
L 364.478309 53.455805 
L 365.161532 58.254168 
L 366.527978 41.89953 
L 367.211202 46.219167 
L 367.894425 42.737169 
L 368.577648 42.737169 
L 369.260872 44.757473 
L 369.944095 41.871423 
L 370.627318 43.091973 
L 371.310541 44.553655 
L 371.993765 46.868757 
L 372.676988 42.397171 
L 374.043434 43.721605 
L 374.726658 43.796954 
L 375.409881 41.925052 
L 376.093104 41.406527 
L 376.776327 41.406527 
L 378.142774 43.931071 
L 378.825997 39.925082 
L 379.50922 47.032609 
L 380.192444 41.14539 
L 380.875667 43.951523 
L 381.55889 45.020755 
L 382.242114 44.675715 
L 382.925337 42.864247 
L 383.60856 38.812906 
L 384.291783 41.992658 
L 384.975007 50.479688 
L 385.65823 44.339816 
L 386.341453 41.965005 
L 387.024676 42.802094 
L 387.7079 37.763557 
L 388.391123 37.763557 
L 389.074346 41.503259 
L 389.757569 43.319999 
L 390.440793 38.692928 
L 391.124016 42.393279 
L 391.807239 40.955599 
L 392.490463 41.160485 
L 393.173686 40.628572 
L 393.856909 41.752472 
L 394.540132 42.109384 
L 395.223356 43.33292 
L 395.906579 41.25085 
L 396.589802 41.466544 
L 397.273025 42.047194 
L 397.956249 41.531872 
L 398.639472 41.531872 
L 399.322695 42.177701 
L 400.005918 45.919021 
L 400.689142 44.132242 
L 401.372365 37.759226 
L 402.055588 40.573687 
L 402.738811 40.573687 
L 403.422035 44.738436 
L 404.105258 43.183128 
L 404.788481 43.847149 
L 405.471705 42.615571 
L 405.471705 42.615571 
" clip-path="url(#pc47d65cc8f)" style="fill: none; stroke: #1f77b4; stroke-width: 1.5; stroke-linecap: square"/>
   </g>
   <g id="patch_3">
    <path d="M 47.496875 316.084375 
L 47.496875 23.090625 
" style="fill: none; stroke: #000000; stroke-width: 0.8; stroke-linejoin: miter; stroke-linecap: square"/>
   </g>
   <g id="patch_4">
    <path d="M 422.518125 316.084375 
L 422.518125 23.090625 
" style="fill: none; stroke: #000000; stroke-width: 0.8; stroke-linejoin: miter; stroke-linecap: square"/>
   </g>
   <g id="patch_5">
    <path d="M 47.496875 316.084375 
L 422.518125 316.084375 
" style="fill: none; stroke: #000000; stroke-width: 0.8; stroke-linejoin: miter; stroke-linecap: square"/>
   </g>
   <g id="patch_6">
    <path d="M 47.496875 23.090625 
L 422.518125 23.090625 
" style="fill: none; stroke: #000000; stroke-width: 0.8; stroke-linejoin: miter; stroke-linecap: square"/>
   </g>
   <g id="text_17">
    <!-- 日间照明模式优化历史 -->
    <g transform="translate(175.0075 17.090625) scale(0.12 -0.12)">
     <defs>
      <path id="SimHei-65e5" d="M 5375 5000 
Q 5350 3775 5350 2275 
Q 5350 775 5375 -450 
L 4800 -450 
L 4800 175 
L 1800 175 
L 1800 -575 
L 1250 -575 
Q 1275 575 1275 2125 
Q 1275 3675 1250 5000 
L 5375 5000 
z
M 4800 600 
L 4800 2375 
L 1800 2375 
L 1800 600 
L 4800 600 
z
M 4800 2800 
L 4800 4550 
L 1800 4550 
L 1800 2800 
L 4800 2800 
z
" transform="scale(0.015625)"/>
      <path id="SimHei-95f4" d="M 4450 3550 
Q 4425 3075 4425 2725 
L 4425 1400 
Q 4425 1075 4450 625 
L 1925 625 
Q 1950 1075 1950 1425 
L 1950 2725 
Q 1950 3075 1925 3550 
L 4450 3550 
z
M 5800 4875 
Q 5775 4400 5775 3925 
L 5775 250 
Q 5800 -325 5462 -450 
Q 5125 -575 4725 -625 
Q 4700 -325 4525 -25 
Q 5000 -50 5137 25 
Q 5275 100 5275 350 
L 5275 4450 
L 3775 4450 
Q 3175 4450 2650 4425 
L 2650 4900 
Q 3175 4875 3775 4875 
L 5800 4875 
z
M 550 -525 
Q 600 -25 600 525 
L 600 3150 
Q 600 3675 550 4025 
L 1125 4025 
Q 1100 3650 1100 3300 
L 1100 500 
Q 1100 0 1125 -525 
L 550 -525 
z
M 3950 1025 
L 3950 1950 
L 2425 1950 
L 2425 1025 
L 3950 1025 
z
M 3950 2350 
L 3950 3150 
L 2425 3150 
L 2425 2350 
L 3950 2350 
z
M 1525 5300 
Q 1750 5000 2225 4350 
Q 1950 4225 1700 4075 
Q 1450 4575 1075 5025 
Q 1350 5225 1525 5300 
z
" transform="scale(0.015625)"/>
      <path id="SimHei-7167" d="M 2525 4900 
Q 2500 4000 2500 2950 
Q 2500 1925 2525 1175 
L 675 1175 
Q 700 1900 700 2950 
Q 700 4000 675 4900 
L 2525 4900 
z
M 5675 2650 
Q 5650 2350 5650 1900 
Q 5650 1475 5675 1075 
L 3175 1075 
Q 3200 1500 3200 1900 
Q 3200 2300 3175 2650 
L 5675 2650 
z
M 4625 2775 
Q 4600 3025 4400 3275 
Q 4775 3275 4925 3300 
Q 5075 3325 5100 3525 
L 5175 4600 
L 4275 4600 
Q 4175 3875 3862 3425 
Q 3550 2975 3100 2650 
Q 2850 2900 2675 2975 
Q 3125 3225 3425 3625 
Q 3725 4025 3775 4600 
Q 3325 4600 2875 4575 
L 2875 5000 
Q 3275 4975 3675 4975 
L 5725 4975 
Q 5675 4675 5637 4037 
Q 5600 3400 5525 3162 
Q 5450 2925 5237 2875 
Q 5025 2825 4625 2775 
z
M 5175 1475 
L 5175 2300 
L 3675 2300 
L 3675 1475 
L 5175 1475 
z
M 2025 3200 
L 2025 4500 
L 1175 4500 
L 1175 3200 
L 2025 3200 
z
M 2025 1575 
L 2025 2825 
L 1175 2825 
L 1175 1575 
L 2025 1575 
z
M 1375 625 
Q 1025 -250 800 -650 
Q 575 -500 325 -450 
Q 575 -100 875 825 
Q 1100 700 1375 625 
z
M 5575 -625 
Q 5400 -200 4950 650 
Q 5100 725 5375 850 
Q 5825 0 6025 -400 
Q 5775 -500 5575 -625 
z
M 2550 725 
Q 2800 -175 2850 -475 
Q 2600 -475 2375 -575 
Q 2325 -300 2050 600 
Q 2275 650 2550 725 
z
M 4425 -425 
Q 4175 -475 3925 -550 
Q 3825 -125 3575 600 
Q 3725 650 4050 750 
Q 4325 -75 4425 -425 
z
" transform="scale(0.015625)"/>
      <path id="SimHei-660e" d="M 5775 4975 
Q 5750 4500 5750 3875 
L 5750 275 
Q 5775 -200 5587 -337 
Q 5400 -475 4750 -575 
Q 4700 -300 4500 25 
Q 4925 0 5100 37 
Q 5275 75 5250 300 
L 5250 1625 
L 3775 1625 
Q 3625 325 2925 -700 
Q 2675 -475 2400 -375 
Q 3375 600 3300 2800 
L 3300 3850 
Q 3300 4450 3275 4975 
L 5775 4975 
z
M 2575 4775 
Q 2550 4250 2550 3650 
L 2550 1850 
Q 2550 1250 2575 775 
L 2100 775 
L 2100 1150 
L 1050 1150 
L 1050 450 
L 550 450 
Q 575 875 575 1550 
L 575 3675 
Q 575 4275 550 4775 
L 2575 4775 
z
M 5250 3500 
L 5250 4550 
L 3800 4550 
L 3800 3500 
L 5250 3500 
z
M 5250 2050 
L 5250 3075 
L 3800 3075 
L 3800 2050 
L 5250 2050 
z
M 2100 1600 
L 2100 2825 
L 1050 2825 
L 1050 1600 
L 2100 1600 
z
M 2100 3225 
L 2100 4350 
L 1050 4350 
L 1050 3225 
L 2100 3225 
z
" transform="scale(0.015625)"/>
      <path id="SimHei-6a21" d="M 5700 3675 
Q 5675 3400 5675 2725 
Q 5675 2050 5700 1725 
L 4375 1725 
Q 4350 1450 4325 1200 
L 5225 1200 
Q 5750 1200 6025 1225 
L 6025 825 
Q 5725 850 5225 850 
L 4700 850 
Q 5075 375 5437 137 
Q 5800 -100 6200 -200 
Q 5975 -375 5850 -625 
Q 5275 -400 4862 25 
Q 4450 450 4300 775 
L 4225 775 
Q 4000 275 3537 -62 
Q 3075 -400 2475 -625 
Q 2350 -375 2125 -200 
Q 2775 -75 3200 200 
Q 3625 475 3775 850 
L 3325 850 
Q 2800 850 2400 825 
L 2400 1225 
Q 2800 1200 3350 1200 
L 3875 1200 
Q 3925 1475 3925 1725 
L 2750 1725 
Q 2775 2075 2775 2700 
Q 2775 3350 2750 3675 
L 5700 3675 
z
M 2175 1650 
Q 2025 1975 1675 2525 
L 1675 300 
Q 1675 -300 1700 -550 
L 1175 -550 
Q 1200 -275 1200 250 
L 1200 2225 
Q 1125 2000 962 1712 
Q 800 1425 600 1050 
Q 450 1275 200 1425 
Q 600 1825 850 2425 
Q 1100 3025 1175 3425 
L 950 3425 
Q 700 3425 400 3400 
L 400 3825 
Q 675 3800 825 3800 
L 1200 3800 
L 1200 4350 
Q 1200 4775 1175 5150 
L 1700 5150 
Q 1675 4825 1675 4425 
L 1675 3800 
Q 2075 3800 2375 3825 
L 2375 3400 
Q 2050 3425 1675 3425 
L 1675 2575 
Q 1850 2675 2000 2775 
Q 2150 2525 2287 2325 
Q 2425 2125 2550 1925 
Q 2325 1775 2175 1650 
z
M 3375 4300 
L 3175 4300 
Q 2700 4300 2425 4275 
L 2425 4675 
Q 2700 4650 3150 4650 
L 3375 4650 
Q 3375 5000 3350 5225 
L 3825 5225 
Q 3800 5000 3800 4650 
L 4550 4650 
Q 4550 4975 4525 5200 
L 5025 5200 
Q 5000 4925 5000 4650 
L 5375 4650 
Q 5650 4650 5950 4675 
L 5950 4275 
Q 5650 4300 5375 4300 
L 5000 4300 
L 5000 3850 
L 4550 3850 
L 4550 4300 
L 3800 4300 
L 3800 3875 
L 3375 3875 
L 3375 4300 
z
M 5275 2075 
L 5275 2525 
L 3200 2525 
L 3200 2075 
L 5275 2075 
z
M 5275 2875 
L 5275 3325 
L 3200 3325 
L 3200 2875 
L 5275 2875 
z
" transform="scale(0.015625)"/>
      <path id="SimHei-5f0f" d="M 3300 3900 
Q 3250 4775 3225 5225 
Q 3375 5200 3875 5175 
Q 3825 5000 3850 3900 
L 4850 3900 
Q 5325 3900 5825 3925 
L 5825 3425 
Q 5375 3450 4875 3450 
L 3875 3450 
Q 3950 2800 4087 2237 
Q 4225 1675 4450 1175 
Q 4675 675 5037 287 
Q 5400 -100 5475 250 
Q 5550 600 5525 950 
Q 5750 775 6150 625 
Q 5975 -450 5637 -525 
Q 5300 -600 4962 -362 
Q 4625 -125 4325 325 
Q 4025 775 3837 1312 
Q 3650 1850 3525 2425 
Q 3400 3000 3350 3450 
L 1525 3450 
Q 800 3450 350 3425 
L 350 3925 
Q 825 3900 1500 3900 
L 3300 3900 
z
M 2250 2575 
Q 2725 2575 3150 2600 
L 3150 2125 
Q 2700 2150 2200 2150 
L 2200 575 
Q 2725 700 3400 875 
L 3400 425 
Q 2500 250 1975 87 
Q 1450 -75 700 -375 
L 450 225 
Q 750 250 1700 450 
L 1700 2150 
Q 975 2150 700 2125 
L 700 2600 
Q 975 2575 1475 2575 
L 2250 2575 
z
M 4700 5075 
Q 5175 4550 5375 4300 
Q 5250 4250 4900 4000 
Q 4725 4300 4275 4750 
Q 4400 4850 4700 5075 
z
" transform="scale(0.015625)"/>
      <path id="SimHei-4f18" d="M 4650 350 
Q 4625 100 4825 50 
Q 5025 0 5200 12 
Q 5375 25 5462 125 
Q 5550 225 5650 800 
Q 5825 625 6200 525 
Q 6050 -25 5912 -200 
Q 5775 -375 5475 -400 
L 4700 -400 
Q 4175 -400 4175 200 
L 4175 3050 
L 3850 3050 
Q 3725 600 2375 -550 
Q 2200 -325 1875 -225 
Q 3175 675 3350 3050 
L 2900 3050 
Q 2350 3050 1975 3025 
L 1975 3475 
Q 2350 3450 2900 3450 
L 3375 3450 
Q 3375 4700 3350 5150 
Q 3525 5100 3925 5075 
Q 3850 4700 3850 3450 
L 5200 3450 
Q 5475 3450 5925 3475 
L 5925 3025 
Q 5500 3050 5225 3050 
L 4650 3050 
L 4650 350 
z
M 200 2375 
Q 525 2700 1000 3612 
Q 1475 4525 1600 5200 
Q 1850 5050 2225 4925 
Q 2000 4700 1700 3825 
L 1700 600 
Q 1700 -150 1725 -525 
L 1200 -525 
Q 1225 -175 1225 575 
L 1225 2975 
Q 900 2425 550 1975 
Q 425 2200 200 2375 
z
M 4850 5025 
Q 5000 4800 5150 4587 
Q 5300 4375 5450 4200 
Q 5250 4075 5025 3875 
Q 4875 4175 4450 4725 
Q 4625 4850 4850 5025 
z
" transform="scale(0.015625)"/>
      <path id="SimHei-5386" d="M 3725 2500 
Q 3625 1775 3487 1337 
Q 3350 900 3150 562 
Q 2950 225 2687 -62 
Q 2425 -350 2075 -625 
Q 1825 -350 1500 -225 
Q 2075 75 2387 412 
Q 2700 750 2875 1125 
Q 3050 1500 3112 1787 
Q 3175 2075 3225 2500 
L 2725 2500 
Q 2125 2500 1900 2475 
L 1900 2950 
Q 2375 2925 2675 2925 
L 3250 2925 
Q 3275 3250 3275 3550 
L 3275 4275 
Q 3625 4175 3900 4150 
Q 3825 3775 3800 3512 
Q 3775 3250 3750 2925 
L 5650 2925 
Q 5600 2550 5550 1850 
Q 5500 1150 5475 687 
Q 5450 225 5375 -50 
Q 5300 -325 4987 -412 
Q 4675 -500 4300 -550 
Q 4225 -250 4050 100 
Q 4575 75 4725 125 
Q 4875 175 4912 562 
Q 4950 950 5000 1475 
Q 5050 2000 5075 2500 
L 3725 2500 
z
M 800 -675 
Q 550 -500 225 -400 
Q 525 0 662 412 
Q 800 825 900 1412 
Q 1000 2000 1000 2725 
L 1000 3950 
Q 1000 4450 950 4825 
L 4825 4825 
Q 5375 4825 5675 4850 
L 5675 4375 
Q 5425 4400 5000 4400 
L 1500 4400 
Q 1500 2800 1487 2287 
Q 1475 1775 1412 1275 
Q 1350 775 1262 450 
Q 1175 125 1062 -162 
Q 950 -450 800 -675 
z
" transform="scale(0.015625)"/>
      <path id="SimHei-53f2" d="M 3000 4225 
Q 3000 4975 2950 5250 
Q 3350 5200 3625 5175 
Q 3525 4950 3525 4225 
L 5500 4225 
Q 5475 3775 5475 3175 
Q 5475 2600 5500 2150 
L 3500 2150 
Q 3450 1750 3362 1362 
Q 3275 975 3125 700 
Q 3450 450 3875 325 
Q 4300 200 4750 150 
Q 5200 100 6175 125 
Q 5900 -125 5850 -425 
Q 5175 -425 4700 -350 
Q 4225 -275 3787 -150 
Q 3350 -25 2775 325 
Q 2100 -150 1562 -325 
Q 1025 -500 650 -575 
Q 525 -250 275 -75 
Q 750 -50 1350 125 
Q 1950 300 2325 575 
Q 1575 1250 1225 1800 
Q 1525 1825 1750 1950 
Q 2275 1300 2675 975 
Q 2825 1275 2887 1562 
Q 2950 1850 2975 2150 
L 900 2150 
Q 925 2600 925 3175 
Q 925 3775 900 4225 
L 3000 4225 
z
M 3000 2575 
L 3000 3800 
L 1450 3800 
L 1450 2575 
L 3000 2575 
z
M 4950 2575 
L 4950 3800 
L 3525 3800 
L 3525 2575 
L 4950 2575 
z
" transform="scale(0.015625)"/>
     </defs>
     <use xlink:href="#SimHei-65e5"/>
     <use xlink:href="#SimHei-95f4" transform="translate(100 0)"/>
     <use xlink:href="#SimHei-7167" transform="translate(200 0)"/>
     <use xlink:href="#SimHei-660e" transform="translate(300 0)"/>
     <use xlink:href="#SimHei-6a21" transform="translate(400 0)"/>
     <use xlink:href="#SimHei-5f0f" transform="translate(500 0)"/>
     <use xlink:href="#SimHei-4f18" transform="translate(600 0)"/>
     <use xlink:href="#SimHei-5316" transform="translate(700 0)"/>
     <use xlink:href="#SimHei-5386" transform="translate(800 0)"/>
     <use xlink:href="#SimHei-53f2" transform="translate(900 0)"/>
    </g>
   </g>
  </g>
  <g id="axes_2">
   <g id="patch_7">
    <path d="M 474.096875 316.084375 
L 849.118125 316.084375 
L 849.118125 23.090625 
L 474.096875 23.090625 
z
" style="fill: #ffffff"/>
   </g>
   <g id="matplotlib.axis_3">
    <g id="xtick_7">
     <g id="line2d_30">
      <path d="M 491.143295 316.084375 
L 491.143295 23.090625 
" clip-path="url(#p982abdf7df)" style="fill: none; stroke: #b0b0b0; stroke-width: 0.8; stroke-linecap: square"/>
     </g>
     <g id="line2d_31">
      <g>
       <use xlink:href="#m0d1fc4b2ac" x="491.143295" y="316.084375" style="stroke: #000000; stroke-width: 0.8"/>
      </g>
     </g>
     <g id="text_18">
      <!-- 0 -->
      <g transform="translate(488.643295 329.959375) scale(0.1 -0.1)">
       <use xlink:href="#SimHei-30"/>
      </g>
     </g>
    </g>
    <g id="xtick_8">
     <g id="line2d_32">
      <path d="M 559.465622 316.084375 
L 559.465622 23.090625 
" clip-path="url(#p982abdf7df)" style="fill: none; stroke: #b0b0b0; stroke-width: 0.8; stroke-linecap: square"/>
     </g>
     <g id="line2d_33">
      <g>
       <use xlink:href="#m0d1fc4b2ac" x="559.465622" y="316.084375" style="stroke: #000000; stroke-width: 0.8"/>
      </g>
     </g>
     <g id="text_19">
      <!-- 100 -->
      <g transform="translate(551.965622 329.959375) scale(0.1 -0.1)">
       <use xlink:href="#SimHei-31"/>
       <use xlink:href="#SimHei-30" transform="translate(50 0)"/>
       <use xlink:href="#SimHei-30" transform="translate(100 0)"/>
      </g>
     </g>
    </g>
    <g id="xtick_9">
     <g id="line2d_34">
      <path d="M 627.787948 316.084375 
L 627.787948 23.090625 
" clip-path="url(#p982abdf7df)" style="fill: none; stroke: #b0b0b0; stroke-width: 0.8; stroke-linecap: square"/>
     </g>
     <g id="line2d_35">
      <g>
       <use xlink:href="#m0d1fc4b2ac" x="627.787948" y="316.084375" style="stroke: #000000; stroke-width: 0.8"/>
      </g>
     </g>
     <g id="text_20">
      <!-- 200 -->
      <g transform="translate(620.287948 329.959375) scale(0.1 -0.1)">
       <use xlink:href="#SimHei-32"/>
       <use xlink:href="#SimHei-30" transform="translate(50 0)"/>
       <use xlink:href="#SimHei-30" transform="translate(100 0)"/>
      </g>
     </g>
    </g>
    <g id="xtick_10">
     <g id="line2d_36">
      <path d="M 696.110275 316.084375 
L 696.110275 23.090625 
" clip-path="url(#p982abdf7df)" style="fill: none; stroke: #b0b0b0; stroke-width: 0.8; stroke-linecap: square"/>
     </g>
     <g id="line2d_37">
      <g>
       <use xlink:href="#m0d1fc4b2ac" x="696.110275" y="316.084375" style="stroke: #000000; stroke-width: 0.8"/>
      </g>
     </g>
     <g id="text_21">
      <!-- 300 -->
      <g transform="translate(688.610275 329.959375) scale(0.1 -0.1)">
       <use xlink:href="#SimHei-33"/>
       <use xlink:href="#SimHei-30" transform="translate(50 0)"/>
       <use xlink:href="#SimHei-30" transform="translate(100 0)"/>
      </g>
     </g>
    </g>
    <g id="xtick_11">
     <g id="line2d_38">
      <path d="M 764.432601 316.084375 
L 764.432601 23.090625 
" clip-path="url(#p982abdf7df)" style="fill: none; stroke: #b0b0b0; stroke-width: 0.8; stroke-linecap: square"/>
     </g>
     <g id="line2d_39">
      <g>
       <use xlink:href="#m0d1fc4b2ac" x="764.432601" y="316.084375" style="stroke: #000000; stroke-width: 0.8"/>
      </g>
     </g>
     <g id="text_22">
      <!-- 400 -->
      <g transform="translate(756.932601 329.959375) scale(0.1 -0.1)">
       <use xlink:href="#SimHei-34"/>
       <use xlink:href="#SimHei-30" transform="translate(50 0)"/>
       <use xlink:href="#SimHei-30" transform="translate(100 0)"/>
      </g>
     </g>
    </g>
    <g id="xtick_12">
     <g id="line2d_40">
      <path d="M 832.754928 316.084375 
L 832.754928 23.090625 
" clip-path="url(#p982abdf7df)" style="fill: none; stroke: #b0b0b0; stroke-width: 0.8; stroke-linecap: square"/>
     </g>
     <g id="line2d_41">
      <g>
       <use xlink:href="#m0d1fc4b2ac" x="832.754928" y="316.084375" style="stroke: #000000; stroke-width: 0.8"/>
      </g>
     </g>
     <g id="text_23">
      <!-- 500 -->
      <g transform="translate(825.254928 329.959375) scale(0.1 -0.1)">
       <use xlink:href="#SimHei-35"/>
       <use xlink:href="#SimHei-30" transform="translate(50 0)"/>
       <use xlink:href="#SimHei-30" transform="translate(100 0)"/>
      </g>
     </g>
    </g>
    <g id="text_24">
     <!-- 进化代数 -->
     <g transform="translate(641.6075 343.1) scale(0.1 -0.1)">
      <use xlink:href="#SimHei-8fdb"/>
      <use xlink:href="#SimHei-5316" transform="translate(100 0)"/>
      <use xlink:href="#SimHei-4ee3" transform="translate(200 0)"/>
      <use xlink:href="#SimHei-6570" transform="translate(300 0)"/>
     </g>
    </g>
   </g>
   <g id="matplotlib.axis_4">
    <g id="ytick_9">
     <g id="line2d_42">
      <path d="M 474.096875 314.404654 
L 849.118125 314.404654 
" clip-path="url(#p982abdf7df)" style="fill: none; stroke: #b0b0b0; stroke-width: 0.8; stroke-linecap: square"/>
     </g>
     <g id="line2d_43">
      <g>
       <use xlink:href="#me3ce16c741" x="474.096875" y="314.404654" style="stroke: #000000; stroke-width: 0.8"/>
      </g>
     </g>
     <g id="text_25">
      <!-- 0.58 -->
      <g transform="translate(447.096875 317.842154) scale(0.1 -0.1)">
       <use xlink:href="#SimHei-30"/>
       <use xlink:href="#SimHei-2e" transform="translate(50 0)"/>
       <use xlink:href="#SimHei-35" transform="translate(100 0)"/>
       <use xlink:href="#SimHei-38" transform="translate(150 0)"/>
      </g>
     </g>
    </g>
    <g id="ytick_10">
     <g id="line2d_44">
      <path d="M 474.096875 276.502719 
L 849.118125 276.502719 
" clip-path="url(#p982abdf7df)" style="fill: none; stroke: #b0b0b0; stroke-width: 0.8; stroke-linecap: square"/>
     </g>
     <g id="line2d_45">
      <g>
       <use xlink:href="#me3ce16c741" x="474.096875" y="276.502719" style="stroke: #000000; stroke-width: 0.8"/>
      </g>
     </g>
     <g id="text_26">
      <!-- 0.59 -->
      <g transform="translate(447.096875 279.940219) scale(0.1 -0.1)">
       <defs>
        <path id="SimHei-39" d="M 800 75 
Q 1350 1000 1700 1750 
Q 1075 1650 662 1912 
Q 250 2175 162 2625 
Q 75 3075 175 3437 
Q 275 3800 487 4037 
Q 700 4275 1000 4375 
Q 1300 4475 1537 4475 
Q 1775 4475 2025 4375 
Q 2275 4275 2475 4075 
Q 2675 3875 2750 3662 
Q 2825 3450 2825 3112 
Q 2825 2775 2575 2250 
Q 2325 1725 1350 75 
L 800 75 
z
M 662 2875 
Q 700 2550 937 2337 
Q 1175 2125 1450 2150 
Q 1725 2175 1887 2300 
Q 2050 2425 2200 2725 
Q 2300 3100 2250 3362 
Q 2200 3625 1987 3800 
Q 1775 3975 1525 3975 
Q 1375 4000 1137 3900 
Q 900 3800 762 3500 
Q 625 3200 662 2875 
z
" transform="scale(0.015625)"/>
       </defs>
       <use xlink:href="#SimHei-30"/>
       <use xlink:href="#SimHei-2e" transform="translate(50 0)"/>
       <use xlink:href="#SimHei-35" transform="translate(100 0)"/>
       <use xlink:href="#SimHei-39" transform="translate(150 0)"/>
      </g>
     </g>
    </g>
    <g id="ytick_11">
     <g id="line2d_46">
      <path d="M 474.096875 238.600784 
L 849.118125 238.600784 
" clip-path="url(#p982abdf7df)" style="fill: none; stroke: #b0b0b0; stroke-width: 0.8; stroke-linecap: square"/>
     </g>
     <g id="line2d_47">
      <g>
       <use xlink:href="#me3ce16c741" x="474.096875" y="238.600784" style="stroke: #000000; stroke-width: 0.8"/>
      </g>
     </g>
     <g id="text_27">
      <!-- 0.60 -->
      <g transform="translate(447.096875 242.038284) scale(0.1 -0.1)">
       <use xlink:href="#SimHei-30"/>
       <use xlink:href="#SimHei-2e" transform="translate(50 0)"/>
       <use xlink:href="#SimHei-36" transform="translate(100 0)"/>
       <use xlink:href="#SimHei-30" transform="translate(150 0)"/>
      </g>
     </g>
    </g>
    <g id="ytick_12">
     <g id="line2d_48">
      <path d="M 474.096875 200.698849 
L 849.118125 200.698849 
" clip-path="url(#p982abdf7df)" style="fill: none; stroke: #b0b0b0; stroke-width: 0.8; stroke-linecap: square"/>
     </g>
     <g id="line2d_49">
      <g>
       <use xlink:href="#me3ce16c741" x="474.096875" y="200.698849" style="stroke: #000000; stroke-width: 0.8"/>
      </g>
     </g>
     <g id="text_28">
      <!-- 0.61 -->
      <g transform="translate(447.096875 204.136349) scale(0.1 -0.1)">
       <use xlink:href="#SimHei-30"/>
       <use xlink:href="#SimHei-2e" transform="translate(50 0)"/>
       <use xlink:href="#SimHei-36" transform="translate(100 0)"/>
       <use xlink:href="#SimHei-31" transform="translate(150 0)"/>
      </g>
     </g>
    </g>
    <g id="ytick_13">
     <g id="line2d_50">
      <path d="M 474.096875 162.796914 
L 849.118125 162.796914 
" clip-path="url(#p982abdf7df)" style="fill: none; stroke: #b0b0b0; stroke-width: 0.8; stroke-linecap: square"/>
     </g>
     <g id="line2d_51">
      <g>
       <use xlink:href="#me3ce16c741" x="474.096875" y="162.796914" style="stroke: #000000; stroke-width: 0.8"/>
      </g>
     </g>
     <g id="text_29">
      <!-- 0.62 -->
      <g transform="translate(447.096875 166.234414) scale(0.1 -0.1)">
       <use xlink:href="#SimHei-30"/>
       <use xlink:href="#SimHei-2e" transform="translate(50 0)"/>
       <use xlink:href="#SimHei-36" transform="translate(100 0)"/>
       <use xlink:href="#SimHei-32" transform="translate(150 0)"/>
      </g>
     </g>
    </g>
    <g id="ytick_14">
     <g id="line2d_52">
      <path d="M 474.096875 124.894979 
L 849.118125 124.894979 
" clip-path="url(#p982abdf7df)" style="fill: none; stroke: #b0b0b0; stroke-width: 0.8; stroke-linecap: square"/>
     </g>
     <g id="line2d_53">
      <g>
       <use xlink:href="#me3ce16c741" x="474.096875" y="124.894979" style="stroke: #000000; stroke-width: 0.8"/>
      </g>
     </g>
     <g id="text_30">
      <!-- 0.63 -->
      <g transform="translate(447.096875 128.332479) scale(0.1 -0.1)">
       <use xlink:href="#SimHei-30"/>
       <use xlink:href="#SimHei-2e" transform="translate(50 0)"/>
       <use xlink:href="#SimHei-36" transform="translate(100 0)"/>
       <use xlink:href="#SimHei-33" transform="translate(150 0)"/>
      </g>
     </g>
    </g>
    <g id="ytick_15">
     <g id="line2d_54">
      <path d="M 474.096875 86.993044 
L 849.118125 86.993044 
" clip-path="url(#p982abdf7df)" style="fill: none; stroke: #b0b0b0; stroke-width: 0.8; stroke-linecap: square"/>
     </g>
     <g id="line2d_55">
      <g>
       <use xlink:href="#me3ce16c741" x="474.096875" y="86.993044" style="stroke: #000000; stroke-width: 0.8"/>
      </g>
     </g>
     <g id="text_31">
      <!-- 0.64 -->
      <g transform="translate(447.096875 90.430544) scale(0.1 -0.1)">
       <use xlink:href="#SimHei-30"/>
       <use xlink:href="#SimHei-2e" transform="translate(50 0)"/>
       <use xlink:href="#SimHei-36" transform="translate(100 0)"/>
       <use xlink:href="#SimHei-34" transform="translate(150 0)"/>
      </g>
     </g>
    </g>
    <g id="ytick_16">
     <g id="line2d_56">
      <path d="M 474.096875 49.09111 
L 849.118125 49.09111 
" clip-path="url(#p982abdf7df)" style="fill: none; stroke: #b0b0b0; stroke-width: 0.8; stroke-linecap: square"/>
     </g>
     <g id="line2d_57">
      <g>
       <use xlink:href="#me3ce16c741" x="474.096875" y="49.09111" style="stroke: #000000; stroke-width: 0.8"/>
      </g>
     </g>
     <g id="text_32">
      <!-- 0.65 -->
      <g transform="translate(447.096875 52.52861) scale(0.1 -0.1)">
       <use xlink:href="#SimHei-30"/>
       <use xlink:href="#SimHei-2e" transform="translate(50 0)"/>
       <use xlink:href="#SimHei-36" transform="translate(100 0)"/>
       <use xlink:href="#SimHei-35" transform="translate(150 0)"/>
      </g>
     </g>
    </g>
    <g id="text_33">
     <!-- 适应度 -->
     <g transform="translate(441.846875 184.5875) rotate(-90) scale(0.1 -0.1)">
      <use xlink:href="#SimHei-9002"/>
      <use xlink:href="#SimHei-5e94" transform="translate(100 0)"/>
      <use xlink:href="#SimHei-5ea6" transform="translate(200 0)"/>
     </g>
    </g>
   </g>
   <g id="line2d_58">
    <path d="M 491.143295 216.337177 
L 491.826519 220.622532 
L 492.509742 136.973781 
L 493.192965 136.973781 
L 493.876189 99.437091 
L 494.559412 99.437091 
L 495.242635 116.86353 
L 495.925858 116.205742 
L 496.609082 201.966186 
L 497.292305 159.27789 
L 497.975528 159.27789 
L 500.025198 269.084408 
L 500.708421 144.535705 
L 501.391644 295.181709 
L 502.074868 302.766477 
L 503.441314 229.761044 
L 504.124537 206.429024 
L 504.807761 238.873736 
L 505.490984 238.873736 
L 506.174207 293.333171 
L 506.857431 277.963674 
L 507.540654 242.482875 
L 508.223877 110.224989 
L 508.9071 215.073739 
L 509.590324 88.446389 
L 510.273547 260.400027 
L 510.95677 211.410942 
L 511.639993 287.388523 
L 512.323217 168.401665 
L 513.00644 177.912304 
L 513.689663 153.847609 
L 514.372886 100.194711 
L 515.05611 101.69896 
L 515.739333 83.897654 
L 516.422556 95.976195 
L 517.10578 101.032744 
L 517.789003 96.962089 
L 518.472226 94.529104 
L 519.155449 102.338008 
L 519.838673 86.924904 
L 520.521896 54.666445 
L 521.205119 155.075963 
L 521.888342 55.640752 
L 522.571566 154.769026 
L 523.254789 111.261562 
L 524.621235 59.533944 
L 525.304459 72.44779 
L 525.987682 169.399299 
L 526.670905 91.73018 
L 527.354128 131.859221 
L 528.037352 58.256197 
L 528.720575 86.997577 
L 529.403798 57.737049 
L 530.087022 55.39596 
L 530.770245 106.190136 
L 531.453468 39.107389 
L 532.136691 104.189564 
L 532.819915 51.724175 
L 533.503138 61.334886 
L 534.186361 79.059071 
L 535.552808 135.400024 
L 536.236031 135.400024 
L 537.602477 60.313169 
L 538.968924 159.493587 
L 539.652147 84.218199 
L 540.335371 90.22318 
L 541.018594 90.22318 
L 541.701817 89.190598 
L 542.38504 99.09972 
L 543.068264 99.844807 
L 543.751487 95.281044 
L 544.43471 43.949352 
L 545.801157 143.888649 
L 546.48438 151.961433 
L 547.167603 170.162673 
L 547.850826 139.574981 
L 548.53405 169.439764 
L 549.217273 52.492088 
L 549.900496 100.589623 
L 550.583719 117.874303 
L 551.266943 101.010989 
L 551.950166 126.297552 
L 552.633389 138.02099 
L 553.316613 91.919856 
L 553.999836 72.748627 
L 554.683059 37.891379 
L 555.366282 45.635001 
L 556.049506 45.635001 
L 556.732729 51.377797 
L 557.415952 51.377797 
L 558.099175 39.254141 
L 558.782399 52.12126 
L 559.465622 60.618939 
L 560.148845 50.516332 
L 560.832068 48.438501 
L 561.515292 41.616618 
L 562.881738 41.616618 
L 563.564962 46.973405 
L 564.248185 51.309 
L 564.931408 45.15782 
L 565.614631 40.774333 
L 566.297855 39.754123 
L 566.981078 39.266682 
L 567.664301 45.113657 
L 568.347524 45.113657 
L 569.030748 53.508174 
L 569.713971 58.72444 
L 570.397194 42.660031 
L 571.763641 42.660031 
L 572.446864 41.28002 
L 573.130087 39.130047 
L 573.81331 39.130047 
L 574.496534 45.985203 
L 575.179757 45.394293 
L 575.86298 55.754921 
L 576.546204 45.170608 
L 577.229427 54.468814 
L 577.91265 66.319305 
L 578.595873 47.053008 
L 579.279097 47.053008 
L 579.96232 47.576836 
L 580.645543 42.374901 
L 581.328766 40.425339 
L 582.01199 46.968683 
L 582.695213 50.212675 
L 583.378436 43.297824 
L 584.061659 46.805918 
L 584.744883 71.110832 
L 585.428106 48.109224 
L 586.111329 48.109224 
L 586.794553 45.576304 
L 587.477776 70.498004 
L 588.160999 53.838529 
L 588.844222 53.838529 
L 589.527446 45.498642 
L 590.210669 39.295033 
L 590.893892 39.295033 
L 591.577115 58.856738 
L 592.260339 56.54444 
L 592.943562 62.175265 
L 593.626785 60.111078 
L 594.993232 60.111078 
L 595.676455 47.750037 
L 596.359678 47.750037 
L 597.042901 48.340433 
L 597.726125 52.390789 
L 599.092571 76.74949 
L 599.775795 57.243584 
L 600.459018 91.942961 
L 601.142241 46.804221 
L 601.825464 54.447918 
L 602.508688 54.06778 
L 603.191911 54.06778 
L 603.875134 46.000517 
L 604.558357 42.073482 
L 605.241581 50.921912 
L 605.924804 65.334237 
L 606.608027 65.334237 
L 607.29125 87.041903 
L 607.974474 55.746291 
L 608.657697 52.075927 
L 609.34092 61.700146 
L 610.024144 65.071471 
L 610.707367 77.534693 
L 611.39059 58.693796 
L 612.073813 44.17267 
L 612.757037 46.132725 
L 613.44026 42.562497 
L 614.806706 42.562497 
L 615.48993 43.687075 
L 616.856376 43.687075 
L 617.539599 42.577616 
L 618.222823 42.577616 
L 618.906046 50.901508 
L 620.272492 47.466163 
L 620.955716 47.716508 
L 621.638939 40.112284 
L 622.322162 44.967362 
L 623.005386 54.797158 
L 623.688609 48.440945 
L 624.371832 40.507149 
L 625.055055 40.507149 
L 625.738279 48.03711 
L 626.421502 66.144714 
L 627.104725 67.554506 
L 627.787948 67.990351 
L 628.471172 42.96831 
L 629.154395 45.853787 
L 629.837618 54.943993 
L 630.520841 47.897782 
L 631.204065 50.926114 
L 631.887288 59.599312 
L 632.570511 59.189921 
L 633.253735 60.402036 
L 633.936958 37.424713 
L 634.620181 39.061901 
L 636.669851 39.061901 
L 637.353074 48.334517 
L 638.036297 47.728616 
L 638.719521 38.297515 
L 639.402744 41.27201 
L 640.085967 53.720975 
L 640.76919 52.234862 
L 641.452414 46.088617 
L 642.135637 38.801574 
L 642.81886 41.649914 
L 643.502083 47.361916 
L 644.185307 39.466007 
L 644.86853 42.890893 
L 645.551753 41.723216 
L 646.234977 45.145403 
L 646.9182 55.199841 
L 647.601423 42.076005 
L 648.96787 42.076005 
L 649.651093 40.981362 
L 650.334316 47.04359 
L 651.017539 48.631761 
L 651.700763 57.146802 
L 652.383986 49.84956 
L 653.067209 47.019212 
L 653.750432 37.937664 
L 654.433656 37.937664 
L 655.116879 69.149594 
L 655.800102 37.423742 
L 656.483326 59.55266 
L 657.166549 49.041909 
L 657.849772 51.922426 
L 658.532995 51.837043 
L 659.216219 83.161444 
L 660.582665 43.738414 
L 661.265888 50.750817 
L 661.949112 52.728702 
L 662.632335 52.256876 
L 663.315558 52.256876 
L 663.998781 52.728702 
L 664.682005 61.065792 
L 665.365228 39.268705 
L 666.048451 46.246501 
L 666.731674 55.679104 
L 667.414898 57.20027 
L 668.098121 57.20027 
L 668.781344 67.370448 
L 669.464568 54.130715 
L 671.514237 54.130715 
L 672.197461 66.152399 
L 672.880684 49.358753 
L 673.563907 42.680524 
L 674.24713 43.881419 
L 674.930354 42.699951 
L 675.613577 42.875858 
L 676.2968 47.243626 
L 676.980023 56.909372 
L 677.663247 74.165684 
L 678.34647 63.916862 
L 679.029693 41.820613 
L 679.712917 41.820613 
L 680.39614 63.916862 
L 681.079363 63.746207 
L 681.762586 48.90981 
L 682.44581 40.298322 
L 683.129033 41.587224 
L 683.812256 37.560302 
L 684.495479 45.022794 
L 685.178703 39.957665 
L 685.861926 51.249903 
L 686.545149 55.676049 
L 687.228372 40.767769 
L 687.911596 45.758559 
L 688.594819 46.979865 
L 689.278042 43.273451 
L 689.961265 50.738419 
L 690.644489 62.557323 
L 691.327712 46.309859 
L 692.010935 44.497681 
L 692.694159 44.497681 
L 693.377382 57.749931 
L 694.060605 38.317402 
L 694.743828 44.964702 
L 695.427052 52.981302 
L 696.110275 36.408523 
L 696.793498 38.94391 
L 697.476721 52.687337 
L 698.159945 49.016409 
L 698.843168 49.016409 
L 699.526391 48.225498 
L 700.209614 60.845889 
L 700.892838 41.887827 
L 701.576061 44.79736 
L 702.259284 42.155711 
L 702.942508 42.155711 
L 703.625731 37.126318 
L 704.308954 37.126318 
L 704.992177 42.033444 
L 705.675401 64.883543 
L 707.041847 56.491045 
L 707.72507 40.871192 
L 708.408294 54.170718 
L 709.091517 59.176596 
L 709.77474 41.909821 
L 710.457963 69.387674 
L 711.141187 68.530903 
L 711.82441 44.695168 
L 713.190856 44.695168 
L 713.87408 48.390736 
L 714.557303 45.957234 
L 715.240526 45.957234 
L 715.92375 44.850819 
L 716.606973 63.05003 
L 717.290196 57.732865 
L 717.973419 46.563427 
L 718.656643 61.043878 
L 719.339866 68.099881 
L 720.023089 71.95596 
L 720.706312 54.753507 
L 721.389536 54.753507 
L 722.072759 39.897532 
L 723.439205 69.163288 
L 724.122429 59.429745 
L 724.805652 47.846649 
L 725.488875 42.694329 
L 726.172099 62.25074 
L 726.855322 62.25074 
L 727.538545 39.889679 
L 728.221768 55.489654 
L 728.904992 55.489654 
L 729.588215 55.375073 
L 730.271438 46.185651 
L 730.954661 42.869851 
L 731.637885 54.390034 
L 732.321108 47.318825 
L 733.004331 52.253966 
L 733.687554 48.32721 
L 734.370778 48.911118 
L 735.054001 38.972366 
L 735.737224 48.911118 
L 736.420447 38.29727 
L 737.103671 39.620374 
L 737.786894 39.620374 
L 738.470117 59.780438 
L 739.153341 40.236087 
L 739.836564 57.186569 
L 741.20301 48.263286 
L 741.886234 53.622342 
L 742.569457 63.652494 
L 743.935903 63.652494 
L 744.619127 54.004711 
L 745.30235 52.565395 
L 745.985573 54.219743 
L 746.668796 40.653527 
L 747.35202 61.354019 
L 748.035243 41.388224 
L 748.718466 49.395927 
L 749.40169 47.466488 
L 750.084913 37.350001 
L 750.768136 40.60247 
L 751.451359 49.347933 
L 752.134583 43.544172 
L 752.817806 67.962795 
L 753.501029 44.948604 
L 754.184252 56.265054 
L 755.550699 40.276549 
L 756.233922 39.226573 
L 756.917145 40.276549 
L 757.600369 36.925906 
L 758.283592 40.013558 
L 758.966815 38.338338 
L 759.650038 54.127878 
L 760.333262 38.338338 
L 761.016485 38.338338 
L 761.699708 37.995685 
L 762.382932 37.995685 
L 763.066155 40.915155 
L 763.749378 52.453542 
L 764.432601 50.744612 
L 765.115825 40.483537 
L 765.799048 52.858937 
L 766.482271 54.56597 
L 767.165494 54.461488 
L 768.531941 38.162087 
L 769.215164 42.684673 
L 769.898387 54.466601 
L 770.581611 51.560816 
L 771.264834 56.545038 
L 772.631281 46.748809 
L 773.997727 46.748809 
L 774.68095 49.79862 
L 775.364174 45.437451 
L 776.047397 65.179581 
L 776.73062 61.117514 
L 777.413843 61.162269 
L 778.097067 57.379989 
L 778.78029 46.254901 
L 779.463513 49.304045 
L 780.146736 65.019074 
L 781.513183 39.212604 
L 782.879629 64.315743 
L 783.562853 37.566801 
L 784.246076 47.902439 
L 784.929299 47.902439 
L 786.295746 77.890479 
L 786.978969 56.797957 
L 787.662192 83.661986 
L 788.345416 66.885823 
L 789.028639 66.885823 
L 789.711862 46.81192 
L 790.395085 46.08147 
L 791.078309 56.551046 
L 791.761532 58.904421 
L 792.444755 56.867167 
L 793.127978 59.801271 
L 793.811202 41.923539 
L 794.494425 41.923539 
L 795.177648 84.36684 
L 795.860872 38.437055 
L 796.544095 87.677807 
L 797.910541 37.113667 
L 798.593765 37.937985 
L 799.276988 64.42172 
L 799.960211 43.536542 
L 800.643434 58.113843 
L 801.326658 45.645977 
L 802.009881 43.68604 
L 802.693104 58.310371 
L 803.376327 50.545057 
L 804.059551 57.231465 
L 804.742774 56.264566 
L 805.425997 38.846572 
L 806.10922 38.846572 
L 806.792444 53.305513 
L 807.475667 50.146733 
L 808.15889 51.438458 
L 808.842114 44.318612 
L 809.525337 75.487116 
L 810.20856 67.71461 
L 810.891783 40.758423 
L 811.575007 70.29925 
L 812.25823 92.341811 
L 812.941453 53.079228 
L 813.624676 40.267382 
L 814.3079 47.581036 
L 814.991123 53.079228 
L 815.674346 41.688296 
L 816.357569 48.254742 
L 817.040793 52.893131 
L 817.724016 46.447997 
L 818.407239 51.030056 
L 819.090463 52.879962 
L 819.773686 52.650723 
L 820.456909 37.304841 
L 821.140132 71.040846 
L 821.823356 68.157251 
L 822.506579 49.256725 
L 823.189802 57.876454 
L 823.873025 47.357084 
L 824.556249 76.53895 
L 825.239472 68.690119 
L 825.922695 65.524135 
L 826.605918 78.120573 
L 827.289142 58.973673 
L 827.972365 52.823474 
L 828.655588 37.196846 
L 829.338811 45.543704 
L 830.022035 66.353407 
L 830.705258 69.906695 
L 831.388481 38.029843 
L 832.071705 38.029843 
L 832.071705 38.029843 
" clip-path="url(#p982abdf7df)" style="fill: none; stroke: #1f77b4; stroke-width: 1.5; stroke-linecap: square"/>
   </g>
   <g id="patch_8">
    <path d="M 474.096875 316.084375 
L 474.096875 23.090625 
" style="fill: none; stroke: #000000; stroke-width: 0.8; stroke-linejoin: miter; stroke-linecap: square"/>
   </g>
   <g id="patch_9">
    <path d="M 849.118125 316.084375 
L 849.118125 23.090625 
" style="fill: none; stroke: #000000; stroke-width: 0.8; stroke-linejoin: miter; stroke-linecap: square"/>
   </g>
   <g id="patch_10">
    <path d="M 474.096875 316.084375 
L 849.118125 316.084375 
" style="fill: none; stroke: #000000; stroke-width: 0.8; stroke-linejoin: miter; stroke-linecap: square"/>
   </g>
   <g id="patch_11">
    <path d="M 474.096875 23.090625 
L 849.118125 23.090625 
" style="fill: none; stroke: #000000; stroke-width: 0.8; stroke-linejoin: miter; stroke-linecap: square"/>
   </g>
   <g id="text_34">
    <!-- 夜间助眠模式优化历史 -->
    <g transform="translate(601.6075 17.090625) scale(0.12 -0.12)">
     <defs>
      <path id="SimHei-591c" d="M 3775 3725 
Q 3625 3550 3500 3250 
L 5475 3250 
Q 5350 2725 5250 2337 
Q 5150 1950 4962 1562 
Q 4775 1175 4637 987 
Q 4500 800 4225 450 
Q 4600 225 4987 100 
Q 5375 -25 6125 -100 
Q 5850 -350 5725 -675 
Q 5050 -500 4562 -287 
Q 4075 -75 3850 125 
Q 3550 -50 3275 -225 
Q 3000 -400 2375 -700 
Q 2250 -425 2000 -200 
Q 2525 -25 2825 100 
Q 3125 225 3475 450 
Q 3275 725 3087 1087 
Q 2900 1450 2750 1875 
Q 2550 1550 2425 1375 
Q 2225 1525 1975 1700 
Q 2100 1825 2275 2062 
Q 2450 2300 2600 2587 
Q 2750 2875 2912 3225 
Q 3075 3575 3125 3950 
Q 3650 3775 3775 3725 
z
M 2300 3600 
Q 2050 3300 1750 2725 
L 1750 275 
Q 1750 -175 1775 -625 
L 1225 -625 
Q 1250 -175 1250 275 
L 1250 2025 
Q 900 1425 600 1125 
Q 425 1325 200 1525 
Q 425 1725 650 2012 
Q 875 2300 1087 2662 
Q 1300 3025 1450 3350 
Q 1600 3675 1650 3925 
Q 1925 3775 2300 3600 
z
M 3400 5275 
Q 3475 4775 3525 4525 
L 4950 4525 
Q 5475 4525 5925 4550 
L 5925 4050 
Q 5475 4075 4950 4075 
L 1425 4075 
Q 875 4075 425 4050 
L 425 4550 
Q 850 4525 1425 4525 
L 2900 4525 
Q 2900 4725 2775 5150 
Q 3050 5225 3400 5275 
z
M 2825 1950 
Q 3100 2050 3250 2100 
Q 3325 1800 3512 1387 
Q 3700 975 3850 800 
Q 4075 1025 4225 1250 
Q 4375 1475 4500 1712 
Q 4625 1950 4712 2225 
Q 4800 2500 4875 2825 
L 3275 2825 
Q 3075 2450 2825 1950 
z
M 3925 2475 
Q 4000 2325 4100 2137 
Q 4200 1950 4325 1750 
Q 4075 1650 3875 1525 
Q 3825 1700 3700 1925 
Q 3575 2150 3500 2250 
Q 3725 2400 3925 2475 
z
" transform="scale(0.015625)"/>
      <path id="SimHei-52a9" d="M 3100 450 
Q 2825 400 2487 325 
Q 2150 250 1812 162 
Q 1475 75 1112 -37 
Q 750 -150 425 -275 
Q 375 -50 250 325 
Q 525 375 750 425 
L 750 3650 
Q 750 4175 725 4675 
L 2800 4675 
Q 2775 4225 2775 3675 
L 2775 800 
Q 2875 825 3100 875 
L 3100 450 
z
M 2650 -225 
Q 3150 125 3400 562 
Q 3650 1000 3762 1475 
Q 3875 1950 3925 2450 
Q 3975 2950 3975 3400 
Q 3550 3400 3200 3375 
L 3200 3825 
Q 3525 3800 3975 3800 
L 3975 4375 
Q 3975 4650 3950 5125 
Q 4225 5100 4600 5100 
Q 4525 4775 4512 4450 
Q 4500 4125 4500 3800 
L 5900 3800 
Q 5825 3400 5825 2825 
L 5675 275 
Q 5650 -200 5350 -287 
Q 5050 -375 4575 -425 
Q 4525 -100 4400 175 
Q 4875 175 5050 187 
Q 5225 200 5225 675 
L 5350 3400 
L 4500 3400 
Q 4450 2350 4325 1700 
Q 4200 1050 4012 675 
Q 3825 300 3637 12 
Q 3450 -275 3200 -550 
Q 3000 -350 2650 -225 
z
M 2275 1950 
L 2275 2950 
L 1225 2950 
L 1225 1950 
L 2275 1950 
z
M 1225 500 
Q 1525 550 1762 600 
Q 2000 650 2275 700 
L 2275 1550 
L 1225 1550 
L 1225 500 
z
M 2275 3325 
L 2275 4275 
L 1225 4275 
L 1225 3325 
L 2275 3325 
z
" transform="scale(0.015625)"/>
      <path id="SimHei-7720" d="M 5625 5025 
Q 5600 4550 5600 4075 
Q 5600 3600 5625 3175 
L 4450 3175 
Q 4475 2675 4525 2225 
L 5200 2225 
Q 5425 2225 5850 2250 
L 5850 1775 
Q 5500 1825 5275 1825 
L 4575 1825 
Q 4625 1425 4812 962 
Q 5000 500 5237 200 
Q 5475 -100 5562 125 
Q 5650 350 5675 550 
Q 5900 275 6150 200 
Q 6000 -250 5725 -512 
Q 5450 -775 5025 -300 
Q 4600 175 4400 750 
Q 4200 1325 4125 1825 
L 3050 1825 
L 3050 125 
Q 3450 400 3975 850 
Q 4000 525 4100 300 
Q 3925 175 3500 -100 
Q 3075 -375 2725 -675 
Q 2525 -450 2375 -250 
Q 2475 -150 2525 50 
Q 2575 250 2575 450 
L 2575 4050 
Q 2575 4750 2550 5025 
L 5625 5025 
z
M 2200 4825 
Q 2150 4275 2150 3675 
L 2150 1150 
Q 2150 725 2200 75 
L 1725 75 
L 1725 450 
L 825 450 
L 825 -125 
L 350 -125 
Q 400 500 400 1100 
L 400 3675 
Q 400 4275 350 4825 
L 2200 4825 
z
M 5150 3525 
L 5150 4625 
L 3050 4625 
L 3050 3525 
L 5150 3525 
z
M 4075 2225 
Q 4025 2700 4000 3175 
L 3050 3175 
L 3050 2225 
L 4075 2225 
z
M 1725 3400 
L 1725 4425 
L 825 4425 
L 825 3400 
L 1725 3400 
z
M 1725 875 
L 1725 1825 
L 825 1825 
L 825 875 
L 1725 875 
z
M 1725 2225 
L 1725 3050 
L 825 3050 
L 825 2225 
L 1725 2225 
z
" transform="scale(0.015625)"/>
     </defs>
     <use xlink:href="#SimHei-591c"/>
     <use xlink:href="#SimHei-95f4" transform="translate(100 0)"/>
     <use xlink:href="#SimHei-52a9" transform="translate(200 0)"/>
     <use xlink:href="#SimHei-7720" transform="translate(300 0)"/>
     <use xlink:href="#SimHei-6a21" transform="translate(400 0)"/>
     <use xlink:href="#SimHei-5f0f" transform="translate(500 0)"/>
     <use xlink:href="#SimHei-4f18" transform="translate(600 0)"/>
     <use xlink:href="#SimHei-5316" transform="translate(700 0)"/>
     <use xlink:href="#SimHei-5386" transform="translate(800 0)"/>
     <use xlink:href="#SimHei-53f2" transform="translate(900 0)"/>
    </g>
   </g>
  </g>
 </g>
 <defs>
  <clipPath id="pc47d65cc8f">
   <rect x="47.496875" y="23.090625" width="375.02125" height="292.99375"/>
  </clipPath>
  <clipPath id="p982abdf7df">
   <rect x="474.096875" y="23.090625" width="375.02125" height="292.99375"/>
  </clipPath>
 </defs>
</svg>
