<?xml version="1.0" encoding="utf-8" standalone="no"?>
<!DOCTYPE svg PUBLIC "-//W3C//DTD SVG 1.1//EN"
  "http://www.w3.org/Graphics/SVG/1.1/DTD/svg11.dtd">
<svg xmlns:xlink="http://www.w3.org/1999/xlink" width="856.418125pt" height="351.55pt" viewBox="0 0 856.418125 351.55" xmlns="http://www.w3.org/2000/svg" version="1.1">
 <metadata>
  <rdf:RDF xmlns:dc="http://purl.org/dc/elements/1.1/" xmlns:cc="http://creativecommons.org/ns#" xmlns:rdf="http://www.w3.org/1999/02/22-rdf-syntax-ns#">
   <cc:Work>
    <dc:type rdf:resource="http://purl.org/dc/dcmitype/StillImage"/>
    <dc:date>2025-08-08T15:18:50.939013</dc:date>
    <dc:format>image/svg+xml</dc:format>
    <dc:creator>
     <cc:Agent>
      <dc:title>Matplotlib v3.10.5, https://matplotlib.org/</dc:title>
     </cc:Agent>
    </dc:creator>
   </cc:Work>
  </rdf:RDF>
 </metadata>
 <defs>
  <style type="text/css">*{stroke-linejoin: round; stroke-linecap: butt}</style>
 </defs>
 <g id="figure_1">
  <g id="patch_1">
   <path d="M 0 351.55 
L 856.418125 351.55 
L 856.418125 0 
L 0 0 
z
" style="fill: #ffffff"/>
  </g>
  <g id="axes_1">
   <g id="patch_2">
    <path d="M 57.496875 316.084375 
L 425.048125 316.084375 
L 425.048125 23.090625 
L 57.496875 23.090625 
z
" style="fill: #ffffff"/>
   </g>
   <g id="matplotlib.axis_1">
    <g id="xtick_1">
     <g id="line2d_1">
      <path d="M 74.20375 316.084375 
L 74.20375 23.090625 
" clip-path="url(#p46f126d6f8)" style="fill: none; stroke: #b0b0b0; stroke-width: 0.8; stroke-linecap: square"/>
     </g>
     <g id="line2d_2">
      <defs>
       <path id="m8441a6d30d" d="M 0 0 
L 0 3.5 
" style="stroke: #000000; stroke-width: 0.8"/>
      </defs>
      <g>
       <use xlink:href="#m8441a6d30d" x="74.20375" y="316.084375" style="stroke: #000000; stroke-width: 0.8"/>
      </g>
     </g>
     <g id="text_1">
      <!-- 0 -->
      <g transform="translate(71.70375 329.959375) scale(0.1 -0.1)">
       <defs>
        <path id="SimHei-30" d="M 225 2537 
Q 250 3200 412 3587 
Q 575 3975 875 4225 
Q 1175 4475 1612 4475 
Q 2050 4475 2375 4112 
Q 2700 3750 2800 3200 
Q 2900 2650 2862 1937 
Q 2825 1225 2612 775 
Q 2400 325 1975 150 
Q 1550 -25 1125 187 
Q 700 400 525 750 
Q 350 1100 275 1487 
Q 200 1875 225 2537 
z
M 750 2687 
Q 675 2000 800 1462 
Q 925 925 1212 700 
Q 1500 475 1800 612 
Q 2100 750 2237 1162 
Q 2375 1575 2375 2062 
Q 2375 2550 2337 2950 
Q 2300 3350 2112 3675 
Q 1925 4000 1612 4012 
Q 1300 4025 1062 3700 
Q 825 3375 750 2687 
z
" transform="scale(0.015625)"/>
       </defs>
       <use xlink:href="#SimHei-30"/>
      </g>
     </g>
    </g>
    <g id="xtick_2">
     <g id="line2d_3">
      <path d="M 141.165173 316.084375 
L 141.165173 23.090625 
" clip-path="url(#p46f126d6f8)" style="fill: none; stroke: #b0b0b0; stroke-width: 0.8; stroke-linecap: square"/>
     </g>
     <g id="line2d_4">
      <g>
       <use xlink:href="#m8441a6d30d" x="141.165173" y="316.084375" style="stroke: #000000; stroke-width: 0.8"/>
      </g>
     </g>
     <g id="text_2">
      <!-- 100 -->
      <g transform="translate(133.665173 329.959375) scale(0.1 -0.1)">
       <defs>
        <path id="SimHei-31" d="M 1400 3600 
Q 1075 3275 575 2975 
L 575 3450 
Q 1200 3875 1600 4450 
L 1900 4450 
L 1900 150 
L 1400 150 
L 1400 3600 
z
" transform="scale(0.015625)"/>
       </defs>
       <use xlink:href="#SimHei-31"/>
       <use xlink:href="#SimHei-30" transform="translate(50 0)"/>
       <use xlink:href="#SimHei-30" transform="translate(100 0)"/>
      </g>
     </g>
    </g>
    <g id="xtick_3">
     <g id="line2d_5">
      <path d="M 208.126596 316.084375 
L 208.126596 23.090625 
" clip-path="url(#p46f126d6f8)" style="fill: none; stroke: #b0b0b0; stroke-width: 0.8; stroke-linecap: square"/>
     </g>
     <g id="line2d_6">
      <g>
       <use xlink:href="#m8441a6d30d" x="208.126596" y="316.084375" style="stroke: #000000; stroke-width: 0.8"/>
      </g>
     </g>
     <g id="text_3">
      <!-- 200 -->
      <g transform="translate(200.626596 329.959375) scale(0.1 -0.1)">
       <defs>
        <path id="SimHei-32" d="M 300 250 
Q 325 625 650 925 
Q 975 1225 1475 1862 
Q 1975 2500 2125 2850 
Q 2275 3200 2237 3450 
Q 2200 3700 2000 3862 
Q 1800 4025 1537 4000 
Q 1275 3975 1037 3800 
Q 800 3625 675 3275 
L 200 3350 
Q 400 3925 712 4187 
Q 1025 4450 1450 4475 
Q 1700 4500 1900 4462 
Q 2100 4425 2312 4287 
Q 2525 4150 2662 3875 
Q 2800 3600 2762 3212 
Q 2725 2825 2375 2287 
Q 2025 1750 1025 600 
L 2825 600 
L 2825 150 
L 300 150 
L 300 250 
z
" transform="scale(0.015625)"/>
       </defs>
       <use xlink:href="#SimHei-32"/>
       <use xlink:href="#SimHei-30" transform="translate(50 0)"/>
       <use xlink:href="#SimHei-30" transform="translate(100 0)"/>
      </g>
     </g>
    </g>
    <g id="xtick_4">
     <g id="line2d_7">
      <path d="M 275.088019 316.084375 
L 275.088019 23.090625 
" clip-path="url(#p46f126d6f8)" style="fill: none; stroke: #b0b0b0; stroke-width: 0.8; stroke-linecap: square"/>
     </g>
     <g id="line2d_8">
      <g>
       <use xlink:href="#m8441a6d30d" x="275.088019" y="316.084375" style="stroke: #000000; stroke-width: 0.8"/>
      </g>
     </g>
     <g id="text_4">
      <!-- 300 -->
      <g transform="translate(267.588019 329.959375) scale(0.1 -0.1)">
       <defs>
        <path id="SimHei-33" d="M 250 1225 
L 700 1300 
Q 800 975 1025 762 
Q 1250 550 1587 562 
Q 1925 575 2125 837 
Q 2325 1100 2300 1437 
Q 2275 1775 2037 1962 
Q 1800 2150 1275 2225 
L 1275 2550 
Q 1800 2600 2037 2825 
Q 2275 3050 2250 3412 
Q 2225 3775 1925 3937 
Q 1625 4100 1287 3975 
Q 950 3850 750 3275 
L 300 3350 
Q 450 3800 712 4100 
Q 975 4400 1425 4450 
Q 1875 4500 2212 4337 
Q 2550 4175 2687 3837 
Q 2825 3500 2725 3100 
Q 2625 2700 2150 2400 
Q 2500 2250 2687 1950 
Q 2875 1650 2812 1162 
Q 2750 675 2375 375 
Q 2000 75 1525 87 
Q 1050 100 700 387 
Q 350 675 250 1225 
z
" transform="scale(0.015625)"/>
       </defs>
       <use xlink:href="#SimHei-33"/>
       <use xlink:href="#SimHei-30" transform="translate(50 0)"/>
       <use xlink:href="#SimHei-30" transform="translate(100 0)"/>
      </g>
     </g>
    </g>
    <g id="xtick_5">
     <g id="line2d_9">
      <path d="M 342.049441 316.084375 
L 342.049441 23.090625 
" clip-path="url(#p46f126d6f8)" style="fill: none; stroke: #b0b0b0; stroke-width: 0.8; stroke-linecap: square"/>
     </g>
     <g id="line2d_10">
      <g>
       <use xlink:href="#m8441a6d30d" x="342.049441" y="316.084375" style="stroke: #000000; stroke-width: 0.8"/>
      </g>
     </g>
     <g id="text_5">
      <!-- 400 -->
      <g transform="translate(334.549441 329.959375) scale(0.1 -0.1)">
       <defs>
        <path id="SimHei-34" d="M 2000 1100 
L 75 1100 
L 75 1525 
L 2100 4450 
L 2475 4450 
L 2475 1525 
L 3075 1525 
L 3075 1100 
L 2475 1100 
L 2475 150 
L 2000 150 
L 2000 1100 
z
M 2000 1525 
L 2000 3500 
L 600 1525 
L 2000 1525 
z
" transform="scale(0.015625)"/>
       </defs>
       <use xlink:href="#SimHei-34"/>
       <use xlink:href="#SimHei-30" transform="translate(50 0)"/>
       <use xlink:href="#SimHei-30" transform="translate(100 0)"/>
      </g>
     </g>
    </g>
    <g id="xtick_6">
     <g id="line2d_11">
      <path d="M 409.010864 316.084375 
L 409.010864 23.090625 
" clip-path="url(#p46f126d6f8)" style="fill: none; stroke: #b0b0b0; stroke-width: 0.8; stroke-linecap: square"/>
     </g>
     <g id="line2d_12">
      <g>
       <use xlink:href="#m8441a6d30d" x="409.010864" y="316.084375" style="stroke: #000000; stroke-width: 0.8"/>
      </g>
     </g>
     <g id="text_6">
      <!-- 500 -->
      <g transform="translate(401.510864 329.959375) scale(0.1 -0.1)">
       <defs>
        <path id="SimHei-35" d="M 550 1325 
Q 725 650 1150 575 
Q 1575 500 1837 662 
Q 2100 825 2212 1087 
Q 2325 1350 2312 1675 
Q 2300 2000 2137 2225 
Q 1975 2450 1725 2525 
Q 1475 2600 1162 2525 
Q 850 2450 650 2175 
L 225 2225 
Q 275 2375 700 4375 
L 2675 4375 
L 2675 3925 
L 1075 3925 
Q 950 3250 825 2850 
Q 1200 3025 1525 3012 
Q 1850 3000 2150 2862 
Q 2450 2725 2587 2487 
Q 2725 2250 2787 2012 
Q 2850 1775 2837 1500 
Q 2825 1225 2725 937 
Q 2625 650 2425 462 
Q 2225 275 1937 162 
Q 1650 50 1275 75 
Q 900 100 562 350 
Q 225 600 100 1200 
L 550 1325 
z
" transform="scale(0.015625)"/>
       </defs>
       <use xlink:href="#SimHei-35"/>
       <use xlink:href="#SimHei-30" transform="translate(50 0)"/>
       <use xlink:href="#SimHei-30" transform="translate(100 0)"/>
      </g>
     </g>
    </g>
    <g id="text_7">
     <!-- 进化代数 -->
     <g transform="translate(221.2725 343.1) scale(0.1 -0.1)">
      <defs>
       <path id="SimHei-8fdb" d="M 4400 4100 
Q 4400 4600 4375 5200 
L 4900 5200 
Q 4875 4900 4875 4100 
Q 5400 4100 5900 4125 
L 5900 3650 
Q 5400 3675 4875 3675 
L 4875 2575 
Q 5475 2575 6025 2600 
L 6025 2125 
Q 5475 2150 4875 2150 
L 4875 1125 
Q 4875 700 4900 250 
L 4375 250 
Q 4375 700 4400 1125 
L 4400 2150 
L 3450 2150 
Q 3350 1475 3162 1050 
Q 2975 625 2600 200 
Q 2350 400 2125 525 
Q 2600 950 2750 1312 
Q 2900 1675 2975 2150 
Q 2400 2150 1975 2125 
L 1975 2600 
Q 2425 2575 3025 2575 
Q 3075 3150 3075 3675 
Q 2575 3675 2100 3625 
L 2100 4125 
Q 2575 4100 3100 4100 
Q 3100 4675 3075 5200 
Q 3325 5175 3600 5150 
Q 3575 4825 3550 4100 
L 4400 4100 
z
M 1600 3125 
Q 1550 2575 1550 2200 
L 1550 625 
Q 2275 125 3100 37 
Q 3925 -50 4712 -25 
Q 5500 0 6125 100 
Q 6000 -200 5975 -525 
Q 4775 -525 4012 -500 
Q 3250 -475 2612 -312 
Q 1975 -150 1650 37 
Q 1325 225 1087 37 
Q 850 -150 575 -450 
Q 425 -225 200 -50 
Q 800 400 1075 575 
L 1075 2700 
Q 800 2700 375 2650 
L 375 3150 
Q 875 3125 1125 3125 
L 1600 3125 
z
M 4400 2575 
L 4400 3675 
L 3550 3675 
Q 3525 3150 3475 2575 
L 4400 2575 
z
M 1200 5050 
Q 1600 4250 1700 3925 
Q 1425 3875 1200 3725 
Q 1125 4175 700 4850 
L 1200 5050 
z
" transform="scale(0.015625)"/>
       <path id="SimHei-5316" d="M 3925 5025 
Q 3900 4900 3900 4400 
L 3900 2625 
Q 4375 3025 4775 3450 
Q 5175 3875 5400 4300 
Q 5600 4100 5900 3925 
Q 5700 3700 5225 3212 
Q 4750 2725 4487 2512 
Q 4225 2300 3900 2025 
L 3900 450 
Q 3900 50 4225 50 
L 5200 50 
Q 5400 75 5462 262 
Q 5525 450 5575 850 
Q 5800 650 6150 600 
Q 6000 -100 5825 -250 
Q 5650 -400 5350 -400 
L 3950 -400 
Q 3425 -400 3400 200 
L 3400 1675 
Q 3225 1525 2962 1350 
Q 2700 1175 2375 975 
Q 2225 1225 2025 1400 
Q 2350 1550 2737 1787 
Q 3125 2025 3400 2250 
L 3400 4500 
Q 3400 4800 3375 5025 
L 3925 5025 
z
M 2400 4850 
Q 2175 4550 2075 4337 
Q 1975 4125 1825 3775 
L 1825 675 
Q 1825 -75 1850 -550 
L 1325 -550 
Q 1350 -125 1350 650 
L 1350 3050 
Q 1125 2725 962 2525 
Q 800 2325 675 2175 
Q 500 2375 275 2525 
Q 625 2850 875 3212 
Q 1125 3575 1312 3912 
Q 1500 4250 1625 4575 
Q 1750 4900 1825 5100 
Q 1975 4975 2400 4850 
z
" transform="scale(0.015625)"/>
       <path id="SimHei-4ee3" d="M 3300 2950 
Q 3175 4575 3150 5100 
Q 3300 5075 3725 5025 
Q 3675 4725 3800 3050 
Q 5000 3275 5650 3475 
L 5775 3000 
Q 5500 2975 3850 2625 
Q 4150 1050 4737 450 
Q 5325 -150 5412 125 
Q 5500 400 5525 725 
Q 5800 550 6075 500 
Q 5900 -200 5737 -425 
Q 5575 -650 5137 -500 
Q 4700 -350 4187 300 
Q 3675 950 3350 2525 
Q 2400 2325 2175 2250 
L 2025 2725 
Q 2425 2775 3300 2950 
z
M 2250 4975 
Q 2100 4725 1700 3650 
L 1700 475 
Q 1700 -50 1725 -600 
L 1200 -600 
Q 1225 -50 1225 475 
L 1225 2750 
Q 850 2150 600 1850 
Q 450 2050 225 2225 
Q 625 2600 1050 3425 
Q 1475 4250 1675 5200 
Q 2050 5025 2250 4975 
z
M 4700 4875 
Q 5150 4325 5325 4050 
Q 5100 3900 4875 3725 
Q 4650 4150 4300 4575 
Q 4500 4700 4700 4875 
z
" transform="scale(0.015625)"/>
       <path id="SimHei-6570" d="M 4525 4925 
Q 4475 4800 4400 4587 
Q 4325 4375 4175 3825 
L 5325 3825 
Q 5575 3825 5925 3850 
L 5925 3400 
Q 5650 3425 5500 3425 
Q 5500 3025 5362 2162 
Q 5225 1300 4875 675 
Q 5125 375 5437 137 
Q 5750 -100 6025 -200 
Q 5725 -425 5625 -625 
Q 5325 -450 5075 -225 
Q 4825 0 4575 325 
Q 4300 25 3987 -187 
Q 3675 -400 3200 -650 
Q 3075 -425 2850 -300 
Q 3225 -150 3650 125 
Q 4075 400 4300 675 
Q 4125 1025 3962 1425 
Q 3800 1825 3675 2475 
Q 3600 2275 3425 1950 
Q 3250 2050 3000 2150 
Q 3400 2850 3650 3675 
Q 3900 4500 3975 5100 
Q 4275 4975 4525 4925 
z
M 2100 2250 
Q 2000 2150 1875 1925 
L 3250 1925 
Q 3100 1300 2725 675 
Q 3125 525 3350 400 
Q 3225 225 3125 25 
Q 2900 175 2450 325 
Q 1950 -225 725 -650 
Q 600 -375 400 -275 
Q 1575 0 2000 475 
Q 1300 650 850 775 
Q 1000 1000 1250 1525 
Q 1000 1525 425 1500 
L 425 1950 
Q 900 1925 1400 1925 
Q 1500 2150 1550 2425 
Q 1825 2325 2100 2250 
z
M 1775 3950 
Q 1775 4550 1750 5100 
L 2250 5100 
Q 2225 4575 2225 3950 
Q 3075 3950 3425 3975 
L 3425 3525 
Q 3075 3550 2225 3550 
Q 2225 2825 2250 2425 
L 1750 2425 
Q 1775 2775 1775 3300 
Q 1650 3100 1300 2787 
Q 950 2475 650 2300 
Q 525 2525 275 2625 
Q 500 2700 875 2975 
Q 1250 3250 1450 3550 
Q 950 3550 500 3525 
L 500 3975 
Q 925 3950 1775 3950 
z
M 3975 3175 
Q 4200 1700 4600 1125 
Q 4850 1700 4937 2287 
Q 5025 2875 5050 3425 
L 4075 3425 
L 3975 3175 
z
M 1450 1000 
Q 1750 925 2275 800 
Q 2475 1050 2650 1525 
L 1725 1525 
Q 1600 1275 1450 1000 
z
M 3325 4825 
Q 3200 4625 3125 4450 
Q 3050 4275 2925 4025 
Q 2725 4125 2525 4175 
Q 2725 4500 2900 5000 
Q 3150 4875 3325 4825 
z
M 2575 3375 
Q 2900 3050 3200 2725 
Q 3050 2600 2875 2425 
Q 2525 2850 2300 3100 
Q 2450 3225 2575 3375 
z
M 925 5000 
Q 1275 4650 1500 4300 
L 1125 4075 
Q 950 4425 600 4725 
Q 825 4875 925 5000 
z
" transform="scale(0.015625)"/>
      </defs>
      <use xlink:href="#SimHei-8fdb"/>
      <use xlink:href="#SimHei-5316" transform="translate(100 0)"/>
      <use xlink:href="#SimHei-4ee3" transform="translate(200 0)"/>
      <use xlink:href="#SimHei-6570" transform="translate(300 0)"/>
     </g>
    </g>
   </g>
   <g id="matplotlib.axis_2">
    <g id="ytick_1">
     <g id="line2d_13">
      <path d="M 57.496875 310.417828 
L 425.048125 310.417828 
" clip-path="url(#p46f126d6f8)" style="fill: none; stroke: #b0b0b0; stroke-width: 0.8; stroke-linecap: square"/>
     </g>
     <g id="line2d_14">
      <defs>
       <path id="mc8e0ac699e" d="M 0 0 
L -3.5 0 
" style="stroke: #000000; stroke-width: 0.8"/>
      </defs>
      <g>
       <use xlink:href="#mc8e0ac699e" x="57.496875" y="310.417828" style="stroke: #000000; stroke-width: 0.8"/>
      </g>
     </g>
     <g id="text_8">
      <!-- 0.0038 -->
      <g transform="translate(20.496875 313.855328) scale(0.1 -0.1)">
       <defs>
        <path id="SimHei-2e" d="M 1075 125 
L 500 125 
L 500 675 
L 1075 675 
L 1075 125 
z
" transform="scale(0.015625)"/>
        <path id="SimHei-38" d="M 175 1375 
Q 175 1675 325 1962 
Q 475 2250 825 2425 
Q 525 2600 425 2812 
Q 325 3025 312 3300 
Q 300 3575 387 3775 
Q 475 3975 650 4150 
Q 825 4325 1037 4387 
Q 1250 4450 1500 4450 
Q 1750 4450 1950 4400 
Q 2150 4350 2375 4187 
Q 2600 4025 2700 3725 
Q 2800 3425 2687 3025 
Q 2575 2625 2100 2400 
Q 2525 2275 2700 2012 
Q 2875 1750 2875 1375 
Q 2875 1000 2762 775 
Q 2650 550 2512 400 
Q 2375 250 2137 162 
Q 1900 75 1537 75 
Q 1175 75 912 162 
Q 650 250 475 425 
Q 300 600 237 837 
Q 175 1075 175 1375 
z
M 687 1400 
Q 675 1100 787 875 
Q 900 650 1200 587 
Q 1500 525 1825 600 
Q 2150 675 2275 950 
Q 2400 1225 2362 1500 
Q 2325 1775 2050 1962 
Q 1775 2150 1450 2125 
Q 1125 2100 912 1900 
Q 700 1700 687 1400 
z
M 775 3350 
Q 775 3100 950 2875 
Q 1125 2650 1500 2650 
Q 1875 2650 2062 2875 
Q 2250 3100 2237 3412 
Q 2225 3725 2012 3875 
Q 1800 4025 1437 4000 
Q 1075 3975 925 3787 
Q 775 3600 775 3350 
z
" transform="scale(0.015625)"/>
       </defs>
       <use xlink:href="#SimHei-30"/>
       <use xlink:href="#SimHei-2e" transform="translate(50 0)"/>
       <use xlink:href="#SimHei-30" transform="translate(100 0)"/>
       <use xlink:href="#SimHei-30" transform="translate(150 0)"/>
       <use xlink:href="#SimHei-33" transform="translate(200 0)"/>
       <use xlink:href="#SimHei-38" transform="translate(250 0)"/>
      </g>
     </g>
    </g>
    <g id="ytick_2">
     <g id="line2d_15">
      <path d="M 57.496875 258.95604 
L 425.048125 258.95604 
" clip-path="url(#p46f126d6f8)" style="fill: none; stroke: #b0b0b0; stroke-width: 0.8; stroke-linecap: square"/>
     </g>
     <g id="line2d_16">
      <g>
       <use xlink:href="#mc8e0ac699e" x="57.496875" y="258.95604" style="stroke: #000000; stroke-width: 0.8"/>
      </g>
     </g>
     <g id="text_9">
      <!-- 0.0040 -->
      <g transform="translate(20.496875 262.39354) scale(0.1 -0.1)">
       <use xlink:href="#SimHei-30"/>
       <use xlink:href="#SimHei-2e" transform="translate(50 0)"/>
       <use xlink:href="#SimHei-30" transform="translate(100 0)"/>
       <use xlink:href="#SimHei-30" transform="translate(150 0)"/>
       <use xlink:href="#SimHei-34" transform="translate(200 0)"/>
       <use xlink:href="#SimHei-30" transform="translate(250 0)"/>
      </g>
     </g>
    </g>
    <g id="ytick_3">
     <g id="line2d_17">
      <path d="M 57.496875 207.494252 
L 425.048125 207.494252 
" clip-path="url(#p46f126d6f8)" style="fill: none; stroke: #b0b0b0; stroke-width: 0.8; stroke-linecap: square"/>
     </g>
     <g id="line2d_18">
      <g>
       <use xlink:href="#mc8e0ac699e" x="57.496875" y="207.494252" style="stroke: #000000; stroke-width: 0.8"/>
      </g>
     </g>
     <g id="text_10">
      <!-- 0.0042 -->
      <g transform="translate(20.496875 210.931752) scale(0.1 -0.1)">
       <use xlink:href="#SimHei-30"/>
       <use xlink:href="#SimHei-2e" transform="translate(50 0)"/>
       <use xlink:href="#SimHei-30" transform="translate(100 0)"/>
       <use xlink:href="#SimHei-30" transform="translate(150 0)"/>
       <use xlink:href="#SimHei-34" transform="translate(200 0)"/>
       <use xlink:href="#SimHei-32" transform="translate(250 0)"/>
      </g>
     </g>
    </g>
    <g id="ytick_4">
     <g id="line2d_19">
      <path d="M 57.496875 156.032465 
L 425.048125 156.032465 
" clip-path="url(#p46f126d6f8)" style="fill: none; stroke: #b0b0b0; stroke-width: 0.8; stroke-linecap: square"/>
     </g>
     <g id="line2d_20">
      <g>
       <use xlink:href="#mc8e0ac699e" x="57.496875" y="156.032465" style="stroke: #000000; stroke-width: 0.8"/>
      </g>
     </g>
     <g id="text_11">
      <!-- 0.0044 -->
      <g transform="translate(20.496875 159.469965) scale(0.1 -0.1)">
       <use xlink:href="#SimHei-30"/>
       <use xlink:href="#SimHei-2e" transform="translate(50 0)"/>
       <use xlink:href="#SimHei-30" transform="translate(100 0)"/>
       <use xlink:href="#SimHei-30" transform="translate(150 0)"/>
       <use xlink:href="#SimHei-34" transform="translate(200 0)"/>
       <use xlink:href="#SimHei-34" transform="translate(250 0)"/>
      </g>
     </g>
    </g>
    <g id="ytick_5">
     <g id="line2d_21">
      <path d="M 57.496875 104.570677 
L 425.048125 104.570677 
" clip-path="url(#p46f126d6f8)" style="fill: none; stroke: #b0b0b0; stroke-width: 0.8; stroke-linecap: square"/>
     </g>
     <g id="line2d_22">
      <g>
       <use xlink:href="#mc8e0ac699e" x="57.496875" y="104.570677" style="stroke: #000000; stroke-width: 0.8"/>
      </g>
     </g>
     <g id="text_12">
      <!-- 0.0046 -->
      <g transform="translate(20.496875 108.008177) scale(0.1 -0.1)">
       <defs>
        <path id="SimHei-36" d="M 250 1612 
Q 275 1975 387 2225 
Q 500 2475 725 2850 
L 1750 4450 
L 2325 4450 
L 1275 2800 
Q 1950 2975 2350 2750 
Q 2750 2525 2887 2237 
Q 3025 1950 3037 1612 
Q 3050 1275 2937 950 
Q 2825 625 2537 362 
Q 2250 100 1737 75 
Q 1225 50 862 262 
Q 500 475 362 862 
Q 225 1250 250 1612 
z
M 1025 787 
Q 1250 550 1625 525 
Q 2000 500 2250 775 
Q 2500 1050 2500 1575 
Q 2500 2100 2187 2300 
Q 1875 2500 1487 2450 
Q 1100 2400 925 2075 
Q 750 1750 775 1387 
Q 800 1025 1025 787 
z
" transform="scale(0.015625)"/>
       </defs>
       <use xlink:href="#SimHei-30"/>
       <use xlink:href="#SimHei-2e" transform="translate(50 0)"/>
       <use xlink:href="#SimHei-30" transform="translate(100 0)"/>
       <use xlink:href="#SimHei-30" transform="translate(150 0)"/>
       <use xlink:href="#SimHei-34" transform="translate(200 0)"/>
       <use xlink:href="#SimHei-36" transform="translate(250 0)"/>
      </g>
     </g>
    </g>
    <g id="ytick_6">
     <g id="line2d_23">
      <path d="M 57.496875 53.108889 
L 425.048125 53.108889 
" clip-path="url(#p46f126d6f8)" style="fill: none; stroke: #b0b0b0; stroke-width: 0.8; stroke-linecap: square"/>
     </g>
     <g id="line2d_24">
      <g>
       <use xlink:href="#mc8e0ac699e" x="57.496875" y="53.108889" style="stroke: #000000; stroke-width: 0.8"/>
      </g>
     </g>
     <g id="text_13">
      <!-- 0.0048 -->
      <g transform="translate(20.496875 56.546389) scale(0.1 -0.1)">
       <use xlink:href="#SimHei-30"/>
       <use xlink:href="#SimHei-2e" transform="translate(50 0)"/>
       <use xlink:href="#SimHei-30" transform="translate(100 0)"/>
       <use xlink:href="#SimHei-30" transform="translate(150 0)"/>
       <use xlink:href="#SimHei-34" transform="translate(200 0)"/>
       <use xlink:href="#SimHei-38" transform="translate(250 0)"/>
      </g>
     </g>
    </g>
    <g id="text_14">
     <!-- 适应度 -->
     <g transform="translate(15.246875 184.5875) rotate(-90) scale(0.1 -0.1)">
      <defs>
       <path id="SimHei-9002" d="M 5500 4625 
Q 5175 4625 4125 4525 
L 4125 3600 
Q 5450 3600 5850 3625 
L 5850 3175 
Q 5450 3200 4125 3200 
L 4125 2475 
L 5425 2475 
Q 5400 1850 5400 1475 
Q 5400 1100 5425 450 
L 4950 450 
L 4950 750 
L 2900 750 
L 2900 425 
L 2425 425 
Q 2450 1050 2450 1450 
Q 2450 1850 2425 2475 
L 3675 2475 
L 3675 3200 
Q 2375 3200 1975 3175 
L 1975 3625 
Q 2300 3600 3675 3600 
L 3675 4475 
Q 3375 4450 2475 4350 
Q 2425 4575 2250 4775 
Q 3075 4775 3875 4875 
Q 4675 4975 5250 5125 
Q 5300 4950 5500 4625 
z
M 1625 2850 
Q 1600 2400 1600 1925 
L 1600 625 
Q 2250 75 3625 12 
Q 5000 -50 6025 150 
Q 5875 -125 5775 -450 
L 4100 -450 
Q 3475 -450 2937 -375 
Q 2400 -300 1912 -37 
Q 1425 225 1212 -12 
Q 1000 -250 775 -550 
Q 525 -350 325 -250 
Q 875 275 1150 475 
L 1150 2450 
Q 750 2450 400 2425 
L 400 2875 
Q 775 2850 1100 2850 
L 1625 2850 
z
M 4950 1150 
L 4950 2075 
L 2900 2075 
L 2900 1150 
L 4950 1150 
z
M 1025 4850 
Q 1450 4400 1775 3925 
Q 1475 3750 1375 3625 
Q 1100 4075 650 4550 
Q 875 4675 1025 4850 
z
" transform="scale(0.015625)"/>
       <path id="SimHei-5e94" d="M 3525 5275 
Q 3700 4825 3850 4400 
L 4750 4400 
Q 5275 4400 5850 4425 
L 5850 3975 
Q 5275 4000 4750 4000 
L 1475 4000 
Q 1475 2525 1425 1900 
Q 1375 1275 1237 625 
Q 1100 -25 750 -625 
Q 575 -400 300 -250 
Q 625 175 800 937 
Q 975 1700 1000 2575 
Q 1025 3450 1000 4400 
L 3250 4400 
Q 3175 4750 3000 5100 
Q 3250 5150 3525 5275 
z
M 5625 3125 
Q 5375 2575 5187 2050 
Q 5000 1525 4450 225 
L 5150 225 
Q 5500 225 5925 250 
L 5925 -275 
Q 5500 -250 5150 -250 
L 2475 -250 
Q 2050 -250 1450 -275 
L 1450 250 
Q 2025 225 2475 225 
L 3950 225 
Q 4325 1000 4612 1850 
Q 4900 2700 5025 3350 
Q 5350 3175 5625 3125 
z
M 2100 2850 
Q 2750 1825 3075 1050 
Q 2900 950 2650 800 
Q 2150 1925 1700 2575 
Q 1925 2750 2100 2850 
z
M 3300 3425 
Q 3800 2550 4175 1700 
Q 3950 1575 3700 1450 
Q 3400 2300 2900 3200 
Q 3100 3275 3300 3425 
z
" transform="scale(0.015625)"/>
       <path id="SimHei-5ea6" d="M 1750 1675 
Q 2450 1650 2875 1650 
L 5200 1650 
Q 4975 1250 4650 850 
Q 4325 450 4025 200 
Q 4350 50 4950 -50 
Q 5550 -150 6100 -150 
Q 5950 -300 5825 -650 
Q 5100 -550 4550 -412 
Q 4000 -275 3625 -100 
Q 3100 -325 2587 -462 
Q 2075 -600 1525 -675 
Q 1450 -475 1225 -250 
Q 1675 -250 2250 -125 
Q 2825 0 3250 200 
Q 2825 550 2400 1275 
L 1750 1250 
L 1750 1675 
z
M 2975 5075 
Q 3250 5150 3475 5250 
Q 3625 4975 3775 4525 
L 4700 4525 
Q 4975 4525 5700 4550 
L 5700 4100 
Q 5000 4125 4650 4125 
L 1375 4125 
Q 1375 3000 1350 2312 
Q 1325 1625 1212 950 
Q 1100 275 725 -525 
Q 500 -375 250 -300 
Q 650 400 762 1075 
Q 875 1750 887 2800 
Q 900 3850 875 4525 
L 3200 4525 
Q 3100 4850 2975 5075 
z
M 2475 3300 
Q 2475 3700 2450 3925 
L 2975 3925 
Q 2950 3725 2950 3300 
L 4300 3300 
Q 4300 3700 4275 3950 
L 4800 3950 
Q 4775 3650 4775 3300 
Q 5325 3300 5725 3325 
L 5725 2900 
Q 5350 2925 4775 2925 
Q 4775 2250 4800 1950 
L 2450 1950 
Q 2475 2350 2475 2925 
Q 2175 2925 1600 2900 
L 1600 3325 
Q 2175 3300 2475 3300 
z
M 4300 2350 
L 4300 2925 
L 2950 2925 
L 2950 2350 
L 4300 2350 
z
M 2875 1275 
Q 3200 775 3650 425 
Q 4025 700 4425 1275 
L 2900 1275 
L 2875 1275 
z
" transform="scale(0.015625)"/>
      </defs>
      <use xlink:href="#SimHei-9002"/>
      <use xlink:href="#SimHei-5e94" transform="translate(100 0)"/>
      <use xlink:href="#SimHei-5ea6" transform="translate(200 0)"/>
     </g>
    </g>
   </g>
   <g id="line2d_25">
    <path d="M 74.20375 281.151185 
L 74.873364 302.766477 
L 75.542978 185.877964 
L 76.212593 157.664672 
L 76.882207 193.711624 
L 77.551821 218.44514 
L 78.221435 184.074433 
L 78.89105 200.410342 
L 79.560664 157.5485 
L 80.230278 185.247454 
L 80.899892 177.611118 
L 81.569507 152.955199 
L 82.239121 135.830315 
L 82.908735 149.63228 
L 83.578349 136.586493 
L 85.587192 136.586493 
L 86.256806 154.948461 
L 86.92642 153.392389 
L 87.596035 197.173155 
L 88.265649 154.03987 
L 88.935263 157.928392 
L 89.604877 121.246324 
L 90.274491 156.206295 
L 90.944106 167.056547 
L 91.61372 155.257401 
L 92.283334 150.387121 
L 92.952948 162.550513 
L 93.622563 166.039309 
L 94.292177 115.557332 
L 94.961791 157.101145 
L 95.631405 120.924625 
L 96.30102 120.924625 
L 96.970634 137.59386 
L 97.640248 127.987893 
L 98.309862 81.175164 
L 98.979476 81.175164 
L 99.649091 112.000092 
L 100.318705 112.000092 
L 100.988319 132.209413 
L 101.657933 54.991559 
L 102.327548 60.151055 
L 102.997162 82.639966 
L 103.666776 122.973429 
L 104.33639 113.883912 
L 105.006005 93.944167 
L 105.675619 46.909788 
L 106.345233 46.909788 
L 107.014847 60.432921 
L 107.684461 60.432921 
L 108.354076 80.49262 
L 109.02369 65.8949 
L 109.693304 68.79582 
L 110.362918 64.825498 
L 111.032533 50.810974 
L 111.702147 80.45952 
L 112.371761 80.45952 
L 113.041375 75.487405 
L 113.710989 72.35521 
L 116.389446 72.35521 
L 117.059061 52.078827 
L 117.728675 60.454774 
L 118.398289 57.925127 
L 119.067903 74.746454 
L 119.737518 48.646167 
L 120.407132 48.646167 
L 121.076746 87.294905 
L 121.74636 87.294905 
L 122.415974 68.585067 
L 123.085589 84.234917 
L 123.755203 77.883005 
L 124.424817 89.645833 
L 125.094431 88.686191 
L 125.764046 88.084037 
L 126.43366 88.084037 
L 127.103274 98.366848 
L 127.772888 86.233632 
L 128.442503 88.128179 
L 129.112117 82.867841 
L 129.781731 68.757361 
L 130.451345 68.757361 
L 131.120959 52.843159 
L 131.790574 56.200098 
L 132.460188 73.428211 
L 133.129802 56.984879 
L 133.799416 98.315808 
L 134.469031 82.250954 
L 135.138645 61.700507 
L 136.477873 61.794248 
L 137.147487 94.747743 
L 137.817102 59.814708 
L 139.15633 59.814708 
L 139.825944 98.077974 
L 140.495559 62.236897 
L 141.165173 76.730151 
L 141.834787 76.730151 
L 142.504401 84.097404 
L 143.174016 78.988841 
L 143.84363 72.564892 
L 144.513244 60.47115 
L 145.182858 57.448435 
L 147.861315 57.448435 
L 148.530929 51.120298 
L 149.200544 54.857765 
L 149.870158 54.149947 
L 150.539772 42.637972 
L 151.209386 55.493809 
L 151.879001 45.978749 
L 152.548615 65.80677 
L 153.218229 58.760808 
L 153.887843 56.374038 
L 154.557457 58.586877 
L 155.227072 45.81502 
L 156.5663 45.81502 
L 157.235914 46.233192 
L 157.905529 41.683147 
L 158.575143 41.683147 
L 159.244757 56.20793 
L 159.914371 53.588071 
L 160.583985 55.244861 
L 161.2536 56.151762 
L 161.923214 47.862339 
L 162.592828 48.284357 
L 163.262442 42.117502 
L 163.932057 42.117502 
L 164.601671 42.971363 
L 165.271285 42.770188 
L 165.940899 42.971363 
L 166.610514 46.057619 
L 167.280128 57.173032 
L 167.949742 55.383607 
L 168.619356 51.090102 
L 169.28897 40.507695 
L 169.958585 40.507695 
L 170.628199 63.538745 
L 171.297813 43.620009 
L 173.306656 43.620009 
L 173.97627 49.499784 
L 174.645884 44.882951 
L 175.315498 46.19853 
L 175.985113 42.793638 
L 176.654727 42.793638 
L 177.324341 42.228037 
L 177.993955 45.818982 
L 178.66357 48.089597 
L 179.333184 49.620348 
L 180.002798 50.078921 
L 180.672412 56.815675 
L 181.342027 40.032275 
L 182.011641 45.095938 
L 182.681255 44.921435 
L 183.350869 74.337783 
L 184.020483 64.619944 
L 184.690098 62.742915 
L 185.359712 43.945728 
L 186.029326 61.568215 
L 186.69894 46.045569 
L 187.368555 54.806466 
L 188.038169 55.544393 
L 188.707783 50.209428 
L 189.377397 55.338675 
L 190.047012 67.611666 
L 190.716626 51.046959 
L 191.38624 46.233233 
L 192.055854 62.801459 
L 192.725468 52.581608 
L 193.395083 63.966786 
L 194.064697 65.065702 
L 194.734311 56.585064 
L 196.07354 56.585064 
L 196.743154 36.408523 
L 197.412768 50.577922 
L 198.082382 50.577922 
L 198.751996 81.933871 
L 199.421611 48.572753 
L 200.091225 63.551592 
L 200.760839 53.528584 
L 201.430453 52.430725 
L 202.100068 53.821226 
L 202.769682 51.66741 
L 203.439296 47.00983 
L 204.10891 53.947335 
L 204.778525 43.754384 
L 205.448139 42.832591 
L 206.117753 49.867846 
L 206.787367 44.791649 
L 207.456981 44.038492 
L 208.126596 48.340554 
L 208.79621 43.87022 
L 209.465824 48.340554 
L 210.135438 51.624325 
L 210.805053 63.181665 
L 211.474667 47.538611 
L 212.144281 48.567352 
L 212.813895 42.340858 
L 213.48351 51.491161 
L 214.153124 49.343139 
L 214.822738 61.637756 
L 215.492352 61.637756 
L 216.161966 44.157088 
L 216.831581 62.75896 
L 217.501195 51.5379 
L 218.170809 57.203052 
L 218.840423 58.966519 
L 219.510038 47.164864 
L 220.179652 52.303988 
L 220.849266 47.804892 
L 221.51888 57.449442 
L 222.188494 57.935993 
L 222.858109 50.056067 
L 223.527723 59.512752 
L 224.197337 49.256343 
L 224.866951 43.621897 
L 225.536566 54.149473 
L 226.20618 55.804341 
L 227.545408 43.284001 
L 228.215023 49.361718 
L 229.554251 38.196604 
L 230.223865 51.111164 
L 230.893479 48.943132 
L 231.563094 43.069451 
L 232.232708 45.512838 
L 232.902322 40.905797 
L 233.571936 39.80119 
L 234.241551 49.126121 
L 234.911165 53.270066 
L 235.580779 45.890658 
L 236.250393 50.305475 
L 236.920008 50.305475 
L 237.589622 53.232978 
L 238.259236 40.185623 
L 238.92885 51.871219 
L 239.598464 48.814739 
L 240.268079 50.542238 
L 240.937693 51.337209 
L 241.607307 52.68008 
L 242.276921 51.473091 
L 242.946536 46.052439 
L 243.61615 62.820684 
L 244.285764 54.453564 
L 244.955378 39.261116 
L 245.624992 58.363224 
L 246.294607 40.154694 
L 246.964221 40.154694 
L 247.633835 39.888853 
L 248.303449 40.154694 
L 248.973064 55.47284 
L 249.642678 53.533547 
L 250.312292 60.822686 
L 250.981906 46.626327 
L 251.651521 46.626327 
L 252.321135 43.213404 
L 252.990749 45.616549 
L 253.660363 46.113976 
L 254.329977 40.431311 
L 254.999592 46.114917 
L 255.669206 46.114917 
L 256.33882 48.508174 
L 257.008434 47.016855 
L 258.347663 47.016855 
L 259.017277 43.372456 
L 259.686891 44.756458 
L 260.356506 44.756458 
L 261.02612 47.870632 
L 261.695734 47.870632 
L 262.365348 53.025993 
L 263.034962 53.025993 
L 263.704577 53.370662 
L 264.374191 51.389134 
L 265.043805 52.095573 
L 265.713419 53.409013 
L 266.383034 52.166378 
L 267.052648 48.13968 
L 267.722262 53.409013 
L 268.391876 54.578649 
L 269.06149 60.170077 
L 269.731105 54.554003 
L 270.400719 56.716082 
L 271.070333 48.399877 
L 271.739947 51.246836 
L 272.409562 53.205058 
L 273.079176 64.212637 
L 273.74879 64.212637 
L 274.418404 57.680602 
L 275.088019 69.637274 
L 275.757633 54.597618 
L 277.096861 48.751106 
L 277.766475 69.685807 
L 279.105704 48.000304 
L 279.775318 56.959362 
L 280.444932 46.851891 
L 281.114547 48.00257 
L 281.784161 55.42174 
L 282.453775 60.393295 
L 283.123389 41.587956 
L 283.793004 59.305468 
L 284.462618 44.385877 
L 285.132232 44.385877 
L 285.801846 49.469988 
L 286.47146 57.216845 
L 287.141075 50.354604 
L 287.810689 55.909199 
L 288.480303 52.888365 
L 289.149917 47.865342 
L 289.819532 52.327692 
L 290.489146 46.22046 
L 291.828374 46.22046 
L 292.497988 41.128559 
L 293.837217 65.68716 
L 294.506831 41.429705 
L 295.176445 41.429705 
L 295.84606 55.132428 
L 296.515674 46.380087 
L 297.185288 67.693883 
L 297.854902 66.448229 
L 298.524517 39.275729 
L 299.194131 39.226489 
L 299.863745 58.878547 
L 300.533359 58.878547 
L 301.202973 63.679591 
L 301.872588 44.751837 
L 302.542202 52.554855 
L 303.211816 52.465064 
L 303.88143 50.01062 
L 304.551045 63.637373 
L 305.220659 64.485919 
L 305.890273 68.717225 
L 306.559887 70.986284 
L 307.229502 65.737443 
L 307.899116 55.182763 
L 308.56873 46.816699 
L 309.238344 46.816699 
L 309.907958 50.772706 
L 310.577573 56.443992 
L 311.247187 57.399795 
L 311.916801 64.340806 
L 312.586415 59.739268 
L 313.925644 52.362517 
L 314.595258 45.851781 
L 315.264872 46.29647 
L 315.934486 75.928493 
L 316.604101 51.437086 
L 317.273715 51.418767 
L 317.943329 51.743565 
L 318.612943 56.369529 
L 319.282558 50.251002 
L 319.952172 52.829973 
L 320.621786 62.879388 
L 321.2914 55.279033 
L 321.961015 56.052829 
L 323.300243 74.425859 
L 323.969857 64.528363 
L 324.639471 46.183709 
L 325.309086 54.592128 
L 325.9787 58.71283 
L 326.648314 49.915329 
L 327.317928 50.930758 
L 327.987543 58.277833 
L 328.657157 55.742811 
L 329.326771 65.314601 
L 329.996385 62.32989 
L 330.665999 65.749582 
L 331.335614 53.356437 
L 332.005228 53.018056 
L 332.674842 43.832644 
L 333.344456 42.55886 
L 334.683685 45.165102 
L 335.353299 45.165102 
L 336.022913 44.915468 
L 336.692528 47.19821 
L 338.031756 43.95756 
L 338.70137 49.850191 
L 340.040599 49.933464 
L 340.710213 52.322338 
L 341.379827 52.322338 
L 342.049441 68.684649 
L 342.719056 54.119385 
L 343.38867 52.970622 
L 344.058284 47.888365 
L 344.727898 54.038063 
L 345.397513 54.038063 
L 346.067127 49.093971 
L 348.075969 49.093971 
L 348.745584 58.321242 
L 349.415198 43.457381 
L 350.084812 49.805893 
L 350.754426 50.089037 
L 351.424041 50.089037 
L 352.093655 43.409345 
L 352.763269 43.409345 
L 353.432883 50.478811 
L 354.102497 50.478811 
L 354.772112 66.235992 
L 355.441726 45.734482 
L 356.11134 41.386634 
L 356.780954 44.40382 
L 357.450569 48.709355 
L 358.120183 46.461998 
L 358.789797 46.461998 
L 360.129026 73.053456 
L 360.79864 67.239087 
L 361.468254 43.728104 
L 362.137868 63.8798 
L 362.807482 46.590732 
L 363.477097 54.743924 
L 364.146711 79.134971 
L 364.816325 59.882395 
L 365.485939 48.147717 
L 366.155554 68.160218 
L 366.825168 54.519497 
L 367.494782 55.353517 
L 368.164396 40.025415 
L 368.834011 59.502202 
L 369.503625 64.171584 
L 370.173239 52.083322 
L 370.842853 64.171584 
L 371.512467 61.548732 
L 372.182082 49.470732 
L 372.851696 56.763492 
L 373.52131 48.955668 
L 374.190924 48.560727 
L 375.530153 62.442868 
L 376.199767 48.423474 
L 376.869381 47.062761 
L 377.538995 61.199123 
L 378.20861 58.194193 
L 378.878224 47.23004 
L 380.217452 47.23004 
L 380.887067 43.906664 
L 381.556681 56.855022 
L 382.226295 55.29661 
L 382.895909 52.040309 
L 383.565524 52.040309 
L 384.235138 39.572079 
L 384.904752 39.572079 
L 385.574366 43.27523 
L 386.24398 43.913521 
L 386.913595 57.437826 
L 387.583209 50.462958 
L 388.252823 50.462958 
L 389.592052 61.121508 
L 390.261666 47.251341 
L 390.93128 56.324257 
L 391.600894 57.317597 
L 392.270509 49.406818 
L 392.940123 58.329736 
L 393.609737 59.620159 
L 394.279351 60.316152 
L 394.948965 51.4975 
L 395.61858 47.922737 
L 396.288194 47.922737 
L 396.957808 50.051838 
L 397.627422 50.70266 
L 398.297037 50.031497 
L 398.966651 51.480829 
L 399.636265 42.814462 
L 400.305879 56.316237 
L 400.975493 63.327164 
L 401.645108 51.483998 
L 402.314722 45.798119 
L 402.984336 47.124472 
L 403.65395 57.515424 
L 404.323565 56.252393 
L 404.993179 52.828804 
L 405.662793 47.071808 
L 406.332407 48.098503 
L 407.002022 50.183074 
L 407.671636 44.718239 
L 408.34125 60.979901 
L 408.34125 60.979901 
" clip-path="url(#p46f126d6f8)" style="fill: none; stroke: #1f77b4; stroke-width: 1.5; stroke-linecap: square"/>
   </g>
   <g id="patch_3">
    <path d="M 57.496875 316.084375 
L 57.496875 23.090625 
" style="fill: none; stroke: #000000; stroke-width: 0.8; stroke-linejoin: miter; stroke-linecap: square"/>
   </g>
   <g id="patch_4">
    <path d="M 425.048125 316.084375 
L 425.048125 23.090625 
" style="fill: none; stroke: #000000; stroke-width: 0.8; stroke-linejoin: miter; stroke-linecap: square"/>
   </g>
   <g id="patch_5">
    <path d="M 57.496875 316.084375 
L 425.048125 316.084375 
" style="fill: none; stroke: #000000; stroke-width: 0.8; stroke-linejoin: miter; stroke-linecap: square"/>
   </g>
   <g id="patch_6">
    <path d="M 57.496875 23.090625 
L 425.048125 23.090625 
" style="fill: none; stroke: #000000; stroke-width: 0.8; stroke-linejoin: miter; stroke-linecap: square"/>
   </g>
   <g id="text_15">
    <!-- 日间照明模式优化历史 -->
    <g transform="translate(181.2725 17.090625) scale(0.12 -0.12)">
     <defs>
      <path id="SimHei-65e5" d="M 5375 5000 
Q 5350 3775 5350 2275 
Q 5350 775 5375 -450 
L 4800 -450 
L 4800 175 
L 1800 175 
L 1800 -575 
L 1250 -575 
Q 1275 575 1275 2125 
Q 1275 3675 1250 5000 
L 5375 5000 
z
M 4800 600 
L 4800 2375 
L 1800 2375 
L 1800 600 
L 4800 600 
z
M 4800 2800 
L 4800 4550 
L 1800 4550 
L 1800 2800 
L 4800 2800 
z
" transform="scale(0.015625)"/>
      <path id="SimHei-95f4" d="M 4450 3550 
Q 4425 3075 4425 2725 
L 4425 1400 
Q 4425 1075 4450 625 
L 1925 625 
Q 1950 1075 1950 1425 
L 1950 2725 
Q 1950 3075 1925 3550 
L 4450 3550 
z
M 5800 4875 
Q 5775 4400 5775 3925 
L 5775 250 
Q 5800 -325 5462 -450 
Q 5125 -575 4725 -625 
Q 4700 -325 4525 -25 
Q 5000 -50 5137 25 
Q 5275 100 5275 350 
L 5275 4450 
L 3775 4450 
Q 3175 4450 2650 4425 
L 2650 4900 
Q 3175 4875 3775 4875 
L 5800 4875 
z
M 550 -525 
Q 600 -25 600 525 
L 600 3150 
Q 600 3675 550 4025 
L 1125 4025 
Q 1100 3650 1100 3300 
L 1100 500 
Q 1100 0 1125 -525 
L 550 -525 
z
M 3950 1025 
L 3950 1950 
L 2425 1950 
L 2425 1025 
L 3950 1025 
z
M 3950 2350 
L 3950 3150 
L 2425 3150 
L 2425 2350 
L 3950 2350 
z
M 1525 5300 
Q 1750 5000 2225 4350 
Q 1950 4225 1700 4075 
Q 1450 4575 1075 5025 
Q 1350 5225 1525 5300 
z
" transform="scale(0.015625)"/>
      <path id="SimHei-7167" d="M 2525 4900 
Q 2500 4000 2500 2950 
Q 2500 1925 2525 1175 
L 675 1175 
Q 700 1900 700 2950 
Q 700 4000 675 4900 
L 2525 4900 
z
M 5675 2650 
Q 5650 2350 5650 1900 
Q 5650 1475 5675 1075 
L 3175 1075 
Q 3200 1500 3200 1900 
Q 3200 2300 3175 2650 
L 5675 2650 
z
M 4625 2775 
Q 4600 3025 4400 3275 
Q 4775 3275 4925 3300 
Q 5075 3325 5100 3525 
L 5175 4600 
L 4275 4600 
Q 4175 3875 3862 3425 
Q 3550 2975 3100 2650 
Q 2850 2900 2675 2975 
Q 3125 3225 3425 3625 
Q 3725 4025 3775 4600 
Q 3325 4600 2875 4575 
L 2875 5000 
Q 3275 4975 3675 4975 
L 5725 4975 
Q 5675 4675 5637 4037 
Q 5600 3400 5525 3162 
Q 5450 2925 5237 2875 
Q 5025 2825 4625 2775 
z
M 5175 1475 
L 5175 2300 
L 3675 2300 
L 3675 1475 
L 5175 1475 
z
M 2025 3200 
L 2025 4500 
L 1175 4500 
L 1175 3200 
L 2025 3200 
z
M 2025 1575 
L 2025 2825 
L 1175 2825 
L 1175 1575 
L 2025 1575 
z
M 1375 625 
Q 1025 -250 800 -650 
Q 575 -500 325 -450 
Q 575 -100 875 825 
Q 1100 700 1375 625 
z
M 5575 -625 
Q 5400 -200 4950 650 
Q 5100 725 5375 850 
Q 5825 0 6025 -400 
Q 5775 -500 5575 -625 
z
M 2550 725 
Q 2800 -175 2850 -475 
Q 2600 -475 2375 -575 
Q 2325 -300 2050 600 
Q 2275 650 2550 725 
z
M 4425 -425 
Q 4175 -475 3925 -550 
Q 3825 -125 3575 600 
Q 3725 650 4050 750 
Q 4325 -75 4425 -425 
z
" transform="scale(0.015625)"/>
      <path id="SimHei-660e" d="M 5775 4975 
Q 5750 4500 5750 3875 
L 5750 275 
Q 5775 -200 5587 -337 
Q 5400 -475 4750 -575 
Q 4700 -300 4500 25 
Q 4925 0 5100 37 
Q 5275 75 5250 300 
L 5250 1625 
L 3775 1625 
Q 3625 325 2925 -700 
Q 2675 -475 2400 -375 
Q 3375 600 3300 2800 
L 3300 3850 
Q 3300 4450 3275 4975 
L 5775 4975 
z
M 2575 4775 
Q 2550 4250 2550 3650 
L 2550 1850 
Q 2550 1250 2575 775 
L 2100 775 
L 2100 1150 
L 1050 1150 
L 1050 450 
L 550 450 
Q 575 875 575 1550 
L 575 3675 
Q 575 4275 550 4775 
L 2575 4775 
z
M 5250 3500 
L 5250 4550 
L 3800 4550 
L 3800 3500 
L 5250 3500 
z
M 5250 2050 
L 5250 3075 
L 3800 3075 
L 3800 2050 
L 5250 2050 
z
M 2100 1600 
L 2100 2825 
L 1050 2825 
L 1050 1600 
L 2100 1600 
z
M 2100 3225 
L 2100 4350 
L 1050 4350 
L 1050 3225 
L 2100 3225 
z
" transform="scale(0.015625)"/>
      <path id="SimHei-6a21" d="M 5700 3675 
Q 5675 3400 5675 2725 
Q 5675 2050 5700 1725 
L 4375 1725 
Q 4350 1450 4325 1200 
L 5225 1200 
Q 5750 1200 6025 1225 
L 6025 825 
Q 5725 850 5225 850 
L 4700 850 
Q 5075 375 5437 137 
Q 5800 -100 6200 -200 
Q 5975 -375 5850 -625 
Q 5275 -400 4862 25 
Q 4450 450 4300 775 
L 4225 775 
Q 4000 275 3537 -62 
Q 3075 -400 2475 -625 
Q 2350 -375 2125 -200 
Q 2775 -75 3200 200 
Q 3625 475 3775 850 
L 3325 850 
Q 2800 850 2400 825 
L 2400 1225 
Q 2800 1200 3350 1200 
L 3875 1200 
Q 3925 1475 3925 1725 
L 2750 1725 
Q 2775 2075 2775 2700 
Q 2775 3350 2750 3675 
L 5700 3675 
z
M 2175 1650 
Q 2025 1975 1675 2525 
L 1675 300 
Q 1675 -300 1700 -550 
L 1175 -550 
Q 1200 -275 1200 250 
L 1200 2225 
Q 1125 2000 962 1712 
Q 800 1425 600 1050 
Q 450 1275 200 1425 
Q 600 1825 850 2425 
Q 1100 3025 1175 3425 
L 950 3425 
Q 700 3425 400 3400 
L 400 3825 
Q 675 3800 825 3800 
L 1200 3800 
L 1200 4350 
Q 1200 4775 1175 5150 
L 1700 5150 
Q 1675 4825 1675 4425 
L 1675 3800 
Q 2075 3800 2375 3825 
L 2375 3400 
Q 2050 3425 1675 3425 
L 1675 2575 
Q 1850 2675 2000 2775 
Q 2150 2525 2287 2325 
Q 2425 2125 2550 1925 
Q 2325 1775 2175 1650 
z
M 3375 4300 
L 3175 4300 
Q 2700 4300 2425 4275 
L 2425 4675 
Q 2700 4650 3150 4650 
L 3375 4650 
Q 3375 5000 3350 5225 
L 3825 5225 
Q 3800 5000 3800 4650 
L 4550 4650 
Q 4550 4975 4525 5200 
L 5025 5200 
Q 5000 4925 5000 4650 
L 5375 4650 
Q 5650 4650 5950 4675 
L 5950 4275 
Q 5650 4300 5375 4300 
L 5000 4300 
L 5000 3850 
L 4550 3850 
L 4550 4300 
L 3800 4300 
L 3800 3875 
L 3375 3875 
L 3375 4300 
z
M 5275 2075 
L 5275 2525 
L 3200 2525 
L 3200 2075 
L 5275 2075 
z
M 5275 2875 
L 5275 3325 
L 3200 3325 
L 3200 2875 
L 5275 2875 
z
" transform="scale(0.015625)"/>
      <path id="SimHei-5f0f" d="M 3300 3900 
Q 3250 4775 3225 5225 
Q 3375 5200 3875 5175 
Q 3825 5000 3850 3900 
L 4850 3900 
Q 5325 3900 5825 3925 
L 5825 3425 
Q 5375 3450 4875 3450 
L 3875 3450 
Q 3950 2800 4087 2237 
Q 4225 1675 4450 1175 
Q 4675 675 5037 287 
Q 5400 -100 5475 250 
Q 5550 600 5525 950 
Q 5750 775 6150 625 
Q 5975 -450 5637 -525 
Q 5300 -600 4962 -362 
Q 4625 -125 4325 325 
Q 4025 775 3837 1312 
Q 3650 1850 3525 2425 
Q 3400 3000 3350 3450 
L 1525 3450 
Q 800 3450 350 3425 
L 350 3925 
Q 825 3900 1500 3900 
L 3300 3900 
z
M 2250 2575 
Q 2725 2575 3150 2600 
L 3150 2125 
Q 2700 2150 2200 2150 
L 2200 575 
Q 2725 700 3400 875 
L 3400 425 
Q 2500 250 1975 87 
Q 1450 -75 700 -375 
L 450 225 
Q 750 250 1700 450 
L 1700 2150 
Q 975 2150 700 2125 
L 700 2600 
Q 975 2575 1475 2575 
L 2250 2575 
z
M 4700 5075 
Q 5175 4550 5375 4300 
Q 5250 4250 4900 4000 
Q 4725 4300 4275 4750 
Q 4400 4850 4700 5075 
z
" transform="scale(0.015625)"/>
      <path id="SimHei-4f18" d="M 4650 350 
Q 4625 100 4825 50 
Q 5025 0 5200 12 
Q 5375 25 5462 125 
Q 5550 225 5650 800 
Q 5825 625 6200 525 
Q 6050 -25 5912 -200 
Q 5775 -375 5475 -400 
L 4700 -400 
Q 4175 -400 4175 200 
L 4175 3050 
L 3850 3050 
Q 3725 600 2375 -550 
Q 2200 -325 1875 -225 
Q 3175 675 3350 3050 
L 2900 3050 
Q 2350 3050 1975 3025 
L 1975 3475 
Q 2350 3450 2900 3450 
L 3375 3450 
Q 3375 4700 3350 5150 
Q 3525 5100 3925 5075 
Q 3850 4700 3850 3450 
L 5200 3450 
Q 5475 3450 5925 3475 
L 5925 3025 
Q 5500 3050 5225 3050 
L 4650 3050 
L 4650 350 
z
M 200 2375 
Q 525 2700 1000 3612 
Q 1475 4525 1600 5200 
Q 1850 5050 2225 4925 
Q 2000 4700 1700 3825 
L 1700 600 
Q 1700 -150 1725 -525 
L 1200 -525 
Q 1225 -175 1225 575 
L 1225 2975 
Q 900 2425 550 1975 
Q 425 2200 200 2375 
z
M 4850 5025 
Q 5000 4800 5150 4587 
Q 5300 4375 5450 4200 
Q 5250 4075 5025 3875 
Q 4875 4175 4450 4725 
Q 4625 4850 4850 5025 
z
" transform="scale(0.015625)"/>
      <path id="SimHei-5386" d="M 3725 2500 
Q 3625 1775 3487 1337 
Q 3350 900 3150 562 
Q 2950 225 2687 -62 
Q 2425 -350 2075 -625 
Q 1825 -350 1500 -225 
Q 2075 75 2387 412 
Q 2700 750 2875 1125 
Q 3050 1500 3112 1787 
Q 3175 2075 3225 2500 
L 2725 2500 
Q 2125 2500 1900 2475 
L 1900 2950 
Q 2375 2925 2675 2925 
L 3250 2925 
Q 3275 3250 3275 3550 
L 3275 4275 
Q 3625 4175 3900 4150 
Q 3825 3775 3800 3512 
Q 3775 3250 3750 2925 
L 5650 2925 
Q 5600 2550 5550 1850 
Q 5500 1150 5475 687 
Q 5450 225 5375 -50 
Q 5300 -325 4987 -412 
Q 4675 -500 4300 -550 
Q 4225 -250 4050 100 
Q 4575 75 4725 125 
Q 4875 175 4912 562 
Q 4950 950 5000 1475 
Q 5050 2000 5075 2500 
L 3725 2500 
z
M 800 -675 
Q 550 -500 225 -400 
Q 525 0 662 412 
Q 800 825 900 1412 
Q 1000 2000 1000 2725 
L 1000 3950 
Q 1000 4450 950 4825 
L 4825 4825 
Q 5375 4825 5675 4850 
L 5675 4375 
Q 5425 4400 5000 4400 
L 1500 4400 
Q 1500 2800 1487 2287 
Q 1475 1775 1412 1275 
Q 1350 775 1262 450 
Q 1175 125 1062 -162 
Q 950 -450 800 -675 
z
" transform="scale(0.015625)"/>
      <path id="SimHei-53f2" d="M 3000 4225 
Q 3000 4975 2950 5250 
Q 3350 5200 3625 5175 
Q 3525 4950 3525 4225 
L 5500 4225 
Q 5475 3775 5475 3175 
Q 5475 2600 5500 2150 
L 3500 2150 
Q 3450 1750 3362 1362 
Q 3275 975 3125 700 
Q 3450 450 3875 325 
Q 4300 200 4750 150 
Q 5200 100 6175 125 
Q 5900 -125 5850 -425 
Q 5175 -425 4700 -350 
Q 4225 -275 3787 -150 
Q 3350 -25 2775 325 
Q 2100 -150 1562 -325 
Q 1025 -500 650 -575 
Q 525 -250 275 -75 
Q 750 -50 1350 125 
Q 1950 300 2325 575 
Q 1575 1250 1225 1800 
Q 1525 1825 1750 1950 
Q 2275 1300 2675 975 
Q 2825 1275 2887 1562 
Q 2950 1850 2975 2150 
L 900 2150 
Q 925 2600 925 3175 
Q 925 3775 900 4225 
L 3000 4225 
z
M 3000 2575 
L 3000 3800 
L 1450 3800 
L 1450 2575 
L 3000 2575 
z
M 4950 2575 
L 4950 3800 
L 3525 3800 
L 3525 2575 
L 4950 2575 
z
" transform="scale(0.015625)"/>
     </defs>
     <use xlink:href="#SimHei-65e5"/>
     <use xlink:href="#SimHei-95f4" transform="translate(100 0)"/>
     <use xlink:href="#SimHei-7167" transform="translate(200 0)"/>
     <use xlink:href="#SimHei-660e" transform="translate(300 0)"/>
     <use xlink:href="#SimHei-6a21" transform="translate(400 0)"/>
     <use xlink:href="#SimHei-5f0f" transform="translate(500 0)"/>
     <use xlink:href="#SimHei-4f18" transform="translate(600 0)"/>
     <use xlink:href="#SimHei-5316" transform="translate(700 0)"/>
     <use xlink:href="#SimHei-5386" transform="translate(800 0)"/>
     <use xlink:href="#SimHei-53f2" transform="translate(900 0)"/>
    </g>
   </g>
  </g>
  <g id="axes_2">
   <g id="patch_7">
    <path d="M 481.666875 316.084375 
L 849.218125 316.084375 
L 849.218125 23.090625 
L 481.666875 23.090625 
z
" style="fill: #ffffff"/>
   </g>
   <g id="matplotlib.axis_3">
    <g id="xtick_7">
     <g id="line2d_26">
      <path d="M 498.37375 316.084375 
L 498.37375 23.090625 
" clip-path="url(#p868af2588e)" style="fill: none; stroke: #b0b0b0; stroke-width: 0.8; stroke-linecap: square"/>
     </g>
     <g id="line2d_27">
      <g>
       <use xlink:href="#m8441a6d30d" x="498.37375" y="316.084375" style="stroke: #000000; stroke-width: 0.8"/>
      </g>
     </g>
     <g id="text_16">
      <!-- 0 -->
      <g transform="translate(495.87375 329.959375) scale(0.1 -0.1)">
       <use xlink:href="#SimHei-30"/>
      </g>
     </g>
    </g>
    <g id="xtick_8">
     <g id="line2d_28">
      <path d="M 565.335173 316.084375 
L 565.335173 23.090625 
" clip-path="url(#p868af2588e)" style="fill: none; stroke: #b0b0b0; stroke-width: 0.8; stroke-linecap: square"/>
     </g>
     <g id="line2d_29">
      <g>
       <use xlink:href="#m8441a6d30d" x="565.335173" y="316.084375" style="stroke: #000000; stroke-width: 0.8"/>
      </g>
     </g>
     <g id="text_17">
      <!-- 100 -->
      <g transform="translate(557.835173 329.959375) scale(0.1 -0.1)">
       <use xlink:href="#SimHei-31"/>
       <use xlink:href="#SimHei-30" transform="translate(50 0)"/>
       <use xlink:href="#SimHei-30" transform="translate(100 0)"/>
      </g>
     </g>
    </g>
    <g id="xtick_9">
     <g id="line2d_30">
      <path d="M 632.296596 316.084375 
L 632.296596 23.090625 
" clip-path="url(#p868af2588e)" style="fill: none; stroke: #b0b0b0; stroke-width: 0.8; stroke-linecap: square"/>
     </g>
     <g id="line2d_31">
      <g>
       <use xlink:href="#m8441a6d30d" x="632.296596" y="316.084375" style="stroke: #000000; stroke-width: 0.8"/>
      </g>
     </g>
     <g id="text_18">
      <!-- 200 -->
      <g transform="translate(624.796596 329.959375) scale(0.1 -0.1)">
       <use xlink:href="#SimHei-32"/>
       <use xlink:href="#SimHei-30" transform="translate(50 0)"/>
       <use xlink:href="#SimHei-30" transform="translate(100 0)"/>
      </g>
     </g>
    </g>
    <g id="xtick_10">
     <g id="line2d_32">
      <path d="M 699.258019 316.084375 
L 699.258019 23.090625 
" clip-path="url(#p868af2588e)" style="fill: none; stroke: #b0b0b0; stroke-width: 0.8; stroke-linecap: square"/>
     </g>
     <g id="line2d_33">
      <g>
       <use xlink:href="#m8441a6d30d" x="699.258019" y="316.084375" style="stroke: #000000; stroke-width: 0.8"/>
      </g>
     </g>
     <g id="text_19">
      <!-- 300 -->
      <g transform="translate(691.758019 329.959375) scale(0.1 -0.1)">
       <use xlink:href="#SimHei-33"/>
       <use xlink:href="#SimHei-30" transform="translate(50 0)"/>
       <use xlink:href="#SimHei-30" transform="translate(100 0)"/>
      </g>
     </g>
    </g>
    <g id="xtick_11">
     <g id="line2d_34">
      <path d="M 766.219441 316.084375 
L 766.219441 23.090625 
" clip-path="url(#p868af2588e)" style="fill: none; stroke: #b0b0b0; stroke-width: 0.8; stroke-linecap: square"/>
     </g>
     <g id="line2d_35">
      <g>
       <use xlink:href="#m8441a6d30d" x="766.219441" y="316.084375" style="stroke: #000000; stroke-width: 0.8"/>
      </g>
     </g>
     <g id="text_20">
      <!-- 400 -->
      <g transform="translate(758.719441 329.959375) scale(0.1 -0.1)">
       <use xlink:href="#SimHei-34"/>
       <use xlink:href="#SimHei-30" transform="translate(50 0)"/>
       <use xlink:href="#SimHei-30" transform="translate(100 0)"/>
      </g>
     </g>
    </g>
    <g id="xtick_12">
     <g id="line2d_36">
      <path d="M 833.180864 316.084375 
L 833.180864 23.090625 
" clip-path="url(#p868af2588e)" style="fill: none; stroke: #b0b0b0; stroke-width: 0.8; stroke-linecap: square"/>
     </g>
     <g id="line2d_37">
      <g>
       <use xlink:href="#m8441a6d30d" x="833.180864" y="316.084375" style="stroke: #000000; stroke-width: 0.8"/>
      </g>
     </g>
     <g id="text_21">
      <!-- 500 -->
      <g transform="translate(825.680864 329.959375) scale(0.1 -0.1)">
       <use xlink:href="#SimHei-35"/>
       <use xlink:href="#SimHei-30" transform="translate(50 0)"/>
       <use xlink:href="#SimHei-30" transform="translate(100 0)"/>
      </g>
     </g>
    </g>
    <g id="text_22">
     <!-- 进化代数 -->
     <g transform="translate(645.4425 343.1) scale(0.1 -0.1)">
      <use xlink:href="#SimHei-8fdb"/>
      <use xlink:href="#SimHei-5316" transform="translate(100 0)"/>
      <use xlink:href="#SimHei-4ee3" transform="translate(200 0)"/>
      <use xlink:href="#SimHei-6570" transform="translate(300 0)"/>
     </g>
    </g>
   </g>
   <g id="matplotlib.axis_4">
    <g id="ytick_7">
     <g id="line2d_38">
      <path d="M 481.666875 294.885503 
L 849.218125 294.885503 
" clip-path="url(#p868af2588e)" style="fill: none; stroke: #b0b0b0; stroke-width: 0.8; stroke-linecap: square"/>
     </g>
     <g id="line2d_39">
      <g>
       <use xlink:href="#mc8e0ac699e" x="481.666875" y="294.885503" style="stroke: #000000; stroke-width: 0.8"/>
      </g>
     </g>
     <g id="text_23">
      <!-- 0.235 -->
      <g transform="translate(449.666875 298.323003) scale(0.1 -0.1)">
       <use xlink:href="#SimHei-30"/>
       <use xlink:href="#SimHei-2e" transform="translate(50 0)"/>
       <use xlink:href="#SimHei-32" transform="translate(100 0)"/>
       <use xlink:href="#SimHei-33" transform="translate(150 0)"/>
       <use xlink:href="#SimHei-35" transform="translate(200 0)"/>
      </g>
     </g>
    </g>
    <g id="ytick_8">
     <g id="line2d_40">
      <path d="M 481.666875 256.156554 
L 849.218125 256.156554 
" clip-path="url(#p868af2588e)" style="fill: none; stroke: #b0b0b0; stroke-width: 0.8; stroke-linecap: square"/>
     </g>
     <g id="line2d_41">
      <g>
       <use xlink:href="#mc8e0ac699e" x="481.666875" y="256.156554" style="stroke: #000000; stroke-width: 0.8"/>
      </g>
     </g>
     <g id="text_24">
      <!-- 0.240 -->
      <g transform="translate(449.666875 259.594054) scale(0.1 -0.1)">
       <use xlink:href="#SimHei-30"/>
       <use xlink:href="#SimHei-2e" transform="translate(50 0)"/>
       <use xlink:href="#SimHei-32" transform="translate(100 0)"/>
       <use xlink:href="#SimHei-34" transform="translate(150 0)"/>
       <use xlink:href="#SimHei-30" transform="translate(200 0)"/>
      </g>
     </g>
    </g>
    <g id="ytick_9">
     <g id="line2d_42">
      <path d="M 481.666875 217.427604 
L 849.218125 217.427604 
" clip-path="url(#p868af2588e)" style="fill: none; stroke: #b0b0b0; stroke-width: 0.8; stroke-linecap: square"/>
     </g>
     <g id="line2d_43">
      <g>
       <use xlink:href="#mc8e0ac699e" x="481.666875" y="217.427604" style="stroke: #000000; stroke-width: 0.8"/>
      </g>
     </g>
     <g id="text_25">
      <!-- 0.245 -->
      <g transform="translate(449.666875 220.865104) scale(0.1 -0.1)">
       <use xlink:href="#SimHei-30"/>
       <use xlink:href="#SimHei-2e" transform="translate(50 0)"/>
       <use xlink:href="#SimHei-32" transform="translate(100 0)"/>
       <use xlink:href="#SimHei-34" transform="translate(150 0)"/>
       <use xlink:href="#SimHei-35" transform="translate(200 0)"/>
      </g>
     </g>
    </g>
    <g id="ytick_10">
     <g id="line2d_44">
      <path d="M 481.666875 178.698654 
L 849.218125 178.698654 
" clip-path="url(#p868af2588e)" style="fill: none; stroke: #b0b0b0; stroke-width: 0.8; stroke-linecap: square"/>
     </g>
     <g id="line2d_45">
      <g>
       <use xlink:href="#mc8e0ac699e" x="481.666875" y="178.698654" style="stroke: #000000; stroke-width: 0.8"/>
      </g>
     </g>
     <g id="text_26">
      <!-- 0.250 -->
      <g transform="translate(449.666875 182.136154) scale(0.1 -0.1)">
       <use xlink:href="#SimHei-30"/>
       <use xlink:href="#SimHei-2e" transform="translate(50 0)"/>
       <use xlink:href="#SimHei-32" transform="translate(100 0)"/>
       <use xlink:href="#SimHei-35" transform="translate(150 0)"/>
       <use xlink:href="#SimHei-30" transform="translate(200 0)"/>
      </g>
     </g>
    </g>
    <g id="ytick_11">
     <g id="line2d_46">
      <path d="M 481.666875 139.969704 
L 849.218125 139.969704 
" clip-path="url(#p868af2588e)" style="fill: none; stroke: #b0b0b0; stroke-width: 0.8; stroke-linecap: square"/>
     </g>
     <g id="line2d_47">
      <g>
       <use xlink:href="#mc8e0ac699e" x="481.666875" y="139.969704" style="stroke: #000000; stroke-width: 0.8"/>
      </g>
     </g>
     <g id="text_27">
      <!-- 0.255 -->
      <g transform="translate(449.666875 143.407204) scale(0.1 -0.1)">
       <use xlink:href="#SimHei-30"/>
       <use xlink:href="#SimHei-2e" transform="translate(50 0)"/>
       <use xlink:href="#SimHei-32" transform="translate(100 0)"/>
       <use xlink:href="#SimHei-35" transform="translate(150 0)"/>
       <use xlink:href="#SimHei-35" transform="translate(200 0)"/>
      </g>
     </g>
    </g>
    <g id="ytick_12">
     <g id="line2d_48">
      <path d="M 481.666875 101.240755 
L 849.218125 101.240755 
" clip-path="url(#p868af2588e)" style="fill: none; stroke: #b0b0b0; stroke-width: 0.8; stroke-linecap: square"/>
     </g>
     <g id="line2d_49">
      <g>
       <use xlink:href="#mc8e0ac699e" x="481.666875" y="101.240755" style="stroke: #000000; stroke-width: 0.8"/>
      </g>
     </g>
     <g id="text_28">
      <!-- 0.260 -->
      <g transform="translate(449.666875 104.678255) scale(0.1 -0.1)">
       <use xlink:href="#SimHei-30"/>
       <use xlink:href="#SimHei-2e" transform="translate(50 0)"/>
       <use xlink:href="#SimHei-32" transform="translate(100 0)"/>
       <use xlink:href="#SimHei-36" transform="translate(150 0)"/>
       <use xlink:href="#SimHei-30" transform="translate(200 0)"/>
      </g>
     </g>
    </g>
    <g id="ytick_13">
     <g id="line2d_50">
      <path d="M 481.666875 62.511805 
L 849.218125 62.511805 
" clip-path="url(#p868af2588e)" style="fill: none; stroke: #b0b0b0; stroke-width: 0.8; stroke-linecap: square"/>
     </g>
     <g id="line2d_51">
      <g>
       <use xlink:href="#mc8e0ac699e" x="481.666875" y="62.511805" style="stroke: #000000; stroke-width: 0.8"/>
      </g>
     </g>
     <g id="text_29">
      <!-- 0.265 -->
      <g transform="translate(449.666875 65.949305) scale(0.1 -0.1)">
       <use xlink:href="#SimHei-30"/>
       <use xlink:href="#SimHei-2e" transform="translate(50 0)"/>
       <use xlink:href="#SimHei-32" transform="translate(100 0)"/>
       <use xlink:href="#SimHei-36" transform="translate(150 0)"/>
       <use xlink:href="#SimHei-35" transform="translate(200 0)"/>
      </g>
     </g>
    </g>
    <g id="ytick_14">
     <g id="line2d_52">
      <path d="M 481.666875 23.782855 
L 849.218125 23.782855 
" clip-path="url(#p868af2588e)" style="fill: none; stroke: #b0b0b0; stroke-width: 0.8; stroke-linecap: square"/>
     </g>
     <g id="line2d_53">
      <g>
       <use xlink:href="#mc8e0ac699e" x="481.666875" y="23.782855" style="stroke: #000000; stroke-width: 0.8"/>
      </g>
     </g>
     <g id="text_30">
      <!-- 0.270 -->
      <g transform="translate(449.666875 27.220355) scale(0.1 -0.1)">
       <defs>
        <path id="SimHei-37" d="M 850 150 
Q 1300 2050 2425 3925 
L 275 3925 
L 275 4375 
L 2950 4375 
L 2950 3950 
Q 1775 2050 1400 150 
L 850 150 
z
" transform="scale(0.015625)"/>
       </defs>
       <use xlink:href="#SimHei-30"/>
       <use xlink:href="#SimHei-2e" transform="translate(50 0)"/>
       <use xlink:href="#SimHei-32" transform="translate(100 0)"/>
       <use xlink:href="#SimHei-37" transform="translate(150 0)"/>
       <use xlink:href="#SimHei-30" transform="translate(200 0)"/>
      </g>
     </g>
    </g>
    <g id="text_31">
     <!-- 适应度 -->
     <g transform="translate(444.416875 184.5875) rotate(-90) scale(0.1 -0.1)">
      <use xlink:href="#SimHei-9002"/>
      <use xlink:href="#SimHei-5e94" transform="translate(100 0)"/>
      <use xlink:href="#SimHei-5ea6" transform="translate(200 0)"/>
     </g>
    </g>
   </g>
   <g id="line2d_54">
    <path d="M 498.37375 302.766477 
L 499.043364 271.499162 
L 499.712978 271.499162 
L 501.052207 171.685701 
L 501.721821 179.580739 
L 502.391435 162.845622 
L 503.06105 153.517078 
L 503.730664 130.668945 
L 504.400278 100.539727 
L 505.069892 154.818308 
L 505.739507 90.183294 
L 506.409121 100.232658 
L 507.078735 139.650054 
L 507.748349 136.492283 
L 508.417963 147.98897 
L 509.087578 119.31925 
L 509.757192 79.43985 
L 510.426806 93.842769 
L 511.09642 144.678462 
L 511.766035 108.768518 
L 512.435649 81.662675 
L 513.105263 81.662675 
L 513.774877 80.434184 
L 514.444491 72.065127 
L 515.114106 59.85784 
L 515.78372 37.667514 
L 516.453334 66.704157 
L 517.122948 55.159714 
L 517.792563 36.408523 
L 518.462177 60.108378 
L 519.131791 42.162297 
L 519.801405 38.036283 
L 520.47102 47.910839 
L 521.140634 47.910839 
L 521.810248 64.426352 
L 522.479862 60.932038 
L 523.149476 92.248683 
L 523.819091 54.990577 
L 524.488705 43.091173 
L 525.158319 42.04647 
L 525.827933 42.04647 
L 526.497548 48.340302 
L 527.167162 42.04647 
L 527.836776 84.480479 
L 529.176005 47.479157 
L 529.845619 46.91465 
L 530.515233 46.91465 
L 531.184847 38.121591 
L 531.854461 38.121591 
L 532.524076 48.007129 
L 533.19369 40.606117 
L 533.863304 40.606117 
L 534.532918 60.843247 
L 535.202533 40.703209 
L 535.872147 61.632545 
L 536.541761 46.747131 
L 537.211375 37.635686 
L 537.880989 56.918163 
L 538.550604 53.709672 
L 539.220218 53.709672 
L 539.889832 49.563298 
L 540.559446 39.272105 
L 541.229061 39.272105 
L 541.898675 40.608222 
L 542.568289 45.370734 
L 543.237903 39.334842 
L 543.907518 52.804556 
L 544.577132 42.23652 
L 545.246746 46.881158 
L 545.91636 39.954849 
L 546.585974 59.505609 
L 547.255589 64.024383 
L 547.925203 41.127109 
L 548.594817 45.700768 
L 549.934046 45.700768 
L 550.60366 40.561862 
L 551.273274 40.502746 
L 551.942888 39.711539 
L 552.612503 40.561862 
L 553.951731 40.561862 
L 554.621345 42.902115 
L 555.960574 42.973293 
L 556.630188 41.057433 
L 557.299802 42.973293 
L 557.969416 38.987618 
L 558.639031 39.506 
L 559.308645 42.58725 
L 559.978259 41.477628 
L 560.647873 38.147468 
L 561.317487 42.482705 
L 561.987102 39.576089 
L 562.656716 44.559145 
L 563.32633 38.475769 
L 563.995944 42.867719 
L 566.004787 42.867719 
L 566.674401 39.242732 
L 567.344016 39.158327 
L 568.01363 42.867719 
L 568.683244 38.746798 
L 569.352858 42.867719 
L 570.022472 41.239726 
L 570.692087 41.824202 
L 571.361701 41.239726 
L 572.031315 41.195672 
L 572.700929 39.373729 
L 573.370544 39.373729 
L 574.040158 38.999478 
L 574.709772 41.206526 
L 576.049001 41.206526 
L 576.718615 46.988554 
L 577.388229 49.132325 
L 578.057843 45.576781 
L 578.727457 45.576781 
L 579.397072 42.157914 
L 580.066686 36.942204 
L 580.7363 49.952238 
L 581.405914 48.516473 
L 582.075529 48.061991 
L 582.745143 48.516473 
L 583.414757 41.493554 
L 584.084371 60.241138 
L 584.753985 38.337373 
L 585.4236 57.857888 
L 586.093214 40.690457 
L 586.762828 40.690457 
L 587.432442 39.468037 
L 588.102057 40.690457 
L 588.771671 40.690457 
L 589.441285 45.367816 
L 590.110899 45.367816 
L 590.780514 41.297696 
L 591.450128 40.249932 
L 595.467813 40.249932 
L 596.137427 39.244947 
L 596.807042 40.249932 
L 598.14627 40.037045 
L 598.815884 37.757733 
L 599.485498 49.468433 
L 600.155113 48.55559 
L 601.494341 50.456115 
L 602.163955 50.456115 
L 602.83357 46.052968 
L 603.503184 38.673445 
L 604.172798 44.793334 
L 604.842412 44.793334 
L 605.512027 39.503701 
L 606.181641 45.31608 
L 606.851255 41.87115 
L 607.520869 52.982313 
L 608.190483 44.762688 
L 608.860098 41.282784 
L 609.529712 41.061369 
L 610.86894 41.061369 
L 611.538555 56.773062 
L 612.208169 49.977466 
L 612.877783 71.452383 
L 613.547397 52.925455 
L 614.217012 52.06395 
L 614.886626 55.688362 
L 616.225854 39.973095 
L 617.565083 39.973095 
L 618.234697 63.863165 
L 618.904311 43.039813 
L 619.573925 47.024775 
L 620.24354 49.893102 
L 620.913154 39.278799 
L 622.252382 39.278799 
L 622.921996 38.734749 
L 623.591611 38.734749 
L 624.261225 47.477167 
L 624.930839 41.933211 
L 625.600453 41.626793 
L 626.270068 47.039646 
L 626.939682 40.86035 
L 627.609296 40.86035 
L 628.27891 50.226793 
L 628.948525 40.16445 
L 629.618139 53.964772 
L 630.287753 49.349491 
L 630.957367 49.349491 
L 631.626981 44.704238 
L 632.296596 47.569846 
L 632.96621 44.704238 
L 633.635824 51.438362 
L 634.305438 43.719046 
L 635.644667 43.719046 
L 636.314281 39.173935 
L 636.983895 38.354218 
L 637.65351 46.853947 
L 638.323124 41.702352 
L 638.992738 41.853148 
L 639.662352 50.732072 
L 640.331966 47.331361 
L 641.001581 46.518055 
L 641.671195 39.878563 
L 642.340809 46.518055 
L 643.010423 41.295092 
L 643.680038 39.060817 
L 644.349652 40.200722 
L 645.019266 39.060817 
L 645.68888 39.060817 
L 646.358494 38.847341 
L 647.697723 38.847341 
L 648.367337 45.047733 
L 649.036951 38.847341 
L 649.706566 39.312872 
L 650.37618 38.939587 
L 651.045794 41.036918 
L 652.385023 41.036918 
L 653.054637 42.414789 
L 653.724251 44.220494 
L 654.393865 44.220494 
L 655.063479 45.870647 
L 655.733094 47.81673 
L 656.402708 41.830611 
L 657.072322 38.251993 
L 658.411551 54.421304 
L 659.081165 46.424648 
L 659.750779 40.720337 
L 660.420393 43.49007 
L 661.090008 38.907036 
L 661.759622 39.854325 
L 662.429236 39.854325 
L 663.09885 42.439144 
L 663.768464 43.230393 
L 664.438079 39.127395 
L 665.107693 40.868672 
L 665.777307 43.31237 
L 666.446921 38.75196 
L 667.116536 43.912906 
L 667.78615 42.458711 
L 668.455764 39.930192 
L 669.125378 40.436831 
L 672.473449 40.436831 
L 673.143064 42.227076 
L 673.812678 40.436831 
L 675.151906 43.66517 
L 675.821521 44.746611 
L 676.491135 40.436831 
L 677.160749 49.537977 
L 678.499977 52.711402 
L 679.169592 44.280498 
L 679.839206 38.733707 
L 681.178434 38.733707 
L 681.848049 47.989396 
L 682.517663 51.904888 
L 683.187277 45.87886 
L 683.856891 45.87886 
L 684.526506 49.516133 
L 685.19612 46.902125 
L 685.865734 46.902125 
L 686.535348 39.215571 
L 687.874577 39.215571 
L 688.544191 45.55586 
L 689.213805 67.950508 
L 689.883419 69.522906 
L 690.553034 70.480275 
L 691.222648 54.841326 
L 691.892262 54.841326 
L 692.561876 40.121605 
L 693.23149 40.121605 
L 693.901105 54.811557 
L 694.570719 44.64672 
L 695.240333 40.122628 
L 697.249176 40.122628 
L 697.91879 42.821312 
L 698.588404 44.122299 
L 699.258019 42.820519 
L 699.927633 48.164269 
L 700.597247 49.409699 
L 701.266861 43.353385 
L 701.936475 44.450701 
L 702.60609 41.249585 
L 703.275704 41.249585 
L 703.945318 40.130314 
L 704.614932 61.137251 
L 705.284547 49.587474 
L 705.954161 41.480741 
L 706.623775 41.480741 
L 707.293389 49.837422 
L 707.963004 49.764229 
L 708.632618 46.641042 
L 709.302232 46.641042 
L 709.971846 61.686984 
L 710.64146 51.721522 
L 711.311075 51.721522 
L 711.980689 50.922004 
L 712.650303 44.549052 
L 713.319917 53.230354 
L 714.659146 43.367121 
L 715.32876 43.951145 
L 715.998374 52.987343 
L 716.667988 42.900331 
L 717.337603 42.900331 
L 718.007217 44.953734 
L 718.676831 42.030185 
L 719.346445 47.65279 
L 720.01606 39.841147 
L 720.685674 43.617205 
L 721.355288 38.749889 
L 722.694517 38.749889 
L 723.364131 47.883705 
L 724.033745 44.795491 
L 724.703359 44.795491 
L 725.372973 48.894557 
L 726.042588 48.894557 
L 726.712202 55.649956 
L 727.381816 48.739419 
L 728.05143 47.632574 
L 728.721045 47.632574 
L 729.390659 48.523591 
L 730.060273 54.647417 
L 730.729887 39.103612 
L 731.399502 51.297855 
L 732.069116 42.87986 
L 732.73873 42.87986 
L 733.408344 43.291149 
L 734.077958 80.406154 
L 734.747573 53.957037 
L 735.417187 53.957037 
L 736.086801 67.82035 
L 736.756415 61.189394 
L 737.42603 58.136156 
L 738.095644 51.742415 
L 738.765258 79.388101 
L 739.434872 66.020825 
L 740.104486 55.046818 
L 740.774101 38.550729 
L 741.443715 38.550729 
L 742.113329 40.733908 
L 742.782943 45.947656 
L 743.452558 45.132336 
L 745.4614 45.132336 
L 746.131015 57.027848 
L 746.800629 43.723143 
L 747.470243 57.027848 
L 748.139857 46.827255 
L 748.809471 55.329653 
L 749.479086 55.329653 
L 750.1487 63.641825 
L 750.818314 63.641825 
L 751.487928 94.362253 
L 752.157543 76.653501 
L 752.827157 44.688479 
L 754.835999 44.688479 
L 755.505614 68.046265 
L 756.175228 48.779936 
L 756.844842 37.775554 
L 757.514456 46.506378 
L 758.184071 39.409295 
L 758.853685 39.409295 
L 759.523299 38.161144 
L 760.192913 38.161144 
L 760.862528 42.611389 
L 761.532142 49.217675 
L 762.201756 49.217675 
L 762.87137 49.389404 
L 763.540984 73.158266 
L 764.210599 52.831711 
L 764.880213 40.321032 
L 765.549827 43.990892 
L 766.219441 62.126747 
L 766.889056 51.470935 
L 767.55867 43.158992 
L 768.228284 43.158992 
L 768.897898 62.21597 
L 769.567513 62.21597 
L 770.237127 72.872893 
L 770.906741 52.73421 
L 771.576355 37.380243 
L 772.245969 41.149235 
L 772.915584 41.149235 
L 773.585198 63.721648 
L 774.254812 47.873075 
L 774.924426 59.071199 
L 775.594041 49.090069 
L 776.263655 48.563179 
L 776.933269 49.89465 
L 777.602883 49.89465 
L 778.272497 37.536129 
L 778.942112 49.89465 
L 779.611726 49.89465 
L 780.28134 48.420868 
L 780.950954 48.978943 
L 781.620569 41.414364 
L 782.290183 47.639684 
L 782.959797 47.494513 
L 783.629411 55.381853 
L 784.299026 39.703575 
L 784.96864 40.136481 
L 785.638254 52.086607 
L 786.307868 49.693849 
L 786.977482 48.523465 
L 787.647097 55.839007 
L 788.316711 43.998236 
L 788.986325 38.988235 
L 789.655939 38.988235 
L 790.325554 43.372663 
L 790.995168 41.684562 
L 791.664782 49.033217 
L 792.334396 47.514022 
L 793.004011 41.994019 
L 793.673625 41.994019 
L 794.343239 48.298227 
L 795.012853 48.461749 
L 795.682467 48.461749 
L 796.352082 43.241524 
L 797.021696 41.884244 
L 797.69131 43.972943 
L 798.360924 43.972943 
L 799.030539 37.441704 
L 799.700153 46.138434 
L 800.369767 39.079384 
L 801.039381 38.334664 
L 801.708995 39.079384 
L 802.37861 39.239886 
L 803.048224 38.334664 
L 803.717838 38.330873 
L 804.387452 45.801054 
L 805.057067 48.497519 
L 805.726681 38.045318 
L 806.396295 39.907142 
L 807.065909 38.334664 
L 807.735524 38.334664 
L 808.405138 37.263222 
L 809.074752 40.945223 
L 809.744366 39.417966 
L 810.41398 41.561888 
L 811.083595 43.291609 
L 811.753209 41.889693 
L 812.422823 40.984565 
L 813.092437 40.984565 
L 813.762052 40.790692 
L 814.431666 38.531693 
L 815.10128 37.76217 
L 815.770894 38.475695 
L 816.440509 44.966605 
L 817.110123 44.187193 
L 817.779737 43.704382 
L 818.449351 42.087253 
L 819.118965 49.715131 
L 819.78858 49.747565 
L 820.458194 46.720732 
L 821.127808 50.487687 
L 821.797422 43.938981 
L 822.467037 50.455286 
L 823.136651 50.455286 
L 823.806265 37.838326 
L 825.145493 37.838326 
L 825.815108 41.369298 
L 826.484722 37.838326 
L 827.154336 37.838326 
L 827.82395 41.60776 
L 828.493565 43.120331 
L 829.163179 42.57138 
L 829.832793 38.980366 
L 830.502407 37.374276 
L 831.172022 38.504974 
L 831.841636 41.330485 
L 832.51125 41.330485 
L 832.51125 41.330485 
" clip-path="url(#p868af2588e)" style="fill: none; stroke: #1f77b4; stroke-width: 1.5; stroke-linecap: square"/>
   </g>
   <g id="patch_8">
    <path d="M 481.666875 316.084375 
L 481.666875 23.090625 
" style="fill: none; stroke: #000000; stroke-width: 0.8; stroke-linejoin: miter; stroke-linecap: square"/>
   </g>
   <g id="patch_9">
    <path d="M 849.218125 316.084375 
L 849.218125 23.090625 
" style="fill: none; stroke: #000000; stroke-width: 0.8; stroke-linejoin: miter; stroke-linecap: square"/>
   </g>
   <g id="patch_10">
    <path d="M 481.666875 316.084375 
L 849.218125 316.084375 
" style="fill: none; stroke: #000000; stroke-width: 0.8; stroke-linejoin: miter; stroke-linecap: square"/>
   </g>
   <g id="patch_11">
    <path d="M 481.666875 23.090625 
L 849.218125 23.090625 
" style="fill: none; stroke: #000000; stroke-width: 0.8; stroke-linejoin: miter; stroke-linecap: square"/>
   </g>
   <g id="text_32">
    <!-- 夜间助眠模式优化历史 -->
    <g transform="translate(605.4425 17.090625) scale(0.12 -0.12)">
     <defs>
      <path id="SimHei-591c" d="M 3775 3725 
Q 3625 3550 3500 3250 
L 5475 3250 
Q 5350 2725 5250 2337 
Q 5150 1950 4962 1562 
Q 4775 1175 4637 987 
Q 4500 800 4225 450 
Q 4600 225 4987 100 
Q 5375 -25 6125 -100 
Q 5850 -350 5725 -675 
Q 5050 -500 4562 -287 
Q 4075 -75 3850 125 
Q 3550 -50 3275 -225 
Q 3000 -400 2375 -700 
Q 2250 -425 2000 -200 
Q 2525 -25 2825 100 
Q 3125 225 3475 450 
Q 3275 725 3087 1087 
Q 2900 1450 2750 1875 
Q 2550 1550 2425 1375 
Q 2225 1525 1975 1700 
Q 2100 1825 2275 2062 
Q 2450 2300 2600 2587 
Q 2750 2875 2912 3225 
Q 3075 3575 3125 3950 
Q 3650 3775 3775 3725 
z
M 2300 3600 
Q 2050 3300 1750 2725 
L 1750 275 
Q 1750 -175 1775 -625 
L 1225 -625 
Q 1250 -175 1250 275 
L 1250 2025 
Q 900 1425 600 1125 
Q 425 1325 200 1525 
Q 425 1725 650 2012 
Q 875 2300 1087 2662 
Q 1300 3025 1450 3350 
Q 1600 3675 1650 3925 
Q 1925 3775 2300 3600 
z
M 3400 5275 
Q 3475 4775 3525 4525 
L 4950 4525 
Q 5475 4525 5925 4550 
L 5925 4050 
Q 5475 4075 4950 4075 
L 1425 4075 
Q 875 4075 425 4050 
L 425 4550 
Q 850 4525 1425 4525 
L 2900 4525 
Q 2900 4725 2775 5150 
Q 3050 5225 3400 5275 
z
M 2825 1950 
Q 3100 2050 3250 2100 
Q 3325 1800 3512 1387 
Q 3700 975 3850 800 
Q 4075 1025 4225 1250 
Q 4375 1475 4500 1712 
Q 4625 1950 4712 2225 
Q 4800 2500 4875 2825 
L 3275 2825 
Q 3075 2450 2825 1950 
z
M 3925 2475 
Q 4000 2325 4100 2137 
Q 4200 1950 4325 1750 
Q 4075 1650 3875 1525 
Q 3825 1700 3700 1925 
Q 3575 2150 3500 2250 
Q 3725 2400 3925 2475 
z
" transform="scale(0.015625)"/>
      <path id="SimHei-52a9" d="M 3100 450 
Q 2825 400 2487 325 
Q 2150 250 1812 162 
Q 1475 75 1112 -37 
Q 750 -150 425 -275 
Q 375 -50 250 325 
Q 525 375 750 425 
L 750 3650 
Q 750 4175 725 4675 
L 2800 4675 
Q 2775 4225 2775 3675 
L 2775 800 
Q 2875 825 3100 875 
L 3100 450 
z
M 2650 -225 
Q 3150 125 3400 562 
Q 3650 1000 3762 1475 
Q 3875 1950 3925 2450 
Q 3975 2950 3975 3400 
Q 3550 3400 3200 3375 
L 3200 3825 
Q 3525 3800 3975 3800 
L 3975 4375 
Q 3975 4650 3950 5125 
Q 4225 5100 4600 5100 
Q 4525 4775 4512 4450 
Q 4500 4125 4500 3800 
L 5900 3800 
Q 5825 3400 5825 2825 
L 5675 275 
Q 5650 -200 5350 -287 
Q 5050 -375 4575 -425 
Q 4525 -100 4400 175 
Q 4875 175 5050 187 
Q 5225 200 5225 675 
L 5350 3400 
L 4500 3400 
Q 4450 2350 4325 1700 
Q 4200 1050 4012 675 
Q 3825 300 3637 12 
Q 3450 -275 3200 -550 
Q 3000 -350 2650 -225 
z
M 2275 1950 
L 2275 2950 
L 1225 2950 
L 1225 1950 
L 2275 1950 
z
M 1225 500 
Q 1525 550 1762 600 
Q 2000 650 2275 700 
L 2275 1550 
L 1225 1550 
L 1225 500 
z
M 2275 3325 
L 2275 4275 
L 1225 4275 
L 1225 3325 
L 2275 3325 
z
" transform="scale(0.015625)"/>
      <path id="SimHei-7720" d="M 5625 5025 
Q 5600 4550 5600 4075 
Q 5600 3600 5625 3175 
L 4450 3175 
Q 4475 2675 4525 2225 
L 5200 2225 
Q 5425 2225 5850 2250 
L 5850 1775 
Q 5500 1825 5275 1825 
L 4575 1825 
Q 4625 1425 4812 962 
Q 5000 500 5237 200 
Q 5475 -100 5562 125 
Q 5650 350 5675 550 
Q 5900 275 6150 200 
Q 6000 -250 5725 -512 
Q 5450 -775 5025 -300 
Q 4600 175 4400 750 
Q 4200 1325 4125 1825 
L 3050 1825 
L 3050 125 
Q 3450 400 3975 850 
Q 4000 525 4100 300 
Q 3925 175 3500 -100 
Q 3075 -375 2725 -675 
Q 2525 -450 2375 -250 
Q 2475 -150 2525 50 
Q 2575 250 2575 450 
L 2575 4050 
Q 2575 4750 2550 5025 
L 5625 5025 
z
M 2200 4825 
Q 2150 4275 2150 3675 
L 2150 1150 
Q 2150 725 2200 75 
L 1725 75 
L 1725 450 
L 825 450 
L 825 -125 
L 350 -125 
Q 400 500 400 1100 
L 400 3675 
Q 400 4275 350 4825 
L 2200 4825 
z
M 5150 3525 
L 5150 4625 
L 3050 4625 
L 3050 3525 
L 5150 3525 
z
M 4075 2225 
Q 4025 2700 4000 3175 
L 3050 3175 
L 3050 2225 
L 4075 2225 
z
M 1725 3400 
L 1725 4425 
L 825 4425 
L 825 3400 
L 1725 3400 
z
M 1725 875 
L 1725 1825 
L 825 1825 
L 825 875 
L 1725 875 
z
M 1725 2225 
L 1725 3050 
L 825 3050 
L 825 2225 
L 1725 2225 
z
" transform="scale(0.015625)"/>
     </defs>
     <use xlink:href="#SimHei-591c"/>
     <use xlink:href="#SimHei-95f4" transform="translate(100 0)"/>
     <use xlink:href="#SimHei-52a9" transform="translate(200 0)"/>
     <use xlink:href="#SimHei-7720" transform="translate(300 0)"/>
     <use xlink:href="#SimHei-6a21" transform="translate(400 0)"/>
     <use xlink:href="#SimHei-5f0f" transform="translate(500 0)"/>
     <use xlink:href="#SimHei-4f18" transform="translate(600 0)"/>
     <use xlink:href="#SimHei-5316" transform="translate(700 0)"/>
     <use xlink:href="#SimHei-5386" transform="translate(800 0)"/>
     <use xlink:href="#SimHei-53f2" transform="translate(900 0)"/>
    </g>
   </g>
  </g>
 </g>
 <defs>
  <clipPath id="p46f126d6f8">
   <rect x="57.496875" y="23.090625" width="367.55125" height="292.99375"/>
  </clipPath>
  <clipPath id="p868af2588e">
   <rect x="481.666875" y="23.090625" width="367.55125" height="292.99375"/>
  </clipPath>
 </defs>
</svg>
