<?xml version="1.0" encoding="utf-8" standalone="no"?>
<!DOCTYPE svg PUBLIC "-//W3C//DTD SVG 1.1//EN"
  "http://www.w3.org/Graphics/SVG/1.1/DTD/svg11.dtd">
<svg xmlns:xlink="http://www.w3.org/1999/xlink" width="856.408125pt" height="351.55pt" viewBox="0 0 856.408125 351.55" xmlns="http://www.w3.org/2000/svg" version="1.1">
 <metadata>
  <rdf:RDF xmlns:dc="http://purl.org/dc/elements/1.1/" xmlns:cc="http://creativecommons.org/ns#" xmlns:rdf="http://www.w3.org/1999/02/22-rdf-syntax-ns#">
   <cc:Work>
    <dc:type rdf:resource="http://purl.org/dc/dcmitype/StillImage"/>
    <dc:date>2025-08-08T14:34:13.342579</dc:date>
    <dc:format>image/svg+xml</dc:format>
    <dc:creator>
     <cc:Agent>
      <dc:title>Matplotlib v3.10.5, https://matplotlib.org/</dc:title>
     </cc:Agent>
    </dc:creator>
   </cc:Work>
  </rdf:RDF>
 </metadata>
 <defs>
  <style type="text/css">*{stroke-linejoin: round; stroke-linecap: butt}</style>
 </defs>
 <g id="figure_1">
  <g id="patch_1">
   <path d="M 0 351.55 
L 856.408125 351.55 
L 856.408125 0 
L 0 0 
z
" style="fill: #ffffff"/>
  </g>
  <g id="axes_1">
   <g id="patch_2">
    <path d="M 47.496875 316.084375 
L 422.608125 316.084375 
L 422.608125 23.090625 
L 47.496875 23.090625 
z
" style="fill: #ffffff"/>
   </g>
   <g id="matplotlib.axis_1">
    <g id="xtick_1">
     <g id="line2d_1">
      <path d="M 64.547386 316.084375 
L 64.547386 23.090625 
" clip-path="url(#p431be5a939)" style="fill: none; stroke: #b0b0b0; stroke-width: 0.8; stroke-linecap: square"/>
     </g>
     <g id="line2d_2">
      <defs>
       <path id="m37e97722cd" d="M 0 0 
L 0 3.5 
" style="stroke: #000000; stroke-width: 0.8"/>
      </defs>
      <g>
       <use xlink:href="#m37e97722cd" x="64.547386" y="316.084375" style="stroke: #000000; stroke-width: 0.8"/>
      </g>
     </g>
     <g id="text_1">
      <!-- 0 -->
      <g transform="translate(62.047386 329.959375) scale(0.1 -0.1)">
       <defs>
        <path id="SimHei-30" d="M 225 2537 
Q 250 3200 412 3587 
Q 575 3975 875 4225 
Q 1175 4475 1612 4475 
Q 2050 4475 2375 4112 
Q 2700 3750 2800 3200 
Q 2900 2650 2862 1937 
Q 2825 1225 2612 775 
Q 2400 325 1975 150 
Q 1550 -25 1125 187 
Q 700 400 525 750 
Q 350 1100 275 1487 
Q 200 1875 225 2537 
z
M 750 2687 
Q 675 2000 800 1462 
Q 925 925 1212 700 
Q 1500 475 1800 612 
Q 2100 750 2237 1162 
Q 2375 1575 2375 2062 
Q 2375 2550 2337 2950 
Q 2300 3350 2112 3675 
Q 1925 4000 1612 4012 
Q 1300 4025 1062 3700 
Q 825 3375 750 2687 
z
" transform="scale(0.015625)"/>
       </defs>
       <use xlink:href="#SimHei-30"/>
      </g>
     </g>
    </g>
    <g id="xtick_2">
     <g id="line2d_3">
      <path d="M 107.387867 316.084375 
L 107.387867 23.090625 
" clip-path="url(#p431be5a939)" style="fill: none; stroke: #b0b0b0; stroke-width: 0.8; stroke-linecap: square"/>
     </g>
     <g id="line2d_4">
      <g>
       <use xlink:href="#m37e97722cd" x="107.387867" y="316.084375" style="stroke: #000000; stroke-width: 0.8"/>
      </g>
     </g>
     <g id="text_2">
      <!-- 25 -->
      <g transform="translate(102.387867 329.959375) scale(0.1 -0.1)">
       <defs>
        <path id="SimHei-32" d="M 300 250 
Q 325 625 650 925 
Q 975 1225 1475 1862 
Q 1975 2500 2125 2850 
Q 2275 3200 2237 3450 
Q 2200 3700 2000 3862 
Q 1800 4025 1537 4000 
Q 1275 3975 1037 3800 
Q 800 3625 675 3275 
L 200 3350 
Q 400 3925 712 4187 
Q 1025 4450 1450 4475 
Q 1700 4500 1900 4462 
Q 2100 4425 2312 4287 
Q 2525 4150 2662 3875 
Q 2800 3600 2762 3212 
Q 2725 2825 2375 2287 
Q 2025 1750 1025 600 
L 2825 600 
L 2825 150 
L 300 150 
L 300 250 
z
" transform="scale(0.015625)"/>
        <path id="SimHei-35" d="M 550 1325 
Q 725 650 1150 575 
Q 1575 500 1837 662 
Q 2100 825 2212 1087 
Q 2325 1350 2312 1675 
Q 2300 2000 2137 2225 
Q 1975 2450 1725 2525 
Q 1475 2600 1162 2525 
Q 850 2450 650 2175 
L 225 2225 
Q 275 2375 700 4375 
L 2675 4375 
L 2675 3925 
L 1075 3925 
Q 950 3250 825 2850 
Q 1200 3025 1525 3012 
Q 1850 3000 2150 2862 
Q 2450 2725 2587 2487 
Q 2725 2250 2787 2012 
Q 2850 1775 2837 1500 
Q 2825 1225 2725 937 
Q 2625 650 2425 462 
Q 2225 275 1937 162 
Q 1650 50 1275 75 
Q 900 100 562 350 
Q 225 600 100 1200 
L 550 1325 
z
" transform="scale(0.015625)"/>
       </defs>
       <use xlink:href="#SimHei-32"/>
       <use xlink:href="#SimHei-35" transform="translate(50 0)"/>
      </g>
     </g>
    </g>
    <g id="xtick_3">
     <g id="line2d_5">
      <path d="M 150.228348 316.084375 
L 150.228348 23.090625 
" clip-path="url(#p431be5a939)" style="fill: none; stroke: #b0b0b0; stroke-width: 0.8; stroke-linecap: square"/>
     </g>
     <g id="line2d_6">
      <g>
       <use xlink:href="#m37e97722cd" x="150.228348" y="316.084375" style="stroke: #000000; stroke-width: 0.8"/>
      </g>
     </g>
     <g id="text_3">
      <!-- 50 -->
      <g transform="translate(145.228348 329.959375) scale(0.1 -0.1)">
       <use xlink:href="#SimHei-35"/>
       <use xlink:href="#SimHei-30" transform="translate(50 0)"/>
      </g>
     </g>
    </g>
    <g id="xtick_4">
     <g id="line2d_7">
      <path d="M 193.068829 316.084375 
L 193.068829 23.090625 
" clip-path="url(#p431be5a939)" style="fill: none; stroke: #b0b0b0; stroke-width: 0.8; stroke-linecap: square"/>
     </g>
     <g id="line2d_8">
      <g>
       <use xlink:href="#m37e97722cd" x="193.068829" y="316.084375" style="stroke: #000000; stroke-width: 0.8"/>
      </g>
     </g>
     <g id="text_4">
      <!-- 75 -->
      <g transform="translate(188.068829 329.959375) scale(0.1 -0.1)">
       <defs>
        <path id="SimHei-37" d="M 850 150 
Q 1300 2050 2425 3925 
L 275 3925 
L 275 4375 
L 2950 4375 
L 2950 3950 
Q 1775 2050 1400 150 
L 850 150 
z
" transform="scale(0.015625)"/>
       </defs>
       <use xlink:href="#SimHei-37"/>
       <use xlink:href="#SimHei-35" transform="translate(50 0)"/>
      </g>
     </g>
    </g>
    <g id="xtick_5">
     <g id="line2d_9">
      <path d="M 235.90931 316.084375 
L 235.90931 23.090625 
" clip-path="url(#p431be5a939)" style="fill: none; stroke: #b0b0b0; stroke-width: 0.8; stroke-linecap: square"/>
     </g>
     <g id="line2d_10">
      <g>
       <use xlink:href="#m37e97722cd" x="235.90931" y="316.084375" style="stroke: #000000; stroke-width: 0.8"/>
      </g>
     </g>
     <g id="text_5">
      <!-- 100 -->
      <g transform="translate(228.40931 329.959375) scale(0.1 -0.1)">
       <defs>
        <path id="SimHei-31" d="M 1400 3600 
Q 1075 3275 575 2975 
L 575 3450 
Q 1200 3875 1600 4450 
L 1900 4450 
L 1900 150 
L 1400 150 
L 1400 3600 
z
" transform="scale(0.015625)"/>
       </defs>
       <use xlink:href="#SimHei-31"/>
       <use xlink:href="#SimHei-30" transform="translate(50 0)"/>
       <use xlink:href="#SimHei-30" transform="translate(100 0)"/>
      </g>
     </g>
    </g>
    <g id="xtick_6">
     <g id="line2d_11">
      <path d="M 278.74979 316.084375 
L 278.74979 23.090625 
" clip-path="url(#p431be5a939)" style="fill: none; stroke: #b0b0b0; stroke-width: 0.8; stroke-linecap: square"/>
     </g>
     <g id="line2d_12">
      <g>
       <use xlink:href="#m37e97722cd" x="278.74979" y="316.084375" style="stroke: #000000; stroke-width: 0.8"/>
      </g>
     </g>
     <g id="text_6">
      <!-- 125 -->
      <g transform="translate(271.24979 329.959375) scale(0.1 -0.1)">
       <use xlink:href="#SimHei-31"/>
       <use xlink:href="#SimHei-32" transform="translate(50 0)"/>
       <use xlink:href="#SimHei-35" transform="translate(100 0)"/>
      </g>
     </g>
    </g>
    <g id="xtick_7">
     <g id="line2d_13">
      <path d="M 321.590271 316.084375 
L 321.590271 23.090625 
" clip-path="url(#p431be5a939)" style="fill: none; stroke: #b0b0b0; stroke-width: 0.8; stroke-linecap: square"/>
     </g>
     <g id="line2d_14">
      <g>
       <use xlink:href="#m37e97722cd" x="321.590271" y="316.084375" style="stroke: #000000; stroke-width: 0.8"/>
      </g>
     </g>
     <g id="text_7">
      <!-- 150 -->
      <g transform="translate(314.090271 329.959375) scale(0.1 -0.1)">
       <use xlink:href="#SimHei-31"/>
       <use xlink:href="#SimHei-35" transform="translate(50 0)"/>
       <use xlink:href="#SimHei-30" transform="translate(100 0)"/>
      </g>
     </g>
    </g>
    <g id="xtick_8">
     <g id="line2d_15">
      <path d="M 364.430752 316.084375 
L 364.430752 23.090625 
" clip-path="url(#p431be5a939)" style="fill: none; stroke: #b0b0b0; stroke-width: 0.8; stroke-linecap: square"/>
     </g>
     <g id="line2d_16">
      <g>
       <use xlink:href="#m37e97722cd" x="364.430752" y="316.084375" style="stroke: #000000; stroke-width: 0.8"/>
      </g>
     </g>
     <g id="text_8">
      <!-- 175 -->
      <g transform="translate(356.930752 329.959375) scale(0.1 -0.1)">
       <use xlink:href="#SimHei-31"/>
       <use xlink:href="#SimHei-37" transform="translate(50 0)"/>
       <use xlink:href="#SimHei-35" transform="translate(100 0)"/>
      </g>
     </g>
    </g>
    <g id="xtick_9">
     <g id="line2d_17">
      <path d="M 407.271233 316.084375 
L 407.271233 23.090625 
" clip-path="url(#p431be5a939)" style="fill: none; stroke: #b0b0b0; stroke-width: 0.8; stroke-linecap: square"/>
     </g>
     <g id="line2d_18">
      <g>
       <use xlink:href="#m37e97722cd" x="407.271233" y="316.084375" style="stroke: #000000; stroke-width: 0.8"/>
      </g>
     </g>
     <g id="text_9">
      <!-- 200 -->
      <g transform="translate(399.771233 329.959375) scale(0.1 -0.1)">
       <use xlink:href="#SimHei-32"/>
       <use xlink:href="#SimHei-30" transform="translate(50 0)"/>
       <use xlink:href="#SimHei-30" transform="translate(100 0)"/>
      </g>
     </g>
    </g>
    <g id="text_10">
     <!-- 进化代数 -->
     <g transform="translate(215.0525 343.1) scale(0.1 -0.1)">
      <defs>
       <path id="SimHei-8fdb" d="M 4400 4100 
Q 4400 4600 4375 5200 
L 4900 5200 
Q 4875 4900 4875 4100 
Q 5400 4100 5900 4125 
L 5900 3650 
Q 5400 3675 4875 3675 
L 4875 2575 
Q 5475 2575 6025 2600 
L 6025 2125 
Q 5475 2150 4875 2150 
L 4875 1125 
Q 4875 700 4900 250 
L 4375 250 
Q 4375 700 4400 1125 
L 4400 2150 
L 3450 2150 
Q 3350 1475 3162 1050 
Q 2975 625 2600 200 
Q 2350 400 2125 525 
Q 2600 950 2750 1312 
Q 2900 1675 2975 2150 
Q 2400 2150 1975 2125 
L 1975 2600 
Q 2425 2575 3025 2575 
Q 3075 3150 3075 3675 
Q 2575 3675 2100 3625 
L 2100 4125 
Q 2575 4100 3100 4100 
Q 3100 4675 3075 5200 
Q 3325 5175 3600 5150 
Q 3575 4825 3550 4100 
L 4400 4100 
z
M 1600 3125 
Q 1550 2575 1550 2200 
L 1550 625 
Q 2275 125 3100 37 
Q 3925 -50 4712 -25 
Q 5500 0 6125 100 
Q 6000 -200 5975 -525 
Q 4775 -525 4012 -500 
Q 3250 -475 2612 -312 
Q 1975 -150 1650 37 
Q 1325 225 1087 37 
Q 850 -150 575 -450 
Q 425 -225 200 -50 
Q 800 400 1075 575 
L 1075 2700 
Q 800 2700 375 2650 
L 375 3150 
Q 875 3125 1125 3125 
L 1600 3125 
z
M 4400 2575 
L 4400 3675 
L 3550 3675 
Q 3525 3150 3475 2575 
L 4400 2575 
z
M 1200 5050 
Q 1600 4250 1700 3925 
Q 1425 3875 1200 3725 
Q 1125 4175 700 4850 
L 1200 5050 
z
" transform="scale(0.015625)"/>
       <path id="SimHei-5316" d="M 3925 5025 
Q 3900 4900 3900 4400 
L 3900 2625 
Q 4375 3025 4775 3450 
Q 5175 3875 5400 4300 
Q 5600 4100 5900 3925 
Q 5700 3700 5225 3212 
Q 4750 2725 4487 2512 
Q 4225 2300 3900 2025 
L 3900 450 
Q 3900 50 4225 50 
L 5200 50 
Q 5400 75 5462 262 
Q 5525 450 5575 850 
Q 5800 650 6150 600 
Q 6000 -100 5825 -250 
Q 5650 -400 5350 -400 
L 3950 -400 
Q 3425 -400 3400 200 
L 3400 1675 
Q 3225 1525 2962 1350 
Q 2700 1175 2375 975 
Q 2225 1225 2025 1400 
Q 2350 1550 2737 1787 
Q 3125 2025 3400 2250 
L 3400 4500 
Q 3400 4800 3375 5025 
L 3925 5025 
z
M 2400 4850 
Q 2175 4550 2075 4337 
Q 1975 4125 1825 3775 
L 1825 675 
Q 1825 -75 1850 -550 
L 1325 -550 
Q 1350 -125 1350 650 
L 1350 3050 
Q 1125 2725 962 2525 
Q 800 2325 675 2175 
Q 500 2375 275 2525 
Q 625 2850 875 3212 
Q 1125 3575 1312 3912 
Q 1500 4250 1625 4575 
Q 1750 4900 1825 5100 
Q 1975 4975 2400 4850 
z
" transform="scale(0.015625)"/>
       <path id="SimHei-4ee3" d="M 3300 2950 
Q 3175 4575 3150 5100 
Q 3300 5075 3725 5025 
Q 3675 4725 3800 3050 
Q 5000 3275 5650 3475 
L 5775 3000 
Q 5500 2975 3850 2625 
Q 4150 1050 4737 450 
Q 5325 -150 5412 125 
Q 5500 400 5525 725 
Q 5800 550 6075 500 
Q 5900 -200 5737 -425 
Q 5575 -650 5137 -500 
Q 4700 -350 4187 300 
Q 3675 950 3350 2525 
Q 2400 2325 2175 2250 
L 2025 2725 
Q 2425 2775 3300 2950 
z
M 2250 4975 
Q 2100 4725 1700 3650 
L 1700 475 
Q 1700 -50 1725 -600 
L 1200 -600 
Q 1225 -50 1225 475 
L 1225 2750 
Q 850 2150 600 1850 
Q 450 2050 225 2225 
Q 625 2600 1050 3425 
Q 1475 4250 1675 5200 
Q 2050 5025 2250 4975 
z
M 4700 4875 
Q 5150 4325 5325 4050 
Q 5100 3900 4875 3725 
Q 4650 4150 4300 4575 
Q 4500 4700 4700 4875 
z
" transform="scale(0.015625)"/>
       <path id="SimHei-6570" d="M 4525 4925 
Q 4475 4800 4400 4587 
Q 4325 4375 4175 3825 
L 5325 3825 
Q 5575 3825 5925 3850 
L 5925 3400 
Q 5650 3425 5500 3425 
Q 5500 3025 5362 2162 
Q 5225 1300 4875 675 
Q 5125 375 5437 137 
Q 5750 -100 6025 -200 
Q 5725 -425 5625 -625 
Q 5325 -450 5075 -225 
Q 4825 0 4575 325 
Q 4300 25 3987 -187 
Q 3675 -400 3200 -650 
Q 3075 -425 2850 -300 
Q 3225 -150 3650 125 
Q 4075 400 4300 675 
Q 4125 1025 3962 1425 
Q 3800 1825 3675 2475 
Q 3600 2275 3425 1950 
Q 3250 2050 3000 2150 
Q 3400 2850 3650 3675 
Q 3900 4500 3975 5100 
Q 4275 4975 4525 4925 
z
M 2100 2250 
Q 2000 2150 1875 1925 
L 3250 1925 
Q 3100 1300 2725 675 
Q 3125 525 3350 400 
Q 3225 225 3125 25 
Q 2900 175 2450 325 
Q 1950 -225 725 -650 
Q 600 -375 400 -275 
Q 1575 0 2000 475 
Q 1300 650 850 775 
Q 1000 1000 1250 1525 
Q 1000 1525 425 1500 
L 425 1950 
Q 900 1925 1400 1925 
Q 1500 2150 1550 2425 
Q 1825 2325 2100 2250 
z
M 1775 3950 
Q 1775 4550 1750 5100 
L 2250 5100 
Q 2225 4575 2225 3950 
Q 3075 3950 3425 3975 
L 3425 3525 
Q 3075 3550 2225 3550 
Q 2225 2825 2250 2425 
L 1750 2425 
Q 1775 2775 1775 3300 
Q 1650 3100 1300 2787 
Q 950 2475 650 2300 
Q 525 2525 275 2625 
Q 500 2700 875 2975 
Q 1250 3250 1450 3550 
Q 950 3550 500 3525 
L 500 3975 
Q 925 3950 1775 3950 
z
M 3975 3175 
Q 4200 1700 4600 1125 
Q 4850 1700 4937 2287 
Q 5025 2875 5050 3425 
L 4075 3425 
L 3975 3175 
z
M 1450 1000 
Q 1750 925 2275 800 
Q 2475 1050 2650 1525 
L 1725 1525 
Q 1600 1275 1450 1000 
z
M 3325 4825 
Q 3200 4625 3125 4450 
Q 3050 4275 2925 4025 
Q 2725 4125 2525 4175 
Q 2725 4500 2900 5000 
Q 3150 4875 3325 4825 
z
M 2575 3375 
Q 2900 3050 3200 2725 
Q 3050 2600 2875 2425 
Q 2525 2850 2300 3100 
Q 2450 3225 2575 3375 
z
M 925 5000 
Q 1275 4650 1500 4300 
L 1125 4075 
Q 950 4425 600 4725 
Q 825 4875 925 5000 
z
" transform="scale(0.015625)"/>
      </defs>
      <use xlink:href="#SimHei-8fdb"/>
      <use xlink:href="#SimHei-5316" transform="translate(100 0)"/>
      <use xlink:href="#SimHei-4ee3" transform="translate(200 0)"/>
      <use xlink:href="#SimHei-6570" transform="translate(300 0)"/>
     </g>
    </g>
   </g>
   <g id="matplotlib.axis_2">
    <g id="ytick_1">
     <g id="line2d_19">
      <path d="M 47.496875 302.797437 
L 422.608125 302.797437 
" clip-path="url(#p431be5a939)" style="fill: none; stroke: #b0b0b0; stroke-width: 0.8; stroke-linecap: square"/>
     </g>
     <g id="line2d_20">
      <defs>
       <path id="mb00481a42e" d="M 0 0 
L -3.5 0 
" style="stroke: #000000; stroke-width: 0.8"/>
      </defs>
      <g>
       <use xlink:href="#mb00481a42e" x="47.496875" y="302.797437" style="stroke: #000000; stroke-width: 0.8"/>
      </g>
     </g>
     <g id="text_11">
      <!-- 0 -->
      <g transform="translate(35.496875 306.234937) scale(0.1 -0.1)">
       <use xlink:href="#SimHei-30"/>
      </g>
     </g>
    </g>
    <g id="ytick_2">
     <g id="line2d_21">
      <path d="M 47.496875 253.094558 
L 422.608125 253.094558 
" clip-path="url(#p431be5a939)" style="fill: none; stroke: #b0b0b0; stroke-width: 0.8; stroke-linecap: square"/>
     </g>
     <g id="line2d_22">
      <g>
       <use xlink:href="#mb00481a42e" x="47.496875" y="253.094558" style="stroke: #000000; stroke-width: 0.8"/>
      </g>
     </g>
     <g id="text_12">
      <!-- 200 -->
      <g transform="translate(25.496875 256.532058) scale(0.1 -0.1)">
       <use xlink:href="#SimHei-32"/>
       <use xlink:href="#SimHei-30" transform="translate(50 0)"/>
       <use xlink:href="#SimHei-30" transform="translate(100 0)"/>
      </g>
     </g>
    </g>
    <g id="ytick_3">
     <g id="line2d_23">
      <path d="M 47.496875 203.39168 
L 422.608125 203.39168 
" clip-path="url(#p431be5a939)" style="fill: none; stroke: #b0b0b0; stroke-width: 0.8; stroke-linecap: square"/>
     </g>
     <g id="line2d_24">
      <g>
       <use xlink:href="#mb00481a42e" x="47.496875" y="203.39168" style="stroke: #000000; stroke-width: 0.8"/>
      </g>
     </g>
     <g id="text_13">
      <!-- 400 -->
      <g transform="translate(25.496875 206.82918) scale(0.1 -0.1)">
       <defs>
        <path id="SimHei-34" d="M 2000 1100 
L 75 1100 
L 75 1525 
L 2100 4450 
L 2475 4450 
L 2475 1525 
L 3075 1525 
L 3075 1100 
L 2475 1100 
L 2475 150 
L 2000 150 
L 2000 1100 
z
M 2000 1525 
L 2000 3500 
L 600 1525 
L 2000 1525 
z
" transform="scale(0.015625)"/>
       </defs>
       <use xlink:href="#SimHei-34"/>
       <use xlink:href="#SimHei-30" transform="translate(50 0)"/>
       <use xlink:href="#SimHei-30" transform="translate(100 0)"/>
      </g>
     </g>
    </g>
    <g id="ytick_4">
     <g id="line2d_25">
      <path d="M 47.496875 153.688801 
L 422.608125 153.688801 
" clip-path="url(#p431be5a939)" style="fill: none; stroke: #b0b0b0; stroke-width: 0.8; stroke-linecap: square"/>
     </g>
     <g id="line2d_26">
      <g>
       <use xlink:href="#mb00481a42e" x="47.496875" y="153.688801" style="stroke: #000000; stroke-width: 0.8"/>
      </g>
     </g>
     <g id="text_14">
      <!-- 600 -->
      <g transform="translate(25.496875 157.126301) scale(0.1 -0.1)">
       <defs>
        <path id="SimHei-36" d="M 250 1612 
Q 275 1975 387 2225 
Q 500 2475 725 2850 
L 1750 4450 
L 2325 4450 
L 1275 2800 
Q 1950 2975 2350 2750 
Q 2750 2525 2887 2237 
Q 3025 1950 3037 1612 
Q 3050 1275 2937 950 
Q 2825 625 2537 362 
Q 2250 100 1737 75 
Q 1225 50 862 262 
Q 500 475 362 862 
Q 225 1250 250 1612 
z
M 1025 787 
Q 1250 550 1625 525 
Q 2000 500 2250 775 
Q 2500 1050 2500 1575 
Q 2500 2100 2187 2300 
Q 1875 2500 1487 2450 
Q 1100 2400 925 2075 
Q 750 1750 775 1387 
Q 800 1025 1025 787 
z
" transform="scale(0.015625)"/>
       </defs>
       <use xlink:href="#SimHei-36"/>
       <use xlink:href="#SimHei-30" transform="translate(50 0)"/>
       <use xlink:href="#SimHei-30" transform="translate(100 0)"/>
      </g>
     </g>
    </g>
    <g id="ytick_5">
     <g id="line2d_27">
      <path d="M 47.496875 103.985923 
L 422.608125 103.985923 
" clip-path="url(#p431be5a939)" style="fill: none; stroke: #b0b0b0; stroke-width: 0.8; stroke-linecap: square"/>
     </g>
     <g id="line2d_28">
      <g>
       <use xlink:href="#mb00481a42e" x="47.496875" y="103.985923" style="stroke: #000000; stroke-width: 0.8"/>
      </g>
     </g>
     <g id="text_15">
      <!-- 800 -->
      <g transform="translate(25.496875 107.423423) scale(0.1 -0.1)">
       <defs>
        <path id="SimHei-38" d="M 175 1375 
Q 175 1675 325 1962 
Q 475 2250 825 2425 
Q 525 2600 425 2812 
Q 325 3025 312 3300 
Q 300 3575 387 3775 
Q 475 3975 650 4150 
Q 825 4325 1037 4387 
Q 1250 4450 1500 4450 
Q 1750 4450 1950 4400 
Q 2150 4350 2375 4187 
Q 2600 4025 2700 3725 
Q 2800 3425 2687 3025 
Q 2575 2625 2100 2400 
Q 2525 2275 2700 2012 
Q 2875 1750 2875 1375 
Q 2875 1000 2762 775 
Q 2650 550 2512 400 
Q 2375 250 2137 162 
Q 1900 75 1537 75 
Q 1175 75 912 162 
Q 650 250 475 425 
Q 300 600 237 837 
Q 175 1075 175 1375 
z
M 687 1400 
Q 675 1100 787 875 
Q 900 650 1200 587 
Q 1500 525 1825 600 
Q 2150 675 2275 950 
Q 2400 1225 2362 1500 
Q 2325 1775 2050 1962 
Q 1775 2150 1450 2125 
Q 1125 2100 912 1900 
Q 700 1700 687 1400 
z
M 775 3350 
Q 775 3100 950 2875 
Q 1125 2650 1500 2650 
Q 1875 2650 2062 2875 
Q 2250 3100 2237 3412 
Q 2225 3725 2012 3875 
Q 1800 4025 1437 4000 
Q 1075 3975 925 3787 
Q 775 3600 775 3350 
z
" transform="scale(0.015625)"/>
       </defs>
       <use xlink:href="#SimHei-38"/>
       <use xlink:href="#SimHei-30" transform="translate(50 0)"/>
       <use xlink:href="#SimHei-30" transform="translate(100 0)"/>
      </g>
     </g>
    </g>
    <g id="ytick_6">
     <g id="line2d_29">
      <path d="M 47.496875 54.283044 
L 422.608125 54.283044 
" clip-path="url(#p431be5a939)" style="fill: none; stroke: #b0b0b0; stroke-width: 0.8; stroke-linecap: square"/>
     </g>
     <g id="line2d_30">
      <g>
       <use xlink:href="#mb00481a42e" x="47.496875" y="54.283044" style="stroke: #000000; stroke-width: 0.8"/>
      </g>
     </g>
     <g id="text_16">
      <!-- 1000 -->
      <g transform="translate(20.496875 57.720544) scale(0.1 -0.1)">
       <use xlink:href="#SimHei-31"/>
       <use xlink:href="#SimHei-30" transform="translate(50 0)"/>
       <use xlink:href="#SimHei-30" transform="translate(100 0)"/>
       <use xlink:href="#SimHei-30" transform="translate(150 0)"/>
      </g>
     </g>
    </g>
    <g id="text_17">
     <!-- 适应度 -->
     <g transform="translate(15.246875 184.5875) rotate(-90) scale(0.1 -0.1)">
      <defs>
       <path id="SimHei-9002" d="M 5500 4625 
Q 5175 4625 4125 4525 
L 4125 3600 
Q 5450 3600 5850 3625 
L 5850 3175 
Q 5450 3200 4125 3200 
L 4125 2475 
L 5425 2475 
Q 5400 1850 5400 1475 
Q 5400 1100 5425 450 
L 4950 450 
L 4950 750 
L 2900 750 
L 2900 425 
L 2425 425 
Q 2450 1050 2450 1450 
Q 2450 1850 2425 2475 
L 3675 2475 
L 3675 3200 
Q 2375 3200 1975 3175 
L 1975 3625 
Q 2300 3600 3675 3600 
L 3675 4475 
Q 3375 4450 2475 4350 
Q 2425 4575 2250 4775 
Q 3075 4775 3875 4875 
Q 4675 4975 5250 5125 
Q 5300 4950 5500 4625 
z
M 1625 2850 
Q 1600 2400 1600 1925 
L 1600 625 
Q 2250 75 3625 12 
Q 5000 -50 6025 150 
Q 5875 -125 5775 -450 
L 4100 -450 
Q 3475 -450 2937 -375 
Q 2400 -300 1912 -37 
Q 1425 225 1212 -12 
Q 1000 -250 775 -550 
Q 525 -350 325 -250 
Q 875 275 1150 475 
L 1150 2450 
Q 750 2450 400 2425 
L 400 2875 
Q 775 2850 1100 2850 
L 1625 2850 
z
M 4950 1150 
L 4950 2075 
L 2900 2075 
L 2900 1150 
L 4950 1150 
z
M 1025 4850 
Q 1450 4400 1775 3925 
Q 1475 3750 1375 3625 
Q 1100 4075 650 4550 
Q 875 4675 1025 4850 
z
" transform="scale(0.015625)"/>
       <path id="SimHei-5e94" d="M 3525 5275 
Q 3700 4825 3850 4400 
L 4750 4400 
Q 5275 4400 5850 4425 
L 5850 3975 
Q 5275 4000 4750 4000 
L 1475 4000 
Q 1475 2525 1425 1900 
Q 1375 1275 1237 625 
Q 1100 -25 750 -625 
Q 575 -400 300 -250 
Q 625 175 800 937 
Q 975 1700 1000 2575 
Q 1025 3450 1000 4400 
L 3250 4400 
Q 3175 4750 3000 5100 
Q 3250 5150 3525 5275 
z
M 5625 3125 
Q 5375 2575 5187 2050 
Q 5000 1525 4450 225 
L 5150 225 
Q 5500 225 5925 250 
L 5925 -275 
Q 5500 -250 5150 -250 
L 2475 -250 
Q 2050 -250 1450 -275 
L 1450 250 
Q 2025 225 2475 225 
L 3950 225 
Q 4325 1000 4612 1850 
Q 4900 2700 5025 3350 
Q 5350 3175 5625 3125 
z
M 2100 2850 
Q 2750 1825 3075 1050 
Q 2900 950 2650 800 
Q 2150 1925 1700 2575 
Q 1925 2750 2100 2850 
z
M 3300 3425 
Q 3800 2550 4175 1700 
Q 3950 1575 3700 1450 
Q 3400 2300 2900 3200 
Q 3100 3275 3300 3425 
z
" transform="scale(0.015625)"/>
       <path id="SimHei-5ea6" d="M 1750 1675 
Q 2450 1650 2875 1650 
L 5200 1650 
Q 4975 1250 4650 850 
Q 4325 450 4025 200 
Q 4350 50 4950 -50 
Q 5550 -150 6100 -150 
Q 5950 -300 5825 -650 
Q 5100 -550 4550 -412 
Q 4000 -275 3625 -100 
Q 3100 -325 2587 -462 
Q 2075 -600 1525 -675 
Q 1450 -475 1225 -250 
Q 1675 -250 2250 -125 
Q 2825 0 3250 200 
Q 2825 550 2400 1275 
L 1750 1250 
L 1750 1675 
z
M 2975 5075 
Q 3250 5150 3475 5250 
Q 3625 4975 3775 4525 
L 4700 4525 
Q 4975 4525 5700 4550 
L 5700 4100 
Q 5000 4125 4650 4125 
L 1375 4125 
Q 1375 3000 1350 2312 
Q 1325 1625 1212 950 
Q 1100 275 725 -525 
Q 500 -375 250 -300 
Q 650 400 762 1075 
Q 875 1750 887 2800 
Q 900 3850 875 4525 
L 3200 4525 
Q 3100 4850 2975 5075 
z
M 2475 3300 
Q 2475 3700 2450 3925 
L 2975 3925 
Q 2950 3725 2950 3300 
L 4300 3300 
Q 4300 3700 4275 3950 
L 4800 3950 
Q 4775 3650 4775 3300 
Q 5325 3300 5725 3325 
L 5725 2900 
Q 5350 2925 4775 2925 
Q 4775 2250 4800 1950 
L 2450 1950 
Q 2475 2350 2475 2925 
Q 2175 2925 1600 2900 
L 1600 3325 
Q 2175 3300 2475 3300 
z
M 4300 2350 
L 4300 2925 
L 2950 2925 
L 2950 2350 
L 4300 2350 
z
M 2875 1275 
Q 3200 775 3650 425 
Q 4025 700 4425 1275 
L 2900 1275 
L 2875 1275 
z
" transform="scale(0.015625)"/>
      </defs>
      <use xlink:href="#SimHei-9002"/>
      <use xlink:href="#SimHei-5e94" transform="translate(100 0)"/>
      <use xlink:href="#SimHei-5ea6" transform="translate(200 0)"/>
     </g>
    </g>
   </g>
   <g id="line2d_31">
    <path d="M 64.547386 302.766477 
L 66.261006 302.608432 
L 67.974625 298.782071 
L 69.688244 298.782071 
L 71.401863 296.118022 
L 74.829102 296.118022 
L 76.542721 298.782071 
L 88.538056 298.782071 
L 90.251675 297.577749 
L 91.965294 297.577749 
L 93.678913 295.118754 
L 97.106152 295.118754 
L 98.819771 273.652219 
L 184.500733 273.652219 
L 186.214352 241.139979 
L 187.927971 241.139979 
L 189.64159 273.652219 
L 273.608933 273.652219 
L 275.322552 186.359123 
L 343.867321 186.359123 
L 345.58094 89.998324 
L 349.008179 186.359123 
L 352.435417 186.359123 
L 354.149037 36.408523 
L 405.557614 36.408523 
L 405.557614 36.408523 
" clip-path="url(#p431be5a939)" style="fill: none; stroke: #1f77b4; stroke-width: 1.5; stroke-linecap: square"/>
   </g>
   <g id="patch_3">
    <path d="M 47.496875 316.084375 
L 47.496875 23.090625 
" style="fill: none; stroke: #000000; stroke-width: 0.8; stroke-linejoin: miter; stroke-linecap: square"/>
   </g>
   <g id="patch_4">
    <path d="M 422.608125 316.084375 
L 422.608125 23.090625 
" style="fill: none; stroke: #000000; stroke-width: 0.8; stroke-linejoin: miter; stroke-linecap: square"/>
   </g>
   <g id="patch_5">
    <path d="M 47.496875 316.084375 
L 422.608125 316.084375 
" style="fill: none; stroke: #000000; stroke-width: 0.8; stroke-linejoin: miter; stroke-linecap: square"/>
   </g>
   <g id="patch_6">
    <path d="M 47.496875 23.090625 
L 422.608125 23.090625 
" style="fill: none; stroke: #000000; stroke-width: 0.8; stroke-linejoin: miter; stroke-linecap: square"/>
   </g>
   <g id="text_18">
    <!-- 日间照明模式优化历史 -->
    <g transform="translate(175.0525 17.090625) scale(0.12 -0.12)">
     <defs>
      <path id="SimHei-65e5" d="M 5375 5000 
Q 5350 3775 5350 2275 
Q 5350 775 5375 -450 
L 4800 -450 
L 4800 175 
L 1800 175 
L 1800 -575 
L 1250 -575 
Q 1275 575 1275 2125 
Q 1275 3675 1250 5000 
L 5375 5000 
z
M 4800 600 
L 4800 2375 
L 1800 2375 
L 1800 600 
L 4800 600 
z
M 4800 2800 
L 4800 4550 
L 1800 4550 
L 1800 2800 
L 4800 2800 
z
" transform="scale(0.015625)"/>
      <path id="SimHei-95f4" d="M 4450 3550 
Q 4425 3075 4425 2725 
L 4425 1400 
Q 4425 1075 4450 625 
L 1925 625 
Q 1950 1075 1950 1425 
L 1950 2725 
Q 1950 3075 1925 3550 
L 4450 3550 
z
M 5800 4875 
Q 5775 4400 5775 3925 
L 5775 250 
Q 5800 -325 5462 -450 
Q 5125 -575 4725 -625 
Q 4700 -325 4525 -25 
Q 5000 -50 5137 25 
Q 5275 100 5275 350 
L 5275 4450 
L 3775 4450 
Q 3175 4450 2650 4425 
L 2650 4900 
Q 3175 4875 3775 4875 
L 5800 4875 
z
M 550 -525 
Q 600 -25 600 525 
L 600 3150 
Q 600 3675 550 4025 
L 1125 4025 
Q 1100 3650 1100 3300 
L 1100 500 
Q 1100 0 1125 -525 
L 550 -525 
z
M 3950 1025 
L 3950 1950 
L 2425 1950 
L 2425 1025 
L 3950 1025 
z
M 3950 2350 
L 3950 3150 
L 2425 3150 
L 2425 2350 
L 3950 2350 
z
M 1525 5300 
Q 1750 5000 2225 4350 
Q 1950 4225 1700 4075 
Q 1450 4575 1075 5025 
Q 1350 5225 1525 5300 
z
" transform="scale(0.015625)"/>
      <path id="SimHei-7167" d="M 2525 4900 
Q 2500 4000 2500 2950 
Q 2500 1925 2525 1175 
L 675 1175 
Q 700 1900 700 2950 
Q 700 4000 675 4900 
L 2525 4900 
z
M 5675 2650 
Q 5650 2350 5650 1900 
Q 5650 1475 5675 1075 
L 3175 1075 
Q 3200 1500 3200 1900 
Q 3200 2300 3175 2650 
L 5675 2650 
z
M 4625 2775 
Q 4600 3025 4400 3275 
Q 4775 3275 4925 3300 
Q 5075 3325 5100 3525 
L 5175 4600 
L 4275 4600 
Q 4175 3875 3862 3425 
Q 3550 2975 3100 2650 
Q 2850 2900 2675 2975 
Q 3125 3225 3425 3625 
Q 3725 4025 3775 4600 
Q 3325 4600 2875 4575 
L 2875 5000 
Q 3275 4975 3675 4975 
L 5725 4975 
Q 5675 4675 5637 4037 
Q 5600 3400 5525 3162 
Q 5450 2925 5237 2875 
Q 5025 2825 4625 2775 
z
M 5175 1475 
L 5175 2300 
L 3675 2300 
L 3675 1475 
L 5175 1475 
z
M 2025 3200 
L 2025 4500 
L 1175 4500 
L 1175 3200 
L 2025 3200 
z
M 2025 1575 
L 2025 2825 
L 1175 2825 
L 1175 1575 
L 2025 1575 
z
M 1375 625 
Q 1025 -250 800 -650 
Q 575 -500 325 -450 
Q 575 -100 875 825 
Q 1100 700 1375 625 
z
M 5575 -625 
Q 5400 -200 4950 650 
Q 5100 725 5375 850 
Q 5825 0 6025 -400 
Q 5775 -500 5575 -625 
z
M 2550 725 
Q 2800 -175 2850 -475 
Q 2600 -475 2375 -575 
Q 2325 -300 2050 600 
Q 2275 650 2550 725 
z
M 4425 -425 
Q 4175 -475 3925 -550 
Q 3825 -125 3575 600 
Q 3725 650 4050 750 
Q 4325 -75 4425 -425 
z
" transform="scale(0.015625)"/>
      <path id="SimHei-660e" d="M 5775 4975 
Q 5750 4500 5750 3875 
L 5750 275 
Q 5775 -200 5587 -337 
Q 5400 -475 4750 -575 
Q 4700 -300 4500 25 
Q 4925 0 5100 37 
Q 5275 75 5250 300 
L 5250 1625 
L 3775 1625 
Q 3625 325 2925 -700 
Q 2675 -475 2400 -375 
Q 3375 600 3300 2800 
L 3300 3850 
Q 3300 4450 3275 4975 
L 5775 4975 
z
M 2575 4775 
Q 2550 4250 2550 3650 
L 2550 1850 
Q 2550 1250 2575 775 
L 2100 775 
L 2100 1150 
L 1050 1150 
L 1050 450 
L 550 450 
Q 575 875 575 1550 
L 575 3675 
Q 575 4275 550 4775 
L 2575 4775 
z
M 5250 3500 
L 5250 4550 
L 3800 4550 
L 3800 3500 
L 5250 3500 
z
M 5250 2050 
L 5250 3075 
L 3800 3075 
L 3800 2050 
L 5250 2050 
z
M 2100 1600 
L 2100 2825 
L 1050 2825 
L 1050 1600 
L 2100 1600 
z
M 2100 3225 
L 2100 4350 
L 1050 4350 
L 1050 3225 
L 2100 3225 
z
" transform="scale(0.015625)"/>
      <path id="SimHei-6a21" d="M 5700 3675 
Q 5675 3400 5675 2725 
Q 5675 2050 5700 1725 
L 4375 1725 
Q 4350 1450 4325 1200 
L 5225 1200 
Q 5750 1200 6025 1225 
L 6025 825 
Q 5725 850 5225 850 
L 4700 850 
Q 5075 375 5437 137 
Q 5800 -100 6200 -200 
Q 5975 -375 5850 -625 
Q 5275 -400 4862 25 
Q 4450 450 4300 775 
L 4225 775 
Q 4000 275 3537 -62 
Q 3075 -400 2475 -625 
Q 2350 -375 2125 -200 
Q 2775 -75 3200 200 
Q 3625 475 3775 850 
L 3325 850 
Q 2800 850 2400 825 
L 2400 1225 
Q 2800 1200 3350 1200 
L 3875 1200 
Q 3925 1475 3925 1725 
L 2750 1725 
Q 2775 2075 2775 2700 
Q 2775 3350 2750 3675 
L 5700 3675 
z
M 2175 1650 
Q 2025 1975 1675 2525 
L 1675 300 
Q 1675 -300 1700 -550 
L 1175 -550 
Q 1200 -275 1200 250 
L 1200 2225 
Q 1125 2000 962 1712 
Q 800 1425 600 1050 
Q 450 1275 200 1425 
Q 600 1825 850 2425 
Q 1100 3025 1175 3425 
L 950 3425 
Q 700 3425 400 3400 
L 400 3825 
Q 675 3800 825 3800 
L 1200 3800 
L 1200 4350 
Q 1200 4775 1175 5150 
L 1700 5150 
Q 1675 4825 1675 4425 
L 1675 3800 
Q 2075 3800 2375 3825 
L 2375 3400 
Q 2050 3425 1675 3425 
L 1675 2575 
Q 1850 2675 2000 2775 
Q 2150 2525 2287 2325 
Q 2425 2125 2550 1925 
Q 2325 1775 2175 1650 
z
M 3375 4300 
L 3175 4300 
Q 2700 4300 2425 4275 
L 2425 4675 
Q 2700 4650 3150 4650 
L 3375 4650 
Q 3375 5000 3350 5225 
L 3825 5225 
Q 3800 5000 3800 4650 
L 4550 4650 
Q 4550 4975 4525 5200 
L 5025 5200 
Q 5000 4925 5000 4650 
L 5375 4650 
Q 5650 4650 5950 4675 
L 5950 4275 
Q 5650 4300 5375 4300 
L 5000 4300 
L 5000 3850 
L 4550 3850 
L 4550 4300 
L 3800 4300 
L 3800 3875 
L 3375 3875 
L 3375 4300 
z
M 5275 2075 
L 5275 2525 
L 3200 2525 
L 3200 2075 
L 5275 2075 
z
M 5275 2875 
L 5275 3325 
L 3200 3325 
L 3200 2875 
L 5275 2875 
z
" transform="scale(0.015625)"/>
      <path id="SimHei-5f0f" d="M 3300 3900 
Q 3250 4775 3225 5225 
Q 3375 5200 3875 5175 
Q 3825 5000 3850 3900 
L 4850 3900 
Q 5325 3900 5825 3925 
L 5825 3425 
Q 5375 3450 4875 3450 
L 3875 3450 
Q 3950 2800 4087 2237 
Q 4225 1675 4450 1175 
Q 4675 675 5037 287 
Q 5400 -100 5475 250 
Q 5550 600 5525 950 
Q 5750 775 6150 625 
Q 5975 -450 5637 -525 
Q 5300 -600 4962 -362 
Q 4625 -125 4325 325 
Q 4025 775 3837 1312 
Q 3650 1850 3525 2425 
Q 3400 3000 3350 3450 
L 1525 3450 
Q 800 3450 350 3425 
L 350 3925 
Q 825 3900 1500 3900 
L 3300 3900 
z
M 2250 2575 
Q 2725 2575 3150 2600 
L 3150 2125 
Q 2700 2150 2200 2150 
L 2200 575 
Q 2725 700 3400 875 
L 3400 425 
Q 2500 250 1975 87 
Q 1450 -75 700 -375 
L 450 225 
Q 750 250 1700 450 
L 1700 2150 
Q 975 2150 700 2125 
L 700 2600 
Q 975 2575 1475 2575 
L 2250 2575 
z
M 4700 5075 
Q 5175 4550 5375 4300 
Q 5250 4250 4900 4000 
Q 4725 4300 4275 4750 
Q 4400 4850 4700 5075 
z
" transform="scale(0.015625)"/>
      <path id="SimHei-4f18" d="M 4650 350 
Q 4625 100 4825 50 
Q 5025 0 5200 12 
Q 5375 25 5462 125 
Q 5550 225 5650 800 
Q 5825 625 6200 525 
Q 6050 -25 5912 -200 
Q 5775 -375 5475 -400 
L 4700 -400 
Q 4175 -400 4175 200 
L 4175 3050 
L 3850 3050 
Q 3725 600 2375 -550 
Q 2200 -325 1875 -225 
Q 3175 675 3350 3050 
L 2900 3050 
Q 2350 3050 1975 3025 
L 1975 3475 
Q 2350 3450 2900 3450 
L 3375 3450 
Q 3375 4700 3350 5150 
Q 3525 5100 3925 5075 
Q 3850 4700 3850 3450 
L 5200 3450 
Q 5475 3450 5925 3475 
L 5925 3025 
Q 5500 3050 5225 3050 
L 4650 3050 
L 4650 350 
z
M 200 2375 
Q 525 2700 1000 3612 
Q 1475 4525 1600 5200 
Q 1850 5050 2225 4925 
Q 2000 4700 1700 3825 
L 1700 600 
Q 1700 -150 1725 -525 
L 1200 -525 
Q 1225 -175 1225 575 
L 1225 2975 
Q 900 2425 550 1975 
Q 425 2200 200 2375 
z
M 4850 5025 
Q 5000 4800 5150 4587 
Q 5300 4375 5450 4200 
Q 5250 4075 5025 3875 
Q 4875 4175 4450 4725 
Q 4625 4850 4850 5025 
z
" transform="scale(0.015625)"/>
      <path id="SimHei-5386" d="M 3725 2500 
Q 3625 1775 3487 1337 
Q 3350 900 3150 562 
Q 2950 225 2687 -62 
Q 2425 -350 2075 -625 
Q 1825 -350 1500 -225 
Q 2075 75 2387 412 
Q 2700 750 2875 1125 
Q 3050 1500 3112 1787 
Q 3175 2075 3225 2500 
L 2725 2500 
Q 2125 2500 1900 2475 
L 1900 2950 
Q 2375 2925 2675 2925 
L 3250 2925 
Q 3275 3250 3275 3550 
L 3275 4275 
Q 3625 4175 3900 4150 
Q 3825 3775 3800 3512 
Q 3775 3250 3750 2925 
L 5650 2925 
Q 5600 2550 5550 1850 
Q 5500 1150 5475 687 
Q 5450 225 5375 -50 
Q 5300 -325 4987 -412 
Q 4675 -500 4300 -550 
Q 4225 -250 4050 100 
Q 4575 75 4725 125 
Q 4875 175 4912 562 
Q 4950 950 5000 1475 
Q 5050 2000 5075 2500 
L 3725 2500 
z
M 800 -675 
Q 550 -500 225 -400 
Q 525 0 662 412 
Q 800 825 900 1412 
Q 1000 2000 1000 2725 
L 1000 3950 
Q 1000 4450 950 4825 
L 4825 4825 
Q 5375 4825 5675 4850 
L 5675 4375 
Q 5425 4400 5000 4400 
L 1500 4400 
Q 1500 2800 1487 2287 
Q 1475 1775 1412 1275 
Q 1350 775 1262 450 
Q 1175 125 1062 -162 
Q 950 -450 800 -675 
z
" transform="scale(0.015625)"/>
      <path id="SimHei-53f2" d="M 3000 4225 
Q 3000 4975 2950 5250 
Q 3350 5200 3625 5175 
Q 3525 4950 3525 4225 
L 5500 4225 
Q 5475 3775 5475 3175 
Q 5475 2600 5500 2150 
L 3500 2150 
Q 3450 1750 3362 1362 
Q 3275 975 3125 700 
Q 3450 450 3875 325 
Q 4300 200 4750 150 
Q 5200 100 6175 125 
Q 5900 -125 5850 -425 
Q 5175 -425 4700 -350 
Q 4225 -275 3787 -150 
Q 3350 -25 2775 325 
Q 2100 -150 1562 -325 
Q 1025 -500 650 -575 
Q 525 -250 275 -75 
Q 750 -50 1350 125 
Q 1950 300 2325 575 
Q 1575 1250 1225 1800 
Q 1525 1825 1750 1950 
Q 2275 1300 2675 975 
Q 2825 1275 2887 1562 
Q 2950 1850 2975 2150 
L 900 2150 
Q 925 2600 925 3175 
Q 925 3775 900 4225 
L 3000 4225 
z
M 3000 2575 
L 3000 3800 
L 1450 3800 
L 1450 2575 
L 3000 2575 
z
M 4950 2575 
L 4950 3800 
L 3525 3800 
L 3525 2575 
L 4950 2575 
z
" transform="scale(0.015625)"/>
     </defs>
     <use xlink:href="#SimHei-65e5"/>
     <use xlink:href="#SimHei-95f4" transform="translate(100 0)"/>
     <use xlink:href="#SimHei-7167" transform="translate(200 0)"/>
     <use xlink:href="#SimHei-660e" transform="translate(300 0)"/>
     <use xlink:href="#SimHei-6a21" transform="translate(400 0)"/>
     <use xlink:href="#SimHei-5f0f" transform="translate(500 0)"/>
     <use xlink:href="#SimHei-4f18" transform="translate(600 0)"/>
     <use xlink:href="#SimHei-5316" transform="translate(700 0)"/>
     <use xlink:href="#SimHei-5386" transform="translate(800 0)"/>
     <use xlink:href="#SimHei-53f2" transform="translate(900 0)"/>
    </g>
   </g>
  </g>
  <g id="axes_2">
   <g id="patch_7">
    <path d="M 474.096875 316.084375 
L 849.208125 316.084375 
L 849.208125 23.090625 
L 474.096875 23.090625 
z
" style="fill: #ffffff"/>
   </g>
   <g id="matplotlib.axis_3">
    <g id="xtick_10">
     <g id="line2d_32">
      <path d="M 491.147386 316.084375 
L 491.147386 23.090625 
" clip-path="url(#pd6cef31775)" style="fill: none; stroke: #b0b0b0; stroke-width: 0.8; stroke-linecap: square"/>
     </g>
     <g id="line2d_33">
      <g>
       <use xlink:href="#m37e97722cd" x="491.147386" y="316.084375" style="stroke: #000000; stroke-width: 0.8"/>
      </g>
     </g>
     <g id="text_19">
      <!-- 0 -->
      <g transform="translate(488.647386 329.959375) scale(0.1 -0.1)">
       <use xlink:href="#SimHei-30"/>
      </g>
     </g>
    </g>
    <g id="xtick_11">
     <g id="line2d_34">
      <path d="M 533.987867 316.084375 
L 533.987867 23.090625 
" clip-path="url(#pd6cef31775)" style="fill: none; stroke: #b0b0b0; stroke-width: 0.8; stroke-linecap: square"/>
     </g>
     <g id="line2d_35">
      <g>
       <use xlink:href="#m37e97722cd" x="533.987867" y="316.084375" style="stroke: #000000; stroke-width: 0.8"/>
      </g>
     </g>
     <g id="text_20">
      <!-- 25 -->
      <g transform="translate(528.987867 329.959375) scale(0.1 -0.1)">
       <use xlink:href="#SimHei-32"/>
       <use xlink:href="#SimHei-35" transform="translate(50 0)"/>
      </g>
     </g>
    </g>
    <g id="xtick_12">
     <g id="line2d_36">
      <path d="M 576.828348 316.084375 
L 576.828348 23.090625 
" clip-path="url(#pd6cef31775)" style="fill: none; stroke: #b0b0b0; stroke-width: 0.8; stroke-linecap: square"/>
     </g>
     <g id="line2d_37">
      <g>
       <use xlink:href="#m37e97722cd" x="576.828348" y="316.084375" style="stroke: #000000; stroke-width: 0.8"/>
      </g>
     </g>
     <g id="text_21">
      <!-- 50 -->
      <g transform="translate(571.828348 329.959375) scale(0.1 -0.1)">
       <use xlink:href="#SimHei-35"/>
       <use xlink:href="#SimHei-30" transform="translate(50 0)"/>
      </g>
     </g>
    </g>
    <g id="xtick_13">
     <g id="line2d_38">
      <path d="M 619.668829 316.084375 
L 619.668829 23.090625 
" clip-path="url(#pd6cef31775)" style="fill: none; stroke: #b0b0b0; stroke-width: 0.8; stroke-linecap: square"/>
     </g>
     <g id="line2d_39">
      <g>
       <use xlink:href="#m37e97722cd" x="619.668829" y="316.084375" style="stroke: #000000; stroke-width: 0.8"/>
      </g>
     </g>
     <g id="text_22">
      <!-- 75 -->
      <g transform="translate(614.668829 329.959375) scale(0.1 -0.1)">
       <use xlink:href="#SimHei-37"/>
       <use xlink:href="#SimHei-35" transform="translate(50 0)"/>
      </g>
     </g>
    </g>
    <g id="xtick_14">
     <g id="line2d_40">
      <path d="M 662.50931 316.084375 
L 662.50931 23.090625 
" clip-path="url(#pd6cef31775)" style="fill: none; stroke: #b0b0b0; stroke-width: 0.8; stroke-linecap: square"/>
     </g>
     <g id="line2d_41">
      <g>
       <use xlink:href="#m37e97722cd" x="662.50931" y="316.084375" style="stroke: #000000; stroke-width: 0.8"/>
      </g>
     </g>
     <g id="text_23">
      <!-- 100 -->
      <g transform="translate(655.00931 329.959375) scale(0.1 -0.1)">
       <use xlink:href="#SimHei-31"/>
       <use xlink:href="#SimHei-30" transform="translate(50 0)"/>
       <use xlink:href="#SimHei-30" transform="translate(100 0)"/>
      </g>
     </g>
    </g>
    <g id="xtick_15">
     <g id="line2d_42">
      <path d="M 705.34979 316.084375 
L 705.34979 23.090625 
" clip-path="url(#pd6cef31775)" style="fill: none; stroke: #b0b0b0; stroke-width: 0.8; stroke-linecap: square"/>
     </g>
     <g id="line2d_43">
      <g>
       <use xlink:href="#m37e97722cd" x="705.34979" y="316.084375" style="stroke: #000000; stroke-width: 0.8"/>
      </g>
     </g>
     <g id="text_24">
      <!-- 125 -->
      <g transform="translate(697.84979 329.959375) scale(0.1 -0.1)">
       <use xlink:href="#SimHei-31"/>
       <use xlink:href="#SimHei-32" transform="translate(50 0)"/>
       <use xlink:href="#SimHei-35" transform="translate(100 0)"/>
      </g>
     </g>
    </g>
    <g id="xtick_16">
     <g id="line2d_44">
      <path d="M 748.190271 316.084375 
L 748.190271 23.090625 
" clip-path="url(#pd6cef31775)" style="fill: none; stroke: #b0b0b0; stroke-width: 0.8; stroke-linecap: square"/>
     </g>
     <g id="line2d_45">
      <g>
       <use xlink:href="#m37e97722cd" x="748.190271" y="316.084375" style="stroke: #000000; stroke-width: 0.8"/>
      </g>
     </g>
     <g id="text_25">
      <!-- 150 -->
      <g transform="translate(740.690271 329.959375) scale(0.1 -0.1)">
       <use xlink:href="#SimHei-31"/>
       <use xlink:href="#SimHei-35" transform="translate(50 0)"/>
       <use xlink:href="#SimHei-30" transform="translate(100 0)"/>
      </g>
     </g>
    </g>
    <g id="xtick_17">
     <g id="line2d_46">
      <path d="M 791.030752 316.084375 
L 791.030752 23.090625 
" clip-path="url(#pd6cef31775)" style="fill: none; stroke: #b0b0b0; stroke-width: 0.8; stroke-linecap: square"/>
     </g>
     <g id="line2d_47">
      <g>
       <use xlink:href="#m37e97722cd" x="791.030752" y="316.084375" style="stroke: #000000; stroke-width: 0.8"/>
      </g>
     </g>
     <g id="text_26">
      <!-- 175 -->
      <g transform="translate(783.530752 329.959375) scale(0.1 -0.1)">
       <use xlink:href="#SimHei-31"/>
       <use xlink:href="#SimHei-37" transform="translate(50 0)"/>
       <use xlink:href="#SimHei-35" transform="translate(100 0)"/>
      </g>
     </g>
    </g>
    <g id="xtick_18">
     <g id="line2d_48">
      <path d="M 833.871233 316.084375 
L 833.871233 23.090625 
" clip-path="url(#pd6cef31775)" style="fill: none; stroke: #b0b0b0; stroke-width: 0.8; stroke-linecap: square"/>
     </g>
     <g id="line2d_49">
      <g>
       <use xlink:href="#m37e97722cd" x="833.871233" y="316.084375" style="stroke: #000000; stroke-width: 0.8"/>
      </g>
     </g>
     <g id="text_27">
      <!-- 200 -->
      <g transform="translate(826.371233 329.959375) scale(0.1 -0.1)">
       <use xlink:href="#SimHei-32"/>
       <use xlink:href="#SimHei-30" transform="translate(50 0)"/>
       <use xlink:href="#SimHei-30" transform="translate(100 0)"/>
      </g>
     </g>
    </g>
    <g id="text_28">
     <!-- 进化代数 -->
     <g transform="translate(641.6525 343.1) scale(0.1 -0.1)">
      <use xlink:href="#SimHei-8fdb"/>
      <use xlink:href="#SimHei-5316" transform="translate(100 0)"/>
      <use xlink:href="#SimHei-4ee3" transform="translate(200 0)"/>
      <use xlink:href="#SimHei-6570" transform="translate(300 0)"/>
     </g>
    </g>
   </g>
   <g id="matplotlib.axis_4">
    <g id="ytick_7">
     <g id="line2d_50">
      <path d="M 474.096875 305.346757 
L 849.208125 305.346757 
" clip-path="url(#pd6cef31775)" style="fill: none; stroke: #b0b0b0; stroke-width: 0.8; stroke-linecap: square"/>
     </g>
     <g id="line2d_51">
      <g>
       <use xlink:href="#mb00481a42e" x="474.096875" y="305.346757" style="stroke: #000000; stroke-width: 0.8"/>
      </g>
     </g>
     <g id="text_29">
      <!-- 0.71 -->
      <g transform="translate(447.096875 308.784257) scale(0.1 -0.1)">
       <defs>
        <path id="SimHei-2e" d="M 1075 125 
L 500 125 
L 500 675 
L 1075 675 
L 1075 125 
z
" transform="scale(0.015625)"/>
       </defs>
       <use xlink:href="#SimHei-30"/>
       <use xlink:href="#SimHei-2e" transform="translate(50 0)"/>
       <use xlink:href="#SimHei-37" transform="translate(100 0)"/>
       <use xlink:href="#SimHei-31" transform="translate(150 0)"/>
      </g>
     </g>
    </g>
    <g id="ytick_8">
     <g id="line2d_52">
      <path d="M 474.096875 267.346792 
L 849.208125 267.346792 
" clip-path="url(#pd6cef31775)" style="fill: none; stroke: #b0b0b0; stroke-width: 0.8; stroke-linecap: square"/>
     </g>
     <g id="line2d_53">
      <g>
       <use xlink:href="#mb00481a42e" x="474.096875" y="267.346792" style="stroke: #000000; stroke-width: 0.8"/>
      </g>
     </g>
     <g id="text_30">
      <!-- 0.72 -->
      <g transform="translate(447.096875 270.784292) scale(0.1 -0.1)">
       <use xlink:href="#SimHei-30"/>
       <use xlink:href="#SimHei-2e" transform="translate(50 0)"/>
       <use xlink:href="#SimHei-37" transform="translate(100 0)"/>
       <use xlink:href="#SimHei-32" transform="translate(150 0)"/>
      </g>
     </g>
    </g>
    <g id="ytick_9">
     <g id="line2d_54">
      <path d="M 474.096875 229.346827 
L 849.208125 229.346827 
" clip-path="url(#pd6cef31775)" style="fill: none; stroke: #b0b0b0; stroke-width: 0.8; stroke-linecap: square"/>
     </g>
     <g id="line2d_55">
      <g>
       <use xlink:href="#mb00481a42e" x="474.096875" y="229.346827" style="stroke: #000000; stroke-width: 0.8"/>
      </g>
     </g>
     <g id="text_31">
      <!-- 0.73 -->
      <g transform="translate(447.096875 232.784327) scale(0.1 -0.1)">
       <defs>
        <path id="SimHei-33" d="M 250 1225 
L 700 1300 
Q 800 975 1025 762 
Q 1250 550 1587 562 
Q 1925 575 2125 837 
Q 2325 1100 2300 1437 
Q 2275 1775 2037 1962 
Q 1800 2150 1275 2225 
L 1275 2550 
Q 1800 2600 2037 2825 
Q 2275 3050 2250 3412 
Q 2225 3775 1925 3937 
Q 1625 4100 1287 3975 
Q 950 3850 750 3275 
L 300 3350 
Q 450 3800 712 4100 
Q 975 4400 1425 4450 
Q 1875 4500 2212 4337 
Q 2550 4175 2687 3837 
Q 2825 3500 2725 3100 
Q 2625 2700 2150 2400 
Q 2500 2250 2687 1950 
Q 2875 1650 2812 1162 
Q 2750 675 2375 375 
Q 2000 75 1525 87 
Q 1050 100 700 387 
Q 350 675 250 1225 
z
" transform="scale(0.015625)"/>
       </defs>
       <use xlink:href="#SimHei-30"/>
       <use xlink:href="#SimHei-2e" transform="translate(50 0)"/>
       <use xlink:href="#SimHei-37" transform="translate(100 0)"/>
       <use xlink:href="#SimHei-33" transform="translate(150 0)"/>
      </g>
     </g>
    </g>
    <g id="ytick_10">
     <g id="line2d_56">
      <path d="M 474.096875 191.346862 
L 849.208125 191.346862 
" clip-path="url(#pd6cef31775)" style="fill: none; stroke: #b0b0b0; stroke-width: 0.8; stroke-linecap: square"/>
     </g>
     <g id="line2d_57">
      <g>
       <use xlink:href="#mb00481a42e" x="474.096875" y="191.346862" style="stroke: #000000; stroke-width: 0.8"/>
      </g>
     </g>
     <g id="text_32">
      <!-- 0.74 -->
      <g transform="translate(447.096875 194.784362) scale(0.1 -0.1)">
       <use xlink:href="#SimHei-30"/>
       <use xlink:href="#SimHei-2e" transform="translate(50 0)"/>
       <use xlink:href="#SimHei-37" transform="translate(100 0)"/>
       <use xlink:href="#SimHei-34" transform="translate(150 0)"/>
      </g>
     </g>
    </g>
    <g id="ytick_11">
     <g id="line2d_58">
      <path d="M 474.096875 153.346898 
L 849.208125 153.346898 
" clip-path="url(#pd6cef31775)" style="fill: none; stroke: #b0b0b0; stroke-width: 0.8; stroke-linecap: square"/>
     </g>
     <g id="line2d_59">
      <g>
       <use xlink:href="#mb00481a42e" x="474.096875" y="153.346898" style="stroke: #000000; stroke-width: 0.8"/>
      </g>
     </g>
     <g id="text_33">
      <!-- 0.75 -->
      <g transform="translate(447.096875 156.784398) scale(0.1 -0.1)">
       <use xlink:href="#SimHei-30"/>
       <use xlink:href="#SimHei-2e" transform="translate(50 0)"/>
       <use xlink:href="#SimHei-37" transform="translate(100 0)"/>
       <use xlink:href="#SimHei-35" transform="translate(150 0)"/>
      </g>
     </g>
    </g>
    <g id="ytick_12">
     <g id="line2d_60">
      <path d="M 474.096875 115.346933 
L 849.208125 115.346933 
" clip-path="url(#pd6cef31775)" style="fill: none; stroke: #b0b0b0; stroke-width: 0.8; stroke-linecap: square"/>
     </g>
     <g id="line2d_61">
      <g>
       <use xlink:href="#mb00481a42e" x="474.096875" y="115.346933" style="stroke: #000000; stroke-width: 0.8"/>
      </g>
     </g>
     <g id="text_34">
      <!-- 0.76 -->
      <g transform="translate(447.096875 118.784433) scale(0.1 -0.1)">
       <use xlink:href="#SimHei-30"/>
       <use xlink:href="#SimHei-2e" transform="translate(50 0)"/>
       <use xlink:href="#SimHei-37" transform="translate(100 0)"/>
       <use xlink:href="#SimHei-36" transform="translate(150 0)"/>
      </g>
     </g>
    </g>
    <g id="ytick_13">
     <g id="line2d_62">
      <path d="M 474.096875 77.346968 
L 849.208125 77.346968 
" clip-path="url(#pd6cef31775)" style="fill: none; stroke: #b0b0b0; stroke-width: 0.8; stroke-linecap: square"/>
     </g>
     <g id="line2d_63">
      <g>
       <use xlink:href="#mb00481a42e" x="474.096875" y="77.346968" style="stroke: #000000; stroke-width: 0.8"/>
      </g>
     </g>
     <g id="text_35">
      <!-- 0.77 -->
      <g transform="translate(447.096875 80.784468) scale(0.1 -0.1)">
       <use xlink:href="#SimHei-30"/>
       <use xlink:href="#SimHei-2e" transform="translate(50 0)"/>
       <use xlink:href="#SimHei-37" transform="translate(100 0)"/>
       <use xlink:href="#SimHei-37" transform="translate(150 0)"/>
      </g>
     </g>
    </g>
    <g id="ytick_14">
     <g id="line2d_64">
      <path d="M 474.096875 39.347003 
L 849.208125 39.347003 
" clip-path="url(#pd6cef31775)" style="fill: none; stroke: #b0b0b0; stroke-width: 0.8; stroke-linecap: square"/>
     </g>
     <g id="line2d_65">
      <g>
       <use xlink:href="#mb00481a42e" x="474.096875" y="39.347003" style="stroke: #000000; stroke-width: 0.8"/>
      </g>
     </g>
     <g id="text_36">
      <!-- 0.78 -->
      <g transform="translate(447.096875 42.784503) scale(0.1 -0.1)">
       <use xlink:href="#SimHei-30"/>
       <use xlink:href="#SimHei-2e" transform="translate(50 0)"/>
       <use xlink:href="#SimHei-37" transform="translate(100 0)"/>
       <use xlink:href="#SimHei-38" transform="translate(150 0)"/>
      </g>
     </g>
    </g>
    <g id="text_37">
     <!-- 适应度 -->
     <g transform="translate(441.846875 184.5875) rotate(-90) scale(0.1 -0.1)">
      <use xlink:href="#SimHei-9002"/>
      <use xlink:href="#SimHei-5e94" transform="translate(100 0)"/>
      <use xlink:href="#SimHei-5ea6" transform="translate(200 0)"/>
     </g>
    </g>
   </g>
   <g id="line2d_66">
    <path d="M 491.147386 193.32472 
L 492.861006 139.020224 
L 494.574625 110.05591 
L 496.288244 89.319584 
L 498.001863 42.528874 
L 499.715483 92.615749 
L 501.429102 92.615749 
L 503.142721 84.664429 
L 504.85634 84.664429 
L 506.569959 91.016174 
L 508.283579 258.697386 
L 509.997198 230.604529 
L 511.710817 192.994324 
L 513.424436 272.872472 
L 515.138056 256.383209 
L 516.851675 276.456056 
L 518.565294 225.698959 
L 520.278913 212.764986 
L 521.992533 244.737143 
L 523.706152 238.706483 
L 525.419771 238.706483 
L 527.13339 226.55695 
L 528.847009 226.55695 
L 530.560629 219.740446 
L 532.274248 210.843124 
L 533.987867 249.473179 
L 535.701486 230.148369 
L 537.415106 230.148369 
L 539.128725 184.088033 
L 540.842344 174.156055 
L 542.555963 134.429307 
L 544.269583 134.429307 
L 545.983202 121.213505 
L 547.696821 121.213505 
L 549.41044 217.820144 
L 551.12406 224.314737 
L 552.837679 245.069474 
L 554.551298 186.179071 
L 556.264917 158.742828 
L 557.978536 217.869205 
L 559.692156 246.003842 
L 561.405775 217.784934 
L 563.119394 187.469612 
L 564.833013 188.772205 
L 566.546633 233.847447 
L 568.260252 265.532622 
L 569.973871 249.503686 
L 571.68749 220.817575 
L 573.40111 238.35608 
L 575.114729 244.970074 
L 576.828348 244.970074 
L 578.541967 236.676768 
L 580.255586 236.676768 
L 581.969206 217.671867 
L 583.682825 239.59065 
L 585.396444 185.848366 
L 587.110063 257.390502 
L 588.823683 216.232322 
L 590.537302 216.232322 
L 592.250921 281.328841 
L 593.96454 281.328841 
L 595.67816 242.748756 
L 597.391779 283.367843 
L 599.105398 293.451467 
L 600.819017 268.69584 
L 602.532636 276.226766 
L 604.246256 243.188787 
L 605.959875 268.725067 
L 607.673494 279.032886 
L 609.387113 302.766477 
L 611.100733 290.664025 
L 612.814352 263.405579 
L 614.527971 295.488831 
L 616.24159 269.312384 
L 617.95521 296.644122 
L 619.668829 284.789878 
L 621.382448 290.627333 
L 623.096067 291.256236 
L 624.809687 270.495427 
L 626.523306 266.061926 
L 628.236925 262.873486 
L 629.950544 262.873486 
L 631.664163 274.995461 
L 633.377783 204.100102 
L 635.091402 247.715949 
L 636.805021 254.041871 
L 638.51864 245.011937 
L 640.23226 270.553235 
L 641.945879 250.341564 
L 643.659498 235.320777 
L 645.373117 273.207442 
L 647.086737 244.198933 
L 648.800356 254.530741 
L 650.513975 268.658405 
L 652.227594 290.787427 
L 653.941213 263.067884 
L 655.654833 231.677572 
L 657.368452 263.89442 
L 659.082071 267.169215 
L 660.79569 233.342843 
L 662.50931 228.879291 
L 665.936548 228.879291 
L 667.650167 273.822361 
L 669.363787 273.882736 
L 671.077406 266.677134 
L 672.791025 225.245317 
L 674.504644 163.960077 
L 676.218263 217.820578 
L 677.931883 172.007039 
L 679.645502 186.159942 
L 681.359121 250.047964 
L 683.07274 234.933816 
L 684.78636 244.064495 
L 686.499979 249.073538 
L 688.213598 204.113095 
L 689.927217 230.476753 
L 691.640837 252.741778 
L 693.354456 244.292819 
L 695.068075 254.391976 
L 696.781694 217.296658 
L 698.495313 217.437535 
L 700.208933 199.051245 
L 701.922552 199.051245 
L 703.636171 224.50338 
L 705.34979 224.621758 
L 707.06341 230.292377 
L 708.777029 228.535927 
L 710.490648 224.409281 
L 712.204267 175.288758 
L 713.917887 189.282245 
L 715.631506 154.700622 
L 717.345125 154.700622 
L 719.058744 188.383721 
L 720.772364 188.620615 
L 722.485983 241.007298 
L 724.199602 218.177948 
L 725.913221 210.409865 
L 727.62684 211.292051 
L 729.34046 211.295272 
L 731.054079 227.697964 
L 732.767698 227.697964 
L 734.481317 234.857749 
L 736.194937 197.97275 
L 737.908556 233.154661 
L 739.622175 224.143414 
L 741.335794 224.143414 
L 743.049414 228.261705 
L 744.763033 227.881726 
L 746.476652 109.395217 
L 748.190271 109.395217 
L 749.90389 226.928136 
L 751.61751 240.024832 
L 753.331129 198.552859 
L 755.044748 223.314776 
L 756.758367 184.14931 
L 758.471987 203.486021 
L 760.185606 173.476434 
L 761.899225 169.580603 
L 763.612844 149.738494 
L 765.326464 124.260912 
L 767.040083 123.766446 
L 768.753702 140.144345 
L 770.467321 184.060388 
L 772.18094 190.481782 
L 773.89456 136.67493 
L 775.608179 127.461001 
L 777.321798 172.31964 
L 779.035417 143.680315 
L 780.749037 126.38231 
L 782.462656 139.43009 
L 784.176275 136.652416 
L 785.889894 66.410137 
L 787.603514 66.410137 
L 789.317133 87.515066 
L 791.030752 90.669283 
L 792.744371 77.678996 
L 794.457991 74.709871 
L 796.17161 67.331508 
L 797.885229 67.485395 
L 799.598848 102.474704 
L 801.312467 93.408857 
L 803.026087 40.546029 
L 804.739706 36.408523 
L 806.453325 44.88589 
L 808.166944 47.892154 
L 809.880564 49.766489 
L 811.594183 53.581647 
L 813.307802 71.921635 
L 815.021421 70.49501 
L 816.735041 38.020026 
L 818.44866 56.717039 
L 820.162279 46.964097 
L 821.875898 54.188791 
L 823.589517 54.168826 
L 825.303137 104.597741 
L 827.016756 55.762912 
L 828.730375 78.513274 
L 830.443994 84.248805 
L 832.157614 68.002681 
L 832.157614 68.002681 
" clip-path="url(#pd6cef31775)" style="fill: none; stroke: #1f77b4; stroke-width: 1.5; stroke-linecap: square"/>
   </g>
   <g id="patch_8">
    <path d="M 474.096875 316.084375 
L 474.096875 23.090625 
" style="fill: none; stroke: #000000; stroke-width: 0.8; stroke-linejoin: miter; stroke-linecap: square"/>
   </g>
   <g id="patch_9">
    <path d="M 849.208125 316.084375 
L 849.208125 23.090625 
" style="fill: none; stroke: #000000; stroke-width: 0.8; stroke-linejoin: miter; stroke-linecap: square"/>
   </g>
   <g id="patch_10">
    <path d="M 474.096875 316.084375 
L 849.208125 316.084375 
" style="fill: none; stroke: #000000; stroke-width: 0.8; stroke-linejoin: miter; stroke-linecap: square"/>
   </g>
   <g id="patch_11">
    <path d="M 474.096875 23.090625 
L 849.208125 23.090625 
" style="fill: none; stroke: #000000; stroke-width: 0.8; stroke-linejoin: miter; stroke-linecap: square"/>
   </g>
   <g id="text_38">
    <!-- 夜间助眠模式优化历史 -->
    <g transform="translate(601.6525 17.090625) scale(0.12 -0.12)">
     <defs>
      <path id="SimHei-591c" d="M 3775 3725 
Q 3625 3550 3500 3250 
L 5475 3250 
Q 5350 2725 5250 2337 
Q 5150 1950 4962 1562 
Q 4775 1175 4637 987 
Q 4500 800 4225 450 
Q 4600 225 4987 100 
Q 5375 -25 6125 -100 
Q 5850 -350 5725 -675 
Q 5050 -500 4562 -287 
Q 4075 -75 3850 125 
Q 3550 -50 3275 -225 
Q 3000 -400 2375 -700 
Q 2250 -425 2000 -200 
Q 2525 -25 2825 100 
Q 3125 225 3475 450 
Q 3275 725 3087 1087 
Q 2900 1450 2750 1875 
Q 2550 1550 2425 1375 
Q 2225 1525 1975 1700 
Q 2100 1825 2275 2062 
Q 2450 2300 2600 2587 
Q 2750 2875 2912 3225 
Q 3075 3575 3125 3950 
Q 3650 3775 3775 3725 
z
M 2300 3600 
Q 2050 3300 1750 2725 
L 1750 275 
Q 1750 -175 1775 -625 
L 1225 -625 
Q 1250 -175 1250 275 
L 1250 2025 
Q 900 1425 600 1125 
Q 425 1325 200 1525 
Q 425 1725 650 2012 
Q 875 2300 1087 2662 
Q 1300 3025 1450 3350 
Q 1600 3675 1650 3925 
Q 1925 3775 2300 3600 
z
M 3400 5275 
Q 3475 4775 3525 4525 
L 4950 4525 
Q 5475 4525 5925 4550 
L 5925 4050 
Q 5475 4075 4950 4075 
L 1425 4075 
Q 875 4075 425 4050 
L 425 4550 
Q 850 4525 1425 4525 
L 2900 4525 
Q 2900 4725 2775 5150 
Q 3050 5225 3400 5275 
z
M 2825 1950 
Q 3100 2050 3250 2100 
Q 3325 1800 3512 1387 
Q 3700 975 3850 800 
Q 4075 1025 4225 1250 
Q 4375 1475 4500 1712 
Q 4625 1950 4712 2225 
Q 4800 2500 4875 2825 
L 3275 2825 
Q 3075 2450 2825 1950 
z
M 3925 2475 
Q 4000 2325 4100 2137 
Q 4200 1950 4325 1750 
Q 4075 1650 3875 1525 
Q 3825 1700 3700 1925 
Q 3575 2150 3500 2250 
Q 3725 2400 3925 2475 
z
" transform="scale(0.015625)"/>
      <path id="SimHei-52a9" d="M 3100 450 
Q 2825 400 2487 325 
Q 2150 250 1812 162 
Q 1475 75 1112 -37 
Q 750 -150 425 -275 
Q 375 -50 250 325 
Q 525 375 750 425 
L 750 3650 
Q 750 4175 725 4675 
L 2800 4675 
Q 2775 4225 2775 3675 
L 2775 800 
Q 2875 825 3100 875 
L 3100 450 
z
M 2650 -225 
Q 3150 125 3400 562 
Q 3650 1000 3762 1475 
Q 3875 1950 3925 2450 
Q 3975 2950 3975 3400 
Q 3550 3400 3200 3375 
L 3200 3825 
Q 3525 3800 3975 3800 
L 3975 4375 
Q 3975 4650 3950 5125 
Q 4225 5100 4600 5100 
Q 4525 4775 4512 4450 
Q 4500 4125 4500 3800 
L 5900 3800 
Q 5825 3400 5825 2825 
L 5675 275 
Q 5650 -200 5350 -287 
Q 5050 -375 4575 -425 
Q 4525 -100 4400 175 
Q 4875 175 5050 187 
Q 5225 200 5225 675 
L 5350 3400 
L 4500 3400 
Q 4450 2350 4325 1700 
Q 4200 1050 4012 675 
Q 3825 300 3637 12 
Q 3450 -275 3200 -550 
Q 3000 -350 2650 -225 
z
M 2275 1950 
L 2275 2950 
L 1225 2950 
L 1225 1950 
L 2275 1950 
z
M 1225 500 
Q 1525 550 1762 600 
Q 2000 650 2275 700 
L 2275 1550 
L 1225 1550 
L 1225 500 
z
M 2275 3325 
L 2275 4275 
L 1225 4275 
L 1225 3325 
L 2275 3325 
z
" transform="scale(0.015625)"/>
      <path id="SimHei-7720" d="M 5625 5025 
Q 5600 4550 5600 4075 
Q 5600 3600 5625 3175 
L 4450 3175 
Q 4475 2675 4525 2225 
L 5200 2225 
Q 5425 2225 5850 2250 
L 5850 1775 
Q 5500 1825 5275 1825 
L 4575 1825 
Q 4625 1425 4812 962 
Q 5000 500 5237 200 
Q 5475 -100 5562 125 
Q 5650 350 5675 550 
Q 5900 275 6150 200 
Q 6000 -250 5725 -512 
Q 5450 -775 5025 -300 
Q 4600 175 4400 750 
Q 4200 1325 4125 1825 
L 3050 1825 
L 3050 125 
Q 3450 400 3975 850 
Q 4000 525 4100 300 
Q 3925 175 3500 -100 
Q 3075 -375 2725 -675 
Q 2525 -450 2375 -250 
Q 2475 -150 2525 50 
Q 2575 250 2575 450 
L 2575 4050 
Q 2575 4750 2550 5025 
L 5625 5025 
z
M 2200 4825 
Q 2150 4275 2150 3675 
L 2150 1150 
Q 2150 725 2200 75 
L 1725 75 
L 1725 450 
L 825 450 
L 825 -125 
L 350 -125 
Q 400 500 400 1100 
L 400 3675 
Q 400 4275 350 4825 
L 2200 4825 
z
M 5150 3525 
L 5150 4625 
L 3050 4625 
L 3050 3525 
L 5150 3525 
z
M 4075 2225 
Q 4025 2700 4000 3175 
L 3050 3175 
L 3050 2225 
L 4075 2225 
z
M 1725 3400 
L 1725 4425 
L 825 4425 
L 825 3400 
L 1725 3400 
z
M 1725 875 
L 1725 1825 
L 825 1825 
L 825 875 
L 1725 875 
z
M 1725 2225 
L 1725 3050 
L 825 3050 
L 825 2225 
L 1725 2225 
z
" transform="scale(0.015625)"/>
     </defs>
     <use xlink:href="#SimHei-591c"/>
     <use xlink:href="#SimHei-95f4" transform="translate(100 0)"/>
     <use xlink:href="#SimHei-52a9" transform="translate(200 0)"/>
     <use xlink:href="#SimHei-7720" transform="translate(300 0)"/>
     <use xlink:href="#SimHei-6a21" transform="translate(400 0)"/>
     <use xlink:href="#SimHei-5f0f" transform="translate(500 0)"/>
     <use xlink:href="#SimHei-4f18" transform="translate(600 0)"/>
     <use xlink:href="#SimHei-5316" transform="translate(700 0)"/>
     <use xlink:href="#SimHei-5386" transform="translate(800 0)"/>
     <use xlink:href="#SimHei-53f2" transform="translate(900 0)"/>
    </g>
   </g>
  </g>
 </g>
 <defs>
  <clipPath id="p431be5a939">
   <rect x="47.496875" y="23.090625" width="375.11125" height="292.99375"/>
  </clipPath>
  <clipPath id="pd6cef31775">
   <rect x="474.096875" y="23.090625" width="375.11125" height="292.99375"/>
  </clipPath>
 </defs>
</svg>
