<?xml version="1.0" encoding="utf-8" standalone="no"?>
<!DOCTYPE svg PUBLIC "-//W3C//DTD SVG 1.1//EN"
  "http://www.w3.org/Graphics/SVG/1.1/DTD/svg11.dtd">
<svg xmlns:xlink="http://www.w3.org/1999/xlink" width="856.985625pt" height="567.954062pt" viewBox="0 0 856.985625 567.954062" xmlns="http://www.w3.org/2000/svg" version="1.1">
 <metadata>
  <rdf:RDF xmlns:dc="http://purl.org/dc/elements/1.1/" xmlns:cc="http://creativecommons.org/ns#" xmlns:rdf="http://www.w3.org/1999/02/22-rdf-syntax-ns#">
   <cc:Work>
    <dc:type rdf:resource="http://purl.org/dc/dcmitype/StillImage"/>
    <dc:date>2025-08-09T21:27:51.963099</dc:date>
    <dc:format>image/svg+xml</dc:format>
    <dc:creator>
     <cc:Agent>
      <dc:title>Matplotlib v3.10.5, https://matplotlib.org/</dc:title>
     </cc:Agent>
    </dc:creator>
   </cc:Work>
  </rdf:RDF>
 </metadata>
 <defs>
  <style type="text/css">*{stroke-linejoin: round; stroke-linecap: butt}</style>
 </defs>
 <g id="figure_1">
  <g id="patch_1">
   <path d="M 0 567.954062 
L 856.985625 567.954062 
L 856.985625 0 
L 0 0 
z
" style="fill: #ffffff"/>
  </g>
  <g id="axes_1">
   <g id="patch_2">
    <path d="M 42.340625 248.97625 
L 842.285625 248.97625 
L 842.285625 22.903125 
L 42.340625 22.903125 
z
" style="fill: #ffffff"/>
   </g>
   <g id="matplotlib.axis_1">
    <g id="xtick_1">
     <g id="line2d_1">
      <path d="M 115.062898 248.97625 
L 115.062898 22.903125 
" clip-path="url(#p6a35c50289)" style="fill: none; stroke: #b0b0b0; stroke-opacity: 0.3; stroke-width: 0.8; stroke-linecap: square"/>
     </g>
     <g id="line2d_2">
      <defs>
       <path id="m0b6daf2c84" d="M 0 0 
L 0 3.5 
" style="stroke: #000000; stroke-width: 0.8"/>
      </defs>
      <g>
       <use xlink:href="#m0b6daf2c84" x="115.062898" y="248.97625" style="stroke: #000000; stroke-width: 0.8"/>
      </g>
     </g>
     <g id="text_1">
      <!-- 400 -->
      <g transform="translate(107.562898 262.85125) scale(0.1 -0.1)">
       <defs>
        <path id="SimHei-34" d="M 2000 1100 
L 75 1100 
L 75 1525 
L 2100 4450 
L 2475 4450 
L 2475 1525 
L 3075 1525 
L 3075 1100 
L 2475 1100 
L 2475 150 
L 2000 150 
L 2000 1100 
z
M 2000 1525 
L 2000 3500 
L 600 1525 
L 2000 1525 
z
" transform="scale(0.015625)"/>
        <path id="SimHei-30" d="M 225 2537 
Q 250 3200 412 3587 
Q 575 3975 875 4225 
Q 1175 4475 1612 4475 
Q 2050 4475 2375 4112 
Q 2700 3750 2800 3200 
Q 2900 2650 2862 1937 
Q 2825 1225 2612 775 
Q 2400 325 1975 150 
Q 1550 -25 1125 187 
Q 700 400 525 750 
Q 350 1100 275 1487 
Q 200 1875 225 2537 
z
M 750 2687 
Q 675 2000 800 1462 
Q 925 925 1212 700 
Q 1500 475 1800 612 
Q 2100 750 2237 1162 
Q 2375 1575 2375 2062 
Q 2375 2550 2337 2950 
Q 2300 3350 2112 3675 
Q 1925 4000 1612 4012 
Q 1300 4025 1062 3700 
Q 825 3375 750 2687 
z
" transform="scale(0.015625)"/>
       </defs>
       <use xlink:href="#SimHei-34"/>
       <use xlink:href="#SimHei-30" transform="translate(50 0)"/>
       <use xlink:href="#SimHei-30" transform="translate(100 0)"/>
      </g>
     </g>
    </g>
    <g id="xtick_2">
     <g id="line2d_3">
      <path d="M 205.965739 248.97625 
L 205.965739 22.903125 
" clip-path="url(#p6a35c50289)" style="fill: none; stroke: #b0b0b0; stroke-opacity: 0.3; stroke-width: 0.8; stroke-linecap: square"/>
     </g>
     <g id="line2d_4">
      <g>
       <use xlink:href="#m0b6daf2c84" x="205.965739" y="248.97625" style="stroke: #000000; stroke-width: 0.8"/>
      </g>
     </g>
     <g id="text_2">
      <!-- 450 -->
      <g transform="translate(198.465739 262.85125) scale(0.1 -0.1)">
       <defs>
        <path id="SimHei-35" d="M 550 1325 
Q 725 650 1150 575 
Q 1575 500 1837 662 
Q 2100 825 2212 1087 
Q 2325 1350 2312 1675 
Q 2300 2000 2137 2225 
Q 1975 2450 1725 2525 
Q 1475 2600 1162 2525 
Q 850 2450 650 2175 
L 225 2225 
Q 275 2375 700 4375 
L 2675 4375 
L 2675 3925 
L 1075 3925 
Q 950 3250 825 2850 
Q 1200 3025 1525 3012 
Q 1850 3000 2150 2862 
Q 2450 2725 2587 2487 
Q 2725 2250 2787 2012 
Q 2850 1775 2837 1500 
Q 2825 1225 2725 937 
Q 2625 650 2425 462 
Q 2225 275 1937 162 
Q 1650 50 1275 75 
Q 900 100 562 350 
Q 225 600 100 1200 
L 550 1325 
z
" transform="scale(0.015625)"/>
       </defs>
       <use xlink:href="#SimHei-34"/>
       <use xlink:href="#SimHei-35" transform="translate(50 0)"/>
       <use xlink:href="#SimHei-30" transform="translate(100 0)"/>
      </g>
     </g>
    </g>
    <g id="xtick_3">
     <g id="line2d_5">
      <path d="M 296.86858 248.97625 
L 296.86858 22.903125 
" clip-path="url(#p6a35c50289)" style="fill: none; stroke: #b0b0b0; stroke-opacity: 0.3; stroke-width: 0.8; stroke-linecap: square"/>
     </g>
     <g id="line2d_6">
      <g>
       <use xlink:href="#m0b6daf2c84" x="296.86858" y="248.97625" style="stroke: #000000; stroke-width: 0.8"/>
      </g>
     </g>
     <g id="text_3">
      <!-- 500 -->
      <g transform="translate(289.36858 262.85125) scale(0.1 -0.1)">
       <use xlink:href="#SimHei-35"/>
       <use xlink:href="#SimHei-30" transform="translate(50 0)"/>
       <use xlink:href="#SimHei-30" transform="translate(100 0)"/>
      </g>
     </g>
    </g>
    <g id="xtick_4">
     <g id="line2d_7">
      <path d="M 387.77142 248.97625 
L 387.77142 22.903125 
" clip-path="url(#p6a35c50289)" style="fill: none; stroke: #b0b0b0; stroke-opacity: 0.3; stroke-width: 0.8; stroke-linecap: square"/>
     </g>
     <g id="line2d_8">
      <g>
       <use xlink:href="#m0b6daf2c84" x="387.77142" y="248.97625" style="stroke: #000000; stroke-width: 0.8"/>
      </g>
     </g>
     <g id="text_4">
      <!-- 550 -->
      <g transform="translate(380.27142 262.85125) scale(0.1 -0.1)">
       <use xlink:href="#SimHei-35"/>
       <use xlink:href="#SimHei-35" transform="translate(50 0)"/>
       <use xlink:href="#SimHei-30" transform="translate(100 0)"/>
      </g>
     </g>
    </g>
    <g id="xtick_5">
     <g id="line2d_9">
      <path d="M 478.674261 248.97625 
L 478.674261 22.903125 
" clip-path="url(#p6a35c50289)" style="fill: none; stroke: #b0b0b0; stroke-opacity: 0.3; stroke-width: 0.8; stroke-linecap: square"/>
     </g>
     <g id="line2d_10">
      <g>
       <use xlink:href="#m0b6daf2c84" x="478.674261" y="248.97625" style="stroke: #000000; stroke-width: 0.8"/>
      </g>
     </g>
     <g id="text_5">
      <!-- 600 -->
      <g transform="translate(471.174261 262.85125) scale(0.1 -0.1)">
       <defs>
        <path id="SimHei-36" d="M 250 1612 
Q 275 1975 387 2225 
Q 500 2475 725 2850 
L 1750 4450 
L 2325 4450 
L 1275 2800 
Q 1950 2975 2350 2750 
Q 2750 2525 2887 2237 
Q 3025 1950 3037 1612 
Q 3050 1275 2937 950 
Q 2825 625 2537 362 
Q 2250 100 1737 75 
Q 1225 50 862 262 
Q 500 475 362 862 
Q 225 1250 250 1612 
z
M 1025 787 
Q 1250 550 1625 525 
Q 2000 500 2250 775 
Q 2500 1050 2500 1575 
Q 2500 2100 2187 2300 
Q 1875 2500 1487 2450 
Q 1100 2400 925 2075 
Q 750 1750 775 1387 
Q 800 1025 1025 787 
z
" transform="scale(0.015625)"/>
       </defs>
       <use xlink:href="#SimHei-36"/>
       <use xlink:href="#SimHei-30" transform="translate(50 0)"/>
       <use xlink:href="#SimHei-30" transform="translate(100 0)"/>
      </g>
     </g>
    </g>
    <g id="xtick_6">
     <g id="line2d_11">
      <path d="M 569.577102 248.97625 
L 569.577102 22.903125 
" clip-path="url(#p6a35c50289)" style="fill: none; stroke: #b0b0b0; stroke-opacity: 0.3; stroke-width: 0.8; stroke-linecap: square"/>
     </g>
     <g id="line2d_12">
      <g>
       <use xlink:href="#m0b6daf2c84" x="569.577102" y="248.97625" style="stroke: #000000; stroke-width: 0.8"/>
      </g>
     </g>
     <g id="text_6">
      <!-- 650 -->
      <g transform="translate(562.077102 262.85125) scale(0.1 -0.1)">
       <use xlink:href="#SimHei-36"/>
       <use xlink:href="#SimHei-35" transform="translate(50 0)"/>
       <use xlink:href="#SimHei-30" transform="translate(100 0)"/>
      </g>
     </g>
    </g>
    <g id="xtick_7">
     <g id="line2d_13">
      <path d="M 660.479943 248.97625 
L 660.479943 22.903125 
" clip-path="url(#p6a35c50289)" style="fill: none; stroke: #b0b0b0; stroke-opacity: 0.3; stroke-width: 0.8; stroke-linecap: square"/>
     </g>
     <g id="line2d_14">
      <g>
       <use xlink:href="#m0b6daf2c84" x="660.479943" y="248.97625" style="stroke: #000000; stroke-width: 0.8"/>
      </g>
     </g>
     <g id="text_7">
      <!-- 700 -->
      <g transform="translate(652.979943 262.85125) scale(0.1 -0.1)">
       <defs>
        <path id="SimHei-37" d="M 850 150 
Q 1300 2050 2425 3925 
L 275 3925 
L 275 4375 
L 2950 4375 
L 2950 3950 
Q 1775 2050 1400 150 
L 850 150 
z
" transform="scale(0.015625)"/>
       </defs>
       <use xlink:href="#SimHei-37"/>
       <use xlink:href="#SimHei-30" transform="translate(50 0)"/>
       <use xlink:href="#SimHei-30" transform="translate(100 0)"/>
      </g>
     </g>
    </g>
    <g id="xtick_8">
     <g id="line2d_15">
      <path d="M 751.382784 248.97625 
L 751.382784 22.903125 
" clip-path="url(#p6a35c50289)" style="fill: none; stroke: #b0b0b0; stroke-opacity: 0.3; stroke-width: 0.8; stroke-linecap: square"/>
     </g>
     <g id="line2d_16">
      <g>
       <use xlink:href="#m0b6daf2c84" x="751.382784" y="248.97625" style="stroke: #000000; stroke-width: 0.8"/>
      </g>
     </g>
     <g id="text_8">
      <!-- 750 -->
      <g transform="translate(743.882784 262.85125) scale(0.1 -0.1)">
       <use xlink:href="#SimHei-37"/>
       <use xlink:href="#SimHei-35" transform="translate(50 0)"/>
       <use xlink:href="#SimHei-30" transform="translate(100 0)"/>
      </g>
     </g>
    </g>
    <g id="xtick_9">
     <g id="line2d_17">
      <path d="M 842.285625 248.97625 
L 842.285625 22.903125 
" clip-path="url(#p6a35c50289)" style="fill: none; stroke: #b0b0b0; stroke-opacity: 0.3; stroke-width: 0.8; stroke-linecap: square"/>
     </g>
     <g id="line2d_18">
      <g>
       <use xlink:href="#m0b6daf2c84" x="842.285625" y="248.97625" style="stroke: #000000; stroke-width: 0.8"/>
      </g>
     </g>
     <g id="text_9">
      <!-- 800 -->
      <g transform="translate(834.785625 262.85125) scale(0.1 -0.1)">
       <defs>
        <path id="SimHei-38" d="M 175 1375 
Q 175 1675 325 1962 
Q 475 2250 825 2425 
Q 525 2600 425 2812 
Q 325 3025 312 3300 
Q 300 3575 387 3775 
Q 475 3975 650 4150 
Q 825 4325 1037 4387 
Q 1250 4450 1500 4450 
Q 1750 4450 1950 4400 
Q 2150 4350 2375 4187 
Q 2600 4025 2700 3725 
Q 2800 3425 2687 3025 
Q 2575 2625 2100 2400 
Q 2525 2275 2700 2012 
Q 2875 1750 2875 1375 
Q 2875 1000 2762 775 
Q 2650 550 2512 400 
Q 2375 250 2137 162 
Q 1900 75 1537 75 
Q 1175 75 912 162 
Q 650 250 475 425 
Q 300 600 237 837 
Q 175 1075 175 1375 
z
M 687 1400 
Q 675 1100 787 875 
Q 900 650 1200 587 
Q 1500 525 1825 600 
Q 2150 675 2275 950 
Q 2400 1225 2362 1500 
Q 2325 1775 2050 1962 
Q 1775 2150 1450 2125 
Q 1125 2100 912 1900 
Q 700 1700 687 1400 
z
M 775 3350 
Q 775 3100 950 2875 
Q 1125 2650 1500 2650 
Q 1875 2650 2062 2875 
Q 2250 3100 2237 3412 
Q 2225 3725 2012 3875 
Q 1800 4025 1437 4000 
Q 1075 3975 925 3787 
Q 775 3600 775 3350 
z
" transform="scale(0.015625)"/>
       </defs>
       <use xlink:href="#SimHei-38"/>
       <use xlink:href="#SimHei-30" transform="translate(50 0)"/>
       <use xlink:href="#SimHei-30" transform="translate(100 0)"/>
      </g>
     </g>
    </g>
    <g id="text_10">
     <!-- 波长 (nm) -->
     <g transform="translate(419.813125 276.030937) scale(0.1 -0.1)">
      <defs>
       <path id="SimHei-6ce2" d="M 5075 3275 
Q 5175 3600 5225 3850 
L 4325 3850 
L 4325 2750 
L 5550 2750 
Q 5400 2100 5125 1512 
Q 4850 925 4525 550 
Q 4775 350 5200 175 
Q 5625 0 6175 -100 
Q 5900 -300 5775 -600 
Q 5250 -425 4800 -175 
Q 4350 75 4200 225 
Q 3950 25 3537 -212 
Q 3125 -450 2500 -675 
Q 2375 -500 2050 -375 
Q 2525 -250 3062 25 
Q 3600 300 3850 550 
Q 3325 1300 3075 2325 
L 2825 2325 
Q 2800 1400 2487 725 
Q 2175 50 1875 -300 
Q 1700 -150 1375 -50 
Q 1750 325 1950 712 
Q 2150 1100 2262 1475 
Q 2375 1850 2387 2825 
Q 2400 3800 2350 4275 
L 3875 4275 
Q 3875 4850 3850 5200 
L 4350 5200 
Q 4325 4900 4325 4275 
L 5850 4275 
Q 5825 4125 5750 3837 
Q 5675 3550 5600 3200 
Q 5300 3250 5075 3275 
z
M 3525 2325 
Q 3800 1400 4200 925 
Q 4650 1475 4925 2325 
L 3525 2325 
z
M 1950 1700 
Q 1700 1375 1262 712 
Q 825 50 675 -200 
Q 475 50 225 275 
Q 525 525 937 1100 
Q 1350 1675 1550 2100 
L 1950 1700 
z
M 3875 2750 
L 3875 3850 
L 2850 3850 
L 2850 2750 
L 3875 2750 
z
M 925 4925 
Q 1600 4525 2000 4250 
Q 1800 4025 1675 3800 
Q 1250 4150 625 4500 
Q 775 4700 925 4925 
z
M 600 3525 
Q 1125 3250 1725 2850 
Q 1525 2675 1400 2425 
Q 925 2825 350 3100 
Q 450 3275 600 3525 
z
" transform="scale(0.015625)"/>
       <path id="SimHei-957f" d="M 1750 2800 
L 1750 4450 
Q 1750 4675 1725 5100 
L 2275 5100 
Q 2250 4625 2250 4475 
L 2250 2800 
L 5275 2800 
Q 5600 2800 5975 2825 
L 5975 2325 
Q 5500 2350 5100 2350 
L 3650 2350 
Q 3825 1850 4187 1375 
Q 4550 900 5050 587 
Q 5550 275 5950 150 
Q 5625 -50 5450 -350 
Q 4925 -75 4475 300 
Q 4025 675 3675 1212 
Q 3325 1750 3150 2350 
L 2250 2350 
L 2250 375 
Q 2975 825 3225 1050 
Q 3400 775 3575 550 
Q 3100 325 2625 -12 
Q 2150 -350 1925 -575 
Q 1725 -300 1550 -100 
Q 1750 100 1750 425 
L 1750 2350 
L 1175 2350 
Q 825 2350 375 2325 
L 375 2825 
Q 825 2800 1125 2800 
L 1750 2800 
z
M 4900 4700 
Q 4625 4475 4087 3937 
Q 3550 3400 3025 2900 
Q 2800 3200 2650 3300 
Q 3075 3600 3600 4150 
Q 4125 4700 4400 5100 
Q 4600 4925 4900 4700 
z
" transform="scale(0.015625)"/>
       <path id="SimHei-20" transform="scale(0.015625)"/>
       <path id="SimHei-28" d="M 2975 -200 
L 2700 -475 
Q 2075 125 1762 775 
Q 1450 1425 1450 2250 
Q 1450 3075 1762 3725 
Q 2075 4375 2700 5000 
L 2975 4725 
Q 2400 4175 2112 3587 
Q 1825 3000 1825 2250 
Q 1825 1500 2112 912 
Q 2400 325 2975 -200 
z
" transform="scale(0.015625)"/>
       <path id="SimHei-6e" d="M 2800 125 
L 2300 125 
L 2300 1925 
Q 2300 2225 2150 2400 
Q 2000 2575 1750 2575 
Q 1425 2575 1137 2237 
Q 850 1900 850 1400 
L 850 125 
L 350 125 
L 350 2925 
L 850 2925 
L 850 2400 
Q 1050 2675 1287 2825 
Q 1525 2975 1900 2975 
Q 2350 2975 2575 2725 
Q 2800 2475 2800 2100 
L 2800 125 
z
" transform="scale(0.015625)"/>
       <path id="SimHei-6d" d="M 3050 125 
L 2550 125 
L 2550 2150 
Q 2550 2300 2500 2400 
Q 2450 2500 2300 2500 
Q 2125 2500 1975 2312 
Q 1825 2125 1825 1825 
L 1825 125 
L 1325 125 
L 1325 2150 
Q 1325 2300 1275 2400 
Q 1225 2500 1075 2500 
Q 900 2500 750 2312 
Q 600 2125 600 1825 
L 600 125 
L 100 125 
L 100 2925 
L 600 2925 
L 600 2550 
Q 725 2750 900 2862 
Q 1075 2975 1275 2975 
Q 1475 2975 1612 2862 
Q 1750 2750 1800 2550 
Q 1925 2750 2087 2862 
Q 2250 2975 2450 2975 
Q 2750 2975 2900 2812 
Q 3050 2650 3050 2350 
L 3050 125 
z
" transform="scale(0.015625)"/>
       <path id="SimHei-29" d="M 1675 2250 
Q 1675 1425 1362 775 
Q 1050 125 425 -475 
L 150 -200 
Q 725 325 1012 912 
Q 1300 1500 1300 2250 
Q 1300 3000 1012 3587 
Q 725 4175 150 4725 
L 425 5000 
Q 1050 4375 1362 3725 
Q 1675 3075 1675 2250 
z
" transform="scale(0.015625)"/>
      </defs>
      <use xlink:href="#SimHei-6ce2"/>
      <use xlink:href="#SimHei-957f" transform="translate(100 0)"/>
      <use xlink:href="#SimHei-20" transform="translate(200 0)"/>
      <use xlink:href="#SimHei-28" transform="translate(250 0)"/>
      <use xlink:href="#SimHei-6e" transform="translate(300 0)"/>
      <use xlink:href="#SimHei-6d" transform="translate(350 0)"/>
      <use xlink:href="#SimHei-29" transform="translate(400 0)"/>
     </g>
    </g>
   </g>
   <g id="matplotlib.axis_2">
    <g id="ytick_1">
     <g id="line2d_19">
      <path d="M 42.340625 238.700199 
L 842.285625 238.700199 
" clip-path="url(#p6a35c50289)" style="fill: none; stroke: #b0b0b0; stroke-opacity: 0.3; stroke-width: 0.8; stroke-linecap: square"/>
     </g>
     <g id="line2d_20">
      <defs>
       <path id="me500de7ca5" d="M 0 0 
L -3.5 0 
" style="stroke: #000000; stroke-width: 0.8"/>
      </defs>
      <g>
       <use xlink:href="#me500de7ca5" x="42.340625" y="238.700199" style="stroke: #000000; stroke-width: 0.8"/>
      </g>
     </g>
     <g id="text_11">
      <!-- 0 -->
      <g transform="translate(30.340625 242.137699) scale(0.1 -0.1)">
       <use xlink:href="#SimHei-30"/>
      </g>
     </g>
    </g>
    <g id="ytick_2">
     <g id="line2d_21">
      <path d="M 42.340625 212.586256 
L 842.285625 212.586256 
" clip-path="url(#p6a35c50289)" style="fill: none; stroke: #b0b0b0; stroke-opacity: 0.3; stroke-width: 0.8; stroke-linecap: square"/>
     </g>
     <g id="line2d_22">
      <g>
       <use xlink:href="#me500de7ca5" x="42.340625" y="212.586256" style="stroke: #000000; stroke-width: 0.8"/>
      </g>
     </g>
     <g id="text_12">
      <!-- 1 -->
      <g transform="translate(30.340625 216.023756) scale(0.1 -0.1)">
       <defs>
        <path id="SimHei-31" d="M 1400 3600 
Q 1075 3275 575 2975 
L 575 3450 
Q 1200 3875 1600 4450 
L 1900 4450 
L 1900 150 
L 1400 150 
L 1400 3600 
z
" transform="scale(0.015625)"/>
       </defs>
       <use xlink:href="#SimHei-31"/>
      </g>
     </g>
    </g>
    <g id="ytick_3">
     <g id="line2d_23">
      <path d="M 42.340625 186.472313 
L 842.285625 186.472313 
" clip-path="url(#p6a35c50289)" style="fill: none; stroke: #b0b0b0; stroke-opacity: 0.3; stroke-width: 0.8; stroke-linecap: square"/>
     </g>
     <g id="line2d_24">
      <g>
       <use xlink:href="#me500de7ca5" x="42.340625" y="186.472313" style="stroke: #000000; stroke-width: 0.8"/>
      </g>
     </g>
     <g id="text_13">
      <!-- 2 -->
      <g transform="translate(30.340625 189.909813) scale(0.1 -0.1)">
       <defs>
        <path id="SimHei-32" d="M 300 250 
Q 325 625 650 925 
Q 975 1225 1475 1862 
Q 1975 2500 2125 2850 
Q 2275 3200 2237 3450 
Q 2200 3700 2000 3862 
Q 1800 4025 1537 4000 
Q 1275 3975 1037 3800 
Q 800 3625 675 3275 
L 200 3350 
Q 400 3925 712 4187 
Q 1025 4450 1450 4475 
Q 1700 4500 1900 4462 
Q 2100 4425 2312 4287 
Q 2525 4150 2662 3875 
Q 2800 3600 2762 3212 
Q 2725 2825 2375 2287 
Q 2025 1750 1025 600 
L 2825 600 
L 2825 150 
L 300 150 
L 300 250 
z
" transform="scale(0.015625)"/>
       </defs>
       <use xlink:href="#SimHei-32"/>
      </g>
     </g>
    </g>
    <g id="ytick_4">
     <g id="line2d_25">
      <path d="M 42.340625 160.35837 
L 842.285625 160.35837 
" clip-path="url(#p6a35c50289)" style="fill: none; stroke: #b0b0b0; stroke-opacity: 0.3; stroke-width: 0.8; stroke-linecap: square"/>
     </g>
     <g id="line2d_26">
      <g>
       <use xlink:href="#me500de7ca5" x="42.340625" y="160.35837" style="stroke: #000000; stroke-width: 0.8"/>
      </g>
     </g>
     <g id="text_14">
      <!-- 3 -->
      <g transform="translate(30.340625 163.79587) scale(0.1 -0.1)">
       <defs>
        <path id="SimHei-33" d="M 250 1225 
L 700 1300 
Q 800 975 1025 762 
Q 1250 550 1587 562 
Q 1925 575 2125 837 
Q 2325 1100 2300 1437 
Q 2275 1775 2037 1962 
Q 1800 2150 1275 2225 
L 1275 2550 
Q 1800 2600 2037 2825 
Q 2275 3050 2250 3412 
Q 2225 3775 1925 3937 
Q 1625 4100 1287 3975 
Q 950 3850 750 3275 
L 300 3350 
Q 450 3800 712 4100 
Q 975 4400 1425 4450 
Q 1875 4500 2212 4337 
Q 2550 4175 2687 3837 
Q 2825 3500 2725 3100 
Q 2625 2700 2150 2400 
Q 2500 2250 2687 1950 
Q 2875 1650 2812 1162 
Q 2750 675 2375 375 
Q 2000 75 1525 87 
Q 1050 100 700 387 
Q 350 675 250 1225 
z
" transform="scale(0.015625)"/>
       </defs>
       <use xlink:href="#SimHei-33"/>
      </g>
     </g>
    </g>
    <g id="ytick_5">
     <g id="line2d_27">
      <path d="M 42.340625 134.244427 
L 842.285625 134.244427 
" clip-path="url(#p6a35c50289)" style="fill: none; stroke: #b0b0b0; stroke-opacity: 0.3; stroke-width: 0.8; stroke-linecap: square"/>
     </g>
     <g id="line2d_28">
      <g>
       <use xlink:href="#me500de7ca5" x="42.340625" y="134.244427" style="stroke: #000000; stroke-width: 0.8"/>
      </g>
     </g>
     <g id="text_15">
      <!-- 4 -->
      <g transform="translate(30.340625 137.681927) scale(0.1 -0.1)">
       <use xlink:href="#SimHei-34"/>
      </g>
     </g>
    </g>
    <g id="ytick_6">
     <g id="line2d_29">
      <path d="M 42.340625 108.130484 
L 842.285625 108.130484 
" clip-path="url(#p6a35c50289)" style="fill: none; stroke: #b0b0b0; stroke-opacity: 0.3; stroke-width: 0.8; stroke-linecap: square"/>
     </g>
     <g id="line2d_30">
      <g>
       <use xlink:href="#me500de7ca5" x="42.340625" y="108.130484" style="stroke: #000000; stroke-width: 0.8"/>
      </g>
     </g>
     <g id="text_16">
      <!-- 5 -->
      <g transform="translate(30.340625 111.567984) scale(0.1 -0.1)">
       <use xlink:href="#SimHei-35"/>
      </g>
     </g>
    </g>
    <g id="ytick_7">
     <g id="line2d_31">
      <path d="M 42.340625 82.016541 
L 842.285625 82.016541 
" clip-path="url(#p6a35c50289)" style="fill: none; stroke: #b0b0b0; stroke-opacity: 0.3; stroke-width: 0.8; stroke-linecap: square"/>
     </g>
     <g id="line2d_32">
      <g>
       <use xlink:href="#me500de7ca5" x="42.340625" y="82.016541" style="stroke: #000000; stroke-width: 0.8"/>
      </g>
     </g>
     <g id="text_17">
      <!-- 6 -->
      <g transform="translate(30.340625 85.454041) scale(0.1 -0.1)">
       <use xlink:href="#SimHei-36"/>
      </g>
     </g>
    </g>
    <g id="ytick_8">
     <g id="line2d_33">
      <path d="M 42.340625 55.902598 
L 842.285625 55.902598 
" clip-path="url(#p6a35c50289)" style="fill: none; stroke: #b0b0b0; stroke-opacity: 0.3; stroke-width: 0.8; stroke-linecap: square"/>
     </g>
     <g id="line2d_34">
      <g>
       <use xlink:href="#me500de7ca5" x="42.340625" y="55.902598" style="stroke: #000000; stroke-width: 0.8"/>
      </g>
     </g>
     <g id="text_18">
      <!-- 7 -->
      <g transform="translate(30.340625 59.340098) scale(0.1 -0.1)">
       <use xlink:href="#SimHei-37"/>
      </g>
     </g>
    </g>
    <g id="ytick_9">
     <g id="line2d_35">
      <path d="M 42.340625 29.788655 
L 842.285625 29.788655 
" clip-path="url(#p6a35c50289)" style="fill: none; stroke: #b0b0b0; stroke-opacity: 0.3; stroke-width: 0.8; stroke-linecap: square"/>
     </g>
     <g id="line2d_36">
      <g>
       <use xlink:href="#me500de7ca5" x="42.340625" y="29.788655" style="stroke: #000000; stroke-width: 0.8"/>
      </g>
     </g>
     <g id="text_19">
      <!-- 8 -->
      <g transform="translate(30.340625 33.226155) scale(0.1 -0.1)">
       <use xlink:href="#SimHei-38"/>
      </g>
     </g>
    </g>
    <g id="text_20">
     <!-- 相对光谱功率 -->
     <g transform="translate(25.090625 165.939687) rotate(-90) scale(0.1 -0.1)">
      <defs>
       <path id="SimHei-76f8" d="M 5900 4825 
Q 5875 4225 5875 3575 
L 5875 750 
Q 5875 75 5900 -575 
L 5400 -575 
L 5400 -100 
L 3525 -100 
L 3525 -625 
L 3025 -625 
Q 3050 125 3050 675 
L 3050 3600 
Q 3050 4250 3025 4825 
L 5900 4825 
z
M 1400 3825 
Q 1400 4850 1375 5200 
L 1925 5200 
Q 1900 4825 1900 3825 
Q 2500 3825 2825 3850 
L 2825 3375 
Q 2525 3400 1900 3400 
L 1900 2450 
Q 2025 2575 2175 2750 
Q 2625 2275 2950 1825 
Q 2800 1725 2575 1500 
Q 2300 1975 1900 2375 
L 1900 475 
Q 1900 50 1925 -625 
L 1375 -625 
Q 1400 50 1400 450 
L 1400 2150 
Q 1075 1225 650 675 
Q 475 950 300 1100 
Q 475 1250 800 1887 
Q 1125 2525 1300 3400 
Q 750 3400 400 3375 
L 400 3850 
Q 850 3825 1400 3825 
z
M 5400 325 
L 5400 1475 
L 3525 1475 
L 3525 325 
L 5400 325 
z
M 5400 3300 
L 5400 4400 
L 3525 4400 
L 3525 3300 
L 5400 3300 
z
M 5400 1900 
L 5400 2900 
L 3525 2900 
L 3525 1900 
L 5400 1900 
z
" transform="scale(0.015625)"/>
       <path id="SimHei-5bf9" d="M 525 4250 
Q 900 4225 1400 4225 
L 2825 4225 
Q 2575 2625 2200 1750 
Q 2825 875 3125 400 
Q 2950 275 2725 75 
Q 2200 975 1950 1300 
Q 1650 775 1350 425 
Q 1050 75 600 -350 
Q 425 -125 200 -25 
Q 625 275 975 675 
Q 1325 1075 1650 1700 
Q 1050 2425 550 2900 
Q 700 3025 900 3225 
Q 1625 2425 1875 2150 
Q 2200 3050 2300 3825 
L 1400 3825 
Q 900 3825 525 3800 
L 525 4250 
z
M 2925 3700 
Q 3525 3675 3750 3675 
L 4825 3675 
L 4825 4425 
Q 4825 4750 4775 5125 
L 5350 5125 
Q 5325 4825 5325 4375 
L 5325 3675 
Q 5575 3675 6150 3700 
L 6150 3250 
Q 5575 3275 5325 3275 
L 5325 125 
Q 5350 -350 5012 -475 
Q 4675 -600 4250 -650 
Q 4175 -350 4025 -100 
Q 4575 -100 4712 -37 
Q 4850 25 4825 325 
L 4825 3275 
L 3775 3275 
Q 3550 3275 2925 3225 
L 2925 3700 
z
M 3450 2725 
Q 3875 1975 4175 1325 
Q 3850 1200 3700 1075 
Q 3475 1750 3050 2475 
Q 3225 2550 3450 2725 
z
" transform="scale(0.015625)"/>
       <path id="SimHei-5149" d="M 6050 2300 
Q 5775 2325 5150 2325 
L 4050 2325 
L 4050 400 
Q 4050 50 4425 50 
L 4975 50 
Q 5300 50 5375 212 
Q 5450 375 5500 850 
Q 5750 625 6100 525 
Q 6000 175 5837 -100 
Q 5675 -375 5325 -375 
L 4100 -375 
Q 3550 -375 3550 175 
L 3550 2325 
L 2775 2325 
Q 2825 125 575 -575 
Q 400 -275 225 -50 
Q 1225 150 1737 687 
Q 2250 1225 2275 2325 
L 1450 2325 
Q 625 2325 375 2300 
L 375 2775 
Q 625 2750 1425 2750 
L 2950 2750 
L 2950 4300 
Q 2950 4750 2925 5150 
L 3525 5150 
Q 3475 4900 3475 4300 
L 3475 2750 
L 5150 2750 
Q 5725 2750 6050 2775 
L 6050 2300 
z
M 4100 3325 
Q 4700 4050 4875 4575 
Q 5200 4375 5475 4275 
Q 5300 4100 5075 3762 
Q 4850 3425 4575 3050 
Q 4300 3200 4100 3325 
z
M 1775 3000 
Q 1600 3375 1025 4150 
Q 1275 4300 1550 4450 
Q 1800 4100 1962 3850 
Q 2125 3600 2300 3300 
Q 2025 3175 1775 3000 
z
" transform="scale(0.015625)"/>
       <path id="SimHei-8c31" d="M 5600 1850 
Q 5575 1375 5575 575 
Q 5575 -225 5600 -700 
L 5100 -700 
L 5100 -300 
L 3100 -300 
L 3100 -675 
L 2600 -675 
Q 2625 -125 2625 625 
Q 2625 1375 2600 1850 
L 5600 1850 
z
M 4350 4350 
Q 4625 4900 4725 5275 
Q 4975 5150 5275 5050 
Q 5075 4875 4825 4350 
Q 5650 4350 6050 4375 
L 6050 3975 
Q 5725 4000 4800 4000 
L 4800 2700 
Q 5575 2700 6175 2725 
L 6175 2325 
Q 5750 2350 5375 2350 
L 2750 2350 
Q 2275 2350 1875 2325 
L 1875 2725 
Q 2275 2700 3300 2700 
L 3300 4000 
Q 2475 4000 2100 3975 
L 2100 4375 
Q 2575 4350 3275 4350 
Q 3175 4550 2825 4950 
Q 3025 5100 3175 5250 
Q 3550 4825 3725 4600 
Q 3575 4475 3450 4350 
L 4350 4350 
z
M 2250 575 
Q 2025 400 1700 87 
Q 1375 -225 1175 -475 
Q 1050 -225 800 -100 
Q 1000 50 1000 275 
L 1000 2725 
Q 550 2725 225 2700 
L 225 3150 
Q 525 3125 725 3125 
L 1475 3125 
Q 1450 2725 1450 2350 
L 1450 450 
Q 1675 650 1950 1025 
Q 2025 850 2250 575 
z
M 5100 950 
L 5100 1475 
L 3100 1475 
L 3100 950 
L 5100 950 
z
M 5100 50 
L 5100 575 
L 3100 575 
L 3100 50 
L 5100 50 
z
M 4350 2700 
L 4350 4000 
L 3750 4000 
L 3750 2700 
L 4350 2700 
z
M 925 4975 
Q 1175 4700 1725 4150 
Q 1475 4000 1275 3800 
Q 900 4300 550 4650 
Q 700 4775 925 4975 
z
M 5850 3675 
Q 5525 3075 5375 2825 
Q 5175 2975 5000 3000 
Q 5250 3450 5375 3850 
Q 5625 3725 5850 3675 
z
M 2250 3600 
Q 2450 3675 2625 3800 
Q 2900 3425 3100 3100 
Q 2850 3000 2650 2875 
Q 2525 3225 2250 3600 
z
" transform="scale(0.015625)"/>
       <path id="SimHei-529f" d="M 5675 275 
Q 5575 -200 5225 -312 
Q 4875 -425 4450 -475 
Q 4400 -175 4200 100 
Q 4725 75 4937 137 
Q 5150 200 5175 425 
Q 5300 1775 5375 3275 
L 4250 3275 
Q 4225 2550 4125 1925 
Q 4025 1300 3787 850 
Q 3550 400 3250 50 
Q 2950 -300 2550 -650 
Q 2375 -400 2100 -250 
Q 2650 100 2925 425 
Q 3200 750 3400 1162 
Q 3600 1575 3675 2075 
Q 3750 2575 3775 3275 
L 3400 3275 
Q 3100 3275 2800 3250 
L 2800 3725 
Q 3125 3700 3450 3700 
L 3775 3700 
L 3775 4575 
Q 3775 4875 3750 5175 
Q 4075 5100 4325 5075 
Q 4275 4900 4262 4525 
Q 4250 4150 4250 3700 
L 5900 3700 
Q 5875 3350 5850 3037 
Q 5825 2725 5675 275 
z
M 2900 1000 
Q 2475 900 2200 837 
Q 1925 775 1337 600 
Q 750 425 500 350 
Q 400 700 300 900 
Q 450 900 1375 1100 
L 1375 3900 
L 1175 3900 
Q 875 3900 450 3875 
L 450 4350 
Q 850 4325 1175 4325 
L 2100 4325 
Q 2450 4325 2725 4350 
L 2725 3875 
Q 2425 3900 2125 3900 
L 1875 3900 
L 1875 1200 
L 2375 1325 
Q 2575 1375 2850 1450 
L 2900 1000 
z
" transform="scale(0.015625)"/>
       <path id="SimHei-7387" d="M 3325 5150 
Q 3425 4900 3550 4525 
L 4800 4525 
Q 5250 4525 5800 4550 
L 5800 4125 
Q 5250 4175 4775 4175 
L 2800 4175 
Q 2975 4050 3300 3900 
Q 3075 3750 2875 3537 
Q 2675 3325 2475 3125 
L 3275 3125 
Q 3575 3425 3775 3775 
Q 4000 3600 4275 3425 
Q 3950 3250 3600 2875 
Q 3250 2500 2625 2000 
L 3850 2100 
Q 3725 2250 3600 2425 
Q 3750 2475 4000 2650 
Q 4250 2350 4700 1700 
Q 4475 1625 4225 1450 
Q 4175 1600 4025 1775 
Q 3700 1750 3425 1750 
L 3425 1050 
L 5150 1050 
Q 5675 1050 6100 1075 
L 6100 650 
Q 5700 675 5125 675 
L 3425 675 
L 3425 175 
Q 3425 -300 3450 -625 
L 2900 -625 
Q 2925 -300 2925 175 
L 2925 675 
L 1325 675 
Q 825 675 325 650 
L 325 1075 
Q 825 1050 1350 1050 
L 2925 1050 
L 2925 1700 
Q 2700 1675 2475 1637 
Q 2250 1600 2025 1525 
Q 1950 1775 1850 2000 
Q 2075 2025 2325 2200 
Q 2575 2375 2975 2800 
Q 2300 2725 2025 2625 
Q 1975 2875 1850 3175 
Q 2075 3175 2325 3487 
Q 2575 3800 2750 4175 
L 1700 4175 
Q 1150 4175 650 4125 
L 650 4550 
Q 1150 4525 1550 4525 
L 2975 4525 
Q 2900 4825 2800 5025 
Q 3025 5075 3325 5150 
z
M 1625 2575 
Q 1725 2400 1825 2200 
Q 1575 2050 1325 1862 
Q 1075 1675 800 1425 
Q 625 1675 475 1875 
Q 800 2025 1100 2212 
Q 1400 2400 1625 2575 
z
M 4850 2650 
Q 5125 2475 5337 2337 
Q 5550 2200 5875 1950 
Q 5675 1800 5500 1600 
Q 5300 1775 5062 1975 
Q 4825 2175 4575 2325 
Q 4725 2475 4850 2650 
z
M 5725 3525 
Q 5550 3450 5300 3262 
Q 5050 3075 4800 2825 
Q 4625 3050 4475 3175 
Q 4700 3325 4875 3487 
Q 5050 3650 5300 3925 
Q 5525 3700 5725 3525 
z
M 1050 3850 
Q 1425 3600 1775 3275 
Q 1575 3100 1425 2925 
Q 1075 3300 675 3525 
Q 875 3700 1050 3850 
z
" transform="scale(0.015625)"/>
      </defs>
      <use xlink:href="#SimHei-76f8"/>
      <use xlink:href="#SimHei-5bf9" transform="translate(100 0)"/>
      <use xlink:href="#SimHei-5149" transform="translate(200 0)"/>
      <use xlink:href="#SimHei-8c31" transform="translate(300 0)"/>
      <use xlink:href="#SimHei-529f" transform="translate(400 0)"/>
      <use xlink:href="#SimHei-7387" transform="translate(500 0)"/>
     </g>
    </g>
   </g>
   <g id="line2d_37">
    <path d="M 78.701761 238.456157 
L 82.337875 238.544166 
L 84.155932 238.378141 
L 87.792045 238.292569 
L 89.610102 238.480293 
L 91.428159 238.484681 
L 93.246216 238.377165 
L 95.064273 238.492237 
L 96.88233 238.403493 
L 104.154557 238.500282 
L 111.426784 238.445663 
L 120.517068 238.005571 
L 125.971239 237.245825 
L 129.607352 236.380993 
L 133.243466 234.980974 
L 135.061523 234.166858 
L 138.697636 231.993681 
L 142.33375 229.120014 
L 144.151807 227.644411 
L 147.78792 223.159575 
L 151.424034 217.724572 
L 153.242091 214.858951 
L 158.696261 204.978873 
L 162.332375 199.23255 
L 164.150432 197.369062 
L 167.786545 194.034908 
L 169.604602 193.722151 
L 171.422659 193.705402 
L 173.240716 194.264575 
L 176.87683 196.419686 
L 178.694886 197.748416 
L 180.512943 198.805548 
L 182.331 199.730535 
L 184.149057 200.103541 
L 185.967114 200.146689 
L 187.78517 199.447178 
L 189.603227 198.355388 
L 191.421284 196.36738 
L 193.239341 193.663802 
L 195.057398 190.400705 
L 196.875455 186.232372 
L 198.693511 181.076406 
L 200.511568 174.980237 
L 202.329625 167.902453 
L 204.147682 160.224922 
L 207.783795 143.832267 
L 209.601852 136.43324 
L 211.419909 130.048708 
L 213.237966 125.18767 
L 215.056023 122.891197 
L 216.87408 122.77525 
L 218.692136 125.5714 
L 220.510193 130.022198 
L 222.32825 136.225349 
L 227.78242 157.185089 
L 229.600477 163.301326 
L 231.418534 168.534706 
L 233.236591 172.866763 
L 235.054648 176.232405 
L 238.690761 181.327267 
L 240.508818 183.222026 
L 244.144932 187.496746 
L 247.781045 192.441239 
L 253.235216 199.791085 
L 255.053273 201.905633 
L 256.87133 203.801428 
L 258.689386 205.506817 
L 260.507443 206.832256 
L 262.3255 207.771519 
L 264.143557 208.299074 
L 265.961614 208.668403 
L 269.597727 208.75213 
L 273.233841 208.196083 
L 276.869955 207.31117 
L 282.324125 205.109487 
L 285.960239 203.079198 
L 289.596352 200.741656 
L 295.050523 196.168703 
L 298.686636 192.587488 
L 302.32275 188.174063 
L 307.77692 181.520146 
L 311.413034 176.579018 
L 320.503318 164.569855 
L 324.139432 160.290337 
L 329.593602 155.110081 
L 333.229716 152.665087 
L 335.047773 152.064785 
L 338.683886 151.348996 
L 340.501943 151.514923 
L 342.32 151.902463 
L 344.138057 152.003783 
L 347.77417 153.388328 
L 349.592227 154.158529 
L 351.410284 155.373734 
L 353.228341 156.274612 
L 356.864455 158.496333 
L 358.682511 159.865449 
L 367.772795 165.873835 
L 369.590852 166.895927 
L 371.408909 168.045769 
L 380.499193 172.705592 
L 382.31725 173.618388 
L 387.77142 175.90181 
L 393.225591 177.903414 
L 405.951989 181.896982 
L 411.406159 182.95657 
L 415.042273 183.499742 
L 418.678386 184.226627 
L 422.3145 184.813281 
L 424.132557 185.249332 
L 427.76867 185.77927 
L 433.222841 186.702057 
L 435.040898 186.473773 
L 438.677011 187.28769 
L 440.495068 187.12902 
L 442.313125 187.45252 
L 444.131182 187.635415 
L 445.949239 187.612785 
L 447.767295 187.877904 
L 449.585352 187.723931 
L 451.403409 187.706355 
L 453.221466 188.137906 
L 456.85758 188.092111 
L 458.675636 188.016287 
L 462.31175 188.038934 
L 464.129807 188.003336 
L 465.947864 187.628678 
L 467.76592 187.633728 
L 471.402034 186.959924 
L 473.220091 186.308794 
L 475.038148 186.043534 
L 476.856205 185.476029 
L 480.492318 183.544478 
L 482.310375 182.624083 
L 485.946489 179.963477 
L 487.764545 178.238182 
L 489.582602 176.670871 
L 491.400659 174.508154 
L 493.218716 172.655904 
L 496.85483 167.661613 
L 502.309 158.149397 
L 504.127057 154.492511 
L 505.945114 151.137563 
L 507.76317 147.492247 
L 511.399284 141.131715 
L 513.217341 138.41692 
L 516.853455 136.167759 
L 518.671511 137.210601 
L 520.489568 137.919325 
L 522.307625 141.140241 
L 524.125682 144.702899 
L 527.761795 155.474213 
L 535.034023 178.416834 
L 536.85208 183.30087 
L 538.670136 187.496058 
L 540.488193 191.35755 
L 542.30625 194.269768 
L 544.124307 196.877657 
L 545.942364 199.280265 
L 547.76042 201.331934 
L 549.578477 203.032418 
L 551.396534 204.285595 
L 555.032648 207.188852 
L 556.850705 207.911407 
L 558.668761 209.002521 
L 560.486818 209.798768 
L 564.122932 211.177386 
L 567.759045 212.773096 
L 569.577102 213.245089 
L 571.395159 213.949292 
L 576.84933 215.283974 
L 578.667386 215.994826 
L 582.3035 216.845924 
L 584.121557 217.587673 
L 587.75767 218.491853 
L 591.393784 219.21283 
L 595.029898 220.041921 
L 596.847955 220.60851 
L 602.302125 221.805004 
L 613.210466 223.756916 
L 615.028523 223.785259 
L 616.84658 224.494827 
L 622.30075 225.438812 
L 647.753545 229.1638 
L 665.934114 231.349448 
L 671.388284 231.867031 
L 673.206341 232.137891 
L 676.842455 232.443613 
L 691.386909 233.687958 
L 709.567477 234.867518 
L 713.203591 235.076697 
L 718.657761 235.390886 
L 738.656386 236.250516 
L 745.928614 236.536005 
L 753.200841 236.763956 
L 778.653636 237.375401 
L 805.924489 237.774986 
L 805.924489 237.774986 
" clip-path="url(#p6a35c50289)" style="fill: none; stroke: #0000ff; stroke-width: 2; stroke-linecap: square"/>
   </g>
   <g id="line2d_38">
    <path d="M 78.701761 238.700199 
L 131.425409 238.619676 
L 147.78792 238.293112 
L 162.332375 237.443152 
L 173.240716 235.940063 
L 176.87683 235.219833 
L 180.512943 234.231195 
L 184.149057 232.960727 
L 187.78517 231.341328 
L 189.603227 230.464527 
L 193.239341 228.071216 
L 196.875455 224.935308 
L 198.693511 222.962505 
L 200.511568 220.74038 
L 204.147682 215.561287 
L 207.783795 210.040419 
L 209.601852 207.512307 
L 211.419909 205.311356 
L 213.237966 203.611435 
L 215.056023 202.596552 
L 216.87408 202.288479 
L 218.692136 202.807402 
L 220.510193 204.07787 
L 224.146307 208.068212 
L 225.964364 210.323442 
L 227.78242 212.264931 
L 229.600477 213.983343 
L 231.418534 215.513272 
L 233.236591 216.815054 
L 235.054648 217.790272 
L 238.690761 218.94622 
L 245.962989 221.017742 
L 247.781045 221.649696 
L 251.417159 223.094334 
L 256.87133 224.824979 
L 258.689386 225.212085 
L 260.507443 225.452761 
L 262.3255 225.554759 
L 265.961614 225.348388 
L 267.77967 225.111595 
L 271.415784 224.212734 
L 275.051898 223.064551 
L 276.869955 222.352678 
L 282.324125 219.520991 
L 285.960239 217.112192 
L 289.596352 214.199386 
L 293.232466 210.762887 
L 296.86858 206.855486 
L 298.686636 204.666183 
L 302.32275 199.434047 
L 307.77692 191.224391 
L 315.049148 178.799266 
L 316.867205 176.043628 
L 320.503318 169.645121 
L 324.139432 164.026482 
L 327.775545 159.075874 
L 329.593602 157.064317 
L 333.229716 153.664498 
L 335.047773 152.623673 
L 338.683886 151.478463 
L 344.138057 151.648431 
L 345.956114 152.194183 
L 349.592227 153.761358 
L 351.410284 155.001982 
L 353.228341 155.863856 
L 356.864455 158.224321 
L 358.682511 159.781066 
L 360.500568 160.90538 
L 365.954739 164.572974 
L 367.772795 165.667764 
L 373.226966 168.391761 
L 376.86308 170.087474 
L 380.499193 171.264565 
L 387.77142 173.155899 
L 389.589477 173.389105 
L 400.497818 173.754977 
L 402.315875 173.442719 
L 404.133932 173.452552 
L 411.406159 171.677154 
L 413.224216 170.689756 
L 418.678386 168.896175 
L 420.496443 168.097803 
L 422.3145 167.53265 
L 425.950614 165.894157 
L 433.222841 162.288522 
L 435.040898 160.746714 
L 436.858955 159.982045 
L 438.677011 158.788519 
L 440.495068 157.413423 
L 444.131182 155.449862 
L 445.949239 153.837672 
L 447.767295 152.619692 
L 451.403409 149.771084 
L 453.221466 148.805108 
L 455.039523 147.408242 
L 456.85758 145.833034 
L 460.493693 143.121018 
L 462.31175 141.540739 
L 464.129807 140.140593 
L 467.76592 136.781169 
L 469.583977 135.131157 
L 471.402034 133.270296 
L 473.220091 131.025364 
L 475.038148 129.240552 
L 476.856205 127.170086 
L 478.674261 124.335902 
L 482.310375 119.346906 
L 485.946489 113.238752 
L 487.764545 109.341232 
L 489.582602 106.043105 
L 491.400659 101.530088 
L 493.218716 97.798683 
L 496.85483 88.492118 
L 502.309 71.639046 
L 505.945114 59.3392 
L 507.76317 53.164102 
L 511.399284 42.124478 
L 513.217341 37.465135 
L 515.035398 35.422809 
L 516.853455 33.179176 
L 518.671511 34.278353 
L 520.489568 35.114841 
L 522.307625 39.747396 
L 524.125682 45.001114 
L 527.761795 60.719222 
L 531.397909 78.330345 
L 533.215966 86.43544 
L 535.034023 95.09072 
L 536.85208 102.422009 
L 538.670136 108.685435 
L 540.488193 114.51111 
L 542.30625 119.073932 
L 544.124307 123.135181 
L 545.942364 126.52546 
L 547.76042 129.62621 
L 549.578477 132.231649 
L 553.214591 136.710178 
L 555.032648 138.904707 
L 556.850705 140.187946 
L 558.668761 142.078928 
L 562.304875 144.740542 
L 564.122932 145.992466 
L 565.940989 147.606742 
L 567.759045 149.06385 
L 569.577102 149.936178 
L 571.395159 151.54091 
L 573.213216 152.498234 
L 575.031273 153.304057 
L 576.84933 154.512493 
L 578.667386 156.099928 
L 580.485443 156.958836 
L 582.3035 158.095099 
L 584.121557 159.655097 
L 585.939614 160.759449 
L 587.75767 161.654144 
L 589.575727 162.875404 
L 593.211841 164.906362 
L 595.029898 166.141042 
L 596.847955 167.527768 
L 600.484068 169.813118 
L 604.120182 171.897758 
L 605.938239 172.810348 
L 613.210466 177.01154 
L 615.028523 177.732419 
L 616.84658 179.153739 
L 620.482693 181.372584 
L 627.75492 185.448519 
L 631.391034 187.617559 
L 633.209091 188.677773 
L 636.845205 190.596895 
L 638.663261 191.755525 
L 640.481318 192.681535 
L 642.299375 193.813325 
L 644.117432 194.623024 
L 645.935489 195.647451 
L 647.753545 196.45715 
L 649.571602 197.57552 
L 651.389659 198.349431 
L 655.025773 200.228292 
L 658.661886 202.017683 
L 660.479943 202.778174 
L 664.116057 204.563092 
L 665.934114 205.359371 
L 667.75217 205.97671 
L 671.388284 207.587162 
L 675.024398 209.077427 
L 678.660511 210.624654 
L 680.478568 211.246467 
L 682.296625 212.069587 
L 689.568852 214.498685 
L 693.204966 215.773626 
L 698.659136 217.518283 
L 707.74942 220.162108 
L 718.657761 222.971452 
L 722.293875 223.745363 
L 725.929989 224.581904 
L 727.748045 224.881627 
L 729.566102 225.355815 
L 735.020273 226.357874 
L 738.656386 227.064684 
L 744.110557 227.9728 
L 745.928614 228.388833 
L 767.745295 231.314487 
L 784.107807 233.000988 
L 785.925864 233.085985 
L 789.561977 233.448336 
L 793.198091 233.752533 
L 798.652261 234.17304 
L 805.924489 234.678543 
L 805.924489 234.678543 
" clip-path="url(#p6a35c50289)" style="fill: none; stroke: #ff0000; stroke-width: 2; stroke-linecap: square"/>
   </g>
   <g id="patch_3">
    <path d="M 42.340625 248.97625 
L 42.340625 22.903125 
" style="fill: none; stroke: #000000; stroke-width: 0.8; stroke-linejoin: miter; stroke-linecap: square"/>
   </g>
   <g id="patch_4">
    <path d="M 842.285625 248.97625 
L 842.285625 22.903125 
" style="fill: none; stroke: #000000; stroke-width: 0.8; stroke-linejoin: miter; stroke-linecap: square"/>
   </g>
   <g id="patch_5">
    <path d="M 42.340625 248.97625 
L 842.285625 248.97625 
" style="fill: none; stroke: #000000; stroke-width: 0.8; stroke-linejoin: miter; stroke-linecap: square"/>
   </g>
   <g id="patch_6">
    <path d="M 42.340625 22.903125 
L 842.285625 22.903125 
" style="fill: none; stroke: #000000; stroke-width: 0.8; stroke-linejoin: miter; stroke-linecap: square"/>
   </g>
   <g id="text_21">
    <!-- 优化后的合成光谱对比 -->
    <g transform="translate(382.313125 16.903125) scale(0.12 -0.12)">
     <defs>
      <path id="SimHei-4f18" d="M 4650 350 
Q 4625 100 4825 50 
Q 5025 0 5200 12 
Q 5375 25 5462 125 
Q 5550 225 5650 800 
Q 5825 625 6200 525 
Q 6050 -25 5912 -200 
Q 5775 -375 5475 -400 
L 4700 -400 
Q 4175 -400 4175 200 
L 4175 3050 
L 3850 3050 
Q 3725 600 2375 -550 
Q 2200 -325 1875 -225 
Q 3175 675 3350 3050 
L 2900 3050 
Q 2350 3050 1975 3025 
L 1975 3475 
Q 2350 3450 2900 3450 
L 3375 3450 
Q 3375 4700 3350 5150 
Q 3525 5100 3925 5075 
Q 3850 4700 3850 3450 
L 5200 3450 
Q 5475 3450 5925 3475 
L 5925 3025 
Q 5500 3050 5225 3050 
L 4650 3050 
L 4650 350 
z
M 200 2375 
Q 525 2700 1000 3612 
Q 1475 4525 1600 5200 
Q 1850 5050 2225 4925 
Q 2000 4700 1700 3825 
L 1700 600 
Q 1700 -150 1725 -525 
L 1200 -525 
Q 1225 -175 1225 575 
L 1225 2975 
Q 900 2425 550 1975 
Q 425 2200 200 2375 
z
M 4850 5025 
Q 5000 4800 5150 4587 
Q 5300 4375 5450 4200 
Q 5250 4075 5025 3875 
Q 4875 4175 4450 4725 
Q 4625 4850 4850 5025 
z
" transform="scale(0.015625)"/>
      <path id="SimHei-5316" d="M 3925 5025 
Q 3900 4900 3900 4400 
L 3900 2625 
Q 4375 3025 4775 3450 
Q 5175 3875 5400 4300 
Q 5600 4100 5900 3925 
Q 5700 3700 5225 3212 
Q 4750 2725 4487 2512 
Q 4225 2300 3900 2025 
L 3900 450 
Q 3900 50 4225 50 
L 5200 50 
Q 5400 75 5462 262 
Q 5525 450 5575 850 
Q 5800 650 6150 600 
Q 6000 -100 5825 -250 
Q 5650 -400 5350 -400 
L 3950 -400 
Q 3425 -400 3400 200 
L 3400 1675 
Q 3225 1525 2962 1350 
Q 2700 1175 2375 975 
Q 2225 1225 2025 1400 
Q 2350 1550 2737 1787 
Q 3125 2025 3400 2250 
L 3400 4500 
Q 3400 4800 3375 5025 
L 3925 5025 
z
M 2400 4850 
Q 2175 4550 2075 4337 
Q 1975 4125 1825 3775 
L 1825 675 
Q 1825 -75 1850 -550 
L 1325 -550 
Q 1350 -125 1350 650 
L 1350 3050 
Q 1125 2725 962 2525 
Q 800 2325 675 2175 
Q 500 2375 275 2525 
Q 625 2850 875 3212 
Q 1125 3575 1312 3912 
Q 1500 4250 1625 4575 
Q 1750 4900 1825 5100 
Q 1975 4975 2400 4850 
z
" transform="scale(0.015625)"/>
      <path id="SimHei-540e" d="M 5475 2150 
Q 5450 1750 5450 775 
Q 5450 -175 5500 -550 
L 4975 -550 
L 4975 -25 
L 2525 -25 
L 2525 -600 
L 2025 -600 
Q 2050 -175 2050 775 
Q 2050 1750 2025 2150 
L 5475 2150 
z
M 5175 5075 
Q 5300 4800 5525 4525 
Q 4950 4475 3750 4337 
Q 2550 4200 1575 4175 
L 1575 3375 
L 5200 3375 
Q 5550 3375 5975 3400 
L 5975 2900 
Q 5575 2925 5200 2925 
L 1575 2925 
Q 1550 2425 1487 1875 
Q 1425 1325 1250 712 
Q 1075 100 800 -325 
Q 650 -200 225 -50 
Q 625 325 825 1062 
Q 1025 1800 1050 2825 
Q 1075 3850 1075 4575 
Q 2300 4600 3625 4775 
Q 4950 4950 5175 5075 
z
M 4975 375 
L 4975 1725 
L 2525 1725 
L 2525 375 
L 4975 375 
z
" transform="scale(0.015625)"/>
      <path id="SimHei-7684" d="M 2100 4975 
Q 1975 4750 1750 3950 
L 2875 3950 
Q 2850 3525 2850 2875 
L 2850 675 
Q 2850 300 2875 -400 
L 2375 -400 
L 2375 100 
L 1100 100 
L 1100 -450 
L 600 -450 
Q 625 350 625 550 
L 625 2850 
Q 625 3525 600 3950 
L 1325 3950 
Q 1450 4525 1525 5150 
Q 1875 5025 2100 4975 
z
M 5825 3075 
Q 5800 1550 5700 175 
Q 5650 -275 5225 -425 
Q 4800 -575 4275 -625 
Q 4250 -350 4050 -50 
Q 4550 -75 4837 -25 
Q 5125 25 5200 200 
Q 5275 375 5312 1225 
Q 5350 2075 5375 3600 
L 3925 3600 
Q 3725 3125 3350 2475 
Q 3175 2650 2925 2750 
Q 3150 3050 3350 3475 
Q 3550 3900 3700 4400 
Q 3850 4900 3875 5175 
Q 4225 5025 4475 4950 
Q 4350 4750 4262 4512 
Q 4175 4275 4075 4050 
L 5850 4050 
Q 5825 3525 5825 3075 
z
M 2375 525 
L 2375 1850 
L 1100 1850 
L 1100 525 
L 2375 525 
z
M 2375 2275 
L 2375 3525 
L 1100 3525 
L 1100 2275 
L 2375 2275 
z
M 4350 2050 
Q 4500 1750 4700 1275 
Q 4525 1200 4225 1025 
Q 4050 1500 3900 1837 
Q 3750 2175 3600 2400 
Q 3775 2500 4050 2650 
L 4350 2050 
z
" transform="scale(0.015625)"/>
      <path id="SimHei-5408" d="M 5050 1800 
Q 5025 1550 5025 650 
Q 5025 -250 5050 -525 
L 4525 -525 
L 4525 -50 
L 1750 -50 
L 1750 -600 
L 1250 -600 
Q 1275 -300 1275 550 
Q 1275 1425 1250 1800 
L 5050 1800 
z
M 3375 4800 
Q 4100 3925 4550 3600 
Q 5000 3275 5375 3100 
Q 5750 2925 6100 2825 
Q 5850 2550 5775 2300 
Q 5275 2525 4875 2775 
Q 4475 3025 4062 3412 
Q 3650 3800 3125 4475 
Q 2650 3800 2187 3362 
Q 1725 2925 1400 2675 
Q 1075 2425 675 2175 
Q 625 2275 275 2575 
Q 800 2825 1275 3175 
Q 1750 3525 2225 4062 
Q 2700 4600 3000 5225 
Q 3275 5050 3500 4950 
L 3375 4800 
z
M 4525 350 
L 4525 1400 
L 1750 1400 
L 1750 350 
L 4525 350 
z
M 3925 2825 
Q 4325 2825 4625 2850 
L 4625 2375 
Q 4300 2400 3950 2400 
L 2550 2400 
Q 2025 2400 1700 2375 
L 1700 2850 
Q 2175 2825 2550 2825 
L 3925 2825 
z
" transform="scale(0.015625)"/>
      <path id="SimHei-6210" d="M 3500 4000 
Q 3475 4725 3450 5225 
Q 3750 5200 4025 5175 
Q 3975 4850 4000 4000 
L 4725 4000 
Q 5250 4000 5875 4025 
L 5875 3550 
Q 5225 3575 4725 3575 
L 4025 3575 
Q 4050 2625 4350 1500 
Q 4825 2225 5100 3175 
Q 5350 2975 5675 2825 
Q 5475 2600 5225 2075 
Q 4975 1550 4575 975 
Q 4800 525 5062 262 
Q 5325 0 5425 37 
Q 5525 75 5625 900 
Q 5875 700 6150 600 
Q 5975 -425 5762 -537 
Q 5550 -650 5250 -537 
Q 4950 -425 4687 -112 
Q 4425 200 4250 575 
Q 3650 -75 2725 -650 
Q 2600 -425 2350 -250 
Q 2850 -25 3312 350 
Q 3775 725 4000 1050 
Q 3825 1525 3700 2212 
Q 3575 2900 3550 3575 
L 1400 3575 
L 1400 2700 
L 3025 2700 
Q 2975 2250 2950 1775 
L 2875 775 
Q 2850 300 2612 200 
Q 2375 100 1800 50 
Q 1775 275 1600 600 
Q 2225 575 2325 675 
Q 2425 775 2450 1250 
L 2500 2250 
L 1400 2250 
Q 1400 1275 1250 625 
Q 1100 -25 700 -575 
Q 425 -375 200 -300 
Q 525 100 650 462 
Q 775 825 837 1250 
Q 900 1675 912 2450 
Q 925 3225 900 4000 
L 3500 4000 
z
M 4750 5225 
Q 5250 4825 5625 4425 
Q 5400 4250 5225 4075 
Q 4925 4475 4425 4900 
Q 4600 5050 4750 5225 
z
" transform="scale(0.015625)"/>
      <path id="SimHei-6bd4" d="M 3775 5100 
Q 3750 4575 3750 4100 
L 3750 3050 
Q 4925 3600 5475 4175 
Q 5675 3900 5900 3675 
Q 5600 3500 5037 3187 
Q 4475 2875 3750 2550 
L 3750 450 
Q 3750 100 4050 100 
L 5000 100 
Q 5175 100 5262 250 
Q 5350 400 5450 900 
Q 5650 775 6025 675 
Q 5850 0 5650 -175 
Q 5450 -350 5225 -350 
L 3900 -350 
Q 3250 -350 3250 275 
L 3250 4000 
Q 3250 4550 3225 5100 
L 3775 5100 
z
M 1275 4975 
Q 1250 4575 1250 4000 
L 1250 3150 
L 1850 3150 
Q 2325 3150 2875 3175 
L 2875 2650 
Q 2325 2675 1850 2675 
L 1250 2675 
L 1250 475 
Q 1650 650 1962 812 
Q 2275 975 2850 1275 
Q 2900 950 2950 750 
Q 2375 475 1762 175 
Q 1150 -125 925 -325 
Q 750 -100 575 200 
Q 700 300 750 600 
L 750 3950 
Q 750 4550 725 4975 
L 1275 4975 
z
" transform="scale(0.015625)"/>
     </defs>
     <use xlink:href="#SimHei-4f18"/>
     <use xlink:href="#SimHei-5316" transform="translate(100 0)"/>
     <use xlink:href="#SimHei-540e" transform="translate(200 0)"/>
     <use xlink:href="#SimHei-7684" transform="translate(300 0)"/>
     <use xlink:href="#SimHei-5408" transform="translate(400 0)"/>
     <use xlink:href="#SimHei-6210" transform="translate(500 0)"/>
     <use xlink:href="#SimHei-5149" transform="translate(600 0)"/>
     <use xlink:href="#SimHei-8c31" transform="translate(700 0)"/>
     <use xlink:href="#SimHei-5bf9" transform="translate(800 0)"/>
     <use xlink:href="#SimHei-6bd4" transform="translate(900 0)"/>
    </g>
   </g>
   <g id="legend_1">
    <g id="patch_7">
     <path d="M 743.285625 59.770312 
L 835.285625 59.770312 
Q 837.285625 59.770312 837.285625 57.770312 
L 837.285625 29.903125 
Q 837.285625 27.903125 835.285625 27.903125 
L 743.285625 27.903125 
Q 741.285625 27.903125 741.285625 29.903125 
L 741.285625 57.770312 
Q 741.285625 59.770312 743.285625 59.770312 
z
" style="fill: #ffffff; opacity: 0.8; stroke: #cccccc; stroke-linejoin: miter"/>
    </g>
    <g id="line2d_39">
     <path d="M 745.285625 36.528125 
L 755.285625 36.528125 
L 765.285625 36.528125 
" style="fill: none; stroke: #0000ff; stroke-width: 2; stroke-linecap: square"/>
    </g>
    <g id="text_22">
     <!-- 日间照明模式 -->
     <g transform="translate(773.285625 40.028125) scale(0.1 -0.1)">
      <defs>
       <path id="SimHei-65e5" d="M 5375 5000 
Q 5350 3775 5350 2275 
Q 5350 775 5375 -450 
L 4800 -450 
L 4800 175 
L 1800 175 
L 1800 -575 
L 1250 -575 
Q 1275 575 1275 2125 
Q 1275 3675 1250 5000 
L 5375 5000 
z
M 4800 600 
L 4800 2375 
L 1800 2375 
L 1800 600 
L 4800 600 
z
M 4800 2800 
L 4800 4550 
L 1800 4550 
L 1800 2800 
L 4800 2800 
z
" transform="scale(0.015625)"/>
       <path id="SimHei-95f4" d="M 4450 3550 
Q 4425 3075 4425 2725 
L 4425 1400 
Q 4425 1075 4450 625 
L 1925 625 
Q 1950 1075 1950 1425 
L 1950 2725 
Q 1950 3075 1925 3550 
L 4450 3550 
z
M 5800 4875 
Q 5775 4400 5775 3925 
L 5775 250 
Q 5800 -325 5462 -450 
Q 5125 -575 4725 -625 
Q 4700 -325 4525 -25 
Q 5000 -50 5137 25 
Q 5275 100 5275 350 
L 5275 4450 
L 3775 4450 
Q 3175 4450 2650 4425 
L 2650 4900 
Q 3175 4875 3775 4875 
L 5800 4875 
z
M 550 -525 
Q 600 -25 600 525 
L 600 3150 
Q 600 3675 550 4025 
L 1125 4025 
Q 1100 3650 1100 3300 
L 1100 500 
Q 1100 0 1125 -525 
L 550 -525 
z
M 3950 1025 
L 3950 1950 
L 2425 1950 
L 2425 1025 
L 3950 1025 
z
M 3950 2350 
L 3950 3150 
L 2425 3150 
L 2425 2350 
L 3950 2350 
z
M 1525 5300 
Q 1750 5000 2225 4350 
Q 1950 4225 1700 4075 
Q 1450 4575 1075 5025 
Q 1350 5225 1525 5300 
z
" transform="scale(0.015625)"/>
       <path id="SimHei-7167" d="M 2525 4900 
Q 2500 4000 2500 2950 
Q 2500 1925 2525 1175 
L 675 1175 
Q 700 1900 700 2950 
Q 700 4000 675 4900 
L 2525 4900 
z
M 5675 2650 
Q 5650 2350 5650 1900 
Q 5650 1475 5675 1075 
L 3175 1075 
Q 3200 1500 3200 1900 
Q 3200 2300 3175 2650 
L 5675 2650 
z
M 4625 2775 
Q 4600 3025 4400 3275 
Q 4775 3275 4925 3300 
Q 5075 3325 5100 3525 
L 5175 4600 
L 4275 4600 
Q 4175 3875 3862 3425 
Q 3550 2975 3100 2650 
Q 2850 2900 2675 2975 
Q 3125 3225 3425 3625 
Q 3725 4025 3775 4600 
Q 3325 4600 2875 4575 
L 2875 5000 
Q 3275 4975 3675 4975 
L 5725 4975 
Q 5675 4675 5637 4037 
Q 5600 3400 5525 3162 
Q 5450 2925 5237 2875 
Q 5025 2825 4625 2775 
z
M 5175 1475 
L 5175 2300 
L 3675 2300 
L 3675 1475 
L 5175 1475 
z
M 2025 3200 
L 2025 4500 
L 1175 4500 
L 1175 3200 
L 2025 3200 
z
M 2025 1575 
L 2025 2825 
L 1175 2825 
L 1175 1575 
L 2025 1575 
z
M 1375 625 
Q 1025 -250 800 -650 
Q 575 -500 325 -450 
Q 575 -100 875 825 
Q 1100 700 1375 625 
z
M 5575 -625 
Q 5400 -200 4950 650 
Q 5100 725 5375 850 
Q 5825 0 6025 -400 
Q 5775 -500 5575 -625 
z
M 2550 725 
Q 2800 -175 2850 -475 
Q 2600 -475 2375 -575 
Q 2325 -300 2050 600 
Q 2275 650 2550 725 
z
M 4425 -425 
Q 4175 -475 3925 -550 
Q 3825 -125 3575 600 
Q 3725 650 4050 750 
Q 4325 -75 4425 -425 
z
" transform="scale(0.015625)"/>
       <path id="SimHei-660e" d="M 5775 4975 
Q 5750 4500 5750 3875 
L 5750 275 
Q 5775 -200 5587 -337 
Q 5400 -475 4750 -575 
Q 4700 -300 4500 25 
Q 4925 0 5100 37 
Q 5275 75 5250 300 
L 5250 1625 
L 3775 1625 
Q 3625 325 2925 -700 
Q 2675 -475 2400 -375 
Q 3375 600 3300 2800 
L 3300 3850 
Q 3300 4450 3275 4975 
L 5775 4975 
z
M 2575 4775 
Q 2550 4250 2550 3650 
L 2550 1850 
Q 2550 1250 2575 775 
L 2100 775 
L 2100 1150 
L 1050 1150 
L 1050 450 
L 550 450 
Q 575 875 575 1550 
L 575 3675 
Q 575 4275 550 4775 
L 2575 4775 
z
M 5250 3500 
L 5250 4550 
L 3800 4550 
L 3800 3500 
L 5250 3500 
z
M 5250 2050 
L 5250 3075 
L 3800 3075 
L 3800 2050 
L 5250 2050 
z
M 2100 1600 
L 2100 2825 
L 1050 2825 
L 1050 1600 
L 2100 1600 
z
M 2100 3225 
L 2100 4350 
L 1050 4350 
L 1050 3225 
L 2100 3225 
z
" transform="scale(0.015625)"/>
       <path id="SimHei-6a21" d="M 5700 3675 
Q 5675 3400 5675 2725 
Q 5675 2050 5700 1725 
L 4375 1725 
Q 4350 1450 4325 1200 
L 5225 1200 
Q 5750 1200 6025 1225 
L 6025 825 
Q 5725 850 5225 850 
L 4700 850 
Q 5075 375 5437 137 
Q 5800 -100 6200 -200 
Q 5975 -375 5850 -625 
Q 5275 -400 4862 25 
Q 4450 450 4300 775 
L 4225 775 
Q 4000 275 3537 -62 
Q 3075 -400 2475 -625 
Q 2350 -375 2125 -200 
Q 2775 -75 3200 200 
Q 3625 475 3775 850 
L 3325 850 
Q 2800 850 2400 825 
L 2400 1225 
Q 2800 1200 3350 1200 
L 3875 1200 
Q 3925 1475 3925 1725 
L 2750 1725 
Q 2775 2075 2775 2700 
Q 2775 3350 2750 3675 
L 5700 3675 
z
M 2175 1650 
Q 2025 1975 1675 2525 
L 1675 300 
Q 1675 -300 1700 -550 
L 1175 -550 
Q 1200 -275 1200 250 
L 1200 2225 
Q 1125 2000 962 1712 
Q 800 1425 600 1050 
Q 450 1275 200 1425 
Q 600 1825 850 2425 
Q 1100 3025 1175 3425 
L 950 3425 
Q 700 3425 400 3400 
L 400 3825 
Q 675 3800 825 3800 
L 1200 3800 
L 1200 4350 
Q 1200 4775 1175 5150 
L 1700 5150 
Q 1675 4825 1675 4425 
L 1675 3800 
Q 2075 3800 2375 3825 
L 2375 3400 
Q 2050 3425 1675 3425 
L 1675 2575 
Q 1850 2675 2000 2775 
Q 2150 2525 2287 2325 
Q 2425 2125 2550 1925 
Q 2325 1775 2175 1650 
z
M 3375 4300 
L 3175 4300 
Q 2700 4300 2425 4275 
L 2425 4675 
Q 2700 4650 3150 4650 
L 3375 4650 
Q 3375 5000 3350 5225 
L 3825 5225 
Q 3800 5000 3800 4650 
L 4550 4650 
Q 4550 4975 4525 5200 
L 5025 5200 
Q 5000 4925 5000 4650 
L 5375 4650 
Q 5650 4650 5950 4675 
L 5950 4275 
Q 5650 4300 5375 4300 
L 5000 4300 
L 5000 3850 
L 4550 3850 
L 4550 4300 
L 3800 4300 
L 3800 3875 
L 3375 3875 
L 3375 4300 
z
M 5275 2075 
L 5275 2525 
L 3200 2525 
L 3200 2075 
L 5275 2075 
z
M 5275 2875 
L 5275 3325 
L 3200 3325 
L 3200 2875 
L 5275 2875 
z
" transform="scale(0.015625)"/>
       <path id="SimHei-5f0f" d="M 3300 3900 
Q 3250 4775 3225 5225 
Q 3375 5200 3875 5175 
Q 3825 5000 3850 3900 
L 4850 3900 
Q 5325 3900 5825 3925 
L 5825 3425 
Q 5375 3450 4875 3450 
L 3875 3450 
Q 3950 2800 4087 2237 
Q 4225 1675 4450 1175 
Q 4675 675 5037 287 
Q 5400 -100 5475 250 
Q 5550 600 5525 950 
Q 5750 775 6150 625 
Q 5975 -450 5637 -525 
Q 5300 -600 4962 -362 
Q 4625 -125 4325 325 
Q 4025 775 3837 1312 
Q 3650 1850 3525 2425 
Q 3400 3000 3350 3450 
L 1525 3450 
Q 800 3450 350 3425 
L 350 3925 
Q 825 3900 1500 3900 
L 3300 3900 
z
M 2250 2575 
Q 2725 2575 3150 2600 
L 3150 2125 
Q 2700 2150 2200 2150 
L 2200 575 
Q 2725 700 3400 875 
L 3400 425 
Q 2500 250 1975 87 
Q 1450 -75 700 -375 
L 450 225 
Q 750 250 1700 450 
L 1700 2150 
Q 975 2150 700 2125 
L 700 2600 
Q 975 2575 1475 2575 
L 2250 2575 
z
M 4700 5075 
Q 5175 4550 5375 4300 
Q 5250 4250 4900 4000 
Q 4725 4300 4275 4750 
Q 4400 4850 4700 5075 
z
" transform="scale(0.015625)"/>
      </defs>
      <use xlink:href="#SimHei-65e5"/>
      <use xlink:href="#SimHei-95f4" transform="translate(100 0)"/>
      <use xlink:href="#SimHei-7167" transform="translate(200 0)"/>
      <use xlink:href="#SimHei-660e" transform="translate(300 0)"/>
      <use xlink:href="#SimHei-6a21" transform="translate(400 0)"/>
      <use xlink:href="#SimHei-5f0f" transform="translate(500 0)"/>
     </g>
    </g>
    <g id="line2d_40">
     <path d="M 745.285625 51.020312 
L 755.285625 51.020312 
L 765.285625 51.020312 
" style="fill: none; stroke: #ff0000; stroke-width: 2; stroke-linecap: square"/>
    </g>
    <g id="text_23">
     <!-- 夜间助眠模式 -->
     <g transform="translate(773.285625 54.520312) scale(0.1 -0.1)">
      <defs>
       <path id="SimHei-591c" d="M 3775 3725 
Q 3625 3550 3500 3250 
L 5475 3250 
Q 5350 2725 5250 2337 
Q 5150 1950 4962 1562 
Q 4775 1175 4637 987 
Q 4500 800 4225 450 
Q 4600 225 4987 100 
Q 5375 -25 6125 -100 
Q 5850 -350 5725 -675 
Q 5050 -500 4562 -287 
Q 4075 -75 3850 125 
Q 3550 -50 3275 -225 
Q 3000 -400 2375 -700 
Q 2250 -425 2000 -200 
Q 2525 -25 2825 100 
Q 3125 225 3475 450 
Q 3275 725 3087 1087 
Q 2900 1450 2750 1875 
Q 2550 1550 2425 1375 
Q 2225 1525 1975 1700 
Q 2100 1825 2275 2062 
Q 2450 2300 2600 2587 
Q 2750 2875 2912 3225 
Q 3075 3575 3125 3950 
Q 3650 3775 3775 3725 
z
M 2300 3600 
Q 2050 3300 1750 2725 
L 1750 275 
Q 1750 -175 1775 -625 
L 1225 -625 
Q 1250 -175 1250 275 
L 1250 2025 
Q 900 1425 600 1125 
Q 425 1325 200 1525 
Q 425 1725 650 2012 
Q 875 2300 1087 2662 
Q 1300 3025 1450 3350 
Q 1600 3675 1650 3925 
Q 1925 3775 2300 3600 
z
M 3400 5275 
Q 3475 4775 3525 4525 
L 4950 4525 
Q 5475 4525 5925 4550 
L 5925 4050 
Q 5475 4075 4950 4075 
L 1425 4075 
Q 875 4075 425 4050 
L 425 4550 
Q 850 4525 1425 4525 
L 2900 4525 
Q 2900 4725 2775 5150 
Q 3050 5225 3400 5275 
z
M 2825 1950 
Q 3100 2050 3250 2100 
Q 3325 1800 3512 1387 
Q 3700 975 3850 800 
Q 4075 1025 4225 1250 
Q 4375 1475 4500 1712 
Q 4625 1950 4712 2225 
Q 4800 2500 4875 2825 
L 3275 2825 
Q 3075 2450 2825 1950 
z
M 3925 2475 
Q 4000 2325 4100 2137 
Q 4200 1950 4325 1750 
Q 4075 1650 3875 1525 
Q 3825 1700 3700 1925 
Q 3575 2150 3500 2250 
Q 3725 2400 3925 2475 
z
" transform="scale(0.015625)"/>
       <path id="SimHei-52a9" d="M 3100 450 
Q 2825 400 2487 325 
Q 2150 250 1812 162 
Q 1475 75 1112 -37 
Q 750 -150 425 -275 
Q 375 -50 250 325 
Q 525 375 750 425 
L 750 3650 
Q 750 4175 725 4675 
L 2800 4675 
Q 2775 4225 2775 3675 
L 2775 800 
Q 2875 825 3100 875 
L 3100 450 
z
M 2650 -225 
Q 3150 125 3400 562 
Q 3650 1000 3762 1475 
Q 3875 1950 3925 2450 
Q 3975 2950 3975 3400 
Q 3550 3400 3200 3375 
L 3200 3825 
Q 3525 3800 3975 3800 
L 3975 4375 
Q 3975 4650 3950 5125 
Q 4225 5100 4600 5100 
Q 4525 4775 4512 4450 
Q 4500 4125 4500 3800 
L 5900 3800 
Q 5825 3400 5825 2825 
L 5675 275 
Q 5650 -200 5350 -287 
Q 5050 -375 4575 -425 
Q 4525 -100 4400 175 
Q 4875 175 5050 187 
Q 5225 200 5225 675 
L 5350 3400 
L 4500 3400 
Q 4450 2350 4325 1700 
Q 4200 1050 4012 675 
Q 3825 300 3637 12 
Q 3450 -275 3200 -550 
Q 3000 -350 2650 -225 
z
M 2275 1950 
L 2275 2950 
L 1225 2950 
L 1225 1950 
L 2275 1950 
z
M 1225 500 
Q 1525 550 1762 600 
Q 2000 650 2275 700 
L 2275 1550 
L 1225 1550 
L 1225 500 
z
M 2275 3325 
L 2275 4275 
L 1225 4275 
L 1225 3325 
L 2275 3325 
z
" transform="scale(0.015625)"/>
       <path id="SimHei-7720" d="M 5625 5025 
Q 5600 4550 5600 4075 
Q 5600 3600 5625 3175 
L 4450 3175 
Q 4475 2675 4525 2225 
L 5200 2225 
Q 5425 2225 5850 2250 
L 5850 1775 
Q 5500 1825 5275 1825 
L 4575 1825 
Q 4625 1425 4812 962 
Q 5000 500 5237 200 
Q 5475 -100 5562 125 
Q 5650 350 5675 550 
Q 5900 275 6150 200 
Q 6000 -250 5725 -512 
Q 5450 -775 5025 -300 
Q 4600 175 4400 750 
Q 4200 1325 4125 1825 
L 3050 1825 
L 3050 125 
Q 3450 400 3975 850 
Q 4000 525 4100 300 
Q 3925 175 3500 -100 
Q 3075 -375 2725 -675 
Q 2525 -450 2375 -250 
Q 2475 -150 2525 50 
Q 2575 250 2575 450 
L 2575 4050 
Q 2575 4750 2550 5025 
L 5625 5025 
z
M 2200 4825 
Q 2150 4275 2150 3675 
L 2150 1150 
Q 2150 725 2200 75 
L 1725 75 
L 1725 450 
L 825 450 
L 825 -125 
L 350 -125 
Q 400 500 400 1100 
L 400 3675 
Q 400 4275 350 4825 
L 2200 4825 
z
M 5150 3525 
L 5150 4625 
L 3050 4625 
L 3050 3525 
L 5150 3525 
z
M 4075 2225 
Q 4025 2700 4000 3175 
L 3050 3175 
L 3050 2225 
L 4075 2225 
z
M 1725 3400 
L 1725 4425 
L 825 4425 
L 825 3400 
L 1725 3400 
z
M 1725 875 
L 1725 1825 
L 825 1825 
L 825 875 
L 1725 875 
z
M 1725 2225 
L 1725 3050 
L 825 3050 
L 825 2225 
L 1725 2225 
z
" transform="scale(0.015625)"/>
      </defs>
      <use xlink:href="#SimHei-591c"/>
      <use xlink:href="#SimHei-95f4" transform="translate(100 0)"/>
      <use xlink:href="#SimHei-52a9" transform="translate(200 0)"/>
      <use xlink:href="#SimHei-7720" transform="translate(300 0)"/>
      <use xlink:href="#SimHei-6a21" transform="translate(400 0)"/>
      <use xlink:href="#SimHei-5f0f" transform="translate(500 0)"/>
     </g>
    </g>
   </g>
  </g>
  <g id="axes_2">
   <g id="patch_8">
    <path d="M 42.340625 531.199375 
L 842.285625 531.199375 
L 842.285625 305.12625 
L 42.340625 305.12625 
z
" style="fill: #ffffff"/>
   </g>
   <g id="patch_9">
    <path d="M 78.701761 531.199375 
L 132.856645 531.199375 
L 132.856645 455.199723 
L 78.701761 455.199723 
z
" clip-path="url(#p74b166e3dc)" style="fill: #ffa500; opacity: 0.7"/>
   </g>
   <g id="patch_10">
    <path d="M 233.430001 531.199375 
L 287.584885 531.199375 
L 287.584885 449.669145 
L 233.430001 449.669145 
z
" clip-path="url(#p74b166e3dc)" style="fill: #ffa500; opacity: 0.7"/>
   </g>
   <g id="patch_11">
    <path d="M 388.158241 531.199375 
L 442.313125 531.199375 
L 442.313125 406.193011 
L 388.158241 406.193011 
z
" clip-path="url(#p74b166e3dc)" style="fill: #ffa500; opacity: 0.7"/>
   </g>
   <g id="patch_12">
    <path d="M 542.886481 531.199375 
L 597.041365 531.199375 
L 597.041365 531.199375 
L 542.886481 531.199375 
z
" clip-path="url(#p74b166e3dc)" style="fill: #ffa500; opacity: 0.7"/>
   </g>
   <g id="patch_13">
    <path d="M 697.614721 531.199375 
L 751.769605 531.199375 
L 751.769605 315.891637 
L 697.614721 315.891637 
z
" clip-path="url(#p74b166e3dc)" style="fill: #ffa500; opacity: 0.7"/>
   </g>
   <g id="patch_14">
    <path d="M 132.856645 531.199375 
L 187.011529 531.199375 
L 187.011529 531.199375 
L 132.856645 531.199375 
z
" clip-path="url(#p74b166e3dc)" style="fill: #add8e6; opacity: 0.7"/>
   </g>
   <g id="patch_15">
    <path d="M 287.584885 531.199375 
L 341.739769 531.199375 
L 341.739769 425.869527 
L 287.584885 425.869527 
z
" clip-path="url(#p74b166e3dc)" style="fill: #add8e6; opacity: 0.7"/>
   </g>
   <g id="patch_16">
    <path d="M 442.313125 531.199375 
L 496.468009 531.199375 
L 496.468009 339.826864 
L 442.313125 339.826864 
z
" clip-path="url(#p74b166e3dc)" style="fill: #add8e6; opacity: 0.7"/>
   </g>
   <g id="patch_17">
    <path d="M 597.041365 531.199375 
L 651.196249 531.199375 
L 651.196249 330.05775 
L 597.041365 330.05775 
z
" clip-path="url(#p74b166e3dc)" style="fill: #add8e6; opacity: 0.7"/>
   </g>
   <g id="patch_18">
    <path d="M 751.769605 531.199375 
L 805.924489 531.199375 
L 805.924489 531.199375 
L 751.769605 531.199375 
z
" clip-path="url(#p74b166e3dc)" style="fill: #add8e6; opacity: 0.7"/>
   </g>
   <g id="matplotlib.axis_3">
    <g id="xtick_10">
     <g id="line2d_41">
      <path d="M 132.856645 531.199375 
L 132.856645 305.12625 
" clip-path="url(#p74b166e3dc)" style="fill: none; stroke: #b0b0b0; stroke-opacity: 0.3; stroke-width: 0.8; stroke-linecap: square"/>
     </g>
     <g id="line2d_42">
      <g>
       <use xlink:href="#m0b6daf2c84" x="132.856645" y="531.199375" style="stroke: #000000; stroke-width: 0.8"/>
      </g>
     </g>
     <g id="text_24">
      <!-- 蓝光 -->
      <g transform="translate(122.856645 546.09) scale(0.1 -0.1)">
       <defs>
        <path id="SimHei-84dd" d="M 5425 1350 
Q 5400 925 5400 525 
L 5400 -100 
Q 5775 -100 6175 -75 
L 6175 -525 
Q 5700 -500 5075 -500 
L 1275 -500 
Q 750 -500 250 -525 
L 250 -75 
Q 650 -100 1025 -100 
L 1025 575 
Q 1025 925 1000 1350 
L 5425 1350 
z
M 2575 5250 
Q 2525 5075 2525 4875 
L 2525 4675 
L 3775 4675 
L 3775 4825 
Q 3775 5050 3750 5275 
L 4300 5275 
Q 4225 5075 4225 4825 
L 4225 4675 
L 5350 4675 
Q 5725 4675 6125 4700 
L 6125 4225 
Q 5725 4275 5350 4275 
L 4225 4275 
L 4225 4125 
Q 4225 3975 4275 3800 
L 3750 3800 
Q 3775 3975 3775 4125 
L 3775 4275 
L 2525 4275 
L 2525 4175 
Q 2525 4025 2575 3825 
L 2050 3825 
Q 2075 4000 2075 4175 
L 2075 4275 
L 1100 4275 
Q 725 4275 325 4250 
L 325 4700 
Q 725 4675 1100 4675 
L 2075 4675 
L 2075 4775 
Q 2075 5025 2050 5250 
L 2575 5250 
z
M 4350 3450 
Q 4175 3275 4075 3050 
L 4950 3050 
Q 5450 3050 5925 3075 
L 5925 2625 
Q 5450 2650 4950 2650 
L 3875 2650 
Q 3725 2425 3612 2212 
Q 3500 2000 3275 1700 
Q 3100 1875 2850 2000 
Q 3200 2400 3437 2862 
Q 3675 3325 3750 3700 
Q 3975 3575 4350 3450 
z
M 2625 2150 
Q 2625 1900 2650 1600 
L 2125 1600 
Q 2150 1825 2150 2150 
L 2150 3000 
Q 2150 3300 2125 3575 
L 2650 3575 
Q 2625 3250 2625 3000 
L 2625 2150 
z
M 4925 -100 
L 4925 950 
L 4050 950 
L 4050 -100 
L 4925 -100 
z
M 2350 -100 
L 2350 950 
L 1500 950 
L 1500 -100 
L 2350 -100 
z
M 3600 -100 
L 3600 950 
L 2800 950 
L 2800 -100 
L 3600 -100 
z
M 1425 2225 
Q 1425 1925 1450 1650 
L 950 1650 
Q 975 1925 975 2200 
L 975 2975 
Q 975 3225 950 3425 
L 1450 3425 
Q 1425 3175 1425 2925 
L 1425 2225 
z
M 4575 2575 
Q 4825 2275 4925 2137 
Q 5025 2000 5200 1800 
Q 4975 1675 4775 1525 
Q 4600 1750 4500 1912 
Q 4400 2075 4150 2300 
Q 4425 2425 4575 2575 
z
" transform="scale(0.015625)"/>
       </defs>
       <use xlink:href="#SimHei-84dd"/>
       <use xlink:href="#SimHei-5149" transform="translate(100 0)"/>
      </g>
     </g>
    </g>
    <g id="xtick_11">
     <g id="line2d_43">
      <path d="M 287.584885 531.199375 
L 287.584885 305.12625 
" clip-path="url(#p74b166e3dc)" style="fill: none; stroke: #b0b0b0; stroke-opacity: 0.3; stroke-width: 0.8; stroke-linecap: square"/>
     </g>
     <g id="line2d_44">
      <g>
       <use xlink:href="#m0b6daf2c84" x="287.584885" y="531.199375" style="stroke: #000000; stroke-width: 0.8"/>
      </g>
     </g>
     <g id="text_25">
      <!-- 绿光 -->
      <g transform="translate(277.584885 546.09) scale(0.1 -0.1)">
       <defs>
        <path id="SimHei-7eff" d="M 3750 3525 
Q 3300 3525 2900 3500 
L 2900 3950 
Q 3275 3900 3725 3900 
L 5050 3900 
L 5100 4500 
L 3525 4500 
Q 3075 4500 2700 4475 
L 2700 4900 
Q 3075 4875 3525 4875 
L 5600 4875 
Q 5500 4050 5425 2925 
Q 5700 2925 6075 2950 
L 6075 2500 
Q 5675 2525 5275 2525 
L 4425 2525 
L 4425 2075 
Q 4600 1700 4775 1500 
Q 4925 1600 5112 1775 
Q 5300 1950 5550 2175 
Q 5700 1975 5900 1725 
Q 5775 1700 5525 1562 
Q 5275 1425 4975 1200 
Q 5175 925 5437 675 
Q 5700 425 6150 300 
Q 5900 -25 5825 -275 
Q 5225 125 4975 462 
Q 4725 800 4425 1325 
L 4425 -75 
Q 4425 -475 4162 -562 
Q 3900 -650 3625 -700 
Q 3550 -400 3425 -150 
Q 3850 -150 3912 -62 
Q 3975 25 3975 225 
L 3975 1050 
Q 3675 750 3350 462 
Q 3025 175 2625 -100 
Q 2450 225 2300 400 
Q 2750 575 3137 875 
Q 3525 1175 3975 1575 
L 3975 2525 
L 3250 2525 
Q 2850 2525 2375 2500 
L 2375 2950 
Q 2875 2925 3250 2925 
L 4975 2925 
L 5025 3525 
L 3750 3525 
z
M 1800 4825 
Q 1625 4600 1400 4137 
Q 1175 3675 850 3150 
L 1675 3150 
Q 1950 3700 2050 4075 
Q 2275 3825 2550 3675 
Q 2375 3550 2137 3137 
Q 1900 2725 1175 1600 
Q 1650 1650 2350 1775 
Q 2325 1500 2300 1325 
Q 1875 1275 1475 1225 
Q 1075 1175 600 1075 
Q 550 1300 450 1525 
Q 700 1625 950 1975 
Q 1200 2325 1475 2775 
Q 1125 2750 900 2725 
Q 675 2700 450 2625 
Q 375 2875 275 3100 
Q 550 3300 825 3912 
Q 1100 4525 1250 5150 
Q 1525 4950 1800 4825 
z
M 2250 725 
Q 2250 475 2275 325 
Q 1975 250 1487 112 
Q 1000 -25 575 -200 
Q 500 50 375 300 
Q 925 375 1325 475 
Q 1725 575 2250 725 
z
M 3050 2175 
Q 3150 2025 3525 1450 
Q 3300 1325 3125 1175 
Q 2950 1525 2650 1900 
Q 2850 2050 3050 2175 
z
" transform="scale(0.015625)"/>
       </defs>
       <use xlink:href="#SimHei-7eff"/>
       <use xlink:href="#SimHei-5149" transform="translate(100 0)"/>
      </g>
     </g>
    </g>
    <g id="xtick_12">
     <g id="line2d_45">
      <path d="M 442.313125 531.199375 
L 442.313125 305.12625 
" clip-path="url(#p74b166e3dc)" style="fill: none; stroke: #b0b0b0; stroke-opacity: 0.3; stroke-width: 0.8; stroke-linecap: square"/>
     </g>
     <g id="line2d_46">
      <g>
       <use xlink:href="#m0b6daf2c84" x="442.313125" y="531.199375" style="stroke: #000000; stroke-width: 0.8"/>
      </g>
     </g>
     <g id="text_26">
      <!-- 红光 -->
      <g transform="translate(432.313125 545.894687) scale(0.1 -0.1)">
       <defs>
        <path id="SimHei-7ea2" d="M 4975 4375 
Q 5400 4375 5850 4400 
L 5850 3950 
Q 5400 3975 4975 3975 
L 4600 3975 
L 4600 175 
L 5125 175 
Q 5550 175 6025 200 
L 6025 -275 
Q 5550 -250 5125 -250 
L 3600 -250 
Q 3225 -250 2750 -275 
L 2750 200 
Q 3225 175 3625 175 
L 4125 175 
L 4125 3975 
L 3850 3975 
Q 3375 3975 2950 3950 
L 2950 4400 
Q 3400 4375 3800 4375 
L 4975 4375 
z
M 2775 1775 
Q 2725 1525 2725 1350 
Q 1475 1175 1200 1112 
Q 925 1050 675 975 
Q 575 1250 475 1425 
Q 775 1550 1062 1887 
Q 1350 2225 1700 2750 
Q 1450 2725 1125 2700 
Q 800 2675 475 2575 
Q 375 2825 275 3050 
Q 500 3075 900 3737 
Q 1300 4400 1525 5100 
Q 1825 4925 2050 4850 
Q 1850 4600 1625 4187 
Q 1400 3775 925 3075 
Q 1525 3100 1950 3125 
Q 2275 3700 2375 3975 
Q 2550 3825 2850 3650 
Q 2700 3475 2412 3037 
Q 2125 2600 1300 1550 
Q 2025 1650 2775 1775 
z
M 2825 750 
Q 2825 550 2850 300 
Q 1500 -50 1187 -162 
Q 875 -275 625 -375 
Q 525 -50 400 175 
Q 825 250 1337 362 
Q 1850 475 2825 750 
z
" transform="scale(0.015625)"/>
       </defs>
       <use xlink:href="#SimHei-7ea2"/>
       <use xlink:href="#SimHei-5149" transform="translate(100 0)"/>
      </g>
     </g>
    </g>
    <g id="xtick_13">
     <g id="line2d_47">
      <path d="M 597.041365 531.199375 
L 597.041365 305.12625 
" clip-path="url(#p74b166e3dc)" style="fill: none; stroke: #b0b0b0; stroke-opacity: 0.3; stroke-width: 0.8; stroke-linecap: square"/>
     </g>
     <g id="line2d_48">
      <g>
       <use xlink:href="#m0b6daf2c84" x="597.041365" y="531.199375" style="stroke: #000000; stroke-width: 0.8"/>
      </g>
     </g>
     <g id="text_27">
      <!-- 暖白光 -->
      <g transform="translate(582.041365 546.24625) scale(0.1 -0.1)">
       <defs>
        <path id="SimHei-6696" d="M 2750 -350 
Q 3575 -175 4150 300 
Q 3800 675 3575 1025 
Q 3250 500 2450 -225 
Q 2325 -50 2000 50 
Q 3075 750 3575 2100 
Q 2825 2100 2500 2075 
L 2500 2475 
Q 2800 2450 3650 2450 
Q 3725 2650 3750 3000 
Q 3075 3000 2725 2975 
L 2725 3375 
Q 3175 3350 3600 3350 
L 4775 3350 
Q 5225 4300 5275 4575 
Q 5525 4450 5800 4325 
Q 5600 4075 5250 3375 
Q 5575 3375 5900 3400 
L 5900 3000 
L 4225 3000 
Q 4175 2650 4125 2450 
L 5350 2450 
Q 5725 2450 6050 2475 
L 6050 2075 
Q 5750 2100 5375 2100 
L 4050 2100 
L 3900 1700 
L 5700 1700 
Q 5575 1350 5375 1025 
Q 5175 700 4850 325 
Q 5350 -50 6150 -275 
Q 5950 -400 5800 -675 
Q 5150 -450 4500 50 
Q 4025 -375 3150 -700 
Q 3025 -500 2750 -350 
z
M 2275 4700 
Q 2250 4125 2250 3575 
L 2250 1700 
Q 2250 1075 2275 450 
L 1800 450 
L 1800 825 
L 950 825 
L 950 250 
L 475 250 
Q 475 850 500 1475 
L 500 3575 
Q 500 4125 475 4700 
L 2275 4700 
z
M 2575 4875 
Q 3425 4900 4287 5012 
Q 5150 5125 5500 5250 
Q 5625 4975 5825 4775 
Q 5125 4725 4350 4637 
Q 3575 4550 2775 4425 
Q 2700 4725 2575 4875 
z
M 1800 1200 
L 1800 2600 
L 950 2600 
L 950 1200 
L 1800 1200 
z
M 1800 2975 
L 1800 4300 
L 950 4300 
L 950 2975 
L 1800 2975 
z
M 4500 575 
Q 4850 950 5025 1325 
L 3900 1325 
Q 4150 875 4500 575 
z
M 4125 3525 
Q 3950 3975 3725 4300 
Q 3925 4375 4100 4500 
Q 4375 4050 4525 3700 
Q 4325 3600 4125 3525 
z
M 2975 4375 
Q 3250 4050 3525 3650 
Q 3325 3550 3150 3425 
Q 2900 3850 2650 4100 
Q 2850 4275 2975 4375 
z
" transform="scale(0.015625)"/>
        <path id="SimHei-767d" d="M 3175 4975 
Q 3050 4850 2925 4637 
Q 2800 4425 2675 4175 
L 5550 4175 
Q 5525 3675 5525 2950 
L 5525 725 
Q 5525 175 5550 -500 
L 5025 -500 
L 5025 125 
L 1475 125 
L 1475 -550 
L 950 -550 
Q 975 200 975 700 
L 975 2950 
Q 975 3625 950 4175 
L 2200 4175 
Q 2450 4725 2575 5250 
Q 2850 5100 3175 4975 
z
M 5025 575 
L 5025 1975 
L 1475 1975 
L 1475 575 
L 5025 575 
z
M 5025 2425 
L 5025 3750 
L 1475 3750 
L 1475 2425 
L 5025 2425 
z
" transform="scale(0.015625)"/>
       </defs>
       <use xlink:href="#SimHei-6696"/>
       <use xlink:href="#SimHei-767d" transform="translate(100 0)"/>
       <use xlink:href="#SimHei-5149" transform="translate(200 0)"/>
      </g>
     </g>
    </g>
    <g id="xtick_14">
     <g id="line2d_49">
      <path d="M 751.769605 531.199375 
L 751.769605 305.12625 
" clip-path="url(#p74b166e3dc)" style="fill: none; stroke: #b0b0b0; stroke-opacity: 0.3; stroke-width: 0.8; stroke-linecap: square"/>
     </g>
     <g id="line2d_50">
      <g>
       <use xlink:href="#m0b6daf2c84" x="751.769605" y="531.199375" style="stroke: #000000; stroke-width: 0.8"/>
      </g>
     </g>
     <g id="text_28">
      <!-- 冷白光 -->
      <g transform="translate(736.769605 546.207187) scale(0.1 -0.1)">
       <defs>
        <path id="SimHei-51b7" d="M 4425 -675 
Q 3950 -150 2800 725 
Q 2950 925 3075 1125 
Q 3600 725 3875 500 
Q 4200 925 4725 1675 
L 3050 1675 
Q 2625 1675 2200 1650 
L 2200 2125 
Q 2625 2100 3050 2100 
L 5650 2100 
Q 5425 1775 4225 200 
Q 4425 50 4800 -275 
Q 4600 -500 4425 -675 
z
M 4050 4775 
Q 4900 3400 6175 2850 
Q 6000 2675 5800 2375 
Q 4675 3025 3825 4350 
Q 3250 3225 2150 2300 
Q 1925 2550 1750 2675 
Q 2450 3075 2962 3800 
Q 3475 4525 3650 5250 
Q 3975 5100 4200 5025 
Q 4125 4925 4050 4775 
z
M 1825 2350 
Q 1525 1750 1225 1125 
Q 925 500 700 100 
Q 500 275 225 425 
Q 575 900 875 1475 
Q 1175 2050 1400 2650 
Q 1600 2450 1825 2350 
z
M 825 4700 
Q 1425 4075 1850 3575 
Q 1650 3425 1450 3200 
Q 1175 3625 450 4350 
Q 625 4500 825 4700 
z
M 3775 3475 
Q 4075 3125 4525 2550 
Q 4350 2425 4125 2225 
Q 3725 2850 3425 3150 
Q 3600 3300 3775 3475 
z
" transform="scale(0.015625)"/>
       </defs>
       <use xlink:href="#SimHei-51b7"/>
       <use xlink:href="#SimHei-767d" transform="translate(100 0)"/>
       <use xlink:href="#SimHei-5149" transform="translate(200 0)"/>
      </g>
     </g>
    </g>
    <g id="text_29">
     <!-- LED通道 -->
     <g transform="translate(424.813125 559.504062) scale(0.1 -0.1)">
      <defs>
       <path id="SimHei-4c" d="M 2900 125 
L 300 125 
L 300 4400 
L 875 4400 
L 875 600 
L 2900 600 
L 2900 125 
z
" transform="scale(0.015625)"/>
       <path id="SimHei-45" d="M 2900 125 
L 350 125 
L 350 4400 
L 2775 4400 
L 2775 3925 
L 925 3925 
L 925 2600 
L 2625 2600 
L 2625 2125 
L 925 2125 
L 925 600 
L 2900 600 
L 2900 125 
z
" transform="scale(0.015625)"/>
       <path id="SimHei-44" d="M 2925 2250 
Q 2925 1100 2437 612 
Q 1950 125 1125 125 
L 275 125 
L 275 4400 
L 1125 4400 
Q 2050 4400 2487 3900 
Q 2925 3400 2925 2250 
z
M 2325 2250 
Q 2325 3175 2025 3550 
Q 1725 3925 1125 3925 
L 850 3925 
L 850 600 
L 1125 600 
Q 1725 600 2025 962 
Q 2325 1325 2325 2250 
z
" transform="scale(0.015625)"/>
       <path id="SimHei-901a" d="M 5675 5050 
Q 5325 4650 4937 4300 
Q 4550 3950 4250 3650 
L 5700 3650 
Q 5675 3100 5675 2575 
L 5675 850 
Q 5700 525 5500 425 
Q 5300 325 4900 250 
Q 4850 475 4650 775 
Q 5025 800 5150 850 
Q 5275 900 5250 1325 
L 4125 1325 
L 4125 300 
L 3675 300 
L 3675 1325 
L 2575 1325 
L 2575 300 
L 2125 300 
Q 2150 1125 2150 1950 
Q 2150 2775 2125 3650 
L 3600 3650 
Q 3475 3850 3050 4200 
Q 3225 4350 3375 4525 
Q 3825 4175 4000 4000 
Q 4400 4425 4625 4650 
L 3025 4650 
Q 2525 4650 2150 4625 
L 2150 5075 
Q 2525 5050 2975 5050 
L 5675 5050 
z
M 1425 3000 
Q 1400 2500 1400 2100 
L 1400 600 
Q 2025 -25 3700 -25 
Q 5375 -25 6150 125 
Q 6000 -175 5975 -500 
Q 3975 -525 3137 -450 
Q 2300 -375 1775 -112 
Q 1250 150 1075 -37 
Q 900 -225 650 -650 
Q 425 -400 200 -225 
Q 600 125 975 425 
L 975 2575 
Q 775 2575 350 2550 
L 350 3025 
Q 750 3000 1425 3000 
z
M 5250 1725 
L 5250 2325 
L 4125 2325 
L 4125 1725 
L 5250 1725 
z
M 3675 1725 
L 3675 2325 
L 2575 2325 
L 2575 1725 
L 3675 1725 
z
M 5250 2725 
L 5250 3275 
L 4125 3275 
L 4125 2725 
L 5250 2725 
z
M 3675 2725 
L 3675 3275 
L 2575 3275 
L 2575 2725 
L 3675 2725 
z
M 1025 5025 
Q 1450 4425 1700 4075 
Q 1425 3925 1250 3725 
Q 1075 4100 600 4725 
Q 800 4875 1025 5025 
z
" transform="scale(0.015625)"/>
       <path id="SimHei-9053" d="M 1975 4325 
Q 2350 4300 4250 4300 
Q 4450 4775 4625 5275 
Q 4950 5150 5175 5075 
Q 5000 4900 4725 4300 
Q 5700 4300 6125 4325 
L 6125 3875 
Q 5700 3900 4225 3900 
L 4100 3400 
L 5550 3400 
Q 5525 2800 5525 1825 
Q 5525 875 5550 400 
L 2425 400 
Q 2475 950 2475 1825 
Q 2475 2700 2450 3400 
L 3575 3400 
L 3700 3900 
Q 2350 3900 1975 3875 
L 1975 4325 
z
M 300 2825 
Q 700 2800 1000 2800 
L 1525 2800 
Q 1500 2400 1500 1950 
L 1500 550 
Q 2150 -50 3700 -50 
Q 5275 -50 6100 75 
Q 5975 -225 5900 -525 
Q 4925 -550 4212 -537 
Q 3500 -525 3025 -475 
Q 2550 -425 2250 -312 
Q 1950 -200 1637 12 
Q 1325 225 1125 25 
Q 925 -175 650 -550 
Q 425 -325 200 -175 
Q 575 75 1025 525 
L 1025 2400 
Q 650 2400 300 2375 
L 300 2825 
z
M 5050 800 
L 5050 1300 
L 2975 1300 
L 2975 800 
L 5050 800 
z
M 5050 1675 
L 5050 2150 
L 2975 2150 
L 2975 1675 
L 5050 1675 
z
M 5050 2525 
L 5050 3000 
L 2975 3000 
L 2975 2525 
L 5050 2525 
z
M 1025 3675 
Q 925 4125 700 4800 
Q 1000 4850 1225 4950 
Q 1400 4450 1550 3850 
Q 1300 3800 1025 3675 
z
M 3025 5275 
Q 3350 4875 3550 4600 
Q 3350 4475 3150 4325 
Q 2975 4625 2650 5000 
Q 2825 5125 3025 5275 
z
" transform="scale(0.015625)"/>
      </defs>
      <use xlink:href="#SimHei-4c"/>
      <use xlink:href="#SimHei-45" transform="translate(50 0)"/>
      <use xlink:href="#SimHei-44" transform="translate(100 0)"/>
      <use xlink:href="#SimHei-901a" transform="translate(150 0)"/>
      <use xlink:href="#SimHei-9053" transform="translate(250 0)"/>
     </g>
    </g>
   </g>
   <g id="matplotlib.axis_4">
    <g id="ytick_10">
     <g id="line2d_51">
      <path d="M 42.340625 531.199375 
L 842.285625 531.199375 
" clip-path="url(#p74b166e3dc)" style="fill: none; stroke: #b0b0b0; stroke-opacity: 0.3; stroke-width: 0.8; stroke-linecap: square"/>
     </g>
     <g id="line2d_52">
      <g>
       <use xlink:href="#me500de7ca5" x="42.340625" y="531.199375" style="stroke: #000000; stroke-width: 0.8"/>
      </g>
     </g>
     <g id="text_30">
      <!-- 0.0 -->
      <g transform="translate(20.340625 534.636875) scale(0.1 -0.1)">
       <defs>
        <path id="SimHei-2e" d="M 1075 125 
L 500 125 
L 500 675 
L 1075 675 
L 1075 125 
z
" transform="scale(0.015625)"/>
       </defs>
       <use xlink:href="#SimHei-30"/>
       <use xlink:href="#SimHei-2e" transform="translate(50 0)"/>
       <use xlink:href="#SimHei-30" transform="translate(100 0)"/>
      </g>
     </g>
    </g>
    <g id="ytick_11">
     <g id="line2d_53">
      <path d="M 42.340625 481.414977 
L 842.285625 481.414977 
" clip-path="url(#p74b166e3dc)" style="fill: none; stroke: #b0b0b0; stroke-opacity: 0.3; stroke-width: 0.8; stroke-linecap: square"/>
     </g>
     <g id="line2d_54">
      <g>
       <use xlink:href="#me500de7ca5" x="42.340625" y="481.414977" style="stroke: #000000; stroke-width: 0.8"/>
      </g>
     </g>
     <g id="text_31">
      <!-- 0.1 -->
      <g transform="translate(20.340625 484.852477) scale(0.1 -0.1)">
       <use xlink:href="#SimHei-30"/>
       <use xlink:href="#SimHei-2e" transform="translate(50 0)"/>
       <use xlink:href="#SimHei-31" transform="translate(100 0)"/>
      </g>
     </g>
    </g>
    <g id="ytick_12">
     <g id="line2d_55">
      <path d="M 42.340625 431.630578 
L 842.285625 431.630578 
" clip-path="url(#p74b166e3dc)" style="fill: none; stroke: #b0b0b0; stroke-opacity: 0.3; stroke-width: 0.8; stroke-linecap: square"/>
     </g>
     <g id="line2d_56">
      <g>
       <use xlink:href="#me500de7ca5" x="42.340625" y="431.630578" style="stroke: #000000; stroke-width: 0.8"/>
      </g>
     </g>
     <g id="text_32">
      <!-- 0.2 -->
      <g transform="translate(20.340625 435.068078) scale(0.1 -0.1)">
       <use xlink:href="#SimHei-30"/>
       <use xlink:href="#SimHei-2e" transform="translate(50 0)"/>
       <use xlink:href="#SimHei-32" transform="translate(100 0)"/>
      </g>
     </g>
    </g>
    <g id="ytick_13">
     <g id="line2d_57">
      <path d="M 42.340625 381.84618 
L 842.285625 381.84618 
" clip-path="url(#p74b166e3dc)" style="fill: none; stroke: #b0b0b0; stroke-opacity: 0.3; stroke-width: 0.8; stroke-linecap: square"/>
     </g>
     <g id="line2d_58">
      <g>
       <use xlink:href="#me500de7ca5" x="42.340625" y="381.84618" style="stroke: #000000; stroke-width: 0.8"/>
      </g>
     </g>
     <g id="text_33">
      <!-- 0.3 -->
      <g transform="translate(20.340625 385.28368) scale(0.1 -0.1)">
       <use xlink:href="#SimHei-30"/>
       <use xlink:href="#SimHei-2e" transform="translate(50 0)"/>
       <use xlink:href="#SimHei-33" transform="translate(100 0)"/>
      </g>
     </g>
    </g>
    <g id="ytick_14">
     <g id="line2d_59">
      <path d="M 42.340625 332.061781 
L 842.285625 332.061781 
" clip-path="url(#p74b166e3dc)" style="fill: none; stroke: #b0b0b0; stroke-opacity: 0.3; stroke-width: 0.8; stroke-linecap: square"/>
     </g>
     <g id="line2d_60">
      <g>
       <use xlink:href="#me500de7ca5" x="42.340625" y="332.061781" style="stroke: #000000; stroke-width: 0.8"/>
      </g>
     </g>
     <g id="text_34">
      <!-- 0.4 -->
      <g transform="translate(20.340625 335.499281) scale(0.1 -0.1)">
       <use xlink:href="#SimHei-30"/>
       <use xlink:href="#SimHei-2e" transform="translate(50 0)"/>
       <use xlink:href="#SimHei-34" transform="translate(100 0)"/>
      </g>
     </g>
    </g>
    <g id="text_35">
     <!-- 权重 -->
     <g transform="translate(15.090625 428.162812) rotate(-90) scale(0.1 -0.1)">
      <defs>
       <path id="SimHei-6743" d="M 2700 4575 
Q 3250 4550 3725 4550 
L 5675 4550 
Q 5575 3500 5337 2737 
Q 5100 1975 4475 1075 
Q 4775 675 5200 425 
Q 5625 175 6175 0 
Q 5825 -275 5750 -500 
Q 5175 -225 4775 100 
Q 4375 425 4150 725 
Q 3825 350 3475 62 
Q 3125 -225 2500 -600 
Q 2400 -350 2100 -125 
Q 2475 0 2950 275 
Q 3425 550 3850 1075 
Q 3625 1375 3400 2037 
Q 3175 2700 3050 4125 
L 2700 4125 
L 2700 4575 
z
M 200 1350 
Q 575 1750 825 2275 
Q 1075 2800 1250 3450 
Q 825 3450 425 3425 
L 425 3875 
Q 875 3850 1325 3850 
Q 1325 4900 1300 5250 
L 1850 5250 
Q 1800 4950 1800 3850 
Q 2175 3850 2600 3875 
L 2600 3425 
Q 2175 3450 1800 3450 
L 1800 2525 
Q 1975 2625 2175 2775 
Q 2625 2175 2750 1875 
Q 2475 1725 2325 1575 
Q 2200 1925 1800 2375 
L 1800 525 
Q 1800 0 1825 -600 
L 1275 -600 
Q 1325 0 1325 525 
L 1325 2375 
Q 1125 1675 575 900 
Q 425 1225 200 1350 
z
M 3525 4150 
Q 3675 2850 3787 2412 
Q 3900 1975 4175 1475 
Q 4475 1925 4750 2587 
Q 5025 3250 5100 4150 
L 3525 4150 
z
" transform="scale(0.015625)"/>
       <path id="SimHei-91cd" d="M 5300 4575 
Q 3900 4450 3425 4400 
L 3425 3875 
L 5150 3875 
Q 5500 3875 6000 3900 
L 6000 3450 
Q 5500 3475 5150 3475 
L 3425 3475 
L 3425 3050 
L 5150 3050 
Q 5125 2675 5125 2125 
Q 5125 1575 5150 1175 
L 3425 1175 
L 3425 750 
L 4550 750 
Q 5000 750 5500 775 
L 5500 375 
Q 5025 400 4575 400 
L 3425 400 
L 3425 -50 
L 5050 -50 
Q 5475 -50 5975 -25 
L 5975 -450 
Q 5475 -425 5075 -425 
L 1475 -425 
Q 975 -425 450 -450 
L 450 -25 
Q 975 -50 1450 -50 
L 2925 -50 
L 2925 400 
L 2050 400 
Q 1450 400 950 375 
L 950 775 
Q 1600 750 2075 750 
L 2925 750 
L 2925 1175 
L 1250 1175 
Q 1275 1800 1275 2125 
Q 1275 2450 1250 3050 
L 2925 3050 
L 2925 3475 
L 1225 3475 
Q 875 3475 400 3450 
L 400 3900 
Q 875 3875 1225 3875 
L 2925 3875 
L 2925 4375 
Q 2425 4350 1075 4250 
Q 1000 4475 875 4675 
Q 2275 4700 3362 4812 
Q 4450 4925 4925 5075 
Q 5025 4825 5300 4575 
z
M 4650 2300 
L 4650 2650 
L 3425 2650 
L 3425 2300 
L 4650 2300 
z
M 2925 2300 
L 2925 2650 
L 1750 2650 
L 1750 2300 
L 2925 2300 
z
M 4625 1575 
L 4625 1900 
L 3425 1900 
L 3425 1575 
L 4625 1575 
z
M 2925 1575 
L 2925 1900 
L 1750 1900 
L 1750 1575 
L 2925 1575 
z
" transform="scale(0.015625)"/>
      </defs>
      <use xlink:href="#SimHei-6743"/>
      <use xlink:href="#SimHei-91cd" transform="translate(100 0)"/>
     </g>
    </g>
   </g>
   <g id="patch_19">
    <path d="M 42.340625 531.199375 
L 42.340625 305.12625 
" style="fill: none; stroke: #000000; stroke-width: 0.8; stroke-linejoin: miter; stroke-linecap: square"/>
   </g>
   <g id="patch_20">
    <path d="M 842.285625 531.199375 
L 842.285625 305.12625 
" style="fill: none; stroke: #000000; stroke-width: 0.8; stroke-linejoin: miter; stroke-linecap: square"/>
   </g>
   <g id="patch_21">
    <path d="M 42.340625 531.199375 
L 842.285625 531.199375 
" style="fill: none; stroke: #000000; stroke-width: 0.8; stroke-linejoin: miter; stroke-linecap: square"/>
   </g>
   <g id="patch_22">
    <path d="M 42.340625 305.12625 
L 842.285625 305.12625 
" style="fill: none; stroke: #000000; stroke-width: 0.8; stroke-linejoin: miter; stroke-linecap: square"/>
   </g>
   <g id="text_36">
    <!-- 各通道权重对比 -->
    <g transform="translate(400.313125 299.12625) scale(0.12 -0.12)">
     <defs>
      <path id="SimHei-5404" d="M 5100 4425 
Q 4850 4000 4525 3600 
Q 4200 3200 3675 2750 
Q 4050 2500 4750 2325 
Q 5450 2150 6050 2125 
Q 5825 1825 5775 1600 
Q 5050 1750 4412 1962 
Q 3775 2175 3300 2475 
Q 2750 2150 2000 1875 
Q 1250 1600 550 1425 
Q 475 1625 275 1850 
Q 900 1950 1662 2200 
Q 2425 2450 2950 2750 
Q 2525 3150 2100 3900 
Q 1900 3575 1675 3300 
Q 1450 3025 1250 2800 
Q 1050 3000 850 3100 
Q 1200 3400 1587 3950 
Q 1975 4500 2175 5225 
Q 2450 5075 2725 5000 
Q 2600 4850 2375 4425 
L 5100 4425 
z
M 4975 1675 
Q 4950 1125 4950 400 
Q 4950 -325 4975 -575 
L 4475 -575 
L 4475 -225 
L 2050 -225 
L 2050 -625 
L 1550 -625 
Q 1575 -275 1575 400 
Q 1575 1075 1550 1675 
L 4975 1675 
z
M 4475 200 
L 4475 1250 
L 2050 1250 
L 2050 200 
L 4475 200 
z
M 3325 3000 
Q 3875 3450 4300 4025 
L 2500 4025 
Q 2975 3275 3325 3000 
z
" transform="scale(0.015625)"/>
     </defs>
     <use xlink:href="#SimHei-5404"/>
     <use xlink:href="#SimHei-901a" transform="translate(100 0)"/>
     <use xlink:href="#SimHei-9053" transform="translate(200 0)"/>
     <use xlink:href="#SimHei-6743" transform="translate(300 0)"/>
     <use xlink:href="#SimHei-91cd" transform="translate(400 0)"/>
     <use xlink:href="#SimHei-5bf9" transform="translate(500 0)"/>
     <use xlink:href="#SimHei-6bd4" transform="translate(600 0)"/>
    </g>
   </g>
   <g id="legend_2">
    <g id="patch_23">
     <path d="M 763.285625 341.759062 
L 835.285625 341.759062 
Q 837.285625 341.759062 837.285625 339.759062 
L 837.285625 312.12625 
Q 837.285625 310.12625 835.285625 310.12625 
L 763.285625 310.12625 
Q 761.285625 310.12625 761.285625 312.12625 
L 761.285625 339.759062 
Q 761.285625 341.759062 763.285625 341.759062 
z
" style="fill: #ffffff; opacity: 0.8; stroke: #cccccc; stroke-linejoin: miter"/>
    </g>
    <g id="patch_24">
     <path d="M 765.285625 322.134062 
L 785.285625 322.134062 
L 785.285625 315.134062 
L 765.285625 315.134062 
z
" style="fill: #ffa500; opacity: 0.7"/>
    </g>
    <g id="text_37">
     <!-- 日间模式 -->
     <g transform="translate(793.285625 322.134062) scale(0.1 -0.1)">
      <use xlink:href="#SimHei-65e5"/>
      <use xlink:href="#SimHei-95f4" transform="translate(100 0)"/>
      <use xlink:href="#SimHei-6a21" transform="translate(200 0)"/>
      <use xlink:href="#SimHei-5f0f" transform="translate(300 0)"/>
     </g>
    </g>
    <g id="patch_25">
     <path d="M 765.285625 336.509062 
L 785.285625 336.509062 
L 785.285625 329.509062 
L 765.285625 329.509062 
z
" style="fill: #add8e6; opacity: 0.7"/>
    </g>
    <g id="text_38">
     <!-- 夜间模式 -->
     <g transform="translate(793.285625 336.509062) scale(0.1 -0.1)">
      <use xlink:href="#SimHei-591c"/>
      <use xlink:href="#SimHei-95f4" transform="translate(100 0)"/>
      <use xlink:href="#SimHei-6a21" transform="translate(200 0)"/>
      <use xlink:href="#SimHei-5f0f" transform="translate(300 0)"/>
     </g>
    </g>
   </g>
  </g>
 </g>
 <defs>
  <clipPath id="p6a35c50289">
   <rect x="42.340625" y="22.903125" width="799.945" height="226.073125"/>
  </clipPath>
  <clipPath id="p74b166e3dc">
   <rect x="42.340625" y="305.12625" width="799.945" height="226.073125"/>
  </clipPath>
 </defs>
</svg>
